mtllib model_10.mtl
o model_10
v -112.31126403808594 98.70178985595703 -4224.2958984375 
v -131.28585815429688 98.7017822265625 -4222.6357421875 
v -125.57411193847656 98.7017822265625 -4190.24267578125 
v -134.5661163330078 98.7017822265625 -4188.6572265625 
v -143.397705078125 98.7017822265625 -4220.34814453125 
v -143.7405548095703 98.7017822265625 -4186.33251953125 
v -154.99057006835938 98.70177459716797 -4217.24169921875 
v -152.3206787109375 98.70177459716797 -4183.2099609375 
v -166.5211639404297 98.70177459716797 -4212.88525390625 
v -160.95208740234375 98.70177459716797 -4179.3271484375 
v -177.39849853515625 98.70177459716797 -4207.8134765625 
v -168.85948181152344 98.70177459716797 -4174.76171875 
v -187.9974365234375 98.70176696777344 -4201.521484375 
v -176.6856231689453 98.70177459716797 -4169.439453125 
v -197.82876586914062 98.70176696777344 -4194.63720703125 
v -183.6683349609375 98.70177459716797 -4163.58251953125 
v -207.17401123046875 98.70176696777344 -4186.599609375 
v -190.27023315429688 98.70177459716797 -4157.1630859375 
v -215.66067504882812 98.70176696777344 -4178.11376953125 
v -195.79734802246094 98.7017822265625 -4150.51123046875 
v -223.46820068359375 98.70176696777344 -4168.576171875 
v -200.84371948242188 98.70178985595703 -4143.3203125 
v -230.15155029296875 98.70176696777344 -4158.94482421875 
v -204.86497497558594 98.70179748535156 -4135.95751953125 
v -235.65817260742188 98.7017822265625 -4148.72265625 
v -208.35665893554688 98.70182037353516 -4128.0595703125 
v -240.02084350585938 98.70178985595703 -4138.55419921875 
v -210.89019775390625 98.70182037353516 -4120.0693359375 
v -243.28326416015625 98.70181274414062 -4127.734375 
v -212.92181396484375 98.70184326171875 -4111.50341796875 
v -245.63198852539062 98.70182037353516 -4116.8984375 
v -246.75254821777344 98.70184326171875 -4108.24755859375 
v -214.30682373046875 98.70184326171875 -4101.509765625 
v -248.1251678466797 98.70185089111328 -4088.48193359375 
v -215.2323760986328 98.70185852050781 -4088.48193359375 
v -125.57411193847656 98.7017822265625 -4190.24267578125 
v -112.31126403808594 98.70178985595703 -4224.2958984375 
v -112.31126403808594 98.7017822265625 -4191.4033203125 
v -247.92222595214844 98.70173645019531 -4088.48193359375 
v -247.92222595214844 98.7017593383789 -3938.81005859375 
v -215.02932739257812 98.7017593383789 -3938.81005859375 
v -215.02932739257812 98.7017822265625 -3788.48193359375 
v -247.92222595214844 98.7017593383789 -3938.81005859375 
v -247.92222595214844 98.7017822265625 -3788.48193359375 
v -247.92222595214844 98.70173645019531 -4088.48193359375 
v -215.02932739257812 98.70173645019531 -4088.48193359375 
v -215.02932739257812 98.7017593383789 -3938.81005859375 
v -247.92222595214844 98.7017822265625 -3788.48193359375 
v -247.92222595214844 98.70181274414062 -3638.81005859375 
v -215.02932739257812 98.70181274414062 -3638.81005859375 
v -215.02932739257812 98.70183563232422 -3488.48193359375 
v -247.92222595214844 98.70181274414062 -3638.81005859375 
v -247.92222595214844 98.70183563232422 -3488.48193359375 
v -247.92222595214844 98.7017822265625 -3788.48193359375 
v -215.02932739257812 98.7017822265625 -3788.48193359375 
v -215.02932739257812 98.70181274414062 -3638.81005859375 
v -247.92222595214844 98.70183563232422 -3488.48193359375 
v -247.92222595214844 98.70185852050781 -3338.81005859375 
v -215.02932739257812 98.70185852050781 -3338.81005859375 
v -215.02932739257812 98.7018814086914 -3188.48193359375 
v -247.92222595214844 98.70185852050781 -3338.81005859375 
v -247.92222595214844 98.7018814086914 -3188.48193359375 
v -247.92222595214844 98.70183563232422 -3488.48193359375 
v -215.02932739257812 98.70183563232422 -3488.48193359375 
v -215.02932739257812 98.70185852050781 -3338.81005859375 
v -215.02932739257812 98.7019271850586 -2888.48193359375 
v -215.02932739257812 98.701904296875 -3038.81005859375 
v -247.92222595214844 98.701904296875 -3038.81005859375 
v -247.92222595214844 98.7018814086914 -3188.48193359375 
v -215.02932739257812 98.701904296875 -3038.81005859375 
v -215.02932739257812 98.7018814086914 -3188.48193359375 
v -247.92222595214844 98.701904296875 -3038.81005859375 
v -215.02932739257812 98.7019271850586 -2888.48193359375 
v -247.92222595214844 98.7019271850586 -2888.48193359375 
v -215.02932739257812 98.70198059082031 -2588.48193359375 
v -215.02932739257812 98.70195007324219 -2738.81005859375 
v -247.92222595214844 98.70195007324219 -2738.81005859375 
v -247.92222595214844 98.7019271850586 -2888.48193359375 
v -215.02932739257812 98.70195007324219 -2738.81005859375 
v -215.02932739257812 98.7019271850586 -2888.48193359375 
v -247.92222595214844 98.70195007324219 -2738.81005859375 
v -215.02932739257812 98.70198059082031 -2588.48193359375 
v -247.92222595214844 98.70198059082031 -2588.48193359375 
v -215.02932739257812 98.7020263671875 -2288.48193359375 
v -215.02932739257812 98.7020034790039 -2438.81005859375 
v -247.92222595214844 98.7020034790039 -2438.81005859375 
v -247.92222595214844 98.70198059082031 -2588.48193359375 
v -215.02932739257812 98.7020034790039 -2438.81005859375 
v -215.02932739257812 98.70198059082031 -2588.48193359375 
v -247.92222595214844 98.7020034790039 -2438.81005859375 
v -215.02932739257812 98.7020263671875 -2288.48193359375 
v -247.92222595214844 98.7020263671875 -2288.48193359375 
v -247.92222595214844 98.7020263671875 -2288.48193359375 
v -247.92222595214844 98.70205688476562 -2138.810302734375 
v -215.02932739257812 98.70205688476562 -2138.810302734375 
v -215.02932739257812 98.70207977294922 -1988.48193359375 
v -247.92222595214844 98.70205688476562 -2138.810302734375 
v -247.92222595214844 98.70207977294922 -1988.48193359375 
v -247.92222595214844 98.7020263671875 -2288.48193359375 
v -215.02932739257812 98.7020263671875 -2288.48193359375 
v -215.02932739257812 98.70205688476562 -2138.810302734375 
v -247.92222595214844 98.70207977294922 -1988.48193359375 
v -215.02932739257812 98.70210266113281 -1838.810302734375 
v -215.02932739257812 98.70207977294922 -1988.48193359375 
v -215.02932739257812 98.70210266113281 -1838.810302734375 
v -247.92222595214844 98.70210266113281 -1838.810302734375 
v -215.02932739257812 98.7021255493164 -1688.48193359375 
v -247.92222595214844 98.70210266113281 -1838.810302734375 
v -247.92222595214844 98.7021255493164 -1688.48193359375 
v 1311.7734375 98.52654266357422 -775.9335327148438 
v 1311.7734375 98.52649688720703 -1075.920166015625 
v 1129.7713623046875 98.52654266357422 -775.9335327148438 
v 1129.7713623046875 98.52649688720703 -1075.920166015625 
v 1311.7734375 98.52649688720703 -1075.9481201171875 
v 1311.7734375 98.52644348144531 -1375.934814453125 
v 1129.7713623046875 98.52649688720703 -1075.9481201171875 
v 1129.7713623046875 98.52644348144531 -1375.934814453125 
v 1311.7734375 98.52644348144531 -1375.962890625 
v 1311.7734375 98.52639770507812 -1675.9493408203125 
v 1129.7713623046875 98.52644348144531 -1375.962890625 
v 1129.7713623046875 98.52639770507812 -1675.9493408203125 
v 1311.7734375 98.52639770507812 -1675.977294921875 
v 1311.7734375 98.52635192871094 -1975.9639892578125 
v 1129.7713623046875 98.52639770507812 -1675.977294921875 
v 1129.7713623046875 98.52635192871094 -1975.9639892578125 
v 1311.7734375 98.52635192871094 -1975.9920654296875 
v 1311.7734375 98.52629852294922 -2275.978515625 
v 1129.7713623046875 98.52635192871094 -1975.9920654296875 
v 1129.7713623046875 98.52629852294922 -2275.978515625 
v 1311.7734375 98.52629852294922 -2276.006591796875 
v 1311.7734375 98.52625274658203 -2575.9931640625 
v 1129.7713623046875 98.52629852294922 -2276.006591796875 
v 1129.7713623046875 98.52625274658203 -2575.9931640625 
v 1311.7734375 98.52625274658203 -2576.021484375 
v 1311.7734375 98.52619934082031 -2876.0078125 
v 1129.7713623046875 98.52625274658203 -2576.021484375 
v 1129.7713623046875 98.52619934082031 -2876.0078125 
v -248.09130859375 98.70208740234375 -1688.48193359375 
v -248.09121704101562 98.70208740234375 -1672.2545166015625 
v -215.19833374023438 98.70208740234375 -1688.48193359375 
v -215.19833374023438 98.70208740234375 -1672.2545166015625 
v -215.19833374023438 97.4723129272461 -1663.60888671875 
v -248.09121704101562 97.4723129272461 -1663.60888671875 
v -215.19833374023438 91.14331817626953 -1657.280029296875 
v -248.09121704101562 91.14331817626953 -1657.280029296875 
v -215.19833374023438 82.49774932861328 -1654.9632568359375 
v -248.09121704101562 82.49774932861328 -1654.9632568359375 
v -215.19833374023438 73.85216522216797 -1657.280029296875 
v -248.09121704101562 73.85216522216797 -1657.280029296875 
v -215.19833374023438 67.52317810058594 -1663.60888671875 
v -248.09121704101562 67.52317810058594 -1663.60888671875 
v -215.19833374023438 65.20663452148438 -1672.2545166015625 
v -248.09121704101562 65.20663452148438 -1672.2545166015625 
v -215.19833374023438 67.51164245605469 -1688.48193359375 
v -248.09130859375 67.51164245605469 -1688.48193359375 
v -215.19833374023438 63.091217041015625 -1688.48193359375 
v -248.09130859375 63.091217041015625 -1688.48193359375 
v 1311.7734375 98.52654266357422 -3257.95947265625 
v 1311.7734375 98.52649688720703 -3557.946044921875 
v 1129.7713623046875 98.52654266357422 -3257.95947265625 
v 1129.7713623046875 98.52649688720703 -3557.946044921875 
v 1311.7734375 98.52654266357422 -3923.832763671875 
v 1311.7734375 98.52649688720703 -4223.81982421875 
v 1129.7713623046875 98.52654266357422 -3923.832763671875 
v 1129.7713623046875 98.52649688720703 -4223.81982421875 
v 263.2491149902344 98.52655792236328 -4718.39453125 
v 263.2490234375 98.52650451660156 -4418.408203125 
v 445.2511901855469 98.52655792236328 -4718.39453125 
v 445.2510986328125 98.52650451660156 -4418.408203125 
v 263.2490234375 98.52650451660156 -4418.3798828125 
v 263.2489318847656 98.52645111083984 -4118.3935546875 
v 445.2510986328125 98.52650451660156 -4418.3798828125 
v 445.2509765625 98.52645111083984 -4118.39306640625 
v 263.2489318847656 98.52645111083984 -4118.365234375 
v 263.24884033203125 98.52640533447266 -3818.37841796875 
v 445.2509765625 98.52645111083984 -4118.365234375 
v 445.2508850097656 98.52640533447266 -3818.37841796875 
v 263.24884033203125 98.52640533447266 -3818.3505859375 
v 263.24871826171875 98.52635192871094 -3518.364013671875 
v 445.2508850097656 98.52640533447266 -3818.3505859375 
v 445.25079345703125 98.52635192871094 -3518.364013671875 
v 639.3031005859375 98.52655029296875 -4907.81103515625 
v 939.2896728515625 98.52649688720703 -4907.81103515625 
v 639.30322265625 98.52655029296875 -5089.8125 
v 939.2897338867188 98.52649688720703 -5089.8125 
v -112.31126403808594 98.70179748535156 -4191.23388671875 
v 38.01708221435547 98.70177459716797 -4191.23388671875 
v 38.01708221435547 98.7017822265625 -4224.126953125 
v 187.68873596191406 98.7017593383789 -4224.126953125 
v 187.68873596191406 98.7017593383789 -4224.126953125 
v 38.01708221435547 98.70177459716797 -4191.23388671875 
v 187.68873596191406 98.70175170898438 -4191.23388671875 
v 38.01708221435547 98.7017822265625 -4224.126953125 
v -112.31126403808594 98.70179748535156 -4191.23388671875 
v -112.31126403808594 98.7018051147461 -4224.126953125 
v 1304.4739990234375 60.630096435546875 -4779.01171875 
v 1136.4434814453125 59.27945327758789 -4804.37109375 
v 1305.082763671875 59.279449462890625 -4837.70068359375 
v 1127.2872314453125 59.279449462890625 -4843.208984375 
v 1275.9951171875 59.27943420410156 -4931.2998046875 
v 1105.39990234375 59.279441833496094 -4876.5732421875 
v 1216.6490478515625 59.279422760009766 -5009.3056640625 
v 1073.4212646484375 59.279441833496094 -4900.439453125 
v 1134.2025146484375 59.27941131591797 -5062.30908203125 
v 1035.2086181640625 59.27943420410156 -4911.9287109375 
v 1038.599609375 59.27941131591797 -5083.91796875 
v 1003.0066528320312 60.63007736206055 -5081.17529296875 
v 1003.0067138671875 60.63010025024414 -4913.3779296875 
v 997.250244140625 89.56957244873047 -5081.17529296875 
v 997.250244140625 89.56959533691406 -4913.3779296875 
v 1003.0067138671875 93.41590118408203 -5081.17529296875 
v 1003.0067138671875 93.41592407226562 -4911.95751953125 
v 1007.1369018554688 93.58473205566406 -5081.17529296875 
v 1007.1368408203125 93.58475494384766 -4911.95751953125 
v 1011.2669677734375 93.75355529785156 -5081.17529296875 
v 1011.2669677734375 93.75358581542969 -4911.95751953125 
v 1015.3971557617188 93.9223861694336 -5081.17529296875 
v 1015.3971557617188 93.92240905761719 -4911.95751953125 
v 1019.5272216796875 94.09121704101562 -5081.17529296875 
v 1019.5272216796875 94.09123992919922 -4911.95751953125 
v 1023.6574096679688 94.26004791259766 -5081.17529296875 
v 1023.6574096679688 94.26007080078125 -4911.95751953125 
v 1027.78759765625 94.42887878417969 -5081.17529296875 
v 1027.78759765625 94.42890167236328 -4911.95751953125 
v 1031.917724609375 94.59770965576172 -5081.17529296875 
v 1031.917724609375 94.59773254394531 -4911.95751953125 
v 1036.0478515625 94.76654052734375 -5081.17529296875 
v 1036.0479736328125 94.76656341552734 -4911.95751953125 
v 1048.234619140625 94.76654052734375 -5079.51953125 
v 1040.888427734375 94.76656341552734 -4910.9443359375 
v 1060.421142578125 94.76654052734375 -5077.8642578125 
v 1045.72900390625 94.76656341552734 -4909.93212890625 
v 1072.6077880859375 94.76653289794922 -5076.20849609375 
v 1050.569580078125 94.76656341552734 -4908.9189453125 
v 1084.7945556640625 94.76653289794922 -5074.552734375 
v 1055.41015625 94.76656341552734 -4907.90576171875 
v 1096.508544921875 94.76653289794922 -5070.80615234375 
v 1060.0013427734375 94.76656341552734 -4906.06787109375 
v 1108.2225341796875 94.76654052734375 -5067.06005859375 
v 1064.592529296875 94.76656341552734 -4904.2294921875 
v 1119.9366455078125 94.76654052734375 -5063.3134765625 
v 1069.18359375 94.76657104492188 -4902.3916015625 
v 1131.6507568359375 94.76654052734375 -5059.56640625 
v 1073.7747802734375 94.76657104492188 -4900.5537109375 
v 1142.5361328125 94.76654052734375 -5053.8427734375 
v 1077.97705078125 94.76657104492188 -4897.9462890625 
v 1153.421630859375 94.76654815673828 -5048.11865234375 
v 1082.17919921875 94.76657104492188 -4895.33935546875 
v 1164.3072509765625 94.76654815673828 -5042.39501953125 
v 1086.381591796875 94.76656341552734 -4892.7314453125 
v 1175.192626953125 94.76654052734375 -5036.67138671875 
v 1090.583740234375 94.76656341552734 -4890.12451171875 
v 1184.9188232421875 94.76654815673828 -5029.14453125 
v 1094.2694091796875 94.76656341552734 -4886.8271484375 
v 1194.6448974609375 94.76654815673828 -5021.6171875 
v 1097.9549560546875 94.76657104492188 -4883.52880859375 
v 1204.3712158203125 94.76654815673828 -5014.08984375 
v 1101.6405029296875 94.76657104492188 -4880.2314453125 
v 1214.0972900390625 94.76654815673828 -5006.56298828125 
v 1105.326171875 94.76657104492188 -4876.93408203125 
v 1222.36865234375 94.76654815673828 -4997.4609375 
v 1108.3831787109375 94.76657104492188 -4873.046875 
v 1230.6400146484375 94.76654815673828 -4988.35888671875 
v 1111.4403076171875 94.76657104492188 -4869.15966796875 
v 1238.911376953125 94.76654815673828 -4979.2578125 
v 1114.497314453125 94.7665786743164 -4865.27197265625 
v 1247.1826171875 94.76655578613281 -4970.15625 
v 1117.5543212890625 94.7665786743164 -4861.384765625 
v 1253.747802734375 94.76654815673828 -4959.75634765625 
v 1119.889892578125 94.76657104492188 -4857.02587890625 
v 1260.31298828125 94.76655578613281 -4949.35595703125 
v 1122.225341796875 94.76657104492188 -4852.66650390625 
v 1266.878173828125 94.76656341552734 -4938.95654296875 
v 1124.560791015625 94.76657104492188 -4848.30712890625 
v 1273.443359375 94.76655578613281 -4928.556640625 
v 1126.8963623046875 94.7665786743164 -4843.9482421875 
v 1278.10302734375 94.76656341552734 -4917.17529296875 
v 1128.4395751953125 94.7665786743164 -4839.24951171875 
v 1282.7625732421875 94.76656341552734 -4905.7939453125 
v 1129.9825439453125 94.7665786743164 -4834.55126953125 
v 1287.422119140625 94.76657104492188 -4894.41162109375 
v 1131.5257568359375 94.7665786743164 -4829.8525390625 
v 1292.0816650390625 94.76657104492188 -4883.02978515625 
v 1133.06884765625 94.7665786743164 -4825.154296875 
v 1294.6939697265625 94.76657104492188 -4871.01220703125 
v 1133.772705078125 94.7665786743164 -4820.25927734375 
v 1297.3062744140625 94.7665786743164 -4858.994140625 
v 1134.476318359375 94.7665786743164 -4815.3642578125 
v 1299.918701171875 94.7665786743164 -4846.9755859375 
v 1135.1800537109375 94.7665786743164 -4810.46923828125 
v 1302.531005859375 94.7665786743164 -4834.9580078125 
v 1135.8839111328125 94.7665786743164 -4805.57421875 
v 1303.0166015625 94.7665786743164 -4822.66943359375 
v 1135.7269287109375 94.7665786743164 -4800.630859375 
v 1303.50244140625 94.7665786743164 -4810.3798828125 
v 1135.5699462890625 94.7665786743164 -4795.68798828125 
v 1303.98828125 94.7665786743164 -4798.09130859375 
v 1135.4130859375 94.76658630371094 -4790.74462890625 
v 1304.4739990234375 94.76658630371094 -4785.8017578125 
v 1135.256103515625 94.76658630371094 -4785.8017578125 
v 1135.256103515625 93.41592407226562 -4779.01171875 
v 1304.4739990234375 93.41592407226562 -4779.01171875 
v 1136.676513671875 89.56961059570312 -4773.25537109375 
v 1304.4739990234375 89.56961059570312 -4773.25537109375 
v 1136.676513671875 83.81318664550781 -4769.4091796875 
v 1304.4739990234375 83.81318664550781 -4769.4091796875 
v 1136.676513671875 77.02302551269531 -4768.05859375 
v 1304.4739990234375 77.02302551269531 -4768.05859375 
v 1304.4739990234375 70.23286437988281 -4769.4091796875 
v 1136.676513671875 70.23286437988281 -4769.4091796875 
v 1136.676513671875 64.47643280029297 -4773.25537109375 
v 1304.4739990234375 64.47643280029297 -4773.25537109375 
v 1136.676513671875 60.630096435546875 -4779.01171875 
v 1304.4739990234375 64.47643280029297 -4773.25537109375 
v 1304.4739990234375 60.630096435546875 -4779.01171875 
v 1136.4434814453125 59.27945327758789 -4804.37109375 
v 1136.676513671875 60.630096435546875 -4779.01171875 
v 1304.4739990234375 60.630096435546875 -4779.01171875 
v 993.4039306640625 83.81314849853516 -5081.17529296875 
v 993.4039916992188 83.81317138671875 -4913.3779296875 
v 992.0533447265625 77.0229721069336 -5081.17529296875 
v 992.0533447265625 77.02300262451172 -4913.3779296875 
v 993.4039306640625 70.2328109741211 -5081.17529296875 
v 993.4039306640625 70.23284149169922 -4913.3779296875 
v 997.250244140625 64.47640991210938 -4913.3779296875 
v 997.2501831054688 64.47638702392578 -5081.17529296875 
v 1003.0066528320312 60.63007736206055 -5081.17529296875 
v 997.250244140625 64.47640991210938 -4913.3779296875 
v 1003.0067138671875 60.63010025024414 -4913.3779296875 
v 1003.0066528320312 60.63007736206055 -5081.17529296875 
v 573.96923828125 60.63010787963867 -5079.32958984375 
v 548.6098022460938 59.27946090698242 -4911.29931640625 
v 515.2802734375 59.27945327758789 -5079.9384765625 
v 509.77191162109375 59.27945327758789 -4902.14306640625 
v 421.6813049316406 59.27943420410156 -5050.8505859375 
v 476.4078063964844 59.279449462890625 -4880.2548828125 
v 343.67559814453125 59.2794303894043 -4991.5048828125 
v 452.541748046875 59.279441833496094 -4848.2763671875 
v 290.67181396484375 59.2794189453125 -4909.05859375 
v 441.05224609375 59.279449462890625 -4810.06396484375 
v 269.06298828125 59.27941131591797 -4813.455078125 
v 271.8056640625 60.63007736206055 -4777.8623046875 
v 439.6032409667969 60.63010787963867 -4777.8623046875 
v 271.8057556152344 89.569580078125 -4772.10595703125 
v 439.6031494140625 89.5696029663086 -4772.10595703125 
v 271.8056640625 93.41590118408203 -4777.8623046875 
v 441.0235290527344 93.41592407226562 -4777.8623046875 
v 271.8056640625 93.58473205566406 -4781.9921875 
v 441.0235290527344 93.58475494384766 -4781.9921875 
v 271.8056640625 93.7535629272461 -4786.123046875 
v 441.0235290527344 93.75358581542969 -4786.123046875 
v 271.8056640625 93.92239379882812 -4790.2529296875 
v 441.0235290527344 93.92241668701172 -4790.2529296875 
v 271.8056640625 94.09121704101562 -4794.38330078125 
v 441.0235290527344 94.09124755859375 -4794.38330078125 
v 271.8056640625 94.26004791259766 -4798.51318359375 
v 441.0235290527344 94.26007843017578 -4798.51318359375 
v 271.8056640625 94.42888641357422 -4802.642578125 
v 441.0235290527344 94.42890930175781 -4802.642578125 
v 271.8056640625 94.59771728515625 -4806.7734375 
v 441.0235290527344 94.59774017333984 -4806.7734375 
v 271.8056640625 94.76654815673828 -4810.9033203125 
v 441.0235290527344 94.7665786743164 -4810.9033203125 
v 273.46124267578125 94.76654815673828 -4823.09033203125 
v 442.03643798828125 94.76657104492188 -4815.744140625 
v 275.1168212890625 94.76654052734375 -4835.27685546875 
v 443.0493469238281 94.76657104492188 -4820.5849609375 
v 276.77239990234375 94.76654815673828 -4847.46337890625 
v 444.0622253417969 94.76657104492188 -4825.4248046875 
v 278.427978515625 94.76654815673828 -4859.650390625 
v 445.07513427734375 94.76657104492188 -4830.265625 
v 282.1746826171875 94.76654815673828 -4871.36376953125 
v 446.91314697265625 94.76657104492188 -4834.857421875 
v 285.9212951660156 94.76654815673828 -4883.078125 
v 448.7512512207031 94.76657104492188 -4839.44775390625 
v 289.66790771484375 94.76654815673828 -4894.7919921875 
v 450.5892639160156 94.7665786743164 -4844.0390625 
v 293.41448974609375 94.76654815673828 -4906.50634765625 
v 452.42730712890625 94.76657104492188 -4848.63037109375 
v 299.13836669921875 94.76654815673828 -4917.39208984375 
v 455.03472900390625 94.76657104492188 -4852.8330078125 
v 304.8622131347656 94.76654815673828 -4928.27734375 
v 457.64208984375 94.7665786743164 -4857.03515625 
v 310.5859680175781 94.76654815673828 -4939.16259765625 
v 460.24951171875 94.7665786743164 -4861.2373046875 
v 316.3098449707031 94.76654815673828 -4950.0478515625 
v 462.85687255859375 94.7665786743164 -4865.439453125 
v 323.8370056152344 94.76654815673828 -4959.77392578125 
v 466.1543884277344 94.76657104492188 -4869.12451171875 
v 331.36407470703125 94.76654815673828 -4969.5009765625 
v 469.4518127441406 94.7665786743164 -4872.810546875 
v 338.8912353515625 94.76654815673828 -4979.2265625 
v 472.74932861328125 94.7665786743164 -4876.49609375 
v 346.41839599609375 94.76655578613281 -4988.95263671875 
v 476.0467529296875 94.7665786743164 -4880.181640625 
v 355.5200500488281 94.76654815673828 -4997.224609375 
v 479.9342041015625 94.7665786743164 -4883.23876953125 
v 364.6217346191406 94.76655578613281 -5005.49560546875 
v 483.82159423828125 94.7665786743164 -4886.2958984375 
v 373.7234191894531 94.76655578613281 -5013.76708984375 
v 487.7089538574219 94.7665786743164 -4889.35302734375 
v 382.8251953125 94.76656341552734 -5022.0380859375 
v 491.5963134765625 94.7665786743164 -4892.40966796875 
v 393.22491455078125 94.76656341552734 -5028.603515625 
v 495.9554748535156 94.7665786743164 -4894.74560546875 
v 403.6246337890625 94.76656341552734 -5035.16845703125 
v 500.3146057128906 94.7665786743164 -4897.0810546875 
v 414.02435302734375 94.76656341552734 -5041.7333984375 
v 504.6738586425781 94.7665786743164 -4899.41650390625 
v 424.424072265625 94.76657104492188 -5048.298828125 
v 509.03302001953125 94.7665786743164 -4901.751953125 
v 435.8057861328125 94.76657104492188 -5052.95849609375 
v 513.7315063476562 94.7665786743164 -4903.294921875 
v 447.1876220703125 94.76657104492188 -5057.6181640625 
v 518.4300537109375 94.7665786743164 -4904.83837890625 
v 458.5693359375 94.7665786743164 -5062.27783203125 
v 523.1285400390625 94.7665786743164 -4906.38134765625 
v 469.9510498046875 94.7665786743164 -5066.9375 
v 527.8270874023438 94.7665786743164 -4907.9248046875 
v 481.96905517578125 94.7665786743164 -5069.5498046875 
v 532.72216796875 94.7665786743164 -4908.6279296875 
v 493.9870910644531 94.7665786743164 -5072.162109375 
v 537.6171875 94.76658630371094 -4909.33203125 
v 506.0050048828125 94.7665786743164 -5074.7744140625 
v 542.5123291015625 94.76658630371094 -4910.03564453125 
v 518.0230102539062 94.7665786743164 -5077.38671875 
v 547.4074096679688 94.76658630371094 -4910.7392578125 
v 530.31201171875 94.76658630371094 -5077.87255859375 
v 552.350341796875 94.76658630371094 -4910.58251953125 
v 542.6010131835938 94.76658630371094 -5078.35791015625 
v 557.293212890625 94.76658630371094 -4910.42578125 
v 554.8900756835938 94.76658630371094 -5078.84375 
v 562.2361450195312 94.76658630371094 -4910.2685546875 
v 567.1790771484375 94.76659393310547 -5079.32958984375 
v 567.1790771484375 94.76658630371094 -4910.11181640625 
v 573.96923828125 93.41593933105469 -4910.11181640625 
v 573.96923828125 93.41593933105469 -5079.32958984375 
v 579.7256469726562 89.56961822509766 -4911.53173828125 
v 579.7256469726562 89.56961822509766 -5079.32958984375 
v 583.572021484375 83.81318664550781 -4911.53173828125 
v 583.572021484375 83.81318664550781 -5079.32958984375 
v 584.9226684570312 77.02302551269531 -4911.53173828125 
v 584.9226684570312 77.02302551269531 -5079.32958984375 
v 583.5719604492188 70.23286437988281 -5079.32958984375 
v 583.5719604492188 70.23286437988281 -4911.53173828125 
v 579.7256469726562 64.4764404296875 -4911.53173828125 
v 579.7256469726562 64.4764404296875 -5079.32958984375 
v 573.96923828125 60.63010787963867 -4911.53173828125 
v 579.7256469726562 64.4764404296875 -5079.32958984375 
v 573.96923828125 60.63010787963867 -5079.32958984375 
v 548.6098022460938 59.27946090698242 -4911.29931640625 
v 573.96923828125 60.63010787963867 -4911.53173828125 
v 573.96923828125 60.63010787963867 -5079.32958984375 
v 271.8056640625 83.81315612792969 -4768.25927734375 
v 439.6032409667969 83.81317901611328 -4768.25927734375 
v 271.8056640625 77.02297973632812 -4766.9091796875 
v 439.6032409667969 77.02300262451172 -4766.9091796875 
v 271.8056640625 70.23281860351562 -4768.25927734375 
v 439.6032409667969 70.23284149169922 -4768.25927734375 
v 439.6031494140625 64.4764175415039 -4772.10595703125 
v 271.8056640625 64.47639465332031 -4772.10595703125 
v 271.8056640625 60.63007736206055 -4777.8623046875 
v 439.6031494140625 64.4764175415039 -4772.10595703125 
v 439.6032409667969 60.63010787963867 -4777.8623046875 
v 271.8056640625 60.63007736206055 -4777.8623046875 
vn -1.0341130485562108e-13 0.999997615814209 0.002184694167226553 
vn -1.0341130485562108e-13 0.999997615814209 0.002184694167226553 
vn -1.0341130485562108e-13 0.999997615814209 0.002184694167226553 
vn -1.0341130485562108e-13 0.999997615814209 0.002184694167226553 
vn -1.0341130485562108e-13 0.999997615814209 -0.002184694167226553 
vn -1.0341130485562108e-13 0.999997615814209 0.002184694167226553 
vn -1.0341130485562108e-13 0.999997615814209 0.002184694167226553 
vn -1.0341130485562108e-13 0.999997615814209 0.002184694167226553 
vn -1.0341130485562108e-13 0.999997615814209 0.002184694167226553 
vn -1.0341130485562108e-13 0.999997615814209 0.002184694167226553 
vn -1.0341130485562108e-13 0.999997615814209 0.002184694167226553 
vn -1.0341130485562108e-13 0.999997615814209 -0.002184694167226553 
vn -1.0341130485562108e-13 0.999997615814209 -0.002184694167226553 
vn -1.0341130485562108e-13 0.999997615814209 -0.002184694167226553 
vn -1.0341130485562108e-13 0.999997615814209 -0.002184694167226553 
vn -1.0341130485562108e-13 0.999997615814209 -0.002184694167226553 
vn -1.0341130485562108e-13 0.999997615814209 -0.002184694167226553 
vn -1.0341130485562108e-13 0.999997615814209 -0.002184694167226553 
vn -1.0341130485562108e-13 0.999997615814209 -0.002184694167226553 
vn -1.0341130485562108e-13 0.999997615814209 -0.002184694167226553 
vn -1.0341130485562108e-13 0.999997615814209 -0.002184694167226553 
vn -1.0341130485562108e-13 0.999997615814209 -0.002184694167226553 
vn -1.0341130485562108e-13 0.999997615814209 -0.002184694167226553 
vn -1.0341130485562108e-13 0.999997615814209 -0.002184694167226553 
vn -1.0341130485562108e-13 0.999997615814209 -0.002184694167226553 
vn -1.0341130485562108e-13 0.999997615814209 -0.002184694167226553 
vn -1.0341130485562108e-13 0.999997615814209 -0.002184694167226553 
vn -1.0341130485562108e-13 0.999997615814209 -0.002184694167226553 
vn -1.0341130485562108e-13 0.999997615814209 -0.002184694167226553 
vn -1.0341130485562108e-13 0.999997615814209 -0.002184694167226553 
vn -1.0341130485562108e-13 0.999997615814209 -0.002184694167226553 
vn -1.0341130485562108e-13 0.999997615814209 -0.002184694167226553 
vn -1.0341130485562108e-13 0.999997615814209 -0.002184694167226553 
vn -1.0341130485562108e-13 0.999997615814209 -0.002184694167226553 
vn -1.0341130485562108e-13 0.999997615814209 -0.002184694167226553 
vn -1.0341130485562108e-13 0.999997615814209 0.002184694167226553 
vn -1.0341130485562108e-13 0.999997615814209 0.002184694167226553 
vn -1.0341130485562108e-13 0.999997615814209 0.002184694167226553 
vn -1.0341130485562108e-13 0.999997615814209 -0.002184694167226553 
vn -1.0341130485562108e-13 0.999997615814209 -0.002184694167226553 
vn -1.0341130485562108e-13 0.999997615814209 -0.002184694167226553 
vn -1.0341130485562108e-13 0.999997615814209 -0.002184694167226553 
vn -1.0341130485562108e-13 0.999997615814209 -0.002184694167226553 
vn -1.0341130485562108e-13 0.999997615814209 -0.002184694167226553 
vn -1.0341130485562108e-13 0.999997615814209 -0.002184694167226553 
vn -1.0341130485562108e-13 0.999997615814209 -0.002184694167226553 
vn -1.0341130485562108e-13 0.999997615814209 -0.002184694167226553 
vn -1.0341130485562108e-13 0.999997615814209 -0.002184694167226553 
vn -1.0341130485562108e-13 0.999997615814209 -0.002184694167226553 
vn -1.0341130485562108e-13 0.999997615814209 -0.002184694167226553 
vn -1.0341130485562108e-13 0.999997615814209 -0.002184694167226553 
vn -1.0341130485562108e-13 0.999997615814209 -0.002184694167226553 
vn -1.0341130485562108e-13 0.999997615814209 -0.002184694167226553 
vn -1.0341130485562108e-13 0.999997615814209 -0.002184694167226553 
vn -1.0341130485562108e-13 0.999997615814209 -0.002184694167226553 
vn -1.0341130485562108e-13 0.999997615814209 -0.002184694167226553 
vn -1.0341130485562108e-13 0.999997615814209 -0.002184694167226553 
vn -1.0341130485562108e-13 0.999997615814209 -0.002184694167226553 
vn -1.0341130485562108e-13 0.999997615814209 -0.002184694167226553 
vn -1.0341130485562108e-13 0.999997615814209 -0.002184694167226553 
vn -1.0341130485562108e-13 0.999997615814209 -0.002184694167226553 
vn -1.0341130485562108e-13 0.999997615814209 -0.002184694167226553 
vn -1.0341130485562108e-13 0.999997615814209 -0.002184694167226553 
vn -1.0341130485562108e-13 0.999997615814209 -0.002184694167226553 
vn -1.0341130485562108e-13 0.999997615814209 -0.002184694167226553 
vn -1.0341130485562108e-13 0.999997615814209 -0.002184694167226553 
vn -1.0341130485562108e-13 0.999997615814209 -0.002184694167226553 
vn -1.0341130485562108e-13 0.999997615814209 -0.002184694167226553 
vn -1.0341130485562108e-13 0.999997615814209 -0.002184694167226553 
vn -1.0341130485562108e-13 0.999997615814209 -0.002184694167226553 
vn -1.0341130485562108e-13 0.999997615814209 -0.002184694167226553 
vn -1.0341130485562108e-13 0.999997615814209 -0.002184694167226553 
vn -1.0341130485562108e-13 0.999997615814209 -0.002184694167226553 
vn -1.0341130485562108e-13 0.999997615814209 -0.002184694167226553 
vn -1.0341130485562108e-13 0.999997615814209 -0.002184694167226553 
vn -1.0341130485562108e-13 0.999997615814209 -0.002184694167226553 
vn -1.0341130485562108e-13 0.999997615814209 -0.002184694167226553 
vn -1.0341130485562108e-13 0.999997615814209 -0.002184694167226553 
vn -1.0341130485562108e-13 0.999997615814209 -0.002184694167226553 
vn -1.0341130485562108e-13 0.999997615814209 -0.002184694167226553 
vn -1.0341130485562108e-13 0.999997615814209 -0.002184694167226553 
vn -1.0341130485562108e-13 0.999997615814209 -0.002184694167226553 
vn -1.0341130485562108e-13 0.999997615814209 -0.002184694167226553 
vn -1.0341130485562108e-13 0.999997615814209 -0.002184694167226553 
vn -1.0341130485562108e-13 0.999997615814209 -0.002184694167226553 
vn -1.0341130485562108e-13 0.999997615814209 -0.002184694167226553 
vn -1.0341130485562108e-13 0.999997615814209 -0.002184694167226553 
vn -1.0341130485562108e-13 0.999997615814209 -0.002184694167226553 
vn -1.0341130485562108e-13 0.999997615814209 -0.002184694167226553 
vn -1.0341130485562108e-13 0.999997615814209 -0.002184694167226553 
vn -1.0341130485562108e-13 0.999997615814209 -0.002184694167226553 
vn -1.0341130485562108e-13 0.999997615814209 -0.002184694167226553 
vn -1.0341130485562108e-13 0.999997615814209 -0.002184694167226553 
vn -1.0341130485562108e-13 0.999997615814209 -0.002184694167226553 
vn -1.0341130485562108e-13 0.999997615814209 -0.002184694167226553 
vn -1.0341130485562108e-13 0.999997615814209 -0.002184694167226553 
vn -1.0341130485562108e-13 0.999997615814209 -0.002184694167226553 
vn -1.0341130485562108e-13 0.999997615814209 -0.002184694167226553 
vn -1.0341130485562108e-13 0.999997615814209 -0.002184694167226553 
vn -1.0341130485562108e-13 0.999997615814209 -0.002184694167226553 
vn -1.0341130485562108e-13 0.999997615814209 -0.002184694167226553 
vn -1.0341130485562108e-13 0.999997615814209 -0.002184694167226553 
vn -1.0341130485562108e-13 0.999997615814209 -0.002184694167226553 
vn -1.0341130485562108e-13 0.999997615814209 -0.002184694167226553 
vn -1.0341130485562108e-13 0.999997615814209 -0.002184694167226553 
vn -1.0341130485562108e-13 0.999997615814209 -0.002184694167226553 
vn -1.0341130485562108e-13 0.999997615814209 -0.002184694167226553 
vn -1.0341130485562108e-13 0.999997615814209 -0.002184694167226553 
vn -1.0341130485562108e-13 0.999997615814209 -0.002184694167226553 
vn -0.333331435918808 0.9428071975708008 -0.002184694167226553 
vn -0.333331435918808 0.9428071975708008 -0.002184694167226553 
vn 0.333331435918808 0.9428071975708008 -0.002184694167226553 
vn 0.333331435918808 0.9428071975708008 -0.002184694167226553 
vn -0.333331435918808 0.9428071975708008 -0.002184694167226553 
vn -0.333331435918808 0.9428071975708008 -0.002184694167226553 
vn 0.333331435918808 0.9428071975708008 -0.002184694167226553 
vn 0.333331435918808 0.9428071975708008 -0.002184694167226553 
vn -0.333331435918808 0.9428071975708008 -0.002184694167226553 
vn -0.333331435918808 0.9428071975708008 -0.002184694167226553 
vn 0.333331435918808 0.9428071975708008 -0.002184694167226553 
vn 0.333331435918808 0.9428071975708008 -0.002184694167226553 
vn -0.333331435918808 0.9428071975708008 -0.002184694167226553 
vn -0.333331435918808 0.9428071975708008 -0.002184694167226553 
vn 0.333331435918808 0.9428071975708008 -0.002184694167226553 
vn 0.333331435918808 0.9428071975708008 -0.002184694167226553 
vn -0.333331435918808 0.9428071975708008 -0.002184694167226553 
vn -0.333331435918808 0.9428071975708008 -0.002184694167226553 
vn 0.333331435918808 0.9428071975708008 -0.002184694167226553 
vn 0.333331435918808 0.9428071975708008 -0.002184694167226553 
vn -0.333331435918808 0.9428071975708008 -0.002184694167226553 
vn -0.333331435918808 0.9428071975708008 -0.002184694167226553 
vn 0.333331435918808 0.9428071975708008 -0.002184694167226553 
vn 0.333331435918808 0.9428071975708008 -0.002184694167226553 
vn -0.333331435918808 0.9428071975708008 -0.002184694167226553 
vn -0.333331435918808 0.9428071975708008 -0.002184694167226553 
vn 0.333331435918808 0.9428071975708008 -0.002184694167226553 
vn 0.333331435918808 0.9428071975708008 -0.002184694167226553 
vn -1.0341130485562108e-13 0.999997615814209 0.002184694167226553 
vn 0.0037752098869532347 0.9973951578140259 0.07203252613544464 
vn -1.0341130485562108e-13 0.999997615814209 0.002184694167226553 
vn 0.0037752098869532347 0.9973951578140259 0.07203252613544464 
vn -9.241569234050631e-14 0.8936689496040344 0.4487268626689911 
vn -9.241569234050631e-14 0.8936689496040344 0.4487268626689911 
vn 0.0037625895347446203 0.5006163716316223 0.865661084651947 
vn 0.0037625895347446203 0.5006163716316223 0.865661084651947 
vn 0 0 1 
vn 0 0 1 
vn 0.0037625895347446203 -0.5006163716316223 0.865661084651947 
vn 0.0037625895347446203 -0.5006163716316223 0.865661084651947 
vn 0.0037714340724051 -0.8667445182800293 0.4987381398677826 
vn 0.0037714340724051 -0.8667445182800293 0.4987381398677826 
vn -0.0018869596533477306 -0.9982590079307556 0.058952588587999344 
vn -0.0018869596533477306 -0.9982590079307556 0.058952588587999344 
vn 0.0018866752507165074 -0.7554870247840881 0.6551609039306641 
vn 0.0018866752507165074 -0.7554870247840881 0.6551609039306641 
vn 0 0 1 
vn 0 0 1 
vn -0.333331435918808 0.9428071975708008 -0.002184694167226553 
vn -0.333331435918808 0.9428071975708008 -0.002184694167226553 
vn 0.333331435918808 0.9428071975708008 -0.002184694167226553 
vn 0.333331435918808 0.9428071975708008 -0.002184694167226553 
vn -0.333331435918808 0.9428071975708008 -0.002184694167226553 
vn -0.333331435918808 0.9428071975708008 -0.002184694167226553 
vn 0.333331435918808 0.9428071975708008 -0.002184694167226553 
vn 0.333331435918808 0.9428071975708008 -0.002184694167226553 
vn 0.333331435918808 0.9428071975708008 0.002184694167226553 
vn 0.333331435918808 0.9428071975708008 0.002184694167226553 
vn -0.333331435918808 0.9428071975708008 0.002184694167226553 
vn -0.333331435918808 0.9428071975708008 0.002184694167226553 
vn 0.333331435918808 0.9428071975708008 0.002184694167226553 
vn 0.333331435918808 0.9428071975708008 0.002184694167226553 
vn -0.333331435918808 0.9428071975708008 0.002184694167226553 
vn -0.333331435918808 0.9428071975708008 0.002184694167226553 
vn 0.333331435918808 0.9428071975708008 0.002184694167226553 
vn 0.333331435918808 0.9428071975708008 0.002184694167226553 
vn -0.333331435918808 0.9428071975708008 -0.002184694167226553 
vn -0.333331435918808 0.9428071975708008 0.002184694167226553 
vn 0.333331435918808 0.9428071975708008 0.002184694167226553 
vn 0.333331435918808 0.9428071975708008 0.002184694167226553 
vn -0.333331435918808 0.9428071975708008 0.002184694167226553 
vn -0.333331435918808 0.9428071975708008 0.002184694167226553 
vn 0.0018873782828450203 0.9432094693183899 -0.33219319581985474 
vn 0.0018873782828450203 0.9432094693183899 -0.33219319581985474 
vn 0.0018873782828450203 0.9432094693183899 0.33219319581985474 
vn 0.0018873782828450203 0.9432094693183899 0.33219319581985474 
vn -1.0341130485562108e-13 0.999997615814209 0.002184694167226553 
vn -1.0341130485562108e-13 0.999997615814209 0.002184694167226553 
vn -1.0341130485562108e-13 0.999997615814209 0.002184694167226553 
vn -1.0341130485562108e-13 0.999997615814209 0.002184694167226553 
vn -1.0341130485562108e-13 0.999997615814209 0.002184694167226553 
vn -1.0341130485562108e-13 0.999997615814209 0.002184694167226553 
vn -1.0341130485562108e-13 0.999997615814209 0.002184694167226553 
vn -1.0341130485562108e-13 0.999997615814209 0.002184694167226553 
vn -1.0341130485562108e-13 0.999997615814209 0.002184694167226553 
vn -1.0341130485562108e-13 0.999997615814209 0.002184694167226553 
vn -0.0018874284578487277 -0.9985070824623108 0.05459024757146835 
vn 3.097898456858039e-13 -0.999997615814209 0.002184694167226553 
vn 3.0977209187522947e-13 -0.9999403357505798 0.010923261754214764 
vn 3.097898456858039e-13 -0.999997615814209 0.002184694167226553 
vn 3.097898456858039e-13 -0.999997615814209 0.002184694167226553 
vn 3.097898456858039e-13 -0.999997615814209 0.002184694167226553 
vn 3.097898456858039e-13 -0.999997615814209 0.002184694167226553 
vn 3.097898456858039e-13 -0.999997615814209 0.002184694167226553 
vn 3.097898456858039e-13 -0.999997615814209 0.002184694167226553 
vn -0.015103200450539589 -0.9998835325241089 -0.002184694167226553 
vn -0.022653724998235703 -0.9997409582138062 -0.002184694167226553 
vn -0.03775046393275261 -0.9992848038673401 -0.002184694167226553 
vn -0.04529581964015961 -0.9989712238311768 0.002184694167226553 
vn -0.7071051001548767 0.7071051001548767 -0.002184694167226553 
vn -0.6963448524475098 0.7177039980888367 0.002184694167226553 
vn -0.3118877410888672 0.9501164555549622 -0.002184694167226553 
vn -0.2902839779853821 0.9569380283355713 -0.002184694167226553 
vn -0.03775046393275261 0.9992848038673401 -0.002184694167226553 
vn -0.03775046393275261 0.9992848038673401 -0.002184694167226553 
vn -0.03775046393275261 0.9992848038673401 -0.002184694167226553 
vn -0.03775046393275261 0.9992848038673401 -0.002184694167226553 
vn -0.03775046393275261 0.9992848038673401 -0.002184694167226553 
vn -0.03775046393275261 0.9992848038673401 -0.002184694167226553 
vn -0.03775046393275261 0.9992848038673401 -0.002184694167226553 
vn -0.03775046393275261 0.9992848038673401 -0.002184694167226553 
vn -0.03775046393275261 0.9992848038673401 -0.002184694167226553 
vn -0.03775046393275261 0.9992848038673401 -0.002184694167226553 
vn -0.03775046393275261 0.9992848038673401 -0.002184694167226553 
vn -0.03775046393275261 0.9992848038673401 -0.002184694167226553 
vn -0.03775046393275261 0.9992848038673401 -0.002184694167226553 
vn -0.03775046393275261 0.9992848038673401 -0.002184694167226553 
vn -0.022653724998235703 0.9997409582138062 -0.002184694167226553 
vn -0.022653724998235703 0.9997409582138062 -0.002184694167226553 
vn -1.0341130485562108e-13 0.999997615814209 -0.002184694167226553 
vn -1.0341130485562108e-13 0.999997615814209 -0.002184694167226553 
vn -1.0341130485562108e-13 0.999997615814209 -0.002184694167226553 
vn -1.0341130485562108e-13 0.999997615814209 -0.002184694167226553 
vn -1.0341130485562108e-13 0.999997615814209 -0.002184694167226553 
vn -1.0341130485562108e-13 0.999997615814209 -0.002184694167226553 
vn -1.0341130485562108e-13 0.999997615814209 -0.002184694167226553 
vn -1.0341130485562108e-13 0.999997615814209 -0.002184694167226553 
vn -1.0341130485562108e-13 0.999997615814209 -0.002184694167226553 
vn -1.0341130485562108e-13 0.999997615814209 -0.002184694167226553 
vn -1.0341130485562108e-13 0.999997615814209 -0.002184694167226553 
vn -1.0341130485562108e-13 0.999997615814209 -0.002184694167226553 
vn -1.0341130485562108e-13 0.999997615814209 -0.002184694167226553 
vn -1.0341130485562108e-13 0.999997615814209 -0.002184694167226553 
vn -1.0341130485562108e-13 0.999997615814209 -0.002184694167226553 
vn -1.0341130485562108e-13 0.999997615814209 -0.002184694167226553 
vn -1.0341130485562108e-13 0.999997615814209 -0.002184694167226553 
vn -1.0341130485562108e-13 0.999997615814209 -0.002184694167226553 
vn -1.0341130485562108e-13 0.999997615814209 -0.002184694167226553 
vn -1.0341130485562108e-13 0.999997615814209 0.002184694167226553 
vn -1.0341130485562108e-13 0.999997615814209 0.002184694167226553 
vn -1.0341130485562108e-13 0.999997615814209 0.002184694167226553 
vn -1.0341130485562108e-13 0.999997615814209 -0.002184694167226553 
vn -1.0341130485562108e-13 0.999997615814209 -0.002184694167226553 
vn -1.0341130485562108e-13 0.999997615814209 -0.002184694167226553 
vn -1.0341130485562108e-13 0.999997615814209 -0.002184694167226553 
vn -1.0341130485562108e-13 0.999997615814209 -0.002184694167226553 
vn -1.0341130485562108e-13 0.999997615814209 -0.002184694167226553 
vn -1.0341130485562108e-13 0.999997615814209 -0.002184694167226553 
vn -1.0341130485562108e-13 0.999997615814209 -0.002184694167226553 
vn -1.0341130485562108e-13 0.999997615814209 -0.002184694167226553 
vn -1.0341130485562108e-13 0.999997615814209 -0.002184694167226553 
vn -1.0341130485562108e-13 0.999997615814209 -0.002184694167226553 
vn -1.0341130485562108e-13 0.999997615814209 -0.002184694167226553 
vn -1.0341130485562108e-13 0.999997615814209 -0.002184694167226553 
vn -1.0341130485562108e-13 0.999997615814209 -0.002184694167226553 
vn -1.0341130485562108e-13 0.999997615814209 -0.002184694167226553 
vn -1.0341130485562108e-13 0.999997615814209 -0.002184694167226553 
vn -1.0341130485562108e-13 0.999997615814209 -0.002184694167226553 
vn -1.0341130485562108e-13 0.999997615814209 0.002184694167226553 
vn -1.0341130485562108e-13 0.999997615814209 -0.002184694167226553 
vn -1.0341130485562108e-13 0.999997615814209 0.002184694167226553 
vn -1.0341130485562108e-13 0.999997615814209 -0.002184694167226553 
vn -1.0341130485562108e-13 0.999997615814209 -0.002184694167226553 
vn -1.0341130485562108e-13 0.999997615814209 -0.002184694167226553 
vn -1.0341130485562108e-13 0.999997615814209 -0.002184694167226553 
vn -1.0341130485562108e-13 0.999997615814209 -0.002184694167226553 
vn -1.0341130485562108e-13 0.999997615814209 -0.002184694167226553 
vn -1.0341130485562108e-13 0.999997615814209 -0.002184694167226553 
vn -1.0341130485562108e-13 0.999997615814209 -0.002184694167226553 
vn -1.0341130485562108e-13 0.999997615814209 -0.002184694167226553 
vn -1.0341130485562108e-13 0.999997615814209 -0.002184694167226553 
vn -1.0341130485562108e-13 0.999997615814209 -0.002184694167226553 
vn -1.0341130485562108e-13 0.999997615814209 -0.002184694167226553 
vn -1.0341130485562108e-13 0.999997615814209 -0.002184694167226553 
vn -1.0341130485562108e-13 0.999997615814209 0.002184694167226553 
vn -1.0341130485562108e-13 0.999997615814209 -0.002184694167226553 
vn -1.0341130485562108e-13 0.999997615814209 0.002184694167226553 
vn -1.0341130485562108e-13 0.999997615814209 -0.002184694167226553 
vn -1.0341130485562108e-13 0.999997615814209 -0.002184694167226553 
vn -1.0341130485562108e-13 0.999997615814209 -0.002184694167226553 
vn -1.0341130485562108e-13 0.999997615814209 -0.002184694167226553 
vn -1.0341130485562108e-13 0.999997615814209 -0.002184694167226553 
vn -1.0341130485562108e-13 0.999997615814209 -0.002184694167226553 
vn -1.0341130485562108e-13 0.999997615814209 -0.002184694167226553 
vn -1.0341130485562108e-13 0.999997615814209 0.002184694167226553 
vn -1.0341130485562108e-13 0.999997615814209 0.002184694167226553 
vn -1.0341130485562108e-13 0.999997615814209 -0.002184694167226553 
vn -1.0341130485562108e-13 0.999997615814209 -0.002184694167226553 
vn -1.0341130485562108e-13 0.999997615814209 -0.002184694167226553 
vn -1.0291221271430812e-13 0.995171308517456 0.0981530249118805 
vn -1.0291221271430812e-13 0.995171308517456 0.0981530249118805 
vn 0.003772426163777709 0.9294145107269287 0.3690181374549866 
vn 0.0037719623651355505 0.9244976043701172 0.3811691105365753 
vn 0.0037671432364732027 0.7170665264129639 0.6969945430755615 
vn 0.00376924779266119 0.707868754863739 0.7063339352607727 
vn -3.962606474504013e-14 0.3831879794597626 0.9236704111099243 
vn -3.962606474504013e-14 0.3831879794597626 0.9236704111099243 
vn 0 0 1 
vn 0 0 1 
vn 1.187080219278852e-13 -0.3831879794597626 0.9236704111099243 
vn 1.187080219278852e-13 -0.3831879794597626 0.9236704111099243 
vn 0.00376924779266119 -0.707868754863739 0.7063339352607727 
vn 0.00376924779266119 -0.707868754863739 0.7063339352607727 
vn 0.001886376179754734 -0.8322253227233887 0.5544344186782837 
vn 0.00376924779266119 -0.707868754863739 0.7063339352607727 
vn 0.001886376179754734 -0.8322253227233887 0.5544344186782837 
vn 3.097898456858039e-13 -0.999997615814209 0.002184694167226553 
vn -0.0018874284578487277 -0.9985070824623108 0.05459024757146835 
vn -0.0018874284578487277 -0.9985070824623108 0.05459024757146835 
vn -0.9238772988319397 0.38268253207206726 -0.002184694167226553 
vn -0.9238772988319397 0.38268253207206726 0.002184694167226553 
vn -0.999997615814209 -2.0682260971124217e-13 0.002184694167226553 
vn -0.999997615814209 -2.0682260971124217e-13 0.002184694167226553 
vn -0.9238772988319397 -0.38268253207206726 0.002184694167226553 
vn -0.9238772988319397 -0.38268253207206726 0.002184694167226553 
vn -0.8272483348846436 -0.5618321895599365 0.002184694167226553 
vn -0.7071051001548767 -0.7071051001548767 0.002184694167226553 
vn -0.5555689334869385 -0.8314676284790039 0.002184694167226553 
vn -0.8272483348846436 -0.5618321895599365 0.002184694167226553 
vn -0.5555689334869385 -0.8314676284790039 0.002184694167226553 
vn -0.5555689334869385 -0.8314676284790039 0.002184694167226553 
vn 0.05283859372138977 -0.9986006617546082 -0.002184694167226553 
vn 0.007551815826445818 -0.9999691247940063 -0.002184694167226553 
vn 0.007551815826445818 -0.9999691247940063 -0.002184694167226553 
vn 3.097898456858039e-13 -0.999997615814209 0.002184694167226553 
vn 3.097898456858039e-13 -0.999997615814209 0.002184694167226553 
vn 3.097898456858039e-13 -0.999997615814209 -0.002184694167226553 
vn 3.097898456858039e-13 -0.999997615814209 -0.002184694167226553 
vn 3.097898456858039e-13 -0.999997615814209 0.002184694167226553 
vn 3.097898456858039e-13 -0.999997615814209 -0.002184694167226553 
vn 3.0973070245729484e-13 -0.9998067021369934 0.01966099627315998 
vn 3.0973070245729484e-13 -0.9998067021369934 0.01966099627315998 
vn 3.095769354841821e-13 -0.9993103742599487 0.03713129088282585 
vn 3.0952372826256735e-13 -0.999138593673706 0.04149730131030083 
vn -0.00376924779266119 0.707868754863739 0.7063339352607727 
vn -0.0037671432364732027 0.7170665264129639 0.6969945430755615 
vn -0.0018870257772505283 0.9502412676811218 0.31150925159454346 
vn 0.0018857847899198532 0.956819474697113 0.29067665338516235 
vn -1.0332247481637663e-13 0.999138593673706 0.04149730131030083 
vn -1.0332247481637663e-13 0.999138593673706 0.04149730131030083 
vn -1.0332247481637663e-13 0.999138593673706 0.04149730131030083 
vn -1.0332247481637663e-13 0.999138593673706 0.04149730131030083 
vn -1.0332247481637663e-13 0.999138593673706 0.04149730131030083 
vn -1.0332247481637663e-13 0.999138593673706 0.04149730131030083 
vn -1.0332247481637663e-13 0.999138593673706 0.04149730131030083 
vn -1.0332247481637663e-13 0.999138593673706 0.04149730131030083 
vn -1.0332247481637663e-13 0.999138593673706 0.04149730131030083 
vn -1.0332247481637663e-13 0.999138593673706 0.04149730131030083 
vn -1.0332247481637663e-13 0.999138593673706 0.04149730131030083 
vn -1.0332247481637663e-13 0.999138593673706 0.04149730131030083 
vn -1.0332247481637663e-13 0.999138593673706 0.04149730131030083 
vn -1.0332247481637663e-13 0.999138593673706 0.04149730131030083 
vn -1.0339156559981827e-13 0.9998067021369934 0.01966099627315998 
vn -1.0339156559981827e-13 0.9998067021369934 0.01966099627315998 
vn -1.0341130485562108e-13 0.999997615814209 -0.002184694167226553 
vn -1.0341130485562108e-13 0.999997615814209 -0.002184694167226553 
vn -1.0341130485562108e-13 0.999997615814209 -0.002184694167226553 
vn -1.0341130485562108e-13 0.999997615814209 -0.002184694167226553 
vn -1.0341130485562108e-13 0.999997615814209 0.002184694167226553 
vn -1.0341130485562108e-13 0.999997615814209 -0.002184694167226553 
vn -1.0341130485562108e-13 0.999997615814209 -0.002184694167226553 
vn -1.0341130485562108e-13 0.999997615814209 -0.002184694167226553 
vn -1.0341130485562108e-13 0.999997615814209 -0.002184694167226553 
vn -1.0341130485562108e-13 0.999997615814209 -0.002184694167226553 
vn -1.0341130485562108e-13 0.999997615814209 -0.002184694167226553 
vn -1.0341130485562108e-13 0.999997615814209 0.002184694167226553 
vn -1.0341130485562108e-13 0.999997615814209 -0.002184694167226553 
vn -1.0341130485562108e-13 0.999997615814209 -0.002184694167226553 
vn -1.0341130485562108e-13 0.999997615814209 0.002184694167226553 
vn -1.0341130485562108e-13 0.999997615814209 -0.002184694167226553 
vn -1.0341130485562108e-13 0.999997615814209 -0.002184694167226553 
vn -1.0341130485562108e-13 0.999997615814209 0.002184694167226553 
vn -1.0341130485562108e-13 0.999997615814209 -0.002184694167226553 
vn -1.0341130485562108e-13 0.999997615814209 0.002184694167226553 
vn -1.0341130485562108e-13 0.999997615814209 0.002184694167226553 
vn -1.0341130485562108e-13 0.999997615814209 -0.002184694167226553 
vn -1.0341130485562108e-13 0.999997615814209 -0.002184694167226553 
vn -1.0341130485562108e-13 0.999997615814209 -0.002184694167226553 
vn -1.0341130485562108e-13 0.999997615814209 -0.002184694167226553 
vn -1.0341130485562108e-13 0.999997615814209 -0.002184694167226553 
vn -1.0341130485562108e-13 0.999997615814209 -0.002184694167226553 
vn -1.0341130485562108e-13 0.999997615814209 0.002184694167226553 
vn -1.0341130485562108e-13 0.999997615814209 0.002184694167226553 
vn -1.0341130485562108e-13 0.999997615814209 -0.002184694167226553 
vn -1.0341130485562108e-13 0.999997615814209 -0.002184694167226553 
vn -1.0341130485562108e-13 0.999997615814209 0.002184694167226553 
vn -1.0341130485562108e-13 0.999997615814209 -0.002184694167226553 
vn -1.0341130485562108e-13 0.999997615814209 -0.002184694167226553 
vn -1.0341130485562108e-13 0.999997615814209 0.002184694167226553 
vn -1.0341130485562108e-13 0.999997615814209 -0.002184694167226553 
vn -1.0341130485562108e-13 0.999997615814209 0.002184694167226553 
vn -1.0341130485562108e-13 0.999997615814209 -0.002184694167226553 
vn -1.0341130485562108e-13 0.999997615814209 0.002184694167226553 
vn -1.0341130485562108e-13 0.999997615814209 0.002184694167226553 
vn -1.0341130485562108e-13 0.999997615814209 -0.002184694167226553 
vn -1.0341130485562108e-13 0.999997615814209 0.002184694167226553 
vn -1.0341130485562108e-13 0.999997615814209 -0.002184694167226553 
vn -1.0341130485562108e-13 0.999997615814209 -0.002184694167226553 
vn -1.0341130485562108e-13 0.999997615814209 0.002184694167226553 
vn -1.0341130485562108e-13 0.999997615814209 -0.002184694167226553 
vn -1.0341130485562108e-13 0.999997615814209 0.002184694167226553 
vn -1.0341130485562108e-13 0.999997615814209 -0.002184694167226553 
vn -1.0341130485562108e-13 0.999997615814209 -0.002184694167226553 
vn -1.0341130485562108e-13 0.999997615814209 -0.002184694167226553 
vn -1.0341130485562108e-13 0.999997615814209 0.002184694167226553 
vn -1.0341130485562108e-13 0.999997615814209 -0.002184694167226553 
vn -1.0341130485562108e-13 0.999997615814209 0.002184694167226553 
vn -1.0341130485562108e-13 0.999997615814209 -0.002184694167226553 
vn -1.0341130485562108e-13 0.999997615814209 -0.002184694167226553 
vn -1.0341130485562108e-13 0.999997615814209 -0.002184694167226553 
vn -1.0341130485562108e-13 0.999997615814209 -0.002184694167226553 
vn -1.0341130485562108e-13 0.999997615814209 0.002184694167226553 
vn -1.0341130485562108e-13 0.999997615814209 0.002184694167226553 
vn -1.0341130485562108e-13 0.999997615814209 0.002184694167226553 
vn -1.0341130485562108e-13 0.999997615814209 0.002184694167226553 
vn -1.0341130485562108e-13 0.999997615814209 -0.002184694167226553 
vn -1.0341130485562108e-13 0.999997615814209 0.002184694167226553 
vn -1.0341130485562108e-13 0.999997615814209 -0.002184694167226553 
vn -1.0341130485562108e-13 0.999997615814209 0.002184694167226553 
vn -1.0341130485562108e-13 0.999997615814209 0.002184694167226553 
vn -1.0341130485562108e-13 0.999997615814209 0.002184694167226553 
vn -1.0341130485562108e-13 0.999997615814209 0.002184694167226553 
vn -1.0341130485562108e-13 0.999997615814209 0.002184694167226553 
vn -1.0341130485562108e-13 0.999997615814209 0.002184694167226553 
vn 0.0980169028043747 0.9951823353767395 0.002184694167226553 
vn 0.0980169028043747 0.9951823353767395 0.002184694167226553 
vn 0.3686853349208832 0.9295517206192017 0.002184694167226553 
vn 0.38268253207206726 0.9238772988319397 0.002184694167226553 
vn 0.6963448524475098 0.7177039980888367 0.002184694167226553 
vn 0.7071051001548767 0.7071051001548767 0.002184694167226553 
vn 0.9238772988319397 0.38268253207206726 0.002184694167226553 
vn 0.9238772988319397 0.38268253207206726 0.002184694167226553 
vn 0.999997615814209 0 0.002184694167226553 
vn 0.999997615814209 0 0.002184694167226553 
vn 0.9238772988319397 -0.38268253207206726 0.002184694167226553 
vn 0.9238772988319397 -0.38268253207206726 0.002184694167226553 
vn 0.7071051001548767 -0.7071051001548767 0.002184694167226553 
vn 0.7071051001548767 -0.7071051001548767 -0.002184694167226553 
vn 0.5555689334869385 -0.8314676284790039 0.002184694167226553 
vn 0.7071051001548767 -0.7071051001548767 -0.002184694167226553 
vn 0.5555689334869385 -0.8314676284790039 0.002184694167226553 
vn 0.007551815826445818 -0.9999691247940063 -0.002184694167226553 
vn 0.05283859372138977 -0.9986006617546082 0.002184694167226553 
vn 0.05283859372138977 -0.9986006617546082 0.002184694167226553 
vn -3.962606474504013e-14 0.3831879794597626 0.9236704111099243 
vn -3.962606474504013e-14 0.3831879794597626 0.9236704111099243 
vn 0 0 1 
vn 0 0 1 
vn 1.187080219278852e-13 -0.3831879794597626 0.9236704111099243 
vn 1.187080219278852e-13 -0.3831879794597626 0.9236704111099243 
vn 0.0037664873525500298 -0.5634793639183044 0.8261215686798096 
vn 0.00376924779266119 -0.707868754863739 0.7063339352607727 
vn 0.001886376179754734 -0.8322253227233887 0.5544344186782837 
vn 0.0037664873525500298 -0.5634793639183044 0.8261215686798096 
vn 0.001886376179754734 -0.8322253227233887 0.5544344186782837 
vn 0.001886376179754734 -0.8322253227233887 0.5544344186782837 
vt 0.009998415596783161 0.9982864856719971 
vt 0.009998415596783161 0.9151036739349365 
vt 0.9952800869941711 0.9151036739349365 
vt 0.9952800869941711 0.8598025441169739 
vt 0.009998415596783161 0.8598025441169739 
vt 0.9952800869941711 0.8047324419021606 
vt 0.009998415596783161 0.8047324419021606 
vt 0.9952800869941711 0.749431312084198 
vt 0.009998415596783161 0.7493542432785034 
vt 0.9952800869941711 0.694284200668335 
vt 0.009998415596783161 0.694284200668335 
vt 0.9952800869941711 0.6390600800514221 
vt 0.009998415596783161 0.6390600800514221 
vt 0.9952800869941711 0.5839899778366089 
vt 0.009998415596783161 0.5839899778366089 
vt 0.9952800869941711 0.5286887884140015 
vt 0.009998415596783161 0.5286887884140015 
vt 0.9952800869941711 0.4736187160015106 
vt 0.009998415596783161 0.4736187160015106 
vt 0.9952800869941711 0.418317586183548 
vt 0.009998415596783161 0.418317586183548 
vt 0.9952800869941711 0.36324748396873474 
vt 0.009998415596783161 0.36324748396873474 
vt 0.9952800869941711 0.3079463541507721 
vt 0.009998415596783161 0.3079463541507721 
vt 0.9952800869941711 0.25287625193595886 
vt 0.009998415596783161 0.25287625193595886 
vt 0.9952800869941711 0.19757510721683502 
vt 0.009998415596783161 0.19757510721683502 
vt 0.9952800869941711 0.14250501990318298 
vt 0.009998415596783161 0.14250501990318298 
vt 0.009998415596783161 0.09136301279067993 
vt 0.9952800869941711 0.09136301279067993 
vt 0.009998415596783161 0.004714272916316986 
vt 0.9952800869941711 0.004714272916316986 
vt 0.9952800869941711 0.9151036739349365 
vt 0.009998415596783161 0.9982864856719971 
vt 0.9952800869941711 0.9982864856719971 
vt 0.9969567656517029 0.003481935476884246 
vt 0.9969567656517029 0.9999039173126221 
vt 0.002346629975363612 0.9999039173126221 
vt 0.002346629975363612 2.000638961791992 
vt 0.9969567656517029 0.9999039173126221 
vt 0.9969567656517029 2.000638961791992 
vt 0.9969567656517029 0.003481935476884246 
vt 0.002346629975363612 0.003481935476884246 
vt 0.002346629975363612 0.9999039173126221 
vt 0.9969567656517029 0.003481935476884246 
vt 0.9969567656517029 0.9999039173126221 
vt 0.002346629975363612 0.9999039173126221 
vt 0.002346629975363612 2.000638961791992 
vt 0.9969567656517029 0.9999039173126221 
vt 0.9969567656517029 2.000638961791992 
vt 0.9969567656517029 0.003481935476884246 
vt 0.002346629975363612 0.003481935476884246 
vt 0.002346629975363612 0.9999039173126221 
vt 0.9969567656517029 0.003481935476884246 
vt 0.9969567656517029 0.9999039173126221 
vt 0.002346629975363612 0.9999039173126221 
vt 0.002346629975363612 2.000638961791992 
vt 0.9969567656517029 0.9999039173126221 
vt 0.9969567656517029 2.000638961791992 
vt 0.9969567656517029 0.003481935476884246 
vt 0.002346629975363612 0.003481935476884246 
vt 0.002346629975363612 0.9999039173126221 
vt 0.002346629975363612 2.000638961791992 
vt 0.002346629975363612 0.9999039173126221 
vt 0.9969567656517029 0.9999039173126221 
vt 0.9969567656517029 0.003481935476884246 
vt 0.002346629975363612 0.9999039173126221 
vt 0.002346629975363612 0.003481935476884246 
vt 0.9969567656517029 0.9999039173126221 
vt 0.002346629975363612 2.000638961791992 
vt 0.9969567656517029 2.000638961791992 
vt 0.002346629975363612 2.000638961791992 
vt 0.002346629975363612 0.9999039173126221 
vt 0.9969567656517029 0.9999039173126221 
vt 0.9969567656517029 0.003481935476884246 
vt 0.002346629975363612 0.9999039173126221 
vt 0.002346629975363612 0.003481935476884246 
vt 0.9969567656517029 0.9999039173126221 
vt 0.002346629975363612 2.000638961791992 
vt 0.9969567656517029 2.000638961791992 
vt 0.002346629975363612 2.000638961791992 
vt 0.002346629975363612 0.9999039173126221 
vt 0.9969567656517029 0.9999039173126221 
vt 0.9969567656517029 0.003481935476884246 
vt 0.002346629975363612 0.9999039173126221 
vt 0.002346629975363612 0.003481935476884246 
vt 0.9969567656517029 0.9999039173126221 
vt 0.002346629975363612 2.000638961791992 
vt 0.9969567656517029 2.000638961791992 
vt 0.9969567656517029 0.003481935476884246 
vt 0.9969567656517029 0.9999039173126221 
vt 0.002346629975363612 0.9999039173126221 
vt 0.002346629975363612 2.000638961791992 
vt 0.9969567656517029 0.9999039173126221 
vt 0.9969567656517029 2.000638961791992 
vt 0.9969567656517029 0.003481935476884246 
vt 0.002346629975363612 0.003481935476884246 
vt 0.002346629975363612 0.9999039173126221 
vt 0.9969567656517029 0.003481935476884246 
vt 0.002346629975363612 0.9999039173126221 
vt 0.002346629975363612 0.003481935476884246 
vt 0.002346629975363612 0.9999039173126221 
vt 0.9969567656517029 0.9999039173126221 
vt 0.002346629975363612 2.000638961791992 
vt 0.9969567656517029 0.9999039173126221 
vt 0.9969567656517029 2.000638961791992 
vt 0.006157279945909977 2.0004849433898926 
vt 0.006157279945909977 -0.00006103519990574569 
vt 0.9958897829055786 2.0004849433898926 
vt 0.9958897829055786 -0.00006103519990574569 
vt 0.006157279945909977 2.0004849433898926 
vt 0.006157279945909977 -0.00006103519990574569 
vt 0.9958897829055786 2.0004849433898926 
vt 0.9958897829055786 -0.00006103519990574569 
vt 0.006157279945909977 2.0004849433898926 
vt 0.006157279945909977 -0.00006103519990574569 
vt 0.9958897829055786 2.0004849433898926 
vt 0.9958897829055786 -0.00006103519990574569 
vt 0.006157279945909977 2.0004849433898926 
vt 0.006157279945909977 -0.00006103519990574569 
vt 0.9958897829055786 2.0004849433898926 
vt 0.9958897829055786 -0.00006103519990574569 
vt 0.006157279945909977 2.0004849433898926 
vt 0.006157279945909977 -0.00006103519990574569 
vt 0.9958897829055786 2.0004849433898926 
vt 0.9958897829055786 -0.00006103519990574569 
vt 0.006157279945909977 2.0004849433898926 
vt 0.006157279945909977 -0.00006103519990574569 
vt 0.9958897829055786 2.0004849433898926 
vt 0.9958897829055786 -0.00006103519990574569 
vt 0.006157279945909977 2.0004849433898926 
vt 0.006157279945909977 -0.00006103519990574569 
vt 0.9958897829055786 2.0004849433898926 
vt 0.9958897829055786 -0.00006103519990574569 
vt 0.004785445984452963 0.9963609576225281 
vt 0.004785445984452963 0.8988522291183472 
vt 1.0012551546096802 0.9963609576225281 
vt 1.0012551546096802 0.8988522291183472 
vt 1.0012551546096802 0.8463238477706909 
vt 0.004785445984452963 0.8463238477706909 
vt 1.0012551546096802 0.7925630807876587 
vt 0.004785445984452963 0.7925630807876587 
vt 1.0012551546096802 0.7387253642082214 
vt 0.004785445984452963 0.7387253642082214 
vt 1.0012551546096802 0.6848875880241394 
vt 0.004785445984452963 0.6848875880241394 
vt 1.0012551546096802 0.631126880645752 
vt 0.004785445984452963 0.631126880645752 
vt 1.0012551546096802 0.5772891044616699 
vt 0.004785445984452963 0.5772891044616699 
vt 1.0012551546096802 0.478779137134552 
vt 0.004785445984452963 0.478779137134552 
vt 1.0012551546096802 0.4522068500518799 
vt 0.004785445984452963 0.4522068500518799 
vt 0.006157279945909977 2.0004849433898926 
vt 0.006157279945909977 -0.00006103519990574569 
vt 0.9958897829055786 2.0004849433898926 
vt 0.9958897829055786 -0.00006103519990574569 
vt 0.006157279945909977 2.0004849433898926 
vt 0.006157279945909977 -0.00006103519990574569 
vt 0.9958897829055786 2.0004849433898926 
vt 0.9958897829055786 -0.00006103519990574569 
vt 0.006157279945909977 2.0004849433898926 
vt 0.006157279945909977 -0.00006103519990574569 
vt 0.9958897829055786 2.0004849433898926 
vt 0.9958897829055786 -0.00006103519990574569 
vt 0.006157279945909977 2.0004849433898926 
vt 0.006157279945909977 -0.00006103519990574569 
vt 0.9958897829055786 2.0004849433898926 
vt 0.9958897829055786 -0.00006103519990574569 
vt 0.006157279945909977 2.0004849433898926 
vt 0.006157279945909977 -0.00006103519990574569 
vt 0.9958897829055786 2.0004849433898926 
vt 0.9958897829055786 -0.00006103519990574569 
vt 0.006157279945909977 2.0004849433898926 
vt 0.006157279945909977 -0.00006103519990574569 
vt 0.9958897829055786 2.0004849433898926 
vt 0.9958897829055786 -0.00006103519990574569 
vt 0.9958897829055786 -0.00006103519990574569 
vt 0.9958897829055786 2.0004849433898926 
vt 0.006157279945909977 -0.00006103519990574569 
vt 0.006157279945909977 2.0004849433898926 
vt 0.002346629975363612 2.000638961791992 
vt 0.002346629975363612 0.9999039173126221 
vt 0.9969567656517029 0.9999039173126221 
vt 0.9969567656517029 0.003481935476884246 
vt 0.9969567656517029 0.003481935476884246 
vt 0.002346629975363612 0.9999039173126221 
vt 0.002346629975363612 0.003481935476884246 
vt 0.9969567656517029 0.9999039173126221 
vt 0.002346629975363612 2.000638961791992 
vt 0.9969567656517029 2.000638961791992 
vt 0.005700001958757639 0.001402365742251277 
vt 0.9936643838882446 0.23323588073253632 
vt 0.005700001958757639 0.25757455825805664 
vt 0.9936643838882446 0.6778016686439514 
vt 0.005700001958757639 0.6778016686439514 
vt 0.9936643838882446 1.0979517698287964 
vt 0.005700001958757639 1.0979517698287964 
vt 0.9936643838882446 1.5181018114089966 
vt 0.005700001958757639 1.5181018114089966 
vt 0.9936643838882446 1.9579694271087646 
vt 0.005700001958757639 1.9382519721984863 
vt 0.005700001958757639 2.1453616619110107 
vt 0.9936643838882446 2.1453616619110107 
vt 0.0067364987917244434 0.2035827487707138 
vt 0.990737795829773 0.2036597728729248 
vt 0.0067364987917244434 0.24424989521503448 
vt 0.990737795829773 0.24432691931724548 
vt 0.0067364987917244434 0.2682804763317108 
vt 0.990737795829773 0.2683574855327606 
vt 0.0067364987917244434 0.29231107234954834 
vt 0.990737795829773 0.29238808155059814 
vt 0.0067364987917244434 0.3163416385650635 
vt 0.990737795829773 0.31641867756843567 
vt 0.0067364987917244434 0.340372234582901 
vt 0.990737795829773 0.3404492437839508 
vt 0.0067364987917244434 0.36440280079841614 
vt 0.990737795829773 0.36447983980178833 
vt 0.0067364987917244434 0.38843339681625366 
vt 0.990737795829773 0.38851040601730347 
vt 0.0067364987917244434 0.412541002035141 
vt 0.990737795829773 0.412541002035141 
vt 0.0067364987917244434 0.43657156825065613 
vt 0.990737795829773 0.43657156825065613 
vt 0.0067364987917244434 0.4867123067378998 
vt 0.990737795829773 0.4867123067378998 
vt 0.0067364987917244434 0.5368530750274658 
vt 0.990737795829773 0.5368530750274658 
vt 0.0067364987917244434 0.5869938135147095 
vt 0.990737795829773 0.5869938135147095 
vt 0.0067364987917244434 0.6371345520019531 
vt 0.990737795829773 0.6371345520019531 
vt 0.0067364987917244434 0.6871982216835022 
vt 0.990737795829773 0.6872752904891968 
vt 0.0067364987917244434 0.7373389601707458 
vt 0.990737795829773 0.7374159693717957 
vt 0.0067364987917244434 0.7874796986579895 
vt 0.990737795829773 0.7875567078590393 
vt 0.0067364987917244434 0.8376204371452332 
vt 0.990737795829773 0.837697446346283 
vt 0.0067364987917244434 0.8877611756324768 
vt 0.990737795829773 0.8878381848335266 
vt 0.0067364987917244434 0.9379019141197205 
vt 0.990737795829773 0.9379789233207703 
vt 0.0067364987917244434 0.9880426526069641 
vt 0.990737795829773 0.9881196618080139 
vt 0.0067364987917244434 1.0381834506988525 
vt 0.990737795829773 1.0382604598999023 
vt 0.0067364987917244434 1.0883240699768066 
vt 0.990737795829773 1.088401198387146 
vt 0.0067364987917244434 1.1384648084640503 
vt 0.990737795829773 1.1384648084640503 
vt 0.0067364987917244434 1.188605546951294 
vt 0.990737795829773 1.188605546951294 
vt 0.0067364987917244434 1.2387462854385376 
vt 0.990737795829773 1.2387462854385376 
vt 0.0067364987917244434 1.2888870239257812 
vt 0.990737795829773 1.2888870239257812 
vt 0.0067364987917244434 1.339027762413025 
vt 0.990737795829773 1.339027762413025 
vt 0.0067364987917244434 1.3891685009002686 
vt 0.990737795829773 1.3891685009002686 
vt 0.0067364987917244434 1.4393092393875122 
vt 0.990737795829773 1.4393092393875122 
vt 0.0067364987917244434 1.4894499778747559 
vt 0.990737795829773 1.4894499778747559 
vt 0.0067364987917244434 1.5395907163619995 
vt 0.990737795829773 1.5395907163619995 
vt 0.0067364987917244434 1.5897314548492432 
vt 0.990737795829773 1.5897314548492432 
vt 0.0067364987917244434 1.6398721933364868 
vt 0.990737795829773 1.6398721933364868 
vt 0.0067364987917244434 1.6899359226226807 
vt 0.990737795829773 1.6900129318237305 
vt 0.0067364987917244434 1.7400766611099243 
vt 0.990737795829773 1.7401536703109741 
vt 0.0067364987917244434 1.790217399597168 
vt 0.990737795829773 1.7902944087982178 
vt 0.0067364987917244434 1.8403581380844116 
vt 0.990737795829773 1.8404351472854614 
vt 0.0067364987917244434 1.8904988765716553 
vt 0.990737795829773 1.8904988765716553 
vt 0.0067364987917244434 1.940639615058899 
vt 0.990737795829773 1.940639615058899 
vt 0.0067364987917244434 1.9907803535461426 
vt 0.990737795829773 1.9907803535461426 
vt 0.0067364987917244434 2.040921211242676 
vt 0.990737795829773 2.040921211242676 
vt 0.0067364987917244434 2.09106183052063 
vt 0.990737795829773 2.09106183052063 
vt 0.0067364987917244434 2.141202449798584 
vt 0.990737795829773 2.141202449798584 
vt 0.0067364987917244434 2.191343307495117 
vt 0.990737795829773 2.191343307495117 
vt 0.0067364987917244434 2.2414839267730713 
vt 0.990737795829773 2.2414839267730713 
vt 0.990737795829773 2.281689167022705 
vt 0.0067364987917244434 2.281689167022705 
vt 0.990737795829773 2.3223562240600586 
vt 0.0067364987917244434 2.3223562240600586 
vt 0.990737795829773 2.362638235092163 
vt 0.0067364987917244434 2.362638235092163 
vt 0.990737795829773 2.4029202461242676 
vt 0.0067364987917244434 2.4029202461242676 
vt 0.0067364987917244434 2.443202257156372 
vt 0.990737795829773 2.443202257156372 
vt 0.990737795829773 2.4834072589874268 
vt 0.0067364987917244434 2.4834842681884766 
vt 0.990737795829773 2.5236892700195312 
vt 0.0067364987917244434 2.4834842681884766 
vt 0.0067364987917244434 2.5236892700195312 
vt 0.9936643838882446 0.23323588073253632 
vt 0.9936643838882446 0.001402365742251277 
vt 0.005700001958757639 0.001402365742251277 
vt 0.0067364987917244434 0.16337773203849792 
vt 0.990737795829773 0.16337773203849792 
vt 0.0067364987917244434 0.12309570610523224 
vt 0.990737795829773 0.12309570610523224 
vt 0.0067364987917244434 0.08281366527080536 
vt 0.990737795829773 0.08289068937301636 
vt 0.990737795829773 0.042608655989170074 
vt 0.0067364987917244434 0.042531631886959076 
vt 0.0067364987917244434 0.002249597804620862 
vt 0.990737795829773 0.042608655989170074 
vt 0.990737795829773 0.002326618880033493 
vt 0.0067364987917244434 0.002249597804620862 
vt 0.005700001958757639 0.001402365742251277 
vt 0.9936643838882446 0.23323588073253632 
vt 0.005700001958757639 0.25757455825805664 
vt 0.9936643838882446 0.6778016686439514 
vt 0.005700001958757639 0.6778016686439514 
vt 0.9936643838882446 1.0979517698287964 
vt 0.005700001958757639 1.0979517698287964 
vt 0.9936643838882446 1.5181018114089966 
vt 0.005700001958757639 1.5181018114089966 
vt 0.9936643838882446 1.9579694271087646 
vt 0.005700001958757639 1.9382519721984863 
vt 0.005700001958757639 2.1453616619110107 
vt 0.9936643838882446 2.1453616619110107 
vt 0.0067364987917244434 0.2035827487707138 
vt 0.990737795829773 0.2036597728729248 
vt 0.0067364987917244434 0.24424989521503448 
vt 0.990737795829773 0.24432691931724548 
vt 0.0067364987917244434 0.2682804763317108 
vt 0.990737795829773 0.2683574855327606 
vt 0.0067364987917244434 0.29231107234954834 
vt 0.990737795829773 0.29238808155059814 
vt 0.0067364987917244434 0.3163416385650635 
vt 0.990737795829773 0.31641867756843567 
vt 0.0067364987917244434 0.340372234582901 
vt 0.990737795829773 0.3404492437839508 
vt 0.0067364987917244434 0.36440280079841614 
vt 0.990737795829773 0.36447983980178833 
vt 0.0067364987917244434 0.38843339681625366 
vt 0.990737795829773 0.38851040601730347 
vt 0.0067364987917244434 0.412541002035141 
vt 0.990737795829773 0.412541002035141 
vt 0.0067364987917244434 0.43657156825065613 
vt 0.990737795829773 0.43657156825065613 
vt 0.0067364987917244434 0.4867123067378998 
vt 0.990737795829773 0.4867123067378998 
vt 0.0067364987917244434 0.5368530750274658 
vt 0.990737795829773 0.5368530750274658 
vt 0.0067364987917244434 0.5869938135147095 
vt 0.990737795829773 0.5869938135147095 
vt 0.0067364987917244434 0.6371345520019531 
vt 0.990737795829773 0.6371345520019531 
vt 0.0067364987917244434 0.6871982216835022 
vt 0.990737795829773 0.6872752904891968 
vt 0.0067364987917244434 0.7373389601707458 
vt 0.990737795829773 0.7374159693717957 
vt 0.0067364987917244434 0.7874796986579895 
vt 0.990737795829773 0.7875567078590393 
vt 0.0067364987917244434 0.8376204371452332 
vt 0.990737795829773 0.837697446346283 
vt 0.0067364987917244434 0.8877611756324768 
vt 0.990737795829773 0.8878381848335266 
vt 0.0067364987917244434 0.9379019141197205 
vt 0.990737795829773 0.9379789233207703 
vt 0.0067364987917244434 0.9880426526069641 
vt 0.990737795829773 0.9881196618080139 
vt 0.0067364987917244434 1.0381834506988525 
vt 0.990737795829773 1.0382604598999023 
vt 0.0067364987917244434 1.0883240699768066 
vt 0.990737795829773 1.088401198387146 
vt 0.0067364987917244434 1.1384648084640503 
vt 0.990737795829773 1.1384648084640503 
vt 0.0067364987917244434 1.188605546951294 
vt 0.990737795829773 1.188605546951294 
vt 0.0067364987917244434 1.2387462854385376 
vt 0.990737795829773 1.2387462854385376 
vt 0.0067364987917244434 1.2888870239257812 
vt 0.990737795829773 1.2888870239257812 
vt 0.0067364987917244434 1.339027762413025 
vt 0.990737795829773 1.339027762413025 
vt 0.0067364987917244434 1.3891685009002686 
vt 0.990737795829773 1.3891685009002686 
vt 0.0067364987917244434 1.4393092393875122 
vt 0.990737795829773 1.4393092393875122 
vt 0.0067364987917244434 1.4894499778747559 
vt 0.990737795829773 1.4894499778747559 
vt 0.0067364987917244434 1.5395907163619995 
vt 0.990737795829773 1.5395907163619995 
vt 0.0067364987917244434 1.5897314548492432 
vt 0.990737795829773 1.5897314548492432 
vt 0.0067364987917244434 1.6398721933364868 
vt 0.990737795829773 1.6398721933364868 
vt 0.0067364987917244434 1.6899359226226807 
vt 0.990737795829773 1.6900129318237305 
vt 0.0067364987917244434 1.7400766611099243 
vt 0.990737795829773 1.7401536703109741 
vt 0.0067364987917244434 1.790217399597168 
vt 0.990737795829773 1.7902944087982178 
vt 0.0067364987917244434 1.8403581380844116 
vt 0.990737795829773 1.8404351472854614 
vt 0.0067364987917244434 1.8904988765716553 
vt 0.990737795829773 1.8904988765716553 
vt 0.0067364987917244434 1.940639615058899 
vt 0.990737795829773 1.940639615058899 
vt 0.0067364987917244434 1.9907803535461426 
vt 0.990737795829773 1.9907803535461426 
vt 0.0067364987917244434 2.040921211242676 
vt 0.990737795829773 2.040921211242676 
vt 0.0067364987917244434 2.09106183052063 
vt 0.990737795829773 2.09106183052063 
vt 0.0067364987917244434 2.141202449798584 
vt 0.990737795829773 2.141202449798584 
vt 0.0067364987917244434 2.191343307495117 
vt 0.990737795829773 2.191343307495117 
vt 0.0067364987917244434 2.2414839267730713 
vt 0.990737795829773 2.2414839267730713 
vt 0.990737795829773 2.281689167022705 
vt 0.0067364987917244434 2.281689167022705 
vt 0.990737795829773 2.3223562240600586 
vt 0.0067364987917244434 2.3223562240600586 
vt 0.990737795829773 2.362638235092163 
vt 0.0067364987917244434 2.362638235092163 
vt 0.990737795829773 2.4029202461242676 
vt 0.0067364987917244434 2.4029202461242676 
vt 0.0067364987917244434 2.443202257156372 
vt 0.990737795829773 2.443202257156372 
vt 0.990737795829773 2.4834072589874268 
vt 0.0067364987917244434 2.4834842681884766 
vt 0.990737795829773 2.5236892700195312 
vt 0.0067364987917244434 2.4834842681884766 
vt 0.0067364987917244434 2.5236892700195312 
vt 0.9936643838882446 0.23323588073253632 
vt 0.9936643838882446 0.001402365742251277 
vt 0.005700001958757639 0.001402365742251277 
vt 0.0067364987917244434 0.16337773203849792 
vt 0.990737795829773 0.16337773203849792 
vt 0.0067364987917244434 0.12309570610523224 
vt 0.990737795829773 0.12309570610523224 
vt 0.0067364987917244434 0.08281366527080536 
vt 0.990737795829773 0.08289068937301636 
vt 0.990737795829773 0.042608655989170074 
vt 0.0067364987917244434 0.042531631886959076 
vt 0.0067364987917244434 0.002249597804620862 
vt 0.990737795829773 0.042608655989170074 
vt 0.990737795829773 0.002326618880033493 
vt 0.0067364987917244434 0.002249597804620862 
s on 
f 1/1/1 2/2/2 3/3/3 
f 2/2/2 2/2/2 3/3/3 
f 3/3/3 2/2/2 4/4/4 
f 2/2/2 5/5/5 4/4/4 
f 4/4/4 5/5/5 6/6/6 
f 5/5/5 7/7/7 6/6/6 
f 6/6/6 7/7/7 8/8/8 
f 7/7/7 9/9/9 8/8/8 
f 8/8/8 9/9/9 10/10/10 
f 9/9/9 11/11/11 10/10/10 
f 10/10/10 11/11/11 12/12/12 
f 11/11/11 13/13/13 12/12/12 
f 12/12/12 13/13/13 14/14/14 
f 13/13/13 15/15/15 14/14/14 
f 14/14/14 15/15/15 16/16/16 
f 15/15/15 17/17/17 16/16/16 
f 16/16/16 17/17/17 18/18/18 
f 17/17/17 19/19/19 18/18/18 
f 18/18/18 19/19/19 20/20/20 
f 19/19/19 21/21/21 20/20/20 
f 20/20/20 21/21/21 22/22/22 
f 21/21/21 23/23/23 22/22/22 
f 22/22/22 23/23/23 24/24/24 
f 23/23/23 25/25/25 24/24/24 
f 24/24/24 25/25/25 26/26/26 
f 25/25/25 27/27/27 26/26/26 
f 26/26/26 27/27/27 28/28/28 
f 27/27/27 29/29/29 28/28/28 
f 28/28/28 29/29/29 30/30/30 
f 29/29/29 31/31/31 30/30/30 
f 30/30/30 31/31/31 30/30/30 
f 31/31/31 32/32/32 30/30/30 
f 30/30/30 32/32/32 33/33/33 
f 32/32/32 34/34/34 33/33/33 
f 33/33/33 34/34/34 35/35/35 
f 34/34/34 35/35/35 35/35/35 
f 35/35/35 35/35/35 36/36/36 
f 35/35/35 36/36/36 36/36/36 
f 36/36/36 36/36/36 37/37/37 
f 36/36/36 38/38/38 37/37/37 
f 37/37/37 38/38/38 38/38/38 
f 38/38/38 39/39/39 38/38/38 
f 38/38/38 39/39/39 39/39/39 
f 39/39/39 40/40/40 39/39/39 
f 39/39/39 40/40/40 41/41/41 
f 40/40/40 42/42/42 41/41/41 
f 41/41/41 42/42/42 42/42/42 
f 42/42/42 43/43/43 42/42/42 
f 42/42/42 43/43/43 43/43/43 
f 43/43/43 44/44/44 43/43/43 
f 43/43/43 44/44/44 42/42/42 
f 44/44/44 42/42/42 42/42/42 
f 42/42/42 42/42/42 45/45/45 
f 42/42/42 45/45/45 45/45/45 
f 45/45/45 45/45/45 46/46/46 
f 45/45/45 47/47/47 46/46/46 
f 46/46/46 47/47/47 47/47/47 
f 47/47/47 48/48/48 47/47/47 
f 47/47/47 48/48/48 48/48/48 
f 48/48/48 49/49/49 48/48/48 
f 48/48/48 49/49/49 50/50/50 
f 49/49/49 51/51/51 50/50/50 
f 50/50/50 51/51/51 51/51/51 
f 51/51/51 52/52/52 51/51/51 
f 51/51/51 52/52/52 52/52/52 
f 52/52/52 53/53/53 52/52/52 
f 52/52/52 53/53/53 51/51/51 
f 53/53/53 51/51/51 51/51/51 
f 51/51/51 51/51/51 54/54/54 
f 51/51/51 54/54/54 54/54/54 
f 54/54/54 54/54/54 55/55/55 
f 54/54/54 56/56/56 55/55/55 
f 55/55/55 56/56/56 56/56/56 
f 56/56/56 57/57/57 56/56/56 
f 56/56/56 57/57/57 57/57/57 
f 57/57/57 58/58/58 57/57/57 
f 57/57/57 58/58/58 59/59/59 
f 58/58/58 60/60/60 59/59/59 
f 59/59/59 60/60/60 60/60/60 
f 60/60/60 61/61/61 60/60/60 
f 60/60/60 61/61/61 61/61/61 
f 61/61/61 62/62/62 61/61/61 
f 61/61/61 62/62/62 60/60/60 
f 62/62/62 60/60/60 60/60/60 
f 60/60/60 60/60/60 63/63/63 
f 60/60/60 63/63/63 63/63/63 
f 63/63/63 63/63/63 64/64/64 
f 63/63/63 65/65/65 64/64/64 
f 64/64/64 65/65/65 65/65/65 
f 65/65/65 66/66/66 65/65/65 
f 65/65/65 66/66/66 66/66/66 
f 66/66/66 67/67/67 66/66/66 
f 66/66/66 67/67/67 68/68/68 
f 67/67/67 69/69/69 68/68/68 
f 68/68/68 69/69/69 69/69/69 
f 69/69/69 69/69/69 69/69/69 
f 69/69/69 69/69/69 69/69/69 
f 69/69/69 70/70/70 69/69/69 
f 69/69/69 70/70/70 71/71/71 
f 70/70/70 71/71/71 71/71/71 
f 71/71/71 71/71/71 72/72/72 
f 71/71/71 72/72/72 72/72/72 
f 72/72/72 72/72/72 73/73/73 
f 72/72/72 74/74/74 73/73/73 
f 73/73/73 74/74/74 74/74/74 
f 74/74/74 75/75/75 74/74/74 
f 74/74/74 75/75/75 75/75/75 
f 75/75/75 76/76/76 75/75/75 
f 75/75/75 76/76/76 77/77/77 
f 76/76/76 78/78/78 77/77/77 
f 77/77/77 78/78/78 78/78/78 
f 78/78/78 78/78/78 78/78/78 
f 78/78/78 78/78/78 78/78/78 
f 78/78/78 79/79/79 78/78/78 
f 78/78/78 79/79/79 80/80/80 
f 79/79/79 80/80/80 80/80/80 
f 80/80/80 80/80/80 81/81/81 
f 80/80/80 81/81/81 81/81/81 
f 81/81/81 81/81/81 82/82/82 
f 81/81/81 83/83/83 82/82/82 
f 82/82/82 83/83/83 83/83/83 
f 83/83/83 84/84/84 83/83/83 
f 83/83/83 84/84/84 84/84/84 
f 84/84/84 85/85/85 84/84/84 
f 84/84/84 85/85/85 86/86/86 
f 85/85/85 87/87/87 86/86/86 
f 86/86/86 87/87/87 87/87/87 
f 87/87/87 87/87/87 87/87/87 
f 87/87/87 87/87/87 87/87/87 
f 87/87/87 88/88/88 87/87/87 
f 87/87/87 88/88/88 89/89/89 
f 88/88/88 89/89/89 89/89/89 
f 89/89/89 89/89/89 90/90/90 
f 89/89/89 90/90/90 90/90/90 
f 90/90/90 90/90/90 91/91/91 
f 90/90/90 92/92/92 91/91/91 
f 91/91/91 92/92/92 92/92/92 
f 92/92/92 93/93/93 92/92/92 
f 92/92/92 93/93/93 93/93/93 
f 93/93/93 94/94/94 93/93/93 
f 93/93/93 94/94/94 95/95/95 
f 94/94/94 96/96/96 95/95/95 
f 95/95/95 96/96/96 96/96/96 
f 96/96/96 97/97/97 96/96/96 
f 96/96/96 97/97/97 97/97/97 
f 97/97/97 98/98/98 97/97/97 
f 97/97/97 98/98/98 96/96/96 
f 98/98/98 96/96/96 96/96/96 
f 96/96/96 96/96/96 99/99/99 
f 96/96/96 99/99/99 99/99/99 
f 99/99/99 99/99/99 100/100/100 
f 99/99/99 101/101/101 100/100/100 
f 100/100/100 101/101/101 101/101/101 
f 101/101/101 102/102/102 101/101/101 
f 101/101/101 102/102/102 102/102/102 
f 102/102/102 103/103/103 102/102/102 
f 102/102/102 103/103/103 104/104/104 
f 103/103/103 104/104/104 104/104/104 
f 104/104/104 104/104/104 102/102/102 
f 104/104/104 102/102/102 102/102/102 
f 102/102/102 102/102/102 105/105/105 
f 102/102/102 106/106/106 105/105/105 
f 105/105/105 106/106/106 107/107/107 
f 106/106/106 107/107/107 107/107/107 
f 107/107/107 107/107/107 108/108/108 
f 107/107/107 108/108/108 108/108/108 
f 108/108/108 108/108/108 107/107/107 
f 108/108/108 109/109/109 107/107/107 
f 107/107/107 109/109/109 109/109/109 
f 109/109/109 110/110/110 109/109/109 
f 109/109/109 110/110/110 110/110/110 
f 110/110/110 111/111/111 110/110/110 
f 110/110/110 111/111/111 112/112/112 
f 111/111/111 113/113/113 112/112/112 
f 112/112/112 113/113/113 113/113/113 
f 113/113/113 114/114/114 113/113/113 
f 113/113/113 114/114/114 114/114/114 
f 114/114/114 115/115/115 114/114/114 
f 114/114/114 115/115/115 116/116/116 
f 115/115/115 117/117/117 116/116/116 
f 116/116/116 117/117/117 117/117/117 
f 117/117/117 118/118/118 117/117/117 
f 117/117/117 118/118/118 118/118/118 
f 118/118/118 119/119/119 118/118/118 
f 118/118/118 119/119/119 120/120/120 
f 119/119/119 121/121/121 120/120/120 
f 120/120/120 121/121/121 121/121/121 
f 121/121/121 122/122/122 121/121/121 
f 121/121/121 122/122/122 122/122/122 
f 122/122/122 123/123/123 122/122/122 
f 122/122/122 123/123/123 124/124/124 
f 123/123/123 125/125/125 124/124/124 
f 124/124/124 125/125/125 125/125/125 
f 125/125/125 126/126/126 125/125/125 
f 125/125/125 126/126/126 126/126/126 
f 126/126/126 127/127/127 126/126/126 
f 126/126/126 127/127/127 128/128/128 
f 127/127/127 129/129/129 128/128/128 
f 128/128/128 129/129/129 129/129/129 
f 129/129/129 130/130/130 129/129/129 
f 129/129/129 130/130/130 130/130/130 
f 130/130/130 131/131/131 130/130/130 
f 130/130/130 131/131/131 132/132/132 
f 131/131/131 133/133/133 132/132/132 
f 132/132/132 133/133/133 133/133/133 
f 133/133/133 134/134/134 133/133/133 
f 133/133/133 134/134/134 134/134/134 
f 134/134/134 135/135/135 134/134/134 
f 134/134/134 135/135/135 136/136/136 
f 135/135/135 137/137/137 136/136/136 
f 136/136/136 137/137/137 137/137/137 
f 137/137/137 138/138/138 137/137/137 
f 137/137/137 138/138/138 138/138/138 
f 138/138/138 139/139/139 138/138/138 
f 138/138/138 139/139/139 140/140/140 
f 139/139/139 139/139/139 140/140/140 
f 140/140/140 139/139/139 141/141/141 
f 139/139/139 139/139/139 141/141/141 
f 141/141/141 139/139/139 142/142/142 
f 139/139/139 143/143/143 142/142/142 
f 142/142/142 143/143/143 144/144/144 
f 143/143/143 145/145/145 144/144/144 
f 144/144/144 145/145/145 146/146/146 
f 145/145/145 147/147/147 146/146/146 
f 146/146/146 147/147/147 148/148/148 
f 147/147/147 149/149/149 148/148/148 
f 148/148/148 149/149/149 150/150/150 
f 149/149/149 151/151/151 150/150/150 
f 150/150/150 151/151/151 152/152/152 
f 151/151/151 153/153/153 152/152/152 
f 152/152/152 153/153/153 154/154/154 
f 153/153/153 155/155/155 154/154/154 
f 154/154/154 155/155/155 156/156/156 
f 155/155/155 157/157/157 156/156/156 
f 156/156/156 157/157/157 157/157/157 
f 157/157/157 158/158/158 157/157/157 
f 157/157/157 158/158/158 158/158/158 
f 158/158/158 159/159/159 158/158/158 
f 158/158/158 159/159/159 160/160/160 
f 159/159/159 161/161/161 160/160/160 
f 160/160/160 161/161/161 161/161/161 
f 161/161/161 162/162/162 161/161/161 
f 161/161/161 162/162/162 162/162/162 
f 162/162/162 163/163/163 162/162/162 
f 162/162/162 163/163/163 164/164/164 
f 163/163/163 165/165/165 164/164/164 
f 164/164/164 165/165/165 165/165/165 
f 165/165/165 166/166/166 165/165/165 
f 165/165/165 166/166/166 166/166/166 
f 166/166/166 167/167/167 166/166/166 
f 166/166/166 167/167/167 168/168/168 
f 167/167/167 169/169/169 168/168/168 
f 168/168/168 169/169/169 169/169/169 
f 169/169/169 170/170/170 169/169/169 
f 169/169/169 170/170/170 170/170/170 
f 170/170/170 171/171/171 170/170/170 
f 170/170/170 171/171/171 172/172/172 
f 171/171/171 173/173/173 172/172/172 
f 172/172/172 173/173/173 173/173/173 
f 173/173/173 174/174/174 173/173/173 
f 173/173/173 174/174/174 174/174/174 
f 174/174/174 175/175/175 174/174/174 
f 174/174/174 175/175/175 176/176/176 
f 175/175/175 177/177/177 176/176/176 
f 176/176/176 177/177/177 177/177/177 
f 177/177/177 178/178/178 177/177/177 
f 177/177/177 178/178/178 178/178/178 
f 178/178/178 179/179/179 178/178/178 
f 178/178/178 179/179/179 180/180/180 
f 179/179/179 181/181/181 180/180/180 
f 180/180/180 181/181/181 181/181/181 
f 181/181/181 182/182/182 181/181/181 
f 181/181/181 182/182/182 182/182/182 
f 182/182/182 183/183/183 182/182/182 
f 182/182/182 183/183/183 184/184/184 
f 183/183/183 185/185/185 184/184/184 
f 184/184/184 185/185/185 185/185/185 
f 185/185/185 186/186/186 185/185/185 
f 185/185/185 186/186/186 186/186/186 
f 186/186/186 187/187/187 186/186/186 
f 186/186/186 187/187/187 188/188/188 
f 187/187/187 189/189/189 188/188/188 
f 188/188/188 189/189/189 189/189/189 
f 189/189/189 190/190/190 189/189/189 
f 189/189/189 190/190/190 190/190/190 
f 190/190/190 191/191/191 190/190/190 
f 190/190/190 191/191/191 192/192/192 
f 191/191/191 192/192/192 192/192/192 
f 192/192/192 192/192/192 193/193/193 
f 192/192/192 193/193/193 193/193/193 
f 193/193/193 193/193/193 194/194/194 
f 193/193/193 195/195/195 194/194/194 
f 194/194/194 195/195/195 195/195/195 
f 195/195/195 196/196/196 195/195/195 
f 195/195/195 196/196/196 196/196/196 
f 196/196/196 197/197/197 196/196/196 
f 196/196/196 197/197/197 198/198/198 
f 197/197/197 199/199/199 198/198/198 
f 198/198/198 199/199/199 200/200/200 
f 199/199/199 201/201/201 200/200/200 
f 200/200/200 201/201/201 202/202/202 
f 201/201/201 203/203/203 202/202/202 
f 202/202/202 203/203/203 204/204/204 
f 203/203/203 205/205/205 204/204/204 
f 204/204/204 205/205/205 206/206/206 
f 205/205/205 205/205/205 206/206/206 
f 206/206/206 205/205/205 207/207/207 
f 205/205/205 208/208/208 207/207/207 
f 207/207/207 208/208/208 208/208/208 
f 208/208/208 209/209/209 208/208/208 
f 208/208/208 209/209/209 209/209/209 
f 209/209/209 210/210/210 209/209/209 
f 209/209/209 210/210/210 211/211/211 
f 210/210/210 212/212/212 211/211/211 
f 211/211/211 212/212/212 213/213/213 
f 212/212/212 214/214/214 213/213/213 
f 213/213/213 214/214/214 215/215/215 
f 214/214/214 216/216/216 215/215/215 
f 215/215/215 216/216/216 217/217/217 
f 216/216/216 218/218/218 217/217/217 
f 217/217/217 218/218/218 219/219/219 
f 218/218/218 220/220/220 219/219/219 
f 219/219/219 220/220/220 221/221/221 
f 220/220/220 222/222/222 221/221/221 
f 221/221/221 222/222/222 223/223/223 
f 222/222/222 224/224/224 223/223/223 
f 223/223/223 224/224/224 225/225/225 
f 224/224/224 226/226/226 225/225/225 
f 225/225/225 226/226/226 227/227/227 
f 226/226/226 228/228/228 227/227/227 
f 227/227/227 228/228/228 229/229/229 
f 228/228/228 230/230/230 229/229/229 
f 229/229/229 230/230/230 231/231/231 
f 230/230/230 232/232/232 231/231/231 
f 231/231/231 232/232/232 233/233/233 
f 232/232/232 234/234/234 233/233/233 
f 233/233/233 234/234/234 235/235/235 
f 234/234/234 236/236/236 235/235/235 
f 235/235/235 236/236/236 237/237/237 
f 236/236/236 238/238/238 237/237/237 
f 237/237/237 238/238/238 239/239/239 
f 238/238/238 240/240/240 239/239/239 
f 239/239/239 240/240/240 241/241/241 
f 240/240/240 242/242/242 241/241/241 
f 241/241/241 242/242/242 243/243/243 
f 242/242/242 244/244/244 243/243/243 
f 243/243/243 244/244/244 245/245/245 
f 244/244/244 246/246/246 245/245/245 
f 245/245/245 246/246/246 247/247/247 
f 246/246/246 248/248/248 247/247/247 
f 247/247/247 248/248/248 249/249/249 
f 248/248/248 250/250/250 249/249/249 
f 249/249/249 250/250/250 251/251/251 
f 250/250/250 252/252/252 251/251/251 
f 251/251/251 252/252/252 253/253/253 
f 252/252/252 254/254/254 253/253/253 
f 253/253/253 254/254/254 255/255/255 
f 254/254/254 256/256/256 255/255/255 
f 255/255/255 256/256/256 257/257/257 
f 256/256/256 258/258/258 257/257/257 
f 257/257/257 258/258/258 259/259/259 
f 258/258/258 260/260/260 259/259/259 
f 259/259/259 260/260/260 261/261/261 
f 260/260/260 262/262/262 261/261/261 
f 261/261/261 262/262/262 263/263/263 
f 262/262/262 264/264/264 263/263/263 
f 263/263/263 264/264/264 265/265/265 
f 264/264/264 266/266/266 265/265/265 
f 265/265/265 266/266/266 267/267/267 
f 266/266/266 268/268/268 267/267/267 
f 267/267/267 268/268/268 269/269/269 
f 268/268/268 270/270/270 269/269/269 
f 269/269/269 270/270/270 271/271/271 
f 270/270/270 272/272/272 271/271/271 
f 271/271/271 272/272/272 273/273/273 
f 272/272/272 274/274/274 273/273/273 
f 273/273/273 274/274/274 275/275/275 
f 274/274/274 276/276/276 275/275/275 
f 275/275/275 276/276/276 277/277/277 
f 276/276/276 278/278/278 277/277/277 
f 277/277/277 278/278/278 279/279/279 
f 278/278/278 280/280/280 279/279/279 
f 279/279/279 280/280/280 281/281/281 
f 280/280/280 282/282/282 281/281/281 
f 281/281/281 282/282/282 283/283/283 
f 282/282/282 284/284/284 283/283/283 
f 283/283/283 284/284/284 285/285/285 
f 284/284/284 286/286/286 285/285/285 
f 285/285/285 286/286/286 287/287/287 
f 286/286/286 288/288/288 287/287/287 
f 287/287/287 288/288/288 289/289/289 
f 288/288/288 290/290/290 289/289/289 
f 289/289/289 290/290/290 291/291/291 
f 290/290/290 292/292/292 291/291/291 
f 291/291/291 292/292/292 293/293/293 
f 292/292/292 294/294/294 293/293/293 
f 293/293/293 294/294/294 295/295/295 
f 294/294/294 296/296/296 295/295/295 
f 295/295/295 296/296/296 297/297/297 
f 296/296/296 298/298/298 297/297/297 
f 297/297/297 298/298/298 299/299/299 
f 298/298/298 300/300/300 299/299/299 
f 299/299/299 300/300/300 299/299/299 
f 300/300/300 301/301/301 299/299/299 
f 299/299/299 301/301/301 302/302/302 
f 301/301/301 303/303/303 302/302/302 
f 302/302/302 303/303/303 304/304/304 
f 303/303/303 305/305/305 304/304/304 
f 304/304/304 305/305/305 306/306/306 
f 305/305/305 307/307/307 306/306/306 
f 306/306/306 307/307/307 308/308/308 
f 307/307/307 307/307/307 308/308/308 
f 308/308/308 307/307/307 309/309/309 
f 307/307/307 310/310/310 309/309/309 
f 309/309/309 310/310/310 309/309/309 
f 310/310/310 311/311/311 309/309/309 
f 309/309/309 311/311/311 312/312/312 
f 311/311/311 313/313/313 312/312/312 
f 312/312/312 313/313/313 313/313/313 
f 313/313/313 314/314/314 313/313/313 
f 313/313/313 314/314/314 314/314/314 
f 314/314/314 313/313/313 314/314/314 
f 314/314/314 313/313/313 315/315/315 
f 313/313/313 315/315/315 315/315/315 
f 315/315/315 315/315/315 316/316/316 
f 315/315/315 316/316/316 316/316/316 
f 316/316/316 316/316/316 317/317/317 
f 316/316/316 318/318/318 317/317/317 
f 317/317/317 318/318/318 318/318/318 
f 318/318/318 209/209/209 318/318/318 
f 318/318/318 209/209/209 209/209/209 
f 209/209/209 319/319/319 209/209/209 
f 209/209/209 319/319/319 210/210/210 
f 319/319/319 319/319/319 210/210/210 
f 210/210/210 319/319/319 320/320/320 
f 319/319/319 321/321/321 320/320/320 
f 320/320/320 321/321/321 322/322/322 
f 321/321/321 323/323/323 322/322/322 
f 322/322/322 323/323/323 324/324/324 
f 323/323/323 323/323/323 324/324/324 
f 324/324/324 323/323/323 325/325/325 
f 323/323/323 326/326/326 325/325/325 
f 325/325/325 326/326/326 327/327/327 
f 326/326/326 327/327/327 327/327/327 
f 327/327/327 327/327/327 328/328/328 
f 327/327/327 328/328/328 328/328/328 
f 328/328/328 328/328/328 329/329/329 
f 328/328/328 330/330/330 329/329/329 
f 329/329/329 330/330/330 330/330/330 
f 330/330/330 331/331/331 330/330/330 
f 330/330/330 331/331/331 331/331/331 
f 331/331/331 332/332/332 331/331/331 
f 331/331/331 332/332/332 333/333/333 
f 332/332/332 334/334/334 333/333/333 
f 333/333/333 334/334/334 335/335/335 
f 334/334/334 336/336/336 335/335/335 
f 335/335/335 336/336/336 337/337/337 
f 336/336/336 338/338/338 337/337/337 
f 337/337/337 338/338/338 339/339/339 
f 338/338/338 340/340/340 339/339/339 
f 339/339/339 340/340/340 341/341/341 
f 340/340/340 340/340/340 341/341/341 
f 341/341/341 340/340/340 342/342/342 
f 340/340/340 343/343/343 342/342/342 
f 342/342/342 343/343/343 343/343/343 
f 343/343/343 344/344/344 343/343/343 
f 343/343/343 344/344/344 344/344/344 
f 344/344/344 345/345/345 344/344/344 
f 344/344/344 345/345/345 346/346/346 
f 345/345/345 347/347/347 346/346/346 
f 346/346/346 347/347/347 348/348/348 
f 347/347/347 349/349/349 348/348/348 
f 348/348/348 349/349/349 350/350/350 
f 349/349/349 351/351/351 350/350/350 
f 350/350/350 351/351/351 352/352/352 
f 351/351/351 353/353/353 352/352/352 
f 352/352/352 353/353/353 354/354/354 
f 353/353/353 355/355/355 354/354/354 
f 354/354/354 355/355/355 356/356/356 
f 355/355/355 357/357/357 356/356/356 
f 356/356/356 357/357/357 358/358/358 
f 357/357/357 359/359/359 358/358/358 
f 358/358/358 359/359/359 360/360/360 
f 359/359/359 361/361/361 360/360/360 
f 360/360/360 361/361/361 362/362/362 
f 361/361/361 363/363/363 362/362/362 
f 362/362/362 363/363/363 364/364/364 
f 363/363/363 365/365/365 364/364/364 
f 364/364/364 365/365/365 366/366/366 
f 365/365/365 367/367/367 366/366/366 
f 366/366/366 367/367/367 368/368/368 
f 367/367/367 369/369/369 368/368/368 
f 368/368/368 369/369/369 370/370/370 
f 369/369/369 371/371/371 370/370/370 
f 370/370/370 371/371/371 372/372/372 
f 371/371/371 373/373/373 372/372/372 
f 372/372/372 373/373/373 374/374/374 
f 373/373/373 375/375/375 374/374/374 
f 374/374/374 375/375/375 376/376/376 
f 375/375/375 377/377/377 376/376/376 
f 376/376/376 377/377/377 378/378/378 
f 377/377/377 379/379/379 378/378/378 
f 378/378/378 379/379/379 380/380/380 
f 379/379/379 381/381/381 380/380/380 
f 380/380/380 381/381/381 382/382/382 
f 381/381/381 383/383/383 382/382/382 
f 382/382/382 383/383/383 384/384/384 
f 383/383/383 385/385/385 384/384/384 
f 384/384/384 385/385/385 386/386/386 
f 385/385/385 387/387/387 386/386/386 
f 386/386/386 387/387/387 388/388/388 
f 387/387/387 389/389/389 388/388/388 
f 388/388/388 389/389/389 390/390/390 
f 389/389/389 391/391/391 390/390/390 
f 390/390/390 391/391/391 392/392/392 
f 391/391/391 393/393/393 392/392/392 
f 392/392/392 393/393/393 394/394/394 
f 393/393/393 395/395/395 394/394/394 
f 394/394/394 395/395/395 396/396/396 
f 395/395/395 397/397/397 396/396/396 
f 396/396/396 397/397/397 398/398/398 
f 397/397/397 399/399/399 398/398/398 
f 398/398/398 399/399/399 400/400/400 
f 399/399/399 401/401/401 400/400/400 
f 400/400/400 401/401/401 402/402/402 
f 401/401/401 403/403/403 402/402/402 
f 402/402/402 403/403/403 404/404/404 
f 403/403/403 405/405/405 404/404/404 
f 404/404/404 405/405/405 406/406/406 
f 405/405/405 407/407/407 406/406/406 
f 406/406/406 407/407/407 408/408/408 
f 407/407/407 409/409/409 408/408/408 
f 408/408/408 409/409/409 410/410/410 
f 409/409/409 411/411/411 410/410/410 
f 410/410/410 411/411/411 412/412/412 
f 411/411/411 413/413/413 412/412/412 
f 412/412/412 413/413/413 414/414/414 
f 413/413/413 415/415/415 414/414/414 
f 414/414/414 415/415/415 416/416/416 
f 415/415/415 417/417/417 416/416/416 
f 416/416/416 417/417/417 418/418/418 
f 417/417/417 419/419/419 418/418/418 
f 418/418/418 419/419/419 420/420/420 
f 419/419/419 421/421/421 420/420/420 
f 420/420/420 421/421/421 422/422/422 
f 421/421/421 423/423/423 422/422/422 
f 422/422/422 423/423/423 424/424/424 
f 423/423/423 425/425/425 424/424/424 
f 424/424/424 425/425/425 426/426/426 
f 425/425/425 427/427/427 426/426/426 
f 426/426/426 427/427/427 428/428/428 
f 427/427/427 429/429/429 428/428/428 
f 428/428/428 429/429/429 430/430/430 
f 429/429/429 431/431/431 430/430/430 
f 430/430/430 431/431/431 432/432/432 
f 431/431/431 433/433/433 432/432/432 
f 432/432/432 433/433/433 434/434/434 
f 433/433/433 435/435/435 434/434/434 
f 434/434/434 435/435/435 434/434/434 
f 435/435/435 436/436/436 434/434/434 
f 434/434/434 436/436/436 437/437/437 
f 436/436/436 438/438/438 437/437/437 
f 437/437/437 438/438/438 439/439/439 
f 438/438/438 440/440/440 439/439/439 
f 439/439/439 440/440/440 441/441/441 
f 440/440/440 442/442/442 441/441/441 
f 441/441/441 442/442/442 443/443/443 
f 442/442/442 442/442/442 443/443/443 
f 443/443/443 442/442/442 444/444/444 
f 442/442/442 445/445/445 444/444/444 
f 444/444/444 445/445/445 444/444/444 
f 445/445/445 446/446/446 444/444/444 
f 444/444/444 446/446/446 447/447/447 
f 446/446/446 448/448/448 447/447/447 
f 447/447/447 448/448/448 448/448/448 
f 448/448/448 449/449/449 448/448/448 
f 448/448/448 449/449/449 449/449/449 
f 449/449/449 448/448/448 449/449/449 
f 449/449/449 448/448/448 450/450/450 
f 448/448/448 450/450/450 450/450/450 
f 450/450/450 450/450/450 451/451/451 
f 450/450/450 451/451/451 451/451/451 
f 451/451/451 451/451/451 452/452/452 
f 451/451/451 453/453/453 452/452/452 
f 452/452/452 453/453/453 453/453/453 
f 453/453/453 344/344/344 453/453/453 
f 453/453/453 344/344/344 344/344/344 
f 344/344/344 454/454/454 344/344/344 
f 344/344/344 454/454/454 345/345/345 
f 454/454/454 454/454/454 345/345/345 
f 345/345/345 454/454/454 455/455/455 
f 454/454/454 456/456/456 455/455/455 
f 455/455/455 456/456/456 457/457/457 
f 456/456/456 458/458/458 457/457/457 
f 457/457/457 458/458/458 459/459/459 
f 458/458/458 458/458/458 459/459/459 
f 459/459/459 458/458/458 460/460/460 
f 458/458/458 461/461/461 460/460/460 
f 460/460/460 461/461/461 462/462/462 
f 461/461/461 462/462/462 462/462/462 
f 462/462/462 462/462/462 463/463/463 
f 462/462/462 463/463/463 463/463/463 
f 463/463/463 463/463/463 464/464/464 
f 463/463/463 465/465/465 464/464/464 

