mtllib model_9.mtl
o model_9
v 1304.83349609375 218.5227813720703 -963.8421020507812 
v 1302.94287109375 220.20941162109375 -966.326171875 
v 1293.0953369140625 213.01968383789062 -962.9849243164062 
v 1291.409423828125 214.80197143554688 -965.5277099609375 
v 1314.476318359375 225.61683654785156 -966.1865234375 
v 1316.57177734375 224.02586364746094 -963.7613525390625 
v 1326.009765625 231.0242462158203 -965.5001831054688 
v 1328.31005859375 229.5289764404297 -963.1336059570312 
v 1337.543212890625 236.43167114257812 -964.7405395507812 
v 1340.04833984375 235.03207397460938 -962.432861328125 
v 1349.07666015625 241.83909606933594 -964.8302001953125 
v 1351.7864990234375 240.53515625 -962.5811767578125 
v 1360.610107421875 247.2465057373047 -965.4725952148438 
v 1363.5247802734375 246.03823852539062 -963.2824096679688 
v 1372.1435546875 252.65396118164062 -965.8291015625 
v 1375.2630615234375 251.54132080078125 -963.697509765625 
v 1383.677001953125 258.0613708496094 -965.4542846679688 
v 1387.0013427734375 257.04443359375 -963.381591796875 
v 1386.9498291015625 250.4051971435547 -965.5646362304688 
v 1375.3961181640625 245.01194763183594 -965.94921875 
v 1363.8424072265625 239.6187286376953 -965.6026611328125 
v 1352.2886962890625 234.2255096435547 -964.9700927734375 
v 1340.7349853515625 228.83229064941406 -964.890380859375 
v 1329.1812744140625 223.43907165527344 -965.6597900390625 
v 1317.6275634765625 218.04588317871094 -966.3560791015625 
v 1306.0738525390625 212.6526336669922 -966.5054321289062 
v 1294.5201416015625 207.2593994140625 -965.7169189453125 
v 1288.3118896484375 209.45823669433594 -962.8343505859375 
v 1285.668212890625 209.96250915527344 -965.378173828125 
v 1284.8721923828125 205.32742309570312 -962.9947509765625 
v 1281.297607421875 204.68521118164062 -965.542236328125 
v 1283.227783203125 201.5616455078125 -962.9057006835938 
v 1280.0867919921875 200.23739624023438 -965.4962768554688 
v 1282.539306640625 197.3050537109375 -963.021728515625 
v 1279.7313232421875 195.07586669921875 -965.6100463867188 
v 1282.2657470703125 186.8440704345703 -964.1184692382812 
v 1279.5098876953125 184.68690490722656 -966.4191284179688 
v 1281.6837158203125 166.85623168945312 -964.6390991210938 
v 1279.10400390625 165.4667205810547 -966.58935546875 
v 1281.1015625 146.86839294433594 -965.7057495117188 
v 1278.697998046875 146.24656677246094 -967.3053588867188 
v 1280.51953125 126.88053894042969 -966.4994506835938 
v 1278.2919921875 127.0263671875 -967.74853515625 
v 1280.2008056640625 126.38096618652344 -971.7549438476562 
v 1276.927490234375 126.63868713378906 -971.7549438476562 
v 1278.2919921875 127.0263671875 -975.76123046875 
v 1280.51953125 126.88053894042969 -977.0103759765625 
v 1278.6978759765625 146.24652099609375 -976.2044067382812 
v 1277.136962890625 145.99407958984375 -971.7549438476562 
v 1277.346435546875 165.34951782226562 -971.4818725585938 
v 1278.697998046875 146.24656677246094 -967.3053588867188 
v 1279.10400390625 165.4667205810547 -966.58935546875 
v 1277.555908203125 184.70492553710938 -971.7549438476562 
v 1279.5098876953125 184.68690490722656 -966.4191284179688 
v 1276.927490234375 126.63868713378906 -971.7549438476562 
v 1278.2919921875 127.0263671875 -967.74853515625 
v 1279.1038818359375 165.46669006347656 -976.37451171875 
v 1281.1015625 146.86839294433594 -977.8040161132812 
v 1278.341064453125 195.19859313964844 -971.7531127929688 
v 1279.5098876953125 184.68685913085938 -977.0906372070312 
v 1281.68359375 166.8562469482422 -978.32470703125 
v 1279.7313232421875 195.07586669921875 -965.6100463867188 
v 1279.26025390625 200.51600646972656 -971.652587890625 
v 1280.0867919921875 200.23739624023438 -965.4962768554688 
v 1281.297607421875 204.68521118164062 -965.542236328125 
v 1280.4713134765625 205.0992431640625 -971.7504272460938 
v 1284.976806640625 210.53440856933594 -971.6077880859375 
v 1285.6710205078125 209.94940185546875 -977.8504638671875 
v 1290.876220703125 215.56544494628906 -971.7527465820312 
v 1291.409423828125 214.80197143554688 -965.5277099609375 
v 1302.94287109375 220.20941162109375 -966.326171875 
v 1285.668212890625 209.96250915527344 -965.378173828125 
v 1280.0968017578125 200.2297821044922 -977.8200073242188 
v 1281.2911376953125 204.6974639892578 -977.9464721679688 
v 1279.7281494140625 195.05712890625 -977.8959350585938 
v 1282.265625 186.84410095214844 -979.3912963867188 
v 1282.5318603515625 197.27114868164062 -980.4869384765625 
v 1283.2413330078125 201.58274841308594 -980.3930053710938 
v 1284.85107421875 205.3117218017578 -980.5121459960938 
v 1288.331298828125 209.45895385742188 -980.3770141601562 
v 1291.4234619140625 214.81759643554688 -977.971435546875 
v 1302.502685546875 220.9877471923828 -972.5606079101562 
v 1314.129150390625 226.41004943847656 -972.4305419921875 
v 1314.476318359375 225.61683654785156 -966.1865234375 
v 1325.755615234375 231.83236694335938 -971.7536010742188 
v 1326.009765625 231.0242462158203 -965.5001831054688 
v 1337.382080078125 237.25462341308594 -971.00341796875 
v 1337.543212890625 236.43167114257812 -964.7405395507812 
v 1349.07666015625 241.83909606933594 -964.8302001953125 
v 1349.008544921875 242.67689514160156 -971.1025390625 
v 1360.610107421875 247.2465057373047 -965.4725952148438 
v 1360.6351318359375 248.09921264648438 -971.7543334960938 
v 1372.1435546875 252.65396118164062 -965.8291015625 
v 1372.261474609375 253.52151489257812 -972.1201782226562 
v 1383.677001953125 258.0613708496094 -965.4542846679688 
v 1383.8880615234375 258.94378662109375 -971.7549438476562 
v 1383.6768798828125 258.0614929199219 -978.0552978515625 
v 1372.145263671875 252.65597534179688 -978.4103393554688 
v 1360.6136474609375 247.2505340576172 -978.0343017578125 
v 1349.0819091796875 241.8450164794922 -977.3721923828125 
v 1337.55029296875 236.43955993652344 -977.2628784179688 
v 1326.0185546875 231.0340576171875 -978.0028076171875 
v 1314.4869384765625 225.62857055664062 -978.6696166992188 
v 1302.9552001953125 220.2230987548828 -978.78955078125 
v 1293.1058349609375 213.0312957763672 -980.5238647460938 
v 1304.8427734375 218.53297424316406 -981.2819213867188 
v 1316.5797119140625 224.03466796875 -981.1021728515625 
v 1328.316650390625 229.53631591796875 -980.37548828125 
v 1340.0535888671875 235.03799438476562 -979.5756225585938 
v 1351.7904052734375 240.53964233398438 -979.6249389648438 
v 1363.52734375 246.04132080078125 -980.2271118164062 
v 1375.2642822265625 251.54299926757812 -980.543212890625 
v 1387.001220703125 257.0446472167969 -980.128173828125 
v 1387.7047119140625 257.7330322265625 -971.7549438476562 
v 1386.94970703125 250.40524291992188 -977.9451293945312 
v 1386.6552734375 250.4640350341797 -971.7548217773438 
v 1386.9498291015625 250.4051971435547 -965.5646362304688 
v 1387.0013427734375 257.04443359375 -963.381591796875 
v 1383.677001953125 258.0613708496094 -965.4542846679688 
v 1383.8880615234375 258.94378662109375 -971.7549438476562 
v 1375.4014892578125 245.01283264160156 -978.2889404296875 
v 1363.85302734375 239.62042236328125 -977.9015502929688 
v 1352.3046875 234.22801208496094 -977.2280883789062 
v 1340.7564697265625 228.83563232421875 -977.107421875 
v 1329.2081298828125 223.44322204589844 -977.8360595703125 
v 1317.6597900390625 218.05081176757812 -978.4915161132812 
v 1306.1114501953125 212.6584014892578 -978.5999145507812 
v 1294.5631103515625 207.26602172851562 -977.7706298828125 
v 1386.6552734375 250.4640350341797 -971.7548217773438 
v 1305.92578125 212.96229553222656 -972.5623779296875 
v 1317.4586181640625 218.31967163085938 -972.43212890625 
v 1328.9913330078125 223.67706298828125 -971.7549438476562 
v 1340.524169921875 229.0344696044922 -971.0045166015625 
v 1352.056884765625 234.39187622070312 -971.103271484375 
v 1363.5897216796875 239.74923706054688 -971.7549438476562 
v 1375.12255859375 245.10662841796875 -972.1204833984375 
v 1375.3961181640625 245.01194763183594 -965.94921875 
v 1386.9498291015625 250.4051971435547 -965.5646362304688 
v 1363.8424072265625 239.6187286376953 -965.6026611328125 
v 1352.2886962890625 234.2255096435547 -964.9700927734375 
v 1340.7349853515625 228.83229064941406 -964.890380859375 
v 1329.1812744140625 223.43907165527344 -965.6597900390625 
v 1317.6275634765625 218.04588317871094 -966.3560791015625 
v 1306.0738525390625 212.6526336669922 -966.5054321289062 
v 1294.3929443359375 207.6049041748047 -971.7549438476562 
v 1294.5201416015625 207.2593994140625 -965.7169189453125 
v 1290.3843994140625 205.2123260498047 -971.6033935546875 
v 1290.6181640625 204.9053955078125 -965.5964965820312 
v 1288.0565185546875 201.86953735351562 -965.6263427734375 
v 1287.8271484375 202.07952880859375 -971.7549438476562 
v 1290.592529296875 204.91595458984375 -977.6480712890625 
v 1288.0731201171875 201.85504150390625 -977.8471069335938 
v 1286.8128662109375 198.5132598876953 -978.2261962890625 
v 1286.47314453125 194.98193359375 -977.9814453125 
v 1286.2589111328125 184.4062042236328 -977.2158813476562 
v 1285.4053955078125 165.2151336669922 -976.4929809570312 
v 1284.5517578125 146.0240478515625 -976.3159790039062 
v 1283.6982421875 126.83296203613281 -975.8660278320312 
v 1285.052490234375 126.99150085449219 -971.7549438476562 
v 1283.6982421875 126.83296203613281 -967.6437377929688 
v 1284.5517578125 146.02398681640625 -967.1937866210938 
v 1285.4053955078125 165.21507263183594 -966.4708862304688 
v 1286.2589111328125 184.40611267089844 -966.2940063476562 
v 1286.4713134765625 195.00921630859375 -965.5193481445312 
v 1286.8253173828125 198.5049591064453 -965.0933227539062 
v 1288.0565185546875 201.86953735351562 -965.6263427734375 
v 1290.6181640625 204.9053955078125 -965.5964965820312 
v 1283.6982421875 126.83296203613281 -967.6437377929688 
v 1285.052490234375 126.99150085449219 -971.7549438476562 
v 1284.5517578125 146.02398681640625 -967.1937866210938 
v 1286.004150390625 146.1299285888672 -971.7549438476562 
v 1285.4053955078125 165.21507263183594 -966.4708862304688 
v 1286.955810546875 165.26832580566406 -971.4818725585938 
v 1286.2589111328125 184.40611267089844 -966.2940063476562 
v 1287.9075927734375 184.40676879882812 -971.7549438476562 
v 1286.2269287109375 195.06512451171875 -971.7549438476562 
v 1286.4713134765625 195.00921630859375 -965.5193481445312 
v 1286.6748046875 198.6546173095703 -971.6492919921875 
v 1286.8253173828125 198.5049591064453 -965.0933227539062 
v 1384.5606689453125 289.21356201171875 -962.7271728515625 
v 1381.1663818359375 284.4123229980469 -962.6871337890625 
v 1381.7586669921875 289.03759765625 -965.1992797851562 
v 1377.2864990234375 282.922119140625 -965.0781860351562 
v 1387.1240234375 292.879150390625 -965.4983520507812 
v 1389.2161865234375 291.5786437988281 -963.0110473632812 
v 1399.2010498046875 296.77227783203125 -965.7489624023438 
v 1399.8856201171875 294.6346435546875 -963.2504272460938 
v 1414.714111328125 291.432373046875 -964.8193359375 
v 1415.4625244140625 289.0347900390625 -962.3184204101562 
v 1453.600830078125 267.62786865234375 -960.2933959960938 
v 1454.31396484375 265.22576904296875 -957.7822875976562 
v 1414.09716796875 283.2499694824219 -962.8929443359375 
v 1452.935546875 259.41632080078125 -956.3372802734375 
v 1397.884521484375 290.94232177734375 -964.3783569335938 
v 1391.4813232421875 288.7216491699219 -963.5546875 
v 1387.8720703125 285.4793395996094 -965.6104736328125 
v 1384.836669921875 281.9807434082031 -965.398193359375 
v 1379.94580078125 280.394287109375 -962.5230712890625 
v 1376.7960205078125 278.3519287109375 -965.0031127929688 
v 1380.032470703125 276.1392517089844 -962.6397094726562 
v 1377.68798828125 273.2936096191406 -965.1865844726562 
v 1382.0584716796875 266.0332946777344 -963.8502807617188 
v 1379.92041015625 263.2538146972656 -966.1402587890625 
v 1382.5804443359375 256.29266357421875 -963.706787109375 
v 1380.348876953125 255.86878967285156 -965.6187133789062 
v 1388.1533203125 257.77044677734375 -963.4237060546875 
v 1385.6683349609375 264.5434265136719 -966.131591796875 
v 1384.1776123046875 275.01983642578125 -965.21923828125 
v 1383.9239501953125 278.45257568359375 -964.7913818359375 
v 1380.348876953125 255.86878967285156 -965.6187133789062 
v 1379.92041015625 263.2538146972656 -966.1402587890625 
v 1377.9075927734375 262.82598876953125 -971.4368896484375 
v 1376.0972900390625 273.13348388671875 -971.2849731445312 
v 1379.671142578125 263.4010314941406 -976.8078002929688 
v 1377.419189453125 273.4430847167969 -977.47119140625 
v 1381.7044677734375 266.243896484375 -979.1180419921875 
v 1382.1956787109375 256.51995849609375 -980.1722412109375 
v 1385.4132080078125 264.6942138671875 -977.0494384765625 
v 1387.7501220703125 258.00860595703125 -980.6744384765625 
v 1389.007080078125 254.7791748046875 -974.6390380859375 
v 1386.0618896484375 264.762939453125 -971.6006469726562 
v 1383.7164306640625 275.1000671386719 -971.434814453125 
v 1383.9207763671875 275.1640625 -977.6820068359375 
v 1379.60986328125 276.34686279296875 -980.0960693359375 
v 1376.535400390625 278.51611328125 -977.3255615234375 
v 1378.98974609375 255.21945190429688 -971.8765258789062 
v 1380.0556640625 256.0421142578125 -978.1705932617188 
v 1379.5689697265625 280.6576843261719 -980.0082397460938 
v 1383.6353759765625 278.635986328125 -977.9249877929688 
v 1383.5147705078125 278.6529541015625 -971.3259887695312 
v 1384.58349609375 282.1388244628906 -977.6173706054688 
v 1383.9239501953125 278.45257568359375 -964.7913818359375 
v 1384.836669921875 281.9807434082031 -965.398193359375 
v 1384.3800048828125 282.20977783203125 -971.5093383789062 
v 1387.4500732421875 285.7940368652344 -971.6094970703125 
v 1384.1776123046875 275.01983642578125 -965.21923828125 
v 1385.6683349609375 264.5434265136719 -966.131591796875 
v 1388.1533203125 257.77044677734375 -963.4237060546875 
v 1389.1248779296875 254.7095947265625 -969.5980224609375 
v 1387.8720703125 285.4793395996094 -965.6104736328125 
v 1391.3004150390625 289.1178894042969 -971.9051513671875 
v 1391.4813232421875 288.7216491699219 -963.5546875 
v 1397.884521484375 290.94232177734375 -964.3783569335938 
v 1397.8095703125 291.41424560546875 -972.0272216796875 
v 1413.948486328125 283.7273254394531 -971.1275024414062 
v 1413.7403564453125 283.4733581542969 -980.2898559570312 
v 1452.6077880859375 259.628662109375 -976.810546875 
v 1454.0111083984375 265.4299621582031 -975.320068359375 
v 1415.05859375 289.28460693359375 -979.8609008789062 
v 1453.3941650390625 267.7779541015625 -972.7367553710938 
v 1414.09716796875 283.2499694824219 -962.8929443359375 
v 1452.788330078125 259.8782958984375 -966.5669555664062 
v 1452.935546875 259.41632080078125 -956.3372802734375 
v 1397.4637451171875 291.1751403808594 -980.580810546875 
v 1391.114501953125 288.97015380859375 -980.1647338867188 
v 1387.5152587890625 285.6527404785156 -977.6482543945312 
v 1380.7581787109375 284.6319580078125 -980.201171875 
v 1376.9808349609375 283.1039123535156 -977.476318359375 
v 1376.0714111328125 283.200439453125 -971.2301025390625 
v 1375.492431640625 278.5086975097656 -971.0827026367188 
v 1377.2864990234375 282.922119140625 -965.0781860351562 
v 1376.7960205078125 278.3519287109375 -965.0031127929688 
v 1377.68798828125 273.2936096191406 -965.1865844726562 
v 1380.8572998046875 289.48638916015625 -971.413818359375 
v 1381.4647216796875 289.1984558105469 -977.66552734375 
v 1384.1494140625 289.46307373046875 -980.2600708007812 
v 1388.7762451171875 291.8376770019531 -980.53662109375 
v 1399.4334716796875 294.8900451660156 -980.77294921875 
v 1414.428466796875 291.61614990234375 -977.2669677734375 
v 1381.7586669921875 289.03759765625 -965.1992797851562 
v 1398.884521484375 296.95947265625 -978.1804809570312 
v 1386.802978515625 293.07281494140625 -977.9300537109375 
v 1386.4638671875 293.5436096191406 -971.7334594726562 
v 1387.1240234375 292.879150390625 -965.4983520507812 
v 1398.97509765625 297.7257995605469 -971.9636840820312 
v 1414.4278564453125 292.4490966796875 -971.0338745117188 
v 1453.3695068359375 268.6307067871094 -966.50927734375 
v 1414.714111328125 291.432373046875 -964.8193359375 
v 1453.600830078125 267.62786865234375 -960.2933959960938 
v 1399.2010498046875 296.77227783203125 -965.7489624023438 
v 1378.98974609375 255.21945190429688 -971.8765258789062 
v 1383.116943359375 252.7378387451172 -974.4474487304688 
v 1380.0556640625 256.0421142578125 -978.1705932617188 
v 1382.1956787109375 256.51995849609375 -980.1722412109375 
v 1389.007080078125 254.7791748046875 -974.6390380859375 
v 1387.7501220703125 258.00860595703125 -980.6744384765625 
v 1389.1248779296875 254.7095947265625 -969.5980224609375 
v 1383.2308349609375 252.67050170898438 -969.5704345703125 
v 1382.5804443359375 256.29266357421875 -963.706787109375 
v 1388.1533203125 257.77044677734375 -963.4237060546875 
v 1389.007080078125 254.7791748046875 -974.6390380859375 
v 1386.0618896484375 264.762939453125 -971.6006469726562 
v 1378.98974609375 255.21945190429688 -971.8765258789062 
v 1383.2308349609375 252.67050170898438 -969.5704345703125 
v 1383.2308349609375 252.67050170898438 -969.5704345703125 
v 1380.348876953125 255.86878967285156 -965.6187133789062 
v 1428.4564208984375 261.3923645019531 -972.2490234375 
v 1518.80859375 279.6358337402344 -880.0733642578125 
v 1609.1607666015625 297.87933349609375 -972.2490234375 
v 1428.4564208984375 261.3923645019531 -972.2490234375 
v 1454.919921875 266.7357177734375 -907.071044921875 
v 1430.1925048828125 261.7428894042969 -954.2664794921875 
v 1430.1925048828125 261.7428894042969 -954.2664794921875 
v 1435.333984375 262.7810363769531 -936.9749145507812 
v 1454.919921875 266.7357177734375 -907.071044921875 
v 1435.333984375 262.7810363769531 -936.9749145507812 
v 1454.919921875 266.7357177734375 -907.071044921875 
v 1443.6834716796875 264.4669189453125 -921.0390014648438 
v 1454.919921875 266.7357177734375 -907.071044921875 
v 1468.611572265625 269.50030517578125 -895.6077880859375 
v 1484.2322998046875 272.65435791015625 -887.08984375 
v 1484.2322998046875 272.65435791015625 -887.08984375 
v 1518.80859375 279.6358337402344 -880.0733642578125 
v 1501.1817626953125 276.07666015625 -881.8445434570312 
v 1518.80859375 279.6358337402344 -880.0733642578125 
v 1536.435546875 283.1949462890625 -881.8445434570312 
v 1553.3848876953125 286.6172790527344 -887.08984375 
v 1553.3848876953125 286.6172790527344 -887.08984375 
v 1518.80859375 279.6358337402344 -880.0733642578125 
v 1569.005615234375 289.7713623046875 -895.6077880859375 
v 1569.005615234375 289.7713623046875 -895.6077880859375 
v 1582.697265625 292.535888671875 -907.071044921875 
v 1518.80859375 279.6358337402344 -880.0733642578125 
v 1582.697265625 292.535888671875 -907.071044921875 
v 1602.2830810546875 296.4906311035156 -936.9749145507812 
v 1593.9337158203125 294.8047180175781 -921.0390014648438 
v 1602.2830810546875 296.4906311035156 -936.9749145507812 
v 1607.4246826171875 297.52874755859375 -954.2664794921875 
v 1609.1607666015625 297.87933349609375 -972.2490234375 
v 1609.1607666015625 297.87933349609375 -972.2490234375 
v 1602.2830810546875 296.4906005859375 -1007.5231323242188 
v 1607.4246826171875 297.5287170410156 -990.231689453125 
v 1602.2830810546875 296.4906005859375 -1007.5231323242188 
v 1593.9337158203125 294.8047180175781 -1023.4591674804688 
v 1582.697265625 292.535888671875 -1037.4271240234375 
v 1582.697265625 292.535888671875 -1037.4271240234375 
v 1553.3848876953125 286.61724853515625 -1057.408203125 
v 1569.005615234375 289.7713623046875 -1048.8902587890625 
v 1553.3848876953125 286.61724853515625 -1057.408203125 
v 1536.4354248046875 283.1949157714844 -1062.653564453125 
v 1582.697265625 292.535888671875 -1037.4271240234375 
v 1536.4354248046875 283.1949157714844 -1062.653564453125 
v 1582.697265625 292.535888671875 -1037.4271240234375 
v 1518.80859375 279.6357727050781 -1064.4246826171875 
v 1518.80859375 279.6357727050781 -1064.4246826171875 
v 1501.181640625 276.07666015625 -1062.653564453125 
v 1484.232177734375 272.6543273925781 -1057.408203125 
v 1484.232177734375 272.6543273925781 -1057.408203125 
v 1518.80859375 279.6357727050781 -1064.4246826171875 
v 1468.611572265625 269.5002746582031 -1048.8902587890625 
v 1468.611572265625 269.5002746582031 -1048.8902587890625 
v 1454.9197998046875 266.7357177734375 -1037.427001953125 
v 1518.80859375 279.6357727050781 -1064.4246826171875 
v 1454.9197998046875 266.7357177734375 -1037.427001953125 
v 1428.4564208984375 261.3923645019531 -972.2490234375 
v 1443.6834716796875 264.4669189453125 -1023.458984375 
v 1443.6834716796875 264.4669189453125 -1023.458984375 
v 1435.333984375 262.7810363769531 -1007.52294921875 
v 1428.4564208984375 261.3923645019531 -972.2490234375 
v 1435.333984375 262.7810363769531 -1007.52294921875 
v 1428.4564208984375 261.3923645019531 -972.2490234375 
v 1430.1925048828125 261.7428894042969 -990.2315063476562 
v 1454.919921875 266.7357177734375 -907.071044921875 
v 1484.2322998046875 272.65435791015625 -887.08984375 
v 1428.4564208984375 261.3923645019531 -972.2490234375 
v 1484.2322998046875 272.65435791015625 -887.08984375 
v 1428.4564208984375 261.3923645019531 -972.2490234375 
v 1518.80859375 279.6358337402344 -880.0733642578125 
v 1582.697265625 292.535888671875 -907.071044921875 
v 1602.2830810546875 296.4906311035156 -936.9749145507812 
v 1518.80859375 279.6358337402344 -880.0733642578125 
v 1602.2830810546875 296.4906311035156 -936.9749145507812 
v 1518.80859375 279.6358337402344 -880.0733642578125 
v 1609.1607666015625 297.87933349609375 -972.2490234375 
v 1609.1607666015625 297.87933349609375 -972.2490234375 
v 1602.2830810546875 296.4906005859375 -1007.5231323242188 
v 1518.80859375 279.6357727050781 -1064.4246826171875 
v 1602.2830810546875 296.4906005859375 -1007.5231323242188 
v 1518.80859375 279.6357727050781 -1064.4246826171875 
v 1582.697265625 292.535888671875 -1037.4271240234375 
v 1518.80859375 279.6357727050781 -1064.4246826171875 
v 1454.9197998046875 266.7357177734375 -1037.427001953125 
v 1609.1607666015625 297.87933349609375 -972.2490234375 
v 1454.9197998046875 266.7357177734375 -1037.427001953125 
v 1609.1607666015625 297.87933349609375 -972.2490234375 
v 1428.4564208984375 261.3923645019531 -972.2490234375 
vn -0.06603435426950455 0.18385937809944153 0.9807319641113281 
vn -0.3697543740272522 0.8261550068855286 0.42514660954475403 
vn -0.08577010780572891 0.20829039812088013 0.9742990136146545 
vn -0.47814127802848816 0.7728568315505981 0.417220801115036 
vn -0.3919658362865448 0.8095778226852417 0.43697428703308105 
vn -0.11239319294691086 0.15978917479515076 0.9807319641113281 
vn -0.4035760164260864 0.7995395660400391 0.44481781125068665 
vn -0.13227863609790802 0.14952954649925232 0.97986900806427 
vn -0.3948817849159241 0.7994978427886963 0.45262736082077026 
vn -0.09336140006780624 0.16670876741409302 0.9815762042999268 
vn -0.36955752968788147 0.8158212900161743 0.44481781125068665 
vn -0.051766298711299896 0.18837478756904602 0.9807319641113281 
vn -0.36127179861068726 0.8216384053230286 0.4409002661705017 
vn -0.051766298711299896 0.18837478756904602 0.9807319641113281 
vn -0.3764156103134155 0.8126797676086426 0.44481781125068665 
vn -0.08462997525930405 0.1665073037147522 0.9824016690254211 
vn -0.152034193277359 0.9032522439956665 0.401274174451828 
vn 0.5660316944122314 0.4093817472457886 0.715552031993866 
vn 0.6943155527114868 -0.5399039387702942 0.4758462607860565 
vn 0.3595321476459503 -0.7558926939964294 0.5471406579017639 
vn 0.3732302784919739 -0.7545260190963745 0.5398051738739014 
vn 0.3697863817214966 -0.7535845041275024 0.5434780716896057 
vn 0.3389609158039093 -0.7653382420539856 0.5471406579017639 
vn 0.33219030499458313 -0.7785689234733582 0.5324283838272095 
vn 0.3495110869407654 -0.7785252928733826 0.5212872624397278 
vn 0.3790004551410675 -0.7770661115646362 0.5025205612182617 
vn 0.4322475492954254 -0.7436426877975464 0.5100564956665039 
vn -0.14620815217494965 0.15416203439235687 0.9771679639816284 
vn -0.6492834091186523 0.6279382705688477 0.42909738421440125 
vn -0.1545797735452652 0.11230877786874771 0.9815762042999268 
vn -0.8015199303627014 0.4039464592933655 0.4409002661705017 
vn -0.14577388763427734 0.04422002658247948 0.9883291721343994 
vn -0.8660119771957397 0.16504696011543274 0.4719987213611603 
vn -0.1434285193681717 -0.05131954699754715 0.9883291721343994 
vn -0.8506860733032227 0.026394309476017952 0.5250110030174255 
vn -0.10211250931024551 -0.06683044135570526 0.9925254583358765 
vn -0.8248798847198486 0.003772132098674774 0.5652954578399658 
vn -0.10043330490589142 -0.029489878565073013 0.9945066571235657 
vn -0.7994090914726257 -1.6533627765491499e-13 0.6007870435714722 
vn -0.09214898198843002 -0.03967440873384476 0.994954526424408 
vn -0.7860849499702454 -0.003770347684621811 0.6181069612503052 
vn -0.06400296092033386 -0.6233797669410706 0.7792953848838806 
vn -0.6364516615867615 -0.5684970617294312 0.5212872624397278 
vn -0.015103200450539589 -0.9998835325241089 -0.002184694167226553 
vn -0.777777373790741 -0.6285360455513 -0.002184694167226553 
vn -0.638379693031311 -0.566331148147583 -0.5212872624397278 
vn -0.06600451469421387 -0.6231710314750671 -0.7792953848838806 
vn -0.7860940098762512 -1.6223330458978863e-13 -0.6181069612503052 
vn -0.9998835325241089 0.015103200450539589 -0.002184694167226553 
vn -0.9998835325241089 0.015103200450539589 0.002184694167226553 
vn -0.7860849499702454 -0.003770347684621811 0.6181069612503052 
vn -0.7994090914726257 -1.6533627765491499e-13 0.6007870435714722 
vn -0.9997409582138062 0.022653724998235703 -0.002184694167226553 
vn -0.8248798847198486 0.003772132098674774 0.5652954578399658 
vn -0.777777373790741 -0.6285360455513 -0.002184694167226553 
vn -0.6364516615867615 -0.5684970617294312 0.5212872624397278 
vn -0.8020176291465759 0.0037775582168251276 -0.5972883701324463 
vn -0.0922839418053627 -0.026373758912086487 -0.9953833818435669 
vn -0.9965491890907288 0.08297525346279144 -0.002184694167226553 
vn -0.8223759531974792 -0.0075545115396380424 -0.5688942670822144 
vn -0.10244311392307281 -0.037286244332790375 -0.9940398335456848 
vn -0.8506860733032227 0.026394309476017952 0.5250110030174255 
vn -0.9822282791137695 0.18767757713794708 0.002184694167226553 
vn -0.8660119771957397 0.16504696011543274 0.4719987213611603 
vn -0.8015199303627014 0.4039464592933655 0.4409002661705017 
vn -0.8889381885528564 0.45802199840545654 -0.002184694167226553 
vn -0.7124248743057251 0.7017449736595154 0.002184694167226553 
vn -0.6452871561050415 0.6399462819099426 -0.417220801115036 
vn -0.5429477095603943 0.8397637009620667 0.002184694167226553 
vn -0.47814127802848816 0.7728568315505981 0.417220801115036 
vn -0.3697543740272522 0.8261550068855286 0.42514660954475403 
vn -0.6492834091186523 0.6279382705688477 0.42909738421440125 
vn -0.8694455623626709 0.1688535362482071 -0.4642767012119293 
vn -0.7967264652252197 0.40044403076171875 -0.45262736082077026 
vn -0.8502576947212219 0.03775307536125183 -0.5250110030174255 
vn -0.10223834961652756 -0.0742805078625679 -0.9919826984405518 
vn -0.13752947747707367 -0.022546812891960144 -0.9902410507202148 
vn -0.15373186767101288 0.030096696689724922 -0.9876541495323181 
vn -0.14172114431858063 0.12166361510753632 -0.9824016690254211 
vn -0.15826912224292755 0.15424516797065735 -0.9752739667892456 
vn -0.5056898593902588 0.7551189064979553 -0.417220801115036 
vn -0.4241376221179962 0.9055951237678528 -0.002184694167226553 
vn -0.4241376221179962 0.9055951237678528 -0.002184694167226553 
vn -0.3919658362865448 0.8095778226852417 0.43697428703308105 
vn -0.4241376221179962 0.9055951237678528 0.002184694167226553 
vn -0.4035760164260864 0.7995395660400391 0.44481781125068665 
vn -0.4241376221179962 0.9055951237678528 0.002184694167226553 
vn -0.3948817849159241 0.7994978427886963 0.45262736082077026 
vn -0.36955752968788147 0.8158212900161743 0.44481781125068665 
vn -0.4241376221179962 0.9055951237678528 0.002184694167226553 
vn -0.36127179861068726 0.8216384053230286 0.4409002661705017 
vn -0.4241376221179962 0.9055951237678528 -0.002184694167226553 
vn -0.3764156103134155 0.8126797676086426 0.44481781125068665 
vn -0.4241376221179962 0.9055951237678528 -0.002184694167226553 
vn -0.152034193277359 0.9032522439956665 0.401274174451828 
vn -0.07544711232185364 0.9971474409103394 0.002184694167226553 
vn -0.1354074329137802 0.9128427505493164 -0.3852050006389618 
vn -0.376874178647995 0.8037384748458862 -0.46040233969688416 
vn -0.3905046284198761 0.7972050309181213 -0.46040233969688416 
vn -0.38543277978897095 0.8084421157836914 -0.44481781125068665 
vn -0.37006813287734985 0.8219038844108582 -0.43303996324539185 
vn -0.36316967010498047 0.8249752521514893 -0.43303996324539185 
vn -0.36676910519599915 0.8213001489639282 -0.43697428703308105 
vn -0.39549708366394043 0.8057226538658142 -0.4409002661705017 
vn -0.161232590675354 0.1692621111869812 -0.9722933769226074 
vn -0.09553555399179459 0.16547243297100067 -0.9815762042999268 
vn -0.048730362206697464 0.18918287754058838 -0.9807319641113281 
vn -0.03384021669626236 0.19675253331661224 -0.97986900806427 
vn -0.06324406713247299 0.18483775854110718 -0.9807319641113281 
vn -0.10830163210630417 0.15741321444511414 -0.9815762042999268 
vn -0.10830163210630417 0.15741321444511414 -0.9815762042999268 
vn -0.06840632110834122 0.17380303144454956 -0.9824016690254211 
vn 0.5794282555580139 0.4172450006008148 -0.7001210451126099 
vn 0.8143084645271301 0.5804283022880554 0.002184694167226553 
vn 0.7062402963638306 -0.5411236882209778 -0.456519216299057 
vn 0.8186684846878052 -0.5742622017860413 -0.002184694167226553 
vn 0.6943155527114868 -0.5399039387702942 0.4758462607860565 
vn 0.5660316944122314 0.4093817472457886 0.715552031993866 
vn -0.152034193277359 0.9032522439956665 0.401274174451828 
vn -0.07544711232185364 0.9971474409103394 0.002184694167226553 
vn 0.34431856870651245 -0.7522990107536316 -0.5616858005523682 
vn 0.3271232843399048 -0.7625964283943176 -0.5580654144287109 
vn 0.3446861803531647 -0.7679855823516846 -0.5398051738739014 
vn 0.37560540437698364 -0.7662768363952637 -0.5212872624397278 
vn 0.389108270406723 -0.759509265422821 -0.5212872624397278 
vn 0.3721902668476105 -0.7654004693031311 -0.5250110030174255 
vn 0.34479114413261414 -0.7781275510787964 -0.5250110030174255 
vn 0.39469876885414124 -0.7667332887649536 -0.5062933564186096 
vn 0.8186684846878052 -0.5742622017860413 -0.002184694167226553 
vn 0.4241376221179962 -0.9055951237678528 0.002184694167226553 
vn 0.4241376221179962 -0.9055951237678528 0.002184694167226553 
vn 0.4241376221179962 -0.9055951237678528 0.002184694167226553 
vn 0.4241376221179962 -0.9055951237678528 -0.002184694167226553 
vn 0.4241376221179962 -0.9055951237678528 -0.002184694167226553 
vn 0.4241376221179962 -0.9055951237678528 0.002184694167226553 
vn 0.4241376221179962 -0.9055951237678528 0.002184694167226553 
vn 0.3595321476459503 -0.7558926939964294 0.5471406579017639 
vn 0.6943155527114868 -0.5399039387702942 0.4758462607860565 
vn 0.3732302784919739 -0.7545260190963745 0.5398051738739014 
vn 0.3697863817214966 -0.7535845041275024 0.5434780716896057 
vn 0.3389609158039093 -0.7653382420539856 0.5471406579017639 
vn 0.33219030499458313 -0.7785689234733582 0.5324283838272095 
vn 0.3495110869407654 -0.7785252928733826 0.5212872624397278 
vn 0.3790004551410675 -0.7770661115646362 0.5025205612182617 
vn 0.46472206711769104 -0.8854539394378662 -0.002184694167226553 
vn 0.4322475492954254 -0.7436426877975464 0.5100564956665039 
vn 0.651740550994873 -0.7584388852119446 -0.002184694167226553 
vn 0.5703049898147583 -0.6408990621566772 0.5138099193572998 
vn 0.7693836092948914 -0.412982314825058 0.48733407258987427 
vn 0.8672792315483093 -0.49781718850135803 0.002184694167226553 
vn 0.5777580738067627 -0.6431708335876465 -0.5025205612182617 
vn 0.7655728459358215 -0.4063969552516937 -0.4987381398677826 
vn 0.8278710246086121 -0.1872958093881607 -0.528724730014801 
vn 0.8414033055305481 -0.0679250955581665 -0.5361219048500061 
vn 0.7962040305137634 -0.030196651816368103 -0.6042742133140564 
vn 0.7541285157203674 -0.04532512277364731 -0.6551609039306641 
vn 0.7366650700569153 -0.04528757184743881 -0.67473965883255 
vn 0.5792844295501709 -0.6140056252479553 -0.5361219048500061 
vn 0.777777373790741 -0.6285360455513 -0.002184694167226553 
vn 0.5744905471801758 -0.6184932589530945 0.5361219048500061 
vn 0.7361692190170288 -0.0527377687394619 0.67473965883255 
vn 0.7507686018943787 -0.05275087058544159 0.6584556698799133 
vn 0.7990889549255371 -0.02262236550450325 0.6007870435714722 
vn 0.843115508556366 -0.07534073293209076 0.5324283838272095 
vn 0.8166028261184692 -0.19440002739429474 0.5434780716896057 
vn 0.7693836092948914 -0.412982314825058 0.48733407258987427 
vn 0.5703049898147583 -0.6408990621566772 0.5138099193572998 
vn 0.5744905471801758 -0.6184932589530945 0.5361219048500061 
vn 0.777777373790741 -0.6285360455513 -0.002184694167226553 
vn 0.7361692190170288 -0.0527377687394619 0.67473965883255 
vn 0.9986006617546082 -0.05283859372138977 -0.002184694167226553 
vn 0.7507686018943787 -0.05275087058544159 0.6584556698799133 
vn 0.9986006617546082 -0.05283859372138977 0.002184694167226553 
vn 0.7990889549255371 -0.02262236550450325 0.6007870435714722 
vn 0.9999691247940063 0.007551815826445818 -0.002184694167226553 
vn 0.9997409582138062 -0.022653724998235703 0.002184694167226553 
vn 0.843115508556366 -0.07534073293209076 0.5324283838272095 
vn 0.9744431972503662 -0.22462347149848938 -0.002184694167226553 
vn 0.8166028261184692 -0.19440002739429474 0.5434780716896057 
vn -0.19217927753925323 0.25302132964134216 0.9481810927391052 
vn -0.14030781388282776 0.1296992003917694 0.9815762042999268 
vn -0.6451758146286011 0.6451758146286011 0.40926313400268555 
vn -0.8168195486068726 0.3204815983772278 0.4796847105026245 
vn -0.40619388222694397 0.8341588973999023 0.37307560443878174 
vn -0.12574324011802673 0.2827315330505371 0.9509214162826538 
vn -0.007549809291958809 0.9228001236915588 0.3852050006389618 
vn -4.467330368476685e-14 0.4310697019100189 0.9023185968399048 
vn 0.3615756034851074 0.8544458150863647 0.37307560443878174 
vn 0.13519443571567535 0.42582735419273376 0.8946471214294434 
vn 0.43576961755752563 0.7975159287452698 0.417220801115036 
vn 0.07267584651708603 0.3304709494113922 0.9410139322280884 
vn -0.4110874533653259 -0.616509199142456 0.6715083718299866 
vn -0.4612836539745331 -0.5983156561851501 0.6551609039306641 
vn -0.0056593711487948895 -0.7409753799438477 0.6715083718299866 
vn 0.33172181248664856 -0.6851017475128174 0.6485338807106018 
vn 0.6150245666503906 -0.6537214517593384 0.4409002661705017 
vn 0.7976491451263428 -0.36559322476387024 0.4796847105026245 
vn -0.12062158435583115 0.01853928528726101 0.9925254583358765 
vn -0.8533062934875488 -0.011311804875731468 0.5212872624397278 
vn -0.09109440445899963 -0.09373392164707184 0.991421103477478 
vn -0.8117794394493103 -0.18334846198558807 0.5544344186782837 
vn -0.09999225288629532 -0.04343276470899582 0.9940398335456848 
vn -0.8360533118247986 -0.1165684387087822 0.5361219048500061 
vn -0.323282390832901 0.09990659356117249 0.9410139322280884 
vn -0.8537827134132385 -0.056510865688323975 0.5175535082817078 
vn 0.7506587505340576 0.32981133460998535 0.5724822878837585 
vn 0.814958930015564 0.24536779522895813 0.5250110030174255 
vn 0.8774556517601013 0.06034861505031586 0.4758462607860565 
vn 0.8477555513381958 -0.07532572001218796 0.5250110030174255 
vn -0.8537827134132385 -0.056510865688323975 0.5175535082817078 
vn -0.8360533118247986 -0.1165684387087822 0.5361219048500061 
vn -0.9894376993179321 -0.1429530680179596 0.024029340595006943 
vn -0.9847627282142639 -0.1727883517742157 0.01966099627315998 
vn -0.869261622428894 -0.0830044224858284 -0.48733407258987427 
vn -0.8395759463310242 -0.165077343583107 -0.5175535082817078 
vn -0.1523333042860031 -3.150604777069077e-14 -0.9883291721343994 
vn -0.37385764718055725 0.18964050710201263 -0.9078915119171143 
vn 0.7957849502563477 0.28160184621810913 -0.5361219048500061 
vn 0.7069861888885498 0.3841846287250519 -0.5937783122062683 
vn 0.8369236588478088 -0.489736407995224 -0.24437066912651062 
vn 0.9689195156097412 0.24659354984760284 -0.01966099627315998 
vn 0.9915785789489746 0.1280052661895752 -0.01966099627315998 
vn 0.8545843958854675 0.07539797574281693 -0.5138099193572998 
vn -0.1477700173854828 -0.05199344456195831 -0.9876541495323181 
vn -0.8856177926063538 -0.011325923725962639 -0.4642767012119293 
vn -0.9964350461959839 -0.08296574652194977 0.0152922747656703 
vn -0.8795284628868103 -1.8190681708336875e-13 -0.4758462607860565 
vn -0.17802782356739044 -0.007562529295682907 -0.9839963912963867 
vn 0.8312236666679382 -0.07546180486679077 -0.5507928133010864 
vn 0.9956089854240417 -0.0904727429151535 -0.024029340595006943 
vn 0.7595112919807434 -0.3789362907409668 -0.528724730014801 
vn 0.8477555513381958 -0.07532572001218796 0.5250110030174255 
vn 0.7976491451263428 -0.36559322476387024 0.4796847105026245 
vn 0.8852003812789917 -0.46458899974823 -0.024029340595006943 
vn 0.7174162864685059 -0.6960657238960266 -0.028397228568792343 
vn 0.8774556517601013 0.06034861505031586 0.4758462607860565 
vn 0.814958930015564 0.24536779522895813 0.5250110030174255 
vn 0.7506587505340576 0.32981133460998535 0.5724822878837585 
vn 0.8469469547271729 -0.49697864055633545 0.18892620503902435 
vn 0.6150245666503906 -0.6537214517593384 0.4409002661705017 
vn 0.5042080879211426 -0.863247811794281 -0.024029340595006943 
vn 0.33172181248664856 -0.6851017475128174 0.6485338807106018 
vn -0.0056593711487948895 -0.7409753799438477 0.6715083718299866 
vn -0.060371436178684235 -0.9980588555335999 -0.0152922747656703 
vn -0.47804227471351624 -0.878334105014801 -0.002184694167226553 
vn -0.2609200179576874 -0.6027602553367615 -0.7540562748908997 
vn -0.3437766432762146 -0.6759471297264099 -0.651853621006012 
vn 0.31752094626426697 0.37220537662506104 -0.872148871421814 
vn 0.29658374190330505 0.4532274603843689 -0.8406086564064026 
vn 0.5217522382736206 0.7804325819015503 -0.34452807903289795 
vn -0.4110874533653259 -0.616509199142456 0.6715083718299866 
vn -0.5237845182418823 -0.8518480062484741 -0.002184694167226553 
vn -0.4612836539745331 -0.5983156561851501 0.6551609039306641 
vn -0.018896566703915596 -0.6229592561721802 -0.7820260524749756 
vn 0.2548253834247589 -0.6670041680335999 -0.7001210451126099 
vn 0.5804555416107178 -0.655198872089386 -0.4835140109062195 
vn -0.20031870901584625 0.11202161014080048 -0.9733054637908936 
vn -0.8434268236160278 0.30698227882385254 -0.4409002661705017 
vn -0.9320424795150757 0.361551433801651 0.024029340595006943 
vn -0.9994826912879944 -0.015097145922482014 0.028397228568792343 
vn -0.8168195486068726 0.3204815983772278 0.4796847105026245 
vn -0.8533062934875488 -0.011311804875731468 0.5212872624397278 
vn -0.8117794394493103 -0.18334846198558807 0.5544344186782837 
vn -0.7014636397361755 0.7121392488479614 0.028397228568792343 
vn -0.67527836561203 0.6432442665100098 -0.36088213324546814 
vn -0.273145467042923 0.24509352445602417 -0.9302261471748352 
vn -0.21925519406795502 0.3043491840362549 -0.926983654499054 
vn 0.047170959413051605 0.49459904432296753 -0.8678402304649353 
vn 0.41047605872154236 0.8442806601524353 -0.34452807903289795 
vn -0.6451758146286011 0.6451758146286011 0.40926313400268555 
vn -0.0018870332278311253 0.9310237765312195 -0.3649536371231079 
vn -0.4325864613056183 0.834854006767273 -0.34042292833328247 
vn -0.4578908383846283 0.8886836171150208 0.024029340595006943 
vn -0.40619388222694397 0.8341588973999023 0.37307560443878174 
vn 0.007551383227109909 0.9999118447303772 0.010923261754214764 
vn 0.41728663444519043 0.9087722897529602 0.002184694167226553 
vn 0.5237545371055603 0.8517991900444031 0.010923261754214764 
vn 0.3615756034851074 0.8544458150863647 0.37307560443878174 
vn 0.43576961755752563 0.7975159287452698 0.417220801115036 
vn -0.007549809291958809 0.9228001236915588 0.3852050006389618 
vn -0.5108591318130493 -0.8596616387367249 0.002184694167226553 
vn -0.09801097214221954 -0.9614124894142151 -0.25706008076667786 
vn -0.4939311444759369 -0.8101801872253418 -0.31565824151039124 
vn -0.04530860856175423 -0.8741632103919983 -0.4835140109062195 
vn 0.8369236588478088 -0.489736407995224 -0.24437066912651062 
vn 0.220291867852211 -0.8197082281112671 -0.528724730014801 
vn 0.8469469547271729 -0.49697864055633545 0.18892620503902435 
vn -0.0885593369603157 -0.9677366614341736 0.23588760197162628 
vn -0.024526456370949745 -0.8873714804649353 0.46040233969688416 
vn 0.24546176195144653 -0.8335326910018921 0.4949462115764618 
vn 0.8369236588478088 -0.489736407995224 -0.24437066912651062 
vn 0.9689195156097412 0.24659354984760284 -0.01966099627315998 
vn -0.5108591318130493 -0.8596616387367249 0.002184694167226553 
vn -0.0885593369603157 -0.9677366614341736 0.23588760197162628 
vn -0.0885593369603157 -0.9677366614341736 0.23588760197162628 
vn -0.4787869155406952 -0.8192209601402283 0.31565824151039124 
vn -0.19508986175060272 0.9807829260826111 0.002184694167226553 
vn -0.19508986175060272 0.9807829260826111 0.002184694167226553 
vn -0.19508986175060272 0.9807829260826111 0.002184694167226553 
vn -0.19508986175060272 0.9807829260826111 -0.002184694167226553 
vn -0.19508986175060272 0.9807829260826111 -0.002184694167226553 
vn -0.19508986175060272 0.9807829260826111 -0.002184694167226553 
vn -0.19508986175060272 0.9807829260826111 0.002184694167226553 
vn -0.19508986175060272 0.9807829260826111 0.002184694167226553 
vn -0.19508986175060272 0.9807829260826111 0.002184694167226553 
vn -0.19508986175060272 0.9807829260826111 0.002184694167226553 
vn -0.19508986175060272 0.9807829260826111 0.002184694167226553 
vn -0.19508986175060272 0.9807829260826111 0.002184694167226553 
vn -0.19508986175060272 0.9807829260826111 0.002184694167226553 
vn -0.19508986175060272 0.9807829260826111 0.002184694167226553 
vn -0.19508986175060272 0.9807829260826111 0.002184694167226553 
vn -0.19508986175060272 0.9807829260826111 0.002184694167226553 
vn -0.19508986175060272 0.9807829260826111 0.002184694167226553 
vn -0.19508986175060272 0.9807829260826111 0.002184694167226553 
vn -0.19508986175060272 0.9807829260826111 0.002184694167226553 
vn -0.19508986175060272 0.9807829260826111 0.002184694167226553 
vn -0.19508986175060272 0.9807829260826111 0.002184694167226553 
vn -0.19508986175060272 0.9807829260826111 0.002184694167226553 
vn -0.19508986175060272 0.9807829260826111 0.002184694167226553 
vn -0.19508986175060272 0.9807829260826111 0.002184694167226553 
vn -0.19508986175060272 0.9807829260826111 0.002184694167226553 
vn -0.19508986175060272 0.9807829260826111 0.002184694167226553 
vn -0.19508986175060272 0.9807829260826111 0.002184694167226553 
vn -0.19508986175060272 0.9807829260826111 0.002184694167226553 
vn -0.19508986175060272 0.9807829260826111 0.002184694167226553 
vn -0.19508986175060272 0.9807829260826111 0.002184694167226553 
vn -0.19508986175060272 0.9807829260826111 -0.002184694167226553 
vn -0.19508986175060272 0.9807829260826111 -0.002184694167226553 
vn -0.19508986175060272 0.9807829260826111 -0.002184694167226553 
vn -0.19508986175060272 0.9807829260826111 0.002184694167226553 
vn -0.19508986175060272 0.9807829260826111 0.002184694167226553 
vn -0.19508986175060272 0.9807829260826111 0.002184694167226553 
vn -0.19508986175060272 0.9807829260826111 0.002184694167226553 
vn -0.19508986175060272 0.9807829260826111 0.002184694167226553 
vn -0.19508986175060272 0.9807829260826111 0.002184694167226553 
vn -0.19508986175060272 0.9807829260826111 0.002184694167226553 
vn -0.19508986175060272 0.9807829260826111 0.002184694167226553 
vn -0.19508986175060272 0.9807829260826111 0.002184694167226553 
vn -0.19508986175060272 0.9807829260826111 -0.002184694167226553 
vn -0.19508986175060272 0.9807829260826111 -0.002184694167226553 
vn -0.19508986175060272 0.9807829260826111 -0.002184694167226553 
vn -0.19508986175060272 0.9807829260826111 0.002184694167226553 
vn -0.19508986175060272 0.9807829260826111 0.002184694167226553 
vn -0.19508986175060272 0.9807829260826111 0.002184694167226553 
vn -0.19508986175060272 0.9807829260826111 0.002184694167226553 
vn -0.19508986175060272 0.9807829260826111 0.002184694167226553 
vn -0.19508986175060272 0.9807829260826111 0.002184694167226553 
vn -0.19508986175060272 0.9807829260826111 0.002184694167226553 
vn -0.19508986175060272 0.9807829260826111 0.002184694167226553 
vn -0.19508986175060272 0.9807829260826111 0.002184694167226553 
vn -0.19508986175060272 0.9807829260826111 0.002184694167226553 
vn -0.19508986175060272 0.9807829260826111 0.002184694167226553 
vn -0.19508986175060272 0.9807829260826111 0.002184694167226553 
vn -0.19508986175060272 0.9807829260826111 0.002184694167226553 
vn -0.19508986175060272 0.9807829260826111 0.002184694167226553 
vn -0.19508986175060272 0.9807829260826111 0.002184694167226553 
vn -0.19508986175060272 0.9807829260826111 -0.002184694167226553 
vn -0.19508986175060272 0.9807829260826111 -0.002184694167226553 
vn -0.19508986175060272 0.9807829260826111 -0.002184694167226553 
vn -0.19508986175060272 0.9807829260826111 -0.002184694167226553 
vn -0.19508986175060272 0.9807829260826111 -0.002184694167226553 
vn -0.19508986175060272 0.9807829260826111 -0.002184694167226553 
vn -0.19508986175060272 0.9807829260826111 0.002184694167226553 
vn -0.19508986175060272 0.9807829260826111 0.002184694167226553 
vn -0.19508986175060272 0.9807829260826111 0.002184694167226553 
vn -0.19508986175060272 0.9807829260826111 -0.002184694167226553 
vn -0.19508986175060272 0.9807829260826111 -0.002184694167226553 
vn -0.19508986175060272 0.9807829260826111 -0.002184694167226553 
vn -0.19508986175060272 0.9807829260826111 0.002184694167226553 
vn -0.19508986175060272 0.9807829260826111 0.002184694167226553 
vn -0.19508986175060272 0.9807829260826111 0.002184694167226553 
vn -0.19508986175060272 0.9807829260826111 0.002184694167226553 
vn -0.19508986175060272 0.9807829260826111 0.002184694167226553 
vn -0.19508986175060272 0.9807829260826111 0.002184694167226553 
vn -0.19508986175060272 0.9807829260826111 -0.002184694167226553 
vn -0.19508986175060272 0.9807829260826111 -0.002184694167226553 
vn -0.19508986175060272 0.9807829260826111 -0.002184694167226553 
vn -0.19508986175060272 0.9807829260826111 0.002184694167226553 
vn -0.19508986175060272 0.9807829260826111 0.002184694167226553 
vn -0.19508986175060272 0.9807829260826111 0.002184694167226553 
vn -0.19508986175060272 0.9807829260826111 0.002184694167226553 
vn -0.19508986175060272 0.9807829260826111 0.002184694167226553 
vn -0.19508986175060272 0.9807829260826111 0.002184694167226553 
vn -0.19508986175060272 0.9807829260826111 -0.002184694167226553 
vn -0.19508986175060272 0.9807829260826111 -0.002184694167226553 
vn -0.19508986175060272 0.9807829260826111 -0.002184694167226553 
s on 
f 1//1 2//2 3//3 
f 2//2 4//4 3//3 
f 3//3 4//4 4//4 
f 4//4 2//2 4//4 
f 4//4 2//2 2//2 
f 2//2 1//1 2//2 
f 2//2 1//1 5//5 
f 1//1 6//6 5//5 
f 5//5 6//6 7//7 
f 6//6 8//8 7//7 
f 7//7 8//8 9//9 
f 8//8 10//10 9//9 
f 9//9 10//10 11//11 
f 10//10 12//12 11//11 
f 11//11 12//12 13//13 
f 12//12 14//14 13//13 
f 13//13 14//14 15//15 
f 14//14 16//16 15//15 
f 15//15 16//16 17//17 
f 16//16 16//16 17//17 
f 17//17 16//16 18//18 
f 16//16 16//16 18//18 
f 18//18 16//16 19//19 
f 16//16 16//16 19//19 
f 19//19 16//16 20//20 
f 16//16 14//14 20//20 
f 20//20 14//14 21//21 
f 14//14 12//12 21//21 
f 21//21 12//12 22//22 
f 12//12 10//10 22//22 
f 22//22 10//10 23//23 
f 10//10 8//8 23//23 
f 23//23 8//8 24//24 
f 8//8 6//6 24//24 
f 24//24 6//6 25//25 
f 6//6 1//1 25//25 
f 25//25 1//1 26//26 
f 1//1 3//3 26//26 
f 26//26 3//3 27//27 
f 3//3 3//3 27//27 
f 27//27 3//3 28//28 
f 3//3 4//4 28//28 
f 28//28 4//4 28//28 
f 4//4 29//29 28//28 
f 28//28 29//29 30//30 
f 29//29 31//31 30//30 
f 30//30 31//31 32//32 
f 31//31 33//33 32//32 
f 32//32 33//33 34//34 
f 33//33 35//35 34//34 
f 34//34 35//35 36//36 
f 35//35 37//37 36//36 
f 36//36 37//37 38//38 
f 37//37 39//39 38//38 
f 38//38 39//39 40//40 
f 39//39 41//41 40//40 
f 40//40 41//41 42//42 
f 41//41 43//43 42//42 
f 42//42 43//43 44//44 
f 43//43 45//45 44//44 
f 44//44 45//45 44//44 
f 45//45 46//46 44//44 
f 44//44 46//46 47//47 
f 46//46 46//46 47//47 
f 47//47 46//46 48//48 
f 46//46 49//49 48//48 
f 48//48 49//49 50//50 
f 49//49 51//51 50//50 
f 50//50 51//51 50//50 
f 51//51 52//52 50//50 
f 50//50 52//52 53//53 
f 52//52 54//54 53//53 
f 53//53 54//54 54//54 
f 54//54 46//46 54//54 
f 54//54 46//46 46//46 
f 46//46 55//55 46//46 
f 46//46 55//55 49//49 
f 55//55 56//56 49//49 
f 49//49 56//56 51//51 
f 56//56 51//51 51//51 
f 51//51 51//51 53//53 
f 51//51 53//53 53//53 
f 53//53 53//53 50//50 
f 53//53 57//57 50//50 
f 50//50 57//57 48//48 
f 57//57 58//58 48//48 
f 48//48 58//58 47//47 
f 58//58 47//47 47//47 
f 47//47 47//47 54//54 
f 47//47 54//54 54//54 
f 54//54 54//54 53//53 
f 54//54 59//59 53//53 
f 53//53 59//59 53//53 
f 59//59 60//60 53//53 
f 53//53 60//60 57//57 
f 60//60 61//61 57//57 
f 57//57 61//61 58//58 
f 61//61 58//58 58//58 
f 58//58 58//58 54//54 
f 58//58 54//54 54//54 
f 54//54 54//54 59//59 
f 54//54 62//62 59//59 
f 59//59 62//62 63//63 
f 62//62 64//64 63//63 
f 63//63 64//64 63//63 
f 64//64 65//65 63//63 
f 63//63 65//65 66//66 
f 65//65 67//67 66//66 
f 66//66 67//67 68//68 
f 67//67 67//67 68//68 
f 68//68 67//67 69//69 
f 67//67 70//70 69//69 
f 69//69 70//70 71//71 
f 70//70 71//71 71//71 
f 71//71 71//71 65//65 
f 71//71 65//65 65//65 
f 65//65 65//65 67//67 
f 65//65 72//72 67//67 
f 67//67 72//72 70//70 
f 72//72 70//70 70//70 
f 70//70 70//70 63//63 
f 70//70 63//63 63//63 
f 63//63 63//63 73//73 
f 63//63 66//66 73//73 
f 73//73 66//66 74//74 
f 66//66 68//68 74//74 
f 74//74 68//68 68//68 
f 68//68 63//63 68//68 
f 68//68 63//63 63//63 
f 63//63 73//73 63//63 
f 63//63 73//73 59//59 
f 73//73 75//75 59//59 
f 59//59 75//75 60//60 
f 75//75 76//76 60//60 
f 60//60 76//76 61//61 
f 76//76 61//61 61//61 
f 61//61 61//61 76//76 
f 61//61 76//76 76//76 
f 76//76 76//76 77//77 
f 76//76 75//75 77//77 
f 77//77 75//75 77//77 
f 75//75 73//73 77//77 
f 77//77 73//73 78//78 
f 73//73 74//74 78//78 
f 78//78 74//74 79//79 
f 74//74 68//68 79//79 
f 79//79 68//68 80//80 
f 68//68 68//68 80//80 
f 80//80 68//68 81//81 
f 68//68 69//69 81//81 
f 81//81 69//69 82//82 
f 69//69 71//71 82//82 
f 82//82 71//71 83//83 
f 71//71 84//84 83//83 
f 83//83 84//84 85//85 
f 84//84 86//86 85//85 
f 85//85 86//86 87//87 
f 86//86 88//88 87//87 
f 87//87 88//88 87//87 
f 88//88 89//89 87//87 
f 87//87 89//89 90//90 
f 89//89 91//91 90//90 
f 90//90 91//91 92//92 
f 91//91 93//93 92//92 
f 92//92 93//93 94//94 
f 93//93 95//95 94//94 
f 94//94 95//95 94//94 
f 95//95 96//96 94//94 
f 94//94 96//96 94//94 
f 96//96 97//97 94//94 
f 94//94 97//97 94//94 
f 97//97 98//98 94//94 
f 94//94 98//98 92//92 
f 98//98 99//99 92//92 
f 92//92 99//99 90//90 
f 99//99 100//100 90//90 
f 90//90 100//100 87//87 
f 100//100 101//101 87//87 
f 87//87 101//101 85//85 
f 101//101 102//102 85//85 
f 85//85 102//102 83//83 
f 102//102 103//103 83//83 
f 83//83 103//103 82//82 
f 103//103 104//104 82//82 
f 82//82 104//104 81//81 
f 104//104 105//105 81//81 
f 81//81 105//105 80//80 
f 105//105 80//80 80//80 
f 80//80 80//80 105//105 
f 80//80 105//105 105//105 
f 105//105 105//105 106//106 
f 105//105 104//104 106//106 
f 106//106 104//104 106//106 
f 104//104 103//103 106//106 
f 106//106 103//103 107//107 
f 103//103 102//102 107//107 
f 107//107 102//102 108//108 
f 102//102 101//101 108//108 
f 108//108 101//101 109//109 
f 101//101 100//100 109//109 
f 109//109 100//100 110//110 
f 100//100 99//99 110//110 
f 110//110 99//99 111//111 
f 99//99 98//98 111//111 
f 111//111 98//98 112//112 
f 98//98 97//97 112//112 
f 112//112 97//97 113//113 
f 97//97 114//114 113//113 
f 113//113 114//114 115//115 
f 114//114 114//114 115//115 
f 115//115 114//114 116//116 
f 114//114 114//114 116//116 
f 116//116 114//114 117//117 
f 114//114 114//114 117//117 
f 117//117 114//114 118//118 
f 114//114 114//114 118//118 
f 118//118 114//114 119//119 
f 114//114 114//114 119//119 
f 119//119 114//114 120//120 
f 114//114 97//97 120//120 
f 120//120 97//97 97//97 
f 97//97 113//113 97//97 
f 97//97 113//113 113//113 
f 113//113 115//115 113//113 
f 113//113 115//115 112//112 
f 115//115 121//121 112//112 
f 112//112 121//121 111//111 
f 121//121 122//122 111//111 
f 111//111 122//122 110//110 
f 122//122 123//123 110//110 
f 110//110 123//123 109//109 
f 123//123 124//124 109//109 
f 109//109 124//124 108//108 
f 124//124 125//125 108//108 
f 108//108 125//125 107//107 
f 125//125 126//126 107//107 
f 107//107 126//126 106//106 
f 126//126 127//127 106//106 
f 106//106 127//127 105//105 
f 127//127 128//128 105//105 
f 105//105 128//128 80//80 
f 128//128 80//80 80//80 
f 80//80 80//80 121//121 
f 80//80 121//121 121//121 
f 121//121 121//121 129//129 
f 121//121 115//115 129//129 
f 129//129 115//115 115//115 
f 115//115 128//128 115//115 
f 115//115 128//128 128//128 
f 128//128 127//127 128//128 
f 128//128 127//127 130//130 
f 127//127 126//126 130//130 
f 130//130 126//126 131//131 
f 126//126 125//125 131//131 
f 131//131 125//125 132//132 
f 125//125 124//124 132//132 
f 132//132 124//124 133//133 
f 124//124 124//124 133//133 
f 133//133 124//124 134//134 
f 124//124 123//123 134//134 
f 134//134 123//123 135//135 
f 123//123 122//122 135//135 
f 135//135 122//122 136//136 
f 122//122 121//121 136//136 
f 136//136 121//121 136//136 
f 121//121 129//129 136//136 
f 136//136 129//129 137//137 
f 129//129 138//138 137//137 
f 137//137 138//138 138//138 
f 138//138 137//137 138//138 
f 138//138 137//137 137//137 
f 137//137 139//139 137//137 
f 137//137 139//139 136//136 
f 139//139 139//139 136//136 
f 136//136 139//139 135//135 
f 139//139 139//139 135//135 
f 135//135 139//139 134//134 
f 139//139 140//140 134//134 
f 134//134 140//140 134//134 
f 140//140 141//141 134//134 
f 134//134 141//141 133//133 
f 141//141 142//142 133//133 
f 133//133 142//142 132//132 
f 142//142 143//143 132//132 
f 132//132 143//143 131//131 
f 143//143 144//144 131//131 
f 131//131 144//144 130//130 
f 144//144 145//145 130//130 
f 130//130 145//145 128//128 
f 145//145 128//128 128//128 
f 128//128 128//128 144//144 
f 128//128 144//144 144//144 
f 144//144 144//144 145//145 
f 144//144 146//146 145//145 
f 145//145 146//146 147//147 
f 146//146 148//148 147//147 
f 147//147 148//148 147//147 
f 148//148 149//149 147//147 
f 147//147 149//149 147//147 
f 149//149 150//150 147//147 
f 147//147 150//150 151//151 
f 150//150 152//152 151//151 
f 151//151 152//152 79//79 
f 152//152 152//152 79//79 
f 79//79 152//152 78//78 
f 152//152 153//153 78//78 
f 78//78 153//153 77//77 
f 153//153 154//154 77//77 
f 77//77 154//154 76//76 
f 154//154 155//155 76//76 
f 76//76 155//155 61//61 
f 155//155 156//156 61//61 
f 61//61 156//156 58//58 
f 156//156 157//157 58//58 
f 58//58 157//157 47//47 
f 157//157 158//158 47//47 
f 47//47 158//158 44//44 
f 158//158 159//159 44//44 
f 44//44 159//159 44//44 
f 159//159 160//160 44//44 
f 44//44 160//160 42//42 
f 160//160 161//161 42//42 
f 42//42 161//161 40//40 
f 161//161 162//162 40//40 
f 40//40 162//162 38//38 
f 162//162 163//163 38//38 
f 38//38 163//163 36//36 
f 163//163 164//164 36//36 
f 36//36 164//164 34//34 
f 164//164 165//165 34//34 
f 34//34 165//165 32//32 
f 165//165 166//166 32//32 
f 32//32 166//166 30//30 
f 166//166 167//167 30//30 
f 30//30 167//167 28//28 
f 167//167 27//27 28//28 
f 28//28 27//27 27//27 
f 27//27 147//147 27//27 
f 27//27 147//147 147//147 
f 147//147 151//151 147//147 
f 147//147 151//151 145//145 
f 151//151 151//151 145//145 
f 145//145 151//151 128//128 
f 151//151 151//151 128//128 
f 128//128 151//151 80//80 
f 151//151 79//79 80//80 
f 80//80 79//79 79//79 
f 79//79 168//168 79//79 
f 79//79 168//168 168//168 
f 168//168 169//169 168//168 
f 168//168 169//169 170//170 
f 169//169 171//171 170//170 
f 170//170 171//171 172//172 
f 171//171 173//173 172//172 
f 172//172 173//173 174//174 
f 173//173 175//175 174//174 
f 174//174 175//175 174//174 
f 175//175 176//176 174//174 
f 174//174 176//176 177//177 
f 176//176 177//177 177//177 
f 177//177 177//177 158//158 
f 177//177 158//158 158//158 
f 158//158 158//158 169//169 
f 158//158 157//157 169//169 
f 169//169 157//157 171//171 
f 157//157 156//156 171//171 
f 171//171 156//156 173//173 
f 156//156 156//156 173//173 
f 173//173 156//156 175//175 
f 156//156 155//155 175//175 
f 175//175 155//155 176//176 
f 155//155 154//154 176//176 
f 176//176 154//154 178//178 
f 154//154 153//153 178//178 
f 178//178 153//153 178//178 
f 153//153 152//152 178//178 
f 178//178 152//152 178//178 
f 152//152 150//150 178//178 
f 178//178 150//150 178//178 
f 150//150 149//149 178//178 
f 178//178 149//149 178//178 
f 149//149 179//179 178//178 
f 178//178 179//179 178//178 
f 179//179 177//177 178//178 
f 178//178 177//177 176//176 
f 177//177 176//176 176//176 
f 176//176 176//176 180//180 
f 176//176 180//180 180//180 
f 180//180 180//180 181//181 
f 180//180 182//182 181//181 
f 181//181 182//182 183//183 
f 182//182 183//183 183//183 
f 183//183 183//183 182//182 
f 183//183 182//182 182//182 
f 182//182 182//182 184//184 
f 182//182 180//180 184//184 
f 184//184 180//180 184//184 
f 180//180 185//185 184//184 
f 184//184 185//185 186//186 
f 185//185 187//187 186//186 
f 186//186 187//187 188//188 
f 187//187 189//189 188//188 
f 188//188 189//189 190//190 
f 189//189 189//189 190//190 
f 190//190 189//189 191//191 
f 189//189 192//192 191//191 
f 191//191 192//192 193//193 
f 192//192 193//193 193//193 
f 193//193 193//193 192//192 
f 193//193 192//192 192//192 
f 192//192 192//192 194//194 
f 192//192 189//189 194//194 
f 194//194 189//189 194//194 
f 189//189 187//187 194//194 
f 194//194 187//187 194//194 
f 187//187 185//185 194//194 
f 194//194 185//185 195//195 
f 185//185 185//185 195//195 
f 195//195 185//185 196//196 
f 185//185 180//180 196//196 
f 196//196 180//180 196//196 
f 180//180 181//181 196//196 
f 196//196 181//181 197//197 
f 181//181 181//181 197//197 
f 197//197 181//181 198//198 
f 181//181 183//183 198//198 
f 198//198 183//183 198//198 
f 183//183 199//199 198//198 
f 198//198 199//199 200//200 
f 199//199 201//201 200//200 
f 200//200 201//201 202//202 
f 201//201 203//203 202//202 
f 202//202 203//203 204//204 
f 203//203 205//205 204//204 
f 204//204 205//205 205//205 
f 205//205 206//206 205//205 
f 205//205 206//206 206//206 
f 206//206 207//207 206//206 
f 206//206 207//207 204//204 
f 207//207 207//207 204//204 
f 204//204 207//207 202//202 
f 207//207 208//208 202//202 
f 202//202 208//208 200//200 
f 208//208 209//209 200//200 
f 200//200 209//209 198//198 
f 209//209 197//197 198//198 
f 198//198 197//197 197//197 
f 197//197 210//210 197//197 
f 197//197 210//210 210//210 
f 210//210 211//211 210//210 
f 210//210 211//211 212//212 
f 211//211 213//213 212//212 
f 212//212 213//213 214//214 
f 213//213 215//215 214//214 
f 214//214 215//215 214//214 
f 215//215 216//216 214//214 
f 214//214 216//216 217//217 
f 216//216 218//218 217//217 
f 217//217 218//218 219//219 
f 218//218 218//218 219//219 
f 219//219 218//218 220//220 
f 218//218 218//218 220//220 
f 220//220 218//218 221//221 
f 218//218 218//218 221//221 
f 221//221 218//218 222//222 
f 218//218 218//218 222//222 
f 222//222 218//218 223//223 
f 218//218 216//216 223//223 
f 223//223 216//216 224//224 
f 216//216 215//215 224//224 
f 224//224 215//215 225//225 
f 215//215 213//213 225//225 
f 225//225 213//213 213//213 
f 213//213 210//210 213//213 
f 213//213 210//210 210//210 
f 210//210 212//212 210//210 
f 210//210 212//212 226//226 
f 212//212 214//214 226//226 
f 226//226 214//214 227//227 
f 214//214 217//217 227//227 
f 227//227 217//217 217//217 
f 217//217 225//225 217//217 
f 217//217 225//225 225//225 
f 225//225 228//228 225//225 
f 225//225 228//228 224//224 
f 228//228 229//229 224//224 
f 224//224 229//229 223//223 
f 229//229 230//230 223//223 
f 223//223 230//230 222//222 
f 230//230 222//222 222//222 
f 222//222 222//222 230//230 
f 222//222 230//230 230//230 
f 230//230 230//230 231//231 
f 230//230 229//229 231//231 
f 231//231 229//229 228//228 
f 229//229 228//228 228//228 
f 228//228 228//228 232//232 
f 228//228 232//232 232//232 
f 232//232 232//232 233//233 
f 232//232 230//230 233//233 
f 233//233 230//230 234//234 
f 230//230 231//231 234//234 
f 234//234 231//231 235//235 
f 231//231 235//235 235//235 
f 235//235 235//235 232//232 
f 235//235 232//232 232//232 
f 232//232 232//232 230//230 
f 232//232 236//236 230//230 
f 230//230 236//236 222//222 
f 236//236 237//237 222//222 
f 222//222 237//237 221//221 
f 237//237 238//238 221//221 
f 221//221 238//238 239//239 
f 238//238 239//239 239//239 
f 239//239 239//239 233//233 
f 239//239 233//233 233//233 
f 233//233 233//233 240//240 
f 233//233 234//234 240//240 
f 240//240 234//234 240//240 
f 234//234 235//235 240//240 
f 240//240 235//235 240//240 
f 235//235 241//241 240//240 
f 240//240 241//241 242//242 
f 241//241 241//241 242//242 
f 242//242 241//241 243//243 
f 241//241 244//244 243//243 
f 243//243 244//244 245//245 
f 244//244 246//246 245//245 
f 245//245 246//246 247//247 
f 246//246 246//246 247//247 
f 247//247 246//246 248//248 
f 246//246 249//249 248//248 
f 248//248 249//249 250//250 
f 249//249 250//250 250//250 
f 250//250 250//250 243//243 
f 250//250 243//243 243//243 
f 243//243 243//243 251//251 
f 243//243 245//245 251//251 
f 251//251 245//245 252//252 
f 245//245 247//247 252//252 
f 252//252 247//247 247//247 
f 247//247 251//251 247//247 
f 247//247 251//251 251//251 
f 251//251 252//252 251//251 
f 251//251 252//252 253//253 
f 252//252 253//253 253//253 
f 253//253 253//253 249//249 
f 253//253 249//249 249//249 
f 249//249 249//249 254//254 
f 249//249 246//246 254//254 
f 254//254 246//246 254//254 
f 246//246 244//244 254//254 
f 254//254 244//244 255//255 
f 244//244 241//241 255//255 
f 255//255 241//241 256//256 
f 241//241 235//235 256//256 
f 256//256 235//235 256//256 
f 235//235 231//231 256//256 
f 256//256 231//231 257//257 
f 231//231 228//228 257//257 
f 257//257 228//228 258//258 
f 228//228 225//225 258//258 
f 258//258 225//225 259//259 
f 225//225 260//260 259//259 
f 259//259 260//260 261//261 
f 260//260 260//260 261//261 
f 261//261 260//260 262//262 
f 260//260 260//260 262//262 
f 262//262 260//260 263//263 
f 260//260 213//213 263//263 
f 263//263 213//213 211//211 
f 213//213 211//211 211//211 
f 211//211 211//211 225//225 
f 211//211 225//225 225//225 
f 225//225 225//225 260//260 
f 225//225 213//213 260//260 
f 260//260 213//213 213//213 
f 213//213 261//261 213//213 
f 213//213 261//261 261//261 
f 261//261 264//264 261//261 
f 261//261 264//264 259//259 
f 264//264 264//264 259//259 
f 259//259 264//264 258//258 
f 264//264 265//265 258//258 
f 258//258 265//265 257//257 
f 265//265 266//266 257//257 
f 257//257 266//266 256//256 
f 266//266 267//267 256//256 
f 256//256 267//267 255//255 
f 267//267 267//267 255//255 
f 255//255 267//267 254//254 
f 267//267 268//268 254//254 
f 254//254 268//268 249//249 
f 268//268 269//269 249//249 
f 249//249 269//269 250//250 
f 269//269 250//250 250//250 
f 250//250 250//250 264//264 
f 250//250 264//264 264//264 
f 264//264 264//264 270//270 
f 264//264 261//261 270//270 
f 270//270 261//261 261//261 
f 261//261 269//269 261//261 
f 261//261 269//269 269//269 
f 269//269 268//268 269//269 
f 269//269 268//268 271//271 
f 268//268 267//267 271//271 
f 271//271 267//267 272//272 
f 267//267 266//266 272//272 
f 272//272 266//266 272//272 
f 266//266 265//265 272//272 
f 272//272 265//265 273//273 
f 265//265 264//264 273//273 
f 273//273 264//264 273//273 
f 264//264 270//270 273//273 
f 273//273 270//270 273//273 
f 270//270 274//274 273//273 
f 273//273 274//274 273//273 
f 274//274 275//275 273//273 
f 273//273 275//275 272//272 
f 275//275 275//275 272//272 
f 272//272 275//275 271//271 
f 275//275 275//275 271//271 
f 271//271 275//275 269//269 
f 275//275 276//276 269//269 
f 269//269 276//276 250//250 
f 276//276 276//276 250//250 
f 250//250 276//276 277//277 
f 276//276 278//278 277//277 
f 277//277 278//278 279//279 
f 278//278 279//279 279//279 
f 279//279 279//279 278//278 
f 279//279 278//278 278//278 
f 278//278 278//278 280//280 
f 278//278 276//276 280//280 
f 280//280 276//276 280//280 
f 276//276 275//275 280//280 
f 280//280 275//275 274//274 
f 275//275 274//274 274//274 
f 274//274 274//274 281//281 
f 274//274 281//281 281//281 
f 281//281 281//281 282//282 
f 281//281 283//283 282//282 
f 282//282 283//283 282//282 
f 283//283 284//284 282//282 
f 282//282 284//284 285//285 
f 284//284 286//286 285//285 
f 285//285 286//286 286//286 
f 286//286 285//285 286//286 
f 286//286 285//285 285//285 
f 285//285 287//287 285//285 
f 285//285 287//287 282//282 
f 287//287 287//287 282//282 
f 282//282 287//287 288//288 
f 287//287 287//287 288//288 
f 288//288 287//287 289//289 
f 287//287 290//290 289//289 
f 289//289 290//290 290//290 
f 290//290 287//287 290//290 
f 290//290 287//287 287//287 
f 287//287 291//291 287//287 
f 287//287 291//291 292//292 
f 291//291 292//292 292//292 
f 292//292 292//292 282//282 
f 292//292 282//282 282//282 
f 282//282 282//282 293//293 
f 282//282 294//294 293//293 
f 293//293 294//294 294//294 
f 294//294 293//293 294//294 
f 294//294 293//293 293//293 
f 293//293 295//295 293//293 
f 293//293 295//295 296//296 
f 295//295 289//289 296//296 
f 296//296 289//289 289//289 
f 289//289 297//297 289//289 
f 289//289 297//297 297//297 
f 297//297 298//298 297//297 
f 297//297 298//298 299//299 
f 298//298 299//299 299//299 
f 299//299 299//299 300//300 
f 299//299 300//300 300//300 
f 300//300 300//300 301//301 
f 300//300 302//302 301//301 
f 301//301 302//302 302//302 
f 302//302 303//303 302//302 
f 302//302 303//303 303//303 
f 303//303 304//304 303//303 
f 303//303 304//304 305//305 
f 304//304 305//305 305//305 
f 305//305 305//305 306//306 
f 305//305 306//306 306//306 
f 306//306 306//306 307//307 
f 306//306 308//308 307//307 
f 307//307 308//308 308//308 
f 308//308 309//309 308//308 
f 308//308 309//309 309//309 
f 309//309 310//310 309//309 
f 309//309 310//310 311//311 
f 310//310 311//311 311//311 
f 311//311 311//311 312//312 
f 311//311 312//312 312//312 
f 312//312 312//312 313//313 
f 312//312 314//314 313//313 
f 313//313 314//314 314//314 
f 314//314 315//315 314//314 
f 314//314 315//315 315//315 
f 315//315 316//316 315//315 
f 315//315 316//316 317//317 
f 316//316 317//317 317//317 
f 317//317 317//317 318//318 
f 317//317 318//318 318//318 
f 318//318 318//318 319//319 
f 318//318 320//320 319//319 
f 319//319 320//320 320//320 
f 320//320 321//321 320//320 
f 320//320 321//321 321//321 
f 321//321 322//322 321//321 
f 321//321 322//322 323//323 
f 322//322 323//323 323//323 
f 323//323 323//323 324//324 
f 323//323 324//324 324//324 
f 324//324 324//324 325//325 
f 324//324 326//326 325//325 
f 325//325 326//326 326//326 
f 326//326 327//327 326//326 
f 326//326 327//327 327//327 
f 327//327 328//328 327//327 
f 327//327 328//328 329//329 
f 328//328 329//329 329//329 
f 329//329 329//329 330//330 
f 329//329 330//330 330//330 
f 330//330 330//330 331//331 
f 330//330 332//332 331//331 
f 331//331 332//332 332//332 
f 332//332 333//333 332//332 
f 332//332 333//333 333//333 
f 333//333 334//334 333//333 
f 333//333 334//334 335//335 
f 334//334 335//335 335//335 
f 335//335 335//335 336//336 
f 335//335 336//336 336//336 
f 336//336 336//336 337//337 
f 336//336 338//338 337//337 
f 337//337 338//338 338//338 
f 338//338 339//339 338//338 
f 338//338 339//339 339//339 
f 339//339 340//340 339//339 
f 339//339 340//340 341//341 
f 340//340 341//341 341//341 
f 341//341 341//341 342//342 
f 341//341 342//342 342//342 
f 342//342 342//342 343//343 
f 342//342 344//344 343//343 
f 343//343 344//344 344//344 
f 344//344 345//345 344//344 
f 344//344 345//345 345//345 
f 345//345 346//346 345//345 
f 345//345 346//346 347//347 
f 346//346 347//347 347//347 
f 347//347 347//347 348//348 
f 347//347 348//348 348//348 
f 348//348 348//348 349//349 
f 348//348 350//350 349//349 
f 349//349 350//350 350//350 
f 350//350 351//351 350//350 
f 350//350 351//351 351//351 
f 351//351 352//352 351//351 
f 351//351 352//352 353//353 
f 352//352 353//353 353//353 
f 353//353 353//353 354//354 
f 353//353 354//354 354//354 
f 354//354 354//354 355//355 
f 354//354 356//356 355//355 
f 355//355 356//356 356//356 
f 356//356 357//357 356//356 
f 356//356 357//357 357//357 
f 357//357 358//358 357//357 
f 357//357 358//358 359//359 
f 358//358 359//359 359//359 
f 359//359 359//359 360//360 
f 359//359 360//360 360//360 
f 360//360 360//360 361//361 
f 360//360 362//362 361//361 
f 361//361 362//362 362//362 
f 362//362 363//363 362//362 
f 362//362 363//363 363//363 
f 363//363 364//364 363//363 
f 363//363 364//364 365//365 
f 364//364 365//365 365//365 
f 365//365 365//365 366//366 
f 365//365 366//366 366//366 
f 366//366 366//366 367//367 
f 366//366 368//368 367//367 
f 367//367 368//368 368//368 
f 368//368 369//369 368//368 
f 368//368 369//369 369//369 
f 369//369 370//370 369//369 
f 369//369 370//370 371//371 
f 370//370 371//371 371//371 
f 371//371 371//371 372//372 
f 371//371 372//372 372//372 
f 372//372 372//372 373//373 
f 372//372 374//374 373//373 
f 373//373 374//374 374//374 
f 374//374 375//375 374//374 
f 374//374 375//375 375//375 
f 375//375 376//376 375//375 
f 375//375 376//376 377//377 
f 376//376 377//377 377//377 
f 377//377 377//377 378//378 
f 377//377 378//378 378//378 
f 378//378 378//378 379//379 
f 378//378 380//380 379//379 
f 379//379 380//380 380//380 
f 380//380 381//381 380//380 
f 380//380 381//381 381//381 
f 381//381 382//382 381//381 
f 381//381 382//382 383//383 
f 382//382 383//383 383//383 
f 383//383 383//383 384//384 
f 383//383 384//384 384//384 
f 384//384 384//384 385//385 
f 384//384 386//386 385//385 

