mtllib model_11.mtl
o model_11
v 2115.88818359375 -0.3654356002807617 -5616.384765625 
v -1057.1700439453125 -0.3654356002807617 -5616.384765625 
v 2331.070556640625 -0.3654356002807617 -5401.8369140625 
v -1272.3524169921875 -0.3654356002807617 -5401.8369140625 
v -1272.3524169921875 -0.3654356002807617 621.287353515625 
v 2331.070556640625 -0.3654356002807617 621.287353515625 
v 2115.88818359375 -0.3654356002807617 835.8355102539062 
v -1057.1700439453125 -0.3654356002807617 835.8355102539062 
v -1060.6976318359375 -3.5575900077819824 -5616.384765625 
v -1274.1162109375 -50.73344421386719 -5404.99169921875 
v -1274.1162109375 -3.5575900077819824 -5404.99169921875 
v 2119.415771484375 -50.73344421386719 -5616.384765625 
v 2332.834228515625 -50.73344421386719 -5404.99169921875 
v 2332.834228515625 -3.5575900077819824 -5404.99169921875 
v -1275.8800048828125 -50.73344421386719 -5398.681640625 
v -1275.8800048828125 -3.5575900077819824 618.1322631835938 
v -1275.8800048828125 -3.5575900077819824 -5398.681640625 
v 2114.124267578125 -3.5575900077819824 -5619.5400390625 
v -1055.40625 -3.5575900077819824 -5619.5400390625 
v 2114.124267578125 -50.73344421386719 -5619.5400390625 
v -1055.40625 -50.73344421386719 -5619.5400390625 
v 2115.88818359375 -53.92559814453125 835.8355102539062 
v 2331.070556640625 -53.92559814453125 621.287353515625 
v -1057.1700439453125 -53.92559814453125 835.8355102539062 
v -1272.3524169921875 -53.92559814453125 621.287353515625 
v -1272.3524169921875 -53.92559814453125 -5401.8369140625 
v 2331.070556640625 -53.92559814453125 -5401.8369140625 
v 2334.59814453125 -50.73344421386719 618.1322631835938 
v 2334.59814453125 -3.5575900077819824 618.1322631835938 
v 2334.59814453125 -3.5575900077819824 -5398.681640625 
v -1055.40625 -3.5575900077819824 838.9906616210938 
v -1055.40625 -50.73344421386719 838.9906616210938 
v 2114.124267578125 -3.5575900077819824 838.9906616210938 
v 2114.124267578125 -50.73344421386719 838.9906616210938 
v 2119.415771484375 -3.5575900077819824 835.8355102539062 
v 2332.834228515625 -50.73344421386719 624.4425048828125 
v 2332.834228515625 -3.5575900077819824 624.4425048828125 
v -1057.1700439453125 -0.3654356002807617 835.8355102539062 
v -1055.40625 -3.5575900077819824 838.9906616210938 
v -1060.6976318359375 -3.5575900077819824 835.8355102539062 
v -1275.8800048828125 -3.5575900077819824 618.1322631835938 
v -1274.1162109375 -3.5575900077819824 624.4425048828125 
v -1272.3524169921875 -0.3654356002807617 621.287353515625 
v 2331.070556640625 -0.3654356002807617 621.287353515625 
v 2334.59814453125 -3.5575900077819824 618.1322631835938 
v 2332.834228515625 -3.5575900077819824 624.4425048828125 
v 2115.88818359375 -0.3654356002807617 835.8355102539062 
v 2114.124267578125 -3.5575900077819824 838.9906616210938 
v 2119.415771484375 -3.5575900077819824 835.8355102539062 
v -1272.3524169921875 -0.3654356002807617 -5401.8369140625 
v -1275.8800048828125 -3.5575900077819824 -5398.681640625 
v -1274.1162109375 -3.5575900077819824 -5404.99169921875 
v -1057.1700439453125 -0.3654356002807617 -5616.384765625 
v -1055.40625 -3.5575900077819824 -5619.5400390625 
v -1060.6976318359375 -3.5575900077819824 -5616.384765625 
v 2115.88818359375 -0.3654356002807617 -5616.384765625 
v 2114.124267578125 -3.5575900077819824 -5619.5400390625 
v 2119.415771484375 -3.5575900077819824 -5616.384765625 
v 2334.59814453125 -3.5575900077819824 -5398.681640625 
v 2332.834228515625 -3.5575900077819824 -5404.99169921875 
v 2331.070556640625 -0.3654356002807617 -5401.8369140625 
v -1057.1700439453125 -53.92559814453125 -5616.384765625 
v -1055.40625 -50.73344421386719 -5619.5400390625 
v -1060.6976318359375 -50.73344421386719 -5616.384765625 
v -1275.8800048828125 -50.73344421386719 -5398.681640625 
v -1274.1162109375 -50.73344421386719 -5404.99169921875 
v -1272.3524169921875 -53.92559814453125 -5401.8369140625 
v -1272.3524169921875 -53.92559814453125 621.287353515625 
v -1275.8800048828125 -50.73344421386719 618.1322631835938 
v -1274.1162109375 -50.73344421386719 624.4425048828125 
v -1057.1700439453125 -53.92559814453125 835.8355102539062 
v -1055.40625 -50.73344421386719 838.9906616210938 
v -1060.6976318359375 -50.73344421386719 835.8355102539062 
v 2115.88818359375 -53.92559814453125 835.8355102539062 
v 2114.124267578125 -50.73344421386719 838.9906616210938 
v 2119.415771484375 -50.73344421386719 835.8355102539062 
v 2334.59814453125 -50.73344421386719 618.1322631835938 
v 2332.834228515625 -50.73344421386719 624.4425048828125 
v 2331.070556640625 -53.92559814453125 621.287353515625 
v 2331.070556640625 -53.92559814453125 -5401.8369140625 
v 2334.59814453125 -50.73344421386719 -5398.681640625 
v 2332.834228515625 -50.73344421386719 -5404.99169921875 
v 2115.88818359375 -53.92559814453125 -5616.384765625 
v 2114.124267578125 -50.73344421386719 -5619.5400390625 
v 2119.415771484375 -50.73344421386719 -5616.384765625 
v -1057.1700439453125 -0.3654356002807617 -5616.384765625 
v -1272.3524169921875 -0.3654356002807617 -5401.8369140625 
v -1274.1162109375 -3.5575900077819824 -5404.99169921875 
v -1274.1162109375 -3.5575900077819824 -5404.99169921875 
v -1275.8800048828125 -50.73344421386719 -5398.681640625 
v -1275.8800048828125 -3.5575900077819824 -5398.681640625 
v -1274.1162109375 -50.73344421386719 -5404.99169921875 
v -1272.3524169921875 -53.92559814453125 -5401.8369140625 
v -1057.1700439453125 -53.92559814453125 -5616.384765625 
v -1060.6976318359375 -50.73344421386719 -5616.384765625 
v -1055.40625 -3.5575900077819824 -5619.5400390625 
v -1055.40625 -50.73344421386719 -5619.5400390625 
v 2115.88818359375 -53.92559814453125 -5616.384765625 
v 2331.070556640625 -53.92559814453125 -5401.8369140625 
v 2332.834228515625 -50.73344421386719 -5404.99169921875 
v 2332.834228515625 -50.73344421386719 -5404.99169921875 
v 2334.59814453125 -3.5575900077819824 -5398.681640625 
v 2334.59814453125 -50.73344421386719 -5398.681640625 
v 2332.834228515625 -3.5575900077819824 -5404.99169921875 
v 2331.070556640625 -0.3654356002807617 -5401.8369140625 
v 2115.88818359375 -0.3654356002807617 -5616.384765625 
v 2119.415771484375 -3.5575900077819824 -5616.384765625 
v 2114.124267578125 -50.73344421386719 -5619.5400390625 
v 2114.124267578125 -3.5575900077819824 -5619.5400390625 
v 2119.415771484375 -3.5575900077819824 835.8355102539062 
v 2115.88818359375 -0.3654356002807617 835.8355102539062 
v 2331.070556640625 -0.3654356002807617 621.287353515625 
v 2334.59814453125 -3.5575900077819824 618.1322631835938 
v 2332.834228515625 -50.73344421386719 624.4425048828125 
v 2334.59814453125 -50.73344421386719 618.1322631835938 
v 2332.834228515625 -50.73344421386719 624.4425048828125 
v 2331.070556640625 -53.92559814453125 621.287353515625 
v 2115.88818359375 -53.92559814453125 835.8355102539062 
v 2119.415771484375 -50.73344421386719 835.8355102539062 
v 2114.124267578125 -3.5575900077819824 838.9906616210938 
v 2114.124267578125 -50.73344421386719 838.9906616210938 
v -1060.6976318359375 -50.73344421386719 835.8355102539062 
v -1057.1700439453125 -53.92559814453125 835.8355102539062 
v -1272.3524169921875 -53.92559814453125 621.287353515625 
v -1274.1162109375 -50.73344421386719 624.4425048828125 
v -1275.8800048828125 -3.5575900077819824 618.1322631835938 
v -1275.8800048828125 -50.73344421386719 618.1322631835938 
v -1274.1162109375 -3.5575900077819824 624.4425048828125 
v -1272.3524169921875 -0.3654356002807617 621.287353515625 
v -1057.1700439453125 -0.3654356002807617 835.8355102539062 
v -1060.6976318359375 -3.5575900077819824 835.8355102539062 
v -1055.40625 -50.73344421386719 838.9906616210938 
v -1055.40625 -3.5575900077819824 838.9906616210938 
v -1272.3524169921875 -0.3654356002807617 -5401.8369140625 
v -1272.3524169921875 -0.3654356002807617 621.287353515625 
v -1275.8800048828125 -3.5575900077819824 618.1322631835938 
v -1275.8800048828125 -50.73344421386719 618.1322631835938 
v -1272.3524169921875 -53.92559814453125 -5401.8369140625 
v -1272.3524169921875 -53.92559814453125 621.287353515625 
v 2115.88818359375 -0.3654356002807617 835.8355102539062 
v 2114.124267578125 -3.5575900077819824 838.9906616210938 
v -1055.40625 -3.5575900077819824 838.9906616210938 
v -1057.1700439453125 -0.3654356002807617 -5616.384765625 
v 2114.124267578125 -3.5575900077819824 -5619.5400390625 
v -1055.40625 -3.5575900077819824 -5619.5400390625 
v 2331.070556640625 -0.3654356002807617 -5401.8369140625 
v 2334.59814453125 -3.5575900077819824 -5398.681640625 
v 2334.59814453125 -3.5575900077819824 618.1322631835938 
v 2114.124267578125 -50.73344421386719 838.9906616210938 
v -1057.1700439453125 -53.92559814453125 835.8355102539062 
v 2115.88818359375 -53.92559814453125 835.8355102539062 
v 2331.070556640625 -53.92559814453125 -5401.8369140625 
v 2331.070556640625 -53.92559814453125 621.287353515625 
v 2334.59814453125 -50.73344421386719 618.1322631835938 
v -1055.40625 -50.73344421386719 -5619.5400390625 
v 2115.88818359375 -53.92559814453125 -5616.384765625 
v -1057.1700439453125 -53.92559814453125 -5616.384765625 
v -1060.6976318359375 -50.73344421386719 835.8355102539062 
v -1274.1162109375 -50.73344421386719 624.4425048828125 
v -1274.1162109375 -3.5575900077819824 624.4425048828125 
v -1060.6976318359375 -3.5575900077819824 -5616.384765625 
v -1060.6976318359375 -50.73344421386719 -5616.384765625 
v -1274.1162109375 -50.73344421386719 -5404.99169921875 
v 2119.415771484375 -50.73344421386719 -5616.384765625 
v 2332.834228515625 -3.5575900077819824 -5404.99169921875 
v 2119.415771484375 -3.5575900077819824 -5616.384765625 
v -1275.8800048828125 -50.73344421386719 -5398.681640625 
v -1275.8800048828125 -50.73344421386719 618.1322631835938 
v -1275.8800048828125 -3.5575900077819824 618.1322631835938 
v -1272.3524169921875 -53.92559814453125 -5401.8369140625 
v 2115.88818359375 -53.92559814453125 -5616.384765625 
v -1057.1700439453125 -53.92559814453125 -5616.384765625 
v 2115.88818359375 -53.92559814453125 -5616.384765625 
v 2331.070556640625 -53.92559814453125 -5401.8369140625 
v -1272.3524169921875 -53.92559814453125 -5401.8369140625 
v 2334.59814453125 -50.73344421386719 618.1322631835938 
v 2334.59814453125 -3.5575900077819824 -5398.681640625 
v 2334.59814453125 -50.73344421386719 -5398.681640625 
v 2119.415771484375 -3.5575900077819824 835.8355102539062 
v 2119.415771484375 -50.73344421386719 835.8355102539062 
v 2332.834228515625 -50.73344421386719 624.4425048828125 
v -1057.1700439453125 -0.3654356002807617 -5616.384765625 
v -1274.1162109375 -3.5575900077819824 -5404.99169921875 
v -1060.6976318359375 -3.5575900077819824 -5616.384765625 
v -1274.1162109375 -3.5575900077819824 -5404.99169921875 
v -1274.1162109375 -50.73344421386719 -5404.99169921875 
v -1275.8800048828125 -50.73344421386719 -5398.681640625 
v -1274.1162109375 -50.73344421386719 -5404.99169921875 
v -1057.1700439453125 -53.92559814453125 -5616.384765625 
v -1060.6976318359375 -50.73344421386719 -5616.384765625 
v -1060.6976318359375 -50.73344421386719 -5616.384765625 
v -1060.6976318359375 -3.5575900077819824 -5616.384765625 
v -1055.40625 -3.5575900077819824 -5619.5400390625 
v 2115.88818359375 -53.92559814453125 -5616.384765625 
v 2332.834228515625 -50.73344421386719 -5404.99169921875 
v 2119.415771484375 -50.73344421386719 -5616.384765625 
v 2332.834228515625 -50.73344421386719 -5404.99169921875 
v 2332.834228515625 -3.5575900077819824 -5404.99169921875 
v 2334.59814453125 -3.5575900077819824 -5398.681640625 
v 2332.834228515625 -3.5575900077819824 -5404.99169921875 
v 2115.88818359375 -0.3654356002807617 -5616.384765625 
v 2119.415771484375 -3.5575900077819824 -5616.384765625 
v 2119.415771484375 -3.5575900077819824 -5616.384765625 
v 2119.415771484375 -50.73344421386719 -5616.384765625 
v 2114.124267578125 -50.73344421386719 -5619.5400390625 
v 2119.415771484375 -3.5575900077819824 835.8355102539062 
v 2331.070556640625 -0.3654356002807617 621.287353515625 
v 2332.834228515625 -3.5575900077819824 624.4425048828125 
v 2334.59814453125 -3.5575900077819824 618.1322631835938 
v 2332.834228515625 -3.5575900077819824 624.4425048828125 
v 2332.834228515625 -50.73344421386719 624.4425048828125 
v 2332.834228515625 -50.73344421386719 624.4425048828125 
v 2115.88818359375 -53.92559814453125 835.8355102539062 
v 2119.415771484375 -50.73344421386719 835.8355102539062 
v 2119.415771484375 -50.73344421386719 835.8355102539062 
v 2119.415771484375 -3.5575900077819824 835.8355102539062 
v 2114.124267578125 -3.5575900077819824 838.9906616210938 
v -1060.6976318359375 -50.73344421386719 835.8355102539062 
v -1272.3524169921875 -53.92559814453125 621.287353515625 
v -1274.1162109375 -50.73344421386719 624.4425048828125 
v -1274.1162109375 -50.73344421386719 624.4425048828125 
v -1274.1162109375 -3.5575900077819824 624.4425048828125 
v -1275.8800048828125 -3.5575900077819824 618.1322631835938 
v -1274.1162109375 -3.5575900077819824 624.4425048828125 
v -1057.1700439453125 -0.3654356002807617 835.8355102539062 
v -1060.6976318359375 -3.5575900077819824 835.8355102539062 
v -1060.6976318359375 -3.5575900077819824 835.8355102539062 
v -1060.6976318359375 -50.73344421386719 835.8355102539062 
v -1055.40625 -50.73344421386719 838.9906616210938 
v -1272.3524169921875 -0.3654356002807617 -5401.8369140625 
v -1275.8800048828125 -3.5575900077819824 618.1322631835938 
v -1275.8800048828125 -3.5575900077819824 -5398.681640625 
v -1275.8800048828125 -50.73344421386719 618.1322631835938 
v -1275.8800048828125 -50.73344421386719 -5398.681640625 
v -1272.3524169921875 -53.92559814453125 -5401.8369140625 
v 2115.88818359375 -0.3654356002807617 835.8355102539062 
v -1055.40625 -3.5575900077819824 838.9906616210938 
v -1057.1700439453125 -0.3654356002807617 835.8355102539062 
v -1057.1700439453125 -0.3654356002807617 -5616.384765625 
v 2115.88818359375 -0.3654356002807617 -5616.384765625 
v 2114.124267578125 -3.5575900077819824 -5619.5400390625 
v 2331.070556640625 -0.3654356002807617 -5401.8369140625 
v 2334.59814453125 -3.5575900077819824 618.1322631835938 
v 2331.070556640625 -0.3654356002807617 621.287353515625 
v 2114.124267578125 -50.73344421386719 838.9906616210938 
v -1055.40625 -50.73344421386719 838.9906616210938 
v -1057.1700439453125 -53.92559814453125 835.8355102539062 
v 2331.070556640625 -53.92559814453125 -5401.8369140625 
v 2334.59814453125 -50.73344421386719 618.1322631835938 
v 2334.59814453125 -50.73344421386719 -5398.681640625 
v -1055.40625 -50.73344421386719 -5619.5400390625 
v 2114.124267578125 -50.73344421386719 -5619.5400390625 
v 2115.88818359375 -53.92559814453125 -5616.384765625 
v -1060.6976318359375 -50.73344421386719 835.8355102539062 
v -1274.1162109375 -3.5575900077819824 624.4425048828125 
v -1060.6976318359375 -3.5575900077819824 835.8355102539062 
vn -1.0341130485562108e-13 0.999997615814209 0.002184694167226553 
vn -1.0341130485562108e-13 0.999997615814209 0.002184694167226553 
vn -1.0341130485562108e-13 0.999997615814209 0.002184694167226553 
vn -1.0341130485562108e-13 0.999997615814209 0.002184694167226553 
vn -1.0341130485562108e-13 0.999997615814209 0.002184694167226553 
vn -1.0341130485562108e-13 0.999997615814209 0.002184694167226553 
vn -1.0341130485562108e-13 0.999997615814209 0.002184694167226553 
vn -1.0341130485562108e-13 0.999997615814209 0.002184694167226553 
vn -0.7078686952590942 0.0037756471429020166 -0.7063339352607727 
vn -0.7078686952590942 0.0037756471429020166 -0.7063339352607727 
vn -0.7078686952590942 0.0037756471429020166 -0.7063339352607727 
vn 0.7078787684440613 0 -0.7063339352607727 
vn 0.7078787684440613 0 -0.7063339352607727 
vn 0.7078787684440613 0 -0.7063339352607727 
vn -0.999997615814209 -2.0682260971124217e-13 -0.002184694167226553 
vn -0.999997615814209 -2.0682260971124217e-13 -0.002184694167226553 
vn -0.999997615814209 -2.0682260971124217e-13 -0.002184694167226553 
vn -2.0682311115474694e-13 0 -1 
vn -2.0682311115474694e-13 0 -1 
vn -2.0682311115474694e-13 0 -1 
vn -2.0682311115474694e-13 0 -1 
vn 3.097898456858039e-13 -0.999997615814209 0.002184694167226553 
vn 3.097898456858039e-13 -0.999997615814209 0.002184694167226553 
vn 3.097898456858039e-13 -0.999997615814209 0.002184694167226553 
vn 3.097898456858039e-13 -0.999997615814209 0.002184694167226553 
vn 3.097898456858039e-13 -0.999997615814209 0.002184694167226553 
vn 3.097898456858039e-13 -0.999997615814209 0.002184694167226553 
vn 0.999997615814209 0 -0.002184694167226553 
vn 0.999997615814209 0 -0.002184694167226553 
vn 0.999997615814209 0 -0.002184694167226553 
vn 0 0 1 
vn 0 0 1 
vn 0 0 1 
vn 0 0 1 
vn 0.7078787684440613 0 0.7063339352607727 
vn 0.7078787684440613 0 0.7063339352607727 
vn 0.7078787684440613 0 0.7063339352607727 
vn -0.3158201277256012 0.5721288323402405 0.7569189071655273 
vn -0.3158201277256012 0.5721288323402405 0.7569189071655273 
vn -0.3158201277256012 0.5721288323402405 0.7569189071655273 
vn -0.7579757571220398 0.5730922222137451 0.31150925159454346 
vn -0.7579757571220398 0.5730922222137451 0.31150925159454346 
vn -0.7579757571220398 0.5730922222137451 0.31150925159454346 
vn 0.7556936740875244 0.5760981440544128 0.31150925159454346 
vn 0.7556936740875244 0.5760981440544128 0.31150925159454346 
vn 0.7556936740875244 0.5760981440544128 0.31150925159454346 
vn 0.3125169277191162 0.5739398002624512 0.7569189071655273 
vn 0.3125169277191162 0.5739398002624512 0.7569189071655273 
vn 0.3125169277191162 0.5739398002624512 0.7569189071655273 
vn -0.7579757571220398 0.5730922222137451 -0.31150925159454346 
vn -0.7579757571220398 0.5730922222137451 -0.31150925159454346 
vn -0.7579757571220398 0.5730922222137451 -0.31150925159454346 
vn -0.31357046961784363 0.5733649134635925 -0.7569189071655273 
vn -0.31357046961784363 0.5733649134635925 -0.7569189071655273 
vn -0.31357046961784363 0.5733649134635925 -0.7569189071655273 
vn 0.316882461309433 0.5715411305427551 -0.7569189071655273 
vn 0.316882461309433 0.5715411305427551 -0.7569189071655273 
vn 0.316882461309433 0.5715411305427551 -0.7569189071655273 
vn 0.7556936740875244 0.5760981440544128 -0.31150925159454346 
vn 0.7556936740875244 0.5760981440544128 -0.31150925159454346 
vn 0.7556936740875244 0.5760981440544128 -0.31150925159454346 
vn -0.31357046961784363 -0.5733649134635925 -0.7569189071655273 
vn -0.31357046961784363 -0.5733649134635925 -0.7569189071655273 
vn -0.31357046961784363 -0.5733649134635925 -0.7569189071655273 
vn -0.7579757571220398 -0.5730922222137451 -0.31150925159454346 
vn -0.7579757571220398 -0.5730922222137451 -0.31150925159454346 
vn -0.7579757571220398 -0.5730922222137451 -0.31150925159454346 
vn -0.7579757571220398 -0.5730922222137451 0.31150925159454346 
vn -0.7579757571220398 -0.5730922222137451 0.31150925159454346 
vn -0.7579757571220398 -0.5730922222137451 0.31150925159454346 
vn -0.3158201277256012 -0.5721288323402405 0.7569189071655273 
vn -0.3158201277256012 -0.5721288323402405 0.7569189071655273 
vn -0.3158201277256012 -0.5721288323402405 0.7569189071655273 
vn 0.3125169277191162 -0.5739398002624512 0.7569189071655273 
vn 0.3125169277191162 -0.5739398002624512 0.7569189071655273 
vn 0.3125169277191162 -0.5739398002624512 0.7569189071655273 
vn 0.7556936740875244 -0.5760981440544128 0.31150925159454346 
vn 0.7556936740875244 -0.5760981440544128 0.31150925159454346 
vn 0.7556936740875244 -0.5760981440544128 0.31150925159454346 
vn 0.7556936740875244 -0.5760981440544128 -0.31150925159454346 
vn 0.7556936740875244 -0.5760981440544128 -0.31150925159454346 
vn 0.7556936740875244 -0.5760981440544128 -0.31150925159454346 
vn 0.316882461309433 -0.5715411305427551 -0.7569189071655273 
vn 0.316882461309433 -0.5715411305427551 -0.7569189071655273 
vn 0.316882461309433 -0.5715411305427551 -0.7569189071655273 
vn -0.5011798143386841 0.7071626782417297 -0.4987381398677826 
vn -0.5011798143386841 0.7071626782417297 -0.4987381398677826 
vn -0.5011798143386841 0.7071626782417297 -0.4987381398677826 
vn -0.9244976043701172 0.0037768674083054066 -0.3811691105365753 
vn -0.9244976043701172 0.0037768674083054066 -0.3811691105365753 
vn -0.9244976043701172 0.0037768674083054066 -0.3811691105365753 
vn -0.5011798143386841 -0.7071626782417297 -0.4987381398677826 
vn -0.5011798143386841 -0.7071626782417297 -0.4987381398677826 
vn -0.5011798143386841 -0.7071626782417297 -0.4987381398677826 
vn -0.3831879794597626 -7.925212949008026e-14 -0.9236704111099243 
vn -0.3831879794597626 -7.925212949008026e-14 -0.9236704111099243 
vn -0.3831879794597626 -7.925212949008026e-14 -0.9236704111099243 
vn 0.49809378385543823 -0.7093397378921509 -0.4987381398677826 
vn 0.49809378385543823 -0.7093397378921509 -0.4987381398677826 
vn 0.49809378385543823 -0.7093397378921509 -0.4987381398677826 
vn 0.924505352973938 0 -0.3811691105365753 
vn 0.924505352973938 0 -0.3811691105365753 
vn 0.924505352973938 0 -0.3811691105365753 
vn 0.49809378385543823 0.7093397378921509 -0.4987381398677826 
vn 0.49809378385543823 0.7093397378921509 -0.4987381398677826 
vn 0.49809378385543823 0.7093397378921509 -0.4987381398677826 
vn 0.3831879794597626 0 -0.9236704111099243 
vn 0.3831879794597626 0 -0.9236704111099243 
vn 0.3831879794597626 0 -0.9236704111099243 
vn 0.499035120010376 0.7086777687072754 0.4987381398677826 
vn 0.499035120010376 0.7086777687072754 0.4987381398677826 
vn 0.499035120010376 0.7086777687072754 0.4987381398677826 
vn 0.924505352973938 0 0.3811691105365753 
vn 0.924505352973938 0 0.3811691105365753 
vn 0.924505352973938 0 0.3811691105365753 
vn 0.499035120010376 -0.7086777687072754 0.4987381398677826 
vn 0.499035120010376 -0.7086777687072754 0.4987381398677826 
vn 0.499035120010376 -0.7086777687072754 0.4987381398677826 
vn 0.3831879794597626 0 0.9236704111099243 
vn 0.3831879794597626 0 0.9236704111099243 
vn 0.3831879794597626 0 0.9236704111099243 
vn -0.499035120010376 -0.7086777687072754 0.4987381398677826 
vn -0.499035120010376 -0.7086777687072754 0.4987381398677826 
vn -0.499035120010376 -0.7086777687072754 0.4987381398677826 
vn -0.924505352973938 -1.9120906843538704e-13 0.3811691105365753 
vn -0.924505352973938 -1.9120906843538704e-13 0.3811691105365753 
vn -0.924505352973938 -1.9120906843538704e-13 0.3811691105365753 
vn -0.499035120010376 0.7086777687072754 0.4987381398677826 
vn -0.499035120010376 0.7086777687072754 0.4987381398677826 
vn -0.499035120010376 0.7086777687072754 0.4987381398677826 
vn -0.3831879794597626 -7.925212949008026e-14 0.9236704111099243 
vn -0.3831879794597626 -7.925212949008026e-14 0.9236704111099243 
vn -0.3831879794597626 -7.925212949008026e-14 0.9236704111099243 
vn -0.7071051001548767 0.7071051001548767 0.002184694167226553 
vn -0.7071051001548767 0.7071051001548767 0.002184694167226553 
vn -0.7071051001548767 0.7071051001548767 0.002184694167226553 
vn -0.7071051001548767 -0.7071051001548767 0.002184694167226553 
vn -0.7071051001548767 -0.7071051001548767 0.002184694167226553 
vn -0.7071051001548767 -0.7071051001548767 0.002184694167226553 
vn 0.00376924779266119 0.707868754863739 0.7063339352607727 
vn 0.00376924779266119 0.707868754863739 0.7063339352607727 
vn 0.00376924779266119 0.707868754863739 0.7063339352607727 
vn 0.0018878303235396743 0.7078762650489807 -0.7063339352607727 
vn 0.0018878303235396743 0.7078762650489807 -0.7063339352607727 
vn 0.0018878303235396743 0.7078762650489807 -0.7063339352607727 
vn 0.7071051001548767 0.7071051001548767 0.002184694167226553 
vn 0.7071051001548767 0.7071051001548767 0.002184694167226553 
vn 0.7071051001548767 0.7071051001548767 0.002184694167226553 
vn 0.00376924779266119 -0.707868754863739 0.7063339352607727 
vn 0.00376924779266119 -0.707868754863739 0.7063339352607727 
vn 0.00376924779266119 -0.707868754863739 0.7063339352607727 
vn 0.7071051001548767 -0.7071051001548767 0.002184694167226553 
vn 0.7071051001548767 -0.7071051001548767 0.002184694167226553 
vn 0.7071051001548767 -0.7071051001548767 0.002184694167226553 
vn 0.0018878303235396743 -0.7078762650489807 -0.7063339352607727 
vn 0.0018878303235396743 -0.7078762650489807 -0.7063339352607727 
vn 0.0018878303235396743 -0.7078762650489807 -0.7063339352607727 
vn -0.7078787684440613 -1.4640568759497624e-13 0.7063339352607727 
vn -0.7078787684440613 -1.4640568759497624e-13 0.7063339352607727 
vn -0.7078787684440613 -1.4640568759497624e-13 0.7063339352607727 
vn -0.7078686952590942 0.0037756471429020166 -0.7063339352607727 
vn -0.7078686952590942 0.0037756471429020166 -0.7063339352607727 
vn -0.7078686952590942 0.0037756471429020166 -0.7063339352607727 
vn 0.7078787684440613 0 -0.7063339352607727 
vn 0.7078787684440613 0 -0.7063339352607727 
vn 0.7078787684440613 0 -0.7063339352607727 
vn -0.999997615814209 -2.0682260971124217e-13 0.002184694167226553 
vn -0.999997615814209 -2.0682260971124217e-13 0.002184694167226553 
vn -0.999997615814209 -2.0682260971124217e-13 0.002184694167226553 
vn 3.097898456858039e-13 -0.999997615814209 -0.002184694167226553 
vn 3.097898456858039e-13 -0.999997615814209 -0.002184694167226553 
vn 3.097898456858039e-13 -0.999997615814209 -0.002184694167226553 
vn 3.097898456858039e-13 -0.999997615814209 -0.002184694167226553 
vn 3.097898456858039e-13 -0.999997615814209 -0.002184694167226553 
vn 3.097898456858039e-13 -0.999997615814209 -0.002184694167226553 
vn 0.999997615814209 0 0.002184694167226553 
vn 0.999997615814209 0 0.002184694167226553 
vn 0.999997615814209 0 0.002184694167226553 
vn 0.7078787684440613 0 0.7063339352607727 
vn 0.7078787684440613 0 0.7063339352607727 
vn 0.7078787684440613 0 0.7063339352607727 
vn -0.5011798143386841 0.7071626782417297 -0.4987381398677826 
vn -0.5011798143386841 0.7071626782417297 -0.4987381398677826 
vn -0.5011798143386841 0.7071626782417297 -0.4987381398677826 
vn -0.9244976043701172 0.0037768674083054066 -0.3811691105365753 
vn -0.9244976043701172 0.0037768674083054066 -0.3811691105365753 
vn -0.9244976043701172 0.0037768674083054066 -0.3811691105365753 
vn -0.5011798143386841 -0.7071626782417297 -0.4987381398677826 
vn -0.5011798143386841 -0.7071626782417297 -0.4987381398677826 
vn -0.5011798143386841 -0.7071626782417297 -0.4987381398677826 
vn -0.3831879794597626 -7.925212949008026e-14 -0.9236704111099243 
vn -0.3831879794597626 -7.925212949008026e-14 -0.9236704111099243 
vn -0.3831879794597626 -7.925212949008026e-14 -0.9236704111099243 
vn 0.49809378385543823 -0.7093397378921509 -0.4987381398677826 
vn 0.49809378385543823 -0.7093397378921509 -0.4987381398677826 
vn 0.49809378385543823 -0.7093397378921509 -0.4987381398677826 
vn 0.924505352973938 0 -0.3811691105365753 
vn 0.924505352973938 0 -0.3811691105365753 
vn 0.924505352973938 0 -0.3811691105365753 
vn 0.49809378385543823 0.7093397378921509 -0.4987381398677826 
vn 0.49809378385543823 0.7093397378921509 -0.4987381398677826 
vn 0.49809378385543823 0.7093397378921509 -0.4987381398677826 
vn 0.3831879794597626 0 -0.9236704111099243 
vn 0.3831879794597626 0 -0.9236704111099243 
vn 0.3831879794597626 0 -0.9236704111099243 
vn 0.499035120010376 0.7086777687072754 0.4987381398677826 
vn 0.499035120010376 0.7086777687072754 0.4987381398677826 
vn 0.499035120010376 0.7086777687072754 0.4987381398677826 
vn 0.924505352973938 0 0.3811691105365753 
vn 0.924505352973938 0 0.3811691105365753 
vn 0.924505352973938 0 0.3811691105365753 
vn 0.499035120010376 -0.7086777687072754 0.4987381398677826 
vn 0.499035120010376 -0.7086777687072754 0.4987381398677826 
vn 0.499035120010376 -0.7086777687072754 0.4987381398677826 
vn 0.3831879794597626 0 0.9236704111099243 
vn 0.3831879794597626 0 0.9236704111099243 
vn 0.3831879794597626 0 0.9236704111099243 
vn -0.499035120010376 -0.7086777687072754 0.4987381398677826 
vn -0.499035120010376 -0.7086777687072754 0.4987381398677826 
vn -0.499035120010376 -0.7086777687072754 0.4987381398677826 
vn -0.924505352973938 -1.9120906843538704e-13 0.3811691105365753 
vn -0.924505352973938 -1.9120906843538704e-13 0.3811691105365753 
vn -0.924505352973938 -1.9120906843538704e-13 0.3811691105365753 
vn -0.499035120010376 0.7086777687072754 0.4987381398677826 
vn -0.499035120010376 0.7086777687072754 0.4987381398677826 
vn -0.499035120010376 0.7086777687072754 0.4987381398677826 
vn -0.3831879794597626 -7.925212949008026e-14 0.9236704111099243 
vn -0.3831879794597626 -7.925212949008026e-14 0.9236704111099243 
vn -0.3831879794597626 -7.925212949008026e-14 0.9236704111099243 
vn -0.7071051001548767 0.7071051001548767 -0.002184694167226553 
vn -0.7071051001548767 0.7071051001548767 -0.002184694167226553 
vn -0.7071051001548767 0.7071051001548767 -0.002184694167226553 
vn -0.7071051001548767 -0.7071051001548767 0.002184694167226553 
vn -0.7071051001548767 -0.7071051001548767 0.002184694167226553 
vn -0.7071051001548767 -0.7071051001548767 0.002184694167226553 
vn 0.00376924779266119 0.707868754863739 0.7063339352607727 
vn 0.00376924779266119 0.707868754863739 0.7063339352607727 
vn 0.00376924779266119 0.707868754863739 0.7063339352607727 
vn 0.0018878303235396743 0.7078762650489807 -0.7063339352607727 
vn 0.0018878303235396743 0.7078762650489807 -0.7063339352607727 
vn 0.0018878303235396743 0.7078762650489807 -0.7063339352607727 
vn 0.7071051001548767 0.7071051001548767 0.002184694167226553 
vn 0.7071051001548767 0.7071051001548767 0.002184694167226553 
vn 0.7071051001548767 0.7071051001548767 0.002184694167226553 
vn 0.00376924779266119 -0.707868754863739 0.7063339352607727 
vn 0.00376924779266119 -0.707868754863739 0.7063339352607727 
vn 0.00376924779266119 -0.707868754863739 0.7063339352607727 
vn 0.7071051001548767 -0.7071051001548767 0.002184694167226553 
vn 0.7071051001548767 -0.7071051001548767 0.002184694167226553 
vn 0.7071051001548767 -0.7071051001548767 0.002184694167226553 
vn 0.0018878303235396743 -0.7078762650489807 -0.7063339352607727 
vn 0.0018878303235396743 -0.7078762650489807 -0.7063339352607727 
vn 0.0018878303235396743 -0.7078762650489807 -0.7063339352607727 
vn -0.7078787684440613 -1.4640568759497624e-13 0.7063339352607727 
vn -0.7078787684440613 -1.4640568759497624e-13 0.7063339352607727 
vn -0.7078787684440613 -1.4640568759497624e-13 0.7063339352607727 
vt -1.6647788286209106 -1.610817790031433 
vt 0.3132356107234955 -1.610817790031433 
vt -1.7994933128356934 -1.4762492179870605 
vt 0.447950154542923 -1.4762492179870605 
vt 0.447950154542923 2.2778360843658447 
vt -1.7994933128356934 2.2778360843658447 
vt -1.6647788286209106 2.4125304222106934 
vt 0.3132356107234955 2.4125304222106934 
vt 2.799484968185425 -1.4797706604003906 
vt 2.7699854373931885 -1.6128300428390503 
vt 2.799484968185425 -1.6128300428390503 
vt 2.732619285583496 2.033348798751831 
vt 2.732619285583496 1.859541654586792 
vt 2.7032601833343506 1.859541654586792 
vt 2.7366931438446045 2.030707836151123 
vt 2.766052007675171 -1.4353755712509155 
vt 2.766052007675171 2.030707836151123 
vt 2.799484968185425 0.4992673993110657 
vt 2.799484968185425 -1.4763749837875366 
vt 2.7699854373931885 0.4992673993110657 
vt 2.7699854373931885 -1.4763749837875366 
vt 2.56461238861084 2.4125304222106934 
vt 2.699326992034912 2.2778360843658447 
vt 0.5865979790687561 2.4125304222106934 
vt 0.4518834352493286 2.2778360843658447 
vt 0.4518834352493286 -1.4762492179870605 
vt 2.699326992034912 -1.4762492179870605 
vt 2.732619285583496 -1.6101889610290527 
vt 2.7032601833343506 -1.6101889610290527 
vt 2.7032601833343506 1.8558944463729858 
vt 2.799484968185425 2.5054707527160645 
vt 2.7699854373931885 2.5054707527160645 
vt 2.799484968185425 0.6801174879074097 
vt 2.7699854373931885 0.6801174879074097 
vt 2.799484968185425 0.6764702796936035 
vt 2.7699854373931885 0.5026630759239197 
vt 2.799484968185425 0.5026630759239197 
vt 2.8014514446258545 2.505847930908203 
vt 2.799484968185425 2.5054707527160645 
vt 2.799484968185425 2.5081117153167725 
vt 2.766052007675171 -1.4353755712509155 
vt 2.766052007675171 -1.4390227794647217 
vt 2.7680187225341797 -1.4372620582580566 
vt 2.701293706893921 -1.610566258430481 
vt 2.7032601833343506 -1.6101889610290527 
vt 2.7032601833343506 -1.6128300428390503 
vt 2.8014514446258545 0.6783567667007446 
vt 2.799484968185425 0.6801174879074097 
vt 2.799484968185425 0.6764702796936035 
vt 2.7680187225341797 2.0310850143432617 
vt 2.766052007675171 2.030707836151123 
vt 2.766052007675171 2.033348798751831 
vt 2.8014514446258545 -1.4776326417922974 
vt 2.799484968185425 -1.4763749837875366 
vt 2.799484968185425 -1.4797706604003906 
vt 2.8014514446258545 0.5005250573158264 
vt 2.799484968185425 0.4992673993110657 
vt 2.799484968185425 0.5026630759239197 
vt 2.7032601833343506 1.8558944463729858 
vt 2.7032601833343506 1.859541654586792 
vt 2.701293706893921 1.8576551675796509 
vt 2.7680187225341797 -1.4776326417922974 
vt 2.7699854373931885 -1.4763749837875366 
vt 2.7699854373931885 -1.4797706604003906 
vt 2.7366931438446045 2.030707836151123 
vt 2.7366931438446045 2.033348798751831 
vt 2.734586000442505 2.0310850143432617 
vt 2.734586000442505 -1.4372620582580566 
vt 2.7366931438446045 -1.4353755712509155 
vt 2.7366931438446045 -1.4390227794647217 
vt 2.7680187225341797 2.505847930908203 
vt 2.7699854373931885 2.5054707527160645 
vt 2.7699854373931885 2.5081117153167725 
vt 2.7680187225341797 0.6783567667007446 
vt 2.7699854373931885 0.6801174879074097 
vt 2.7699854373931885 0.6764702796936035 
vt 2.732619285583496 -1.6101889610290527 
vt 2.732619285583496 -1.6128300428390503 
vt 2.734586000442505 -1.610566258430481 
vt 2.734586000442505 1.8576551675796509 
vt 2.732619285583496 1.8558944463729858 
vt 2.732619285583496 1.859541654586792 
vt 2.7680187225341797 0.5005250573158264 
vt 2.7699854373931885 0.4992673993110657 
vt 2.7699854373931885 0.5026630759239197 
vt 0.3132356107234955 -1.610817790031433 
vt 0.447950154542923 -1.4762492179870605 
vt 0.4485120475292206 -1.4783872365951538 
vt 2.766052007675171 2.033348798751831 
vt 2.7366931438446045 2.030707836151123 
vt 2.766052007675171 2.030707836151123 
vt 0.451321542263031 -1.4783872365951538 
vt 0.4518834352493286 -1.4762492179870605 
vt 0.5865979790687561 -1.610817790031433 
vt 2.7699854373931885 -1.4797706604003906 
vt 2.799484968185425 -1.4763749837875366 
vt 2.7699854373931885 -1.4763749837875366 
vt 2.56461238861084 -1.610817790031433 
vt 2.699326992034912 -1.4762492179870605 
vt 2.6998889446258545 -1.4783872365951538 
vt 2.732619285583496 1.859541654586792 
vt 2.7032601833343506 1.8558944463729858 
vt 2.732619285583496 1.8558944463729858 
vt -1.8000552654266357 -1.4783872365951538 
vt -1.7994933128356934 -1.4762492179870605 
vt -1.6647788286209106 -1.610817790031433 
vt 2.799484968185425 0.5026630759239197 
vt 2.7699854373931885 0.4992673993110657 
vt 2.799484968185425 0.4992673993110657 
vt -1.667026400566101 2.4130334854125977 
vt -1.6647788286209106 2.4125304222106934 
vt -1.7994933128356934 2.2778360843658447 
vt 2.7032601833343506 -1.6101889610290527 
vt 2.732619285583496 -1.6128300428390503 
vt 2.732619285583496 -1.6101889610290527 
vt 2.6998889446258545 2.280099868774414 
vt 2.699326992034912 2.2778360843658447 
vt 2.56461238861084 2.4125304222106934 
vt 2.7699854373931885 0.6764702796936035 
vt 2.799484968185425 0.6801174879074097 
vt 2.7699854373931885 0.6801174879074097 
vt 0.5843504071235657 2.4130334854125977 
vt 0.5865979790687561 2.4125304222106934 
vt 0.4518834352493286 2.2778360843658447 
vt 2.7366931438446045 -1.4390227794647217 
vt 2.766052007675171 -1.4353755712509155 
vt 2.7366931438446045 -1.4353755712509155 
vt 0.4485120475292206 2.280099868774414 
vt 0.447950154542923 2.2778360843658447 
vt 0.3132356107234955 2.4125304222106934 
vt 2.799484968185425 2.5081117153167725 
vt 2.7699854373931885 2.5054707527160645 
vt 2.799484968185425 2.5054707527160645 
vt 0.447950154542923 -1.4762492179870605 
vt 0.447950154542923 2.2778360843658447 
vt 0.449916809797287 2.2767040729522705 
vt 0.449916809797287 2.2767040729522705 
vt 0.4518834352493286 -1.4762492179870605 
vt 0.4518834352493286 2.2778360843658447 
vt -1.6647788286209106 2.4125304222106934 
vt -1.6636550426483154 2.414416790008545 
vt 0.3121117949485779 2.414416790008545 
vt 0.3132356107234955 -1.610817790031433 
vt -1.6636550426483154 -1.6128300428390503 
vt 0.3121117949485779 -1.6128300428390503 
vt -1.7994933128356934 -1.4762492179870605 
vt -1.8014600276947021 -1.4749915599822998 
vt -1.8014600276947021 2.2767040729522705 
vt 2.563488483428955 2.414416790008545 
vt 0.5865979790687561 2.4125304222106934 
vt 2.56461238861084 2.4125304222106934 
vt 2.699326992034912 -1.4762492179870605 
vt 2.699326992034912 2.2778360843658447 
vt 2.701293706893921 2.2767040729522705 
vt 0.5877217650413513 -1.6128300428390503 
vt 2.56461238861084 -1.610817790031433 
vt 0.5865979790687561 -1.610817790031433 
vt 2.7366931438446045 -1.6128300428390503 
vt 2.7366931438446045 -1.4390227794647217 
vt 2.766052007675171 -1.4390227794647217 
vt 2.799484968185425 -1.4797706604003906 
vt 2.7699854373931885 -1.4797706604003906 
vt 2.7699854373931885 -1.6128300428390503 
vt 2.732619285583496 2.033348798751831 
vt 2.7032601833343506 1.859541654586792 
vt 2.7032601833343506 2.033348798751831 
vt 2.7366931438446045 2.030707836151123 
vt 2.7366931438446045 -1.4353755712509155 
vt 2.766052007675171 -1.4353755712509155 
vt 0.4518834352493286 -1.4762492179870605 
vt 2.56461238861084 -1.610817790031433 
vt 0.5865979790687561 -1.610817790031433 
vt 2.56461238861084 -1.610817790031433 
vt 2.699326992034912 -1.4762492179870605 
vt 0.4518834352493286 -1.4762492179870605 
vt 2.732619285583496 -1.6101889610290527 
vt 2.7032601833343506 1.8558944463729858 
vt 2.732619285583496 1.8558944463729858 
vt 2.799484968185425 0.6764702796936035 
vt 2.7699854373931885 0.6764702796936035 
vt 2.7699854373931885 0.5026630759239197 
vt 0.3132356107234955 -1.610817790031433 
vt 0.4485120475292206 -1.4783872365951538 
vt 0.3154831826686859 -1.6114466190338135 
vt 2.766052007675171 2.033348798751831 
vt 2.7366931438446045 2.033348798751831 
vt 2.7366931438446045 2.030707836151123 
vt 0.451321542263031 -1.4783872365951538 
vt 0.5865979790687561 -1.610817790031433 
vt 0.5843504071235657 -1.6114466190338135 
vt 2.7699854373931885 -1.4797706604003906 
vt 2.799484968185425 -1.4797706604003906 
vt 2.799484968185425 -1.4763749837875366 
vt 2.56461238861084 -1.610817790031433 
vt 2.6998889446258545 -1.4783872365951538 
vt 2.5668599605560303 -1.6114466190338135 
vt 2.732619285583496 1.859541654586792 
vt 2.7032601833343506 1.859541654586792 
vt 2.7032601833343506 1.8558944463729858 
vt -1.8000552654266357 -1.4783872365951538 
vt -1.6647788286209106 -1.610817790031433 
vt -1.667026400566101 -1.6114466190338135 
vt 2.799484968185425 0.5026630759239197 
vt 2.7699854373931885 0.5026630759239197 
vt 2.7699854373931885 0.4992673993110657 
vt -1.667026400566101 2.4130334854125977 
vt -1.7994933128356934 2.2778360843658447 
vt -1.8000552654266357 2.280099868774414 
vt 2.7032601833343506 -1.6101889610290527 
vt 2.7032601833343506 -1.6128300428390503 
vt 2.732619285583496 -1.6128300428390503 
vt 2.6998889446258545 2.280099868774414 
vt 2.56461238861084 2.4125304222106934 
vt 2.5668599605560303 2.4130334854125977 
vt 2.7699854373931885 0.6764702796936035 
vt 2.799484968185425 0.6764702796936035 
vt 2.799484968185425 0.6801174879074097 
vt 0.5843504071235657 2.4130334854125977 
vt 0.4518834352493286 2.2778360843658447 
vt 0.451321542263031 2.280099868774414 
vt 2.7366931438446045 -1.4390227794647217 
vt 2.766052007675171 -1.4390227794647217 
vt 2.766052007675171 -1.4353755712509155 
vt 0.4485120475292206 2.280099868774414 
vt 0.3132356107234955 2.4125304222106934 
vt 0.3154831826686859 2.4130334854125977 
vt 2.799484968185425 2.5081117153167725 
vt 2.7699854373931885 2.5081117153167725 
vt 2.7699854373931885 2.5054707527160645 
vt 0.447950154542923 -1.4762492179870605 
vt 0.449916809797287 2.2767040729522705 
vt 0.449916809797287 -1.4749915599822998 
vt 0.449916809797287 2.2767040729522705 
vt 0.449916809797287 -1.4749915599822998 
vt 0.4518834352493286 -1.4762492179870605 
vt -1.6647788286209106 2.4125304222106934 
vt 0.3121117949485779 2.414416790008545 
vt 0.3132356107234955 2.4125304222106934 
vt 0.3132356107234955 -1.610817790031433 
vt -1.6647788286209106 -1.610817790031433 
vt -1.6636550426483154 -1.6128300428390503 
vt -1.7994933128356934 -1.4762492179870605 
vt -1.8014600276947021 2.2767040729522705 
vt -1.7994933128356934 2.2778360843658447 
vt 2.563488483428955 2.414416790008545 
vt 0.5877217650413513 2.414416790008545 
vt 0.5865979790687561 2.4125304222106934 
vt 2.699326992034912 -1.4762492179870605 
vt 2.701293706893921 2.2767040729522705 
vt 2.701293706893921 -1.4749915599822998 
vt 0.5877217650413513 -1.6128300428390503 
vt 2.563488483428955 -1.6128300428390503 
vt 2.56461238861084 -1.610817790031433 
vt 2.7366931438446045 -1.6128300428390503 
vt 2.766052007675171 -1.4390227794647217 
vt 2.766052007675171 -1.6128300428390503 
s on 
f 1/1/1 2/2/2 3/3/3 
f 2/2/2 4/4/4 3/3/3 
f 3/3/3 4/4/4 3/3/3 
f 4/4/4 5/5/5 3/3/3 
f 3/3/3 5/5/5 6/6/6 
f 5/5/5 5/5/5 6/6/6 
f 6/6/6 5/5/5 7/7/7 
f 5/5/5 8/8/8 7/7/7 
f 7/7/7 8/8/8 8/8/8 
f 8/8/8 9/9/9 8/8/8 
f 8/8/8 9/9/9 9/9/9 
f 9/9/9 10/10/10 9/9/9 
f 9/9/9 10/10/10 11/11/11 
f 10/10/10 11/11/11 11/11/11 
f 11/11/11 11/11/11 12/12/12 
f 11/11/11 12/12/12 12/12/12 
f 12/12/12 12/12/12 13/13/13 
f 12/12/12 14/14/14 13/13/13 
f 13/13/13 14/14/14 14/14/14 
f 14/14/14 15/15/15 14/14/14 
f 14/14/14 15/15/15 15/15/15 
f 15/15/15 16/16/16 15/15/15 
f 15/15/15 16/16/16 17/17/17 
f 16/16/16 17/17/17 17/17/17 
f 17/17/17 17/17/17 18/18/18 
f 17/17/17 18/18/18 18/18/18 
f 18/18/18 18/18/18 19/19/19 
f 18/18/18 20/20/20 19/19/19 
f 19/19/19 20/20/20 21/21/21 
f 20/20/20 21/21/21 21/21/21 
f 21/21/21 21/21/21 22/22/22 
f 21/21/21 22/22/22 22/22/22 
f 22/22/22 22/22/22 23/23/23 
f 22/22/22 24/24/24 23/23/23 
f 23/23/23 24/24/24 23/23/23 
f 24/24/24 25/25/25 23/23/23 
f 23/23/23 25/25/25 23/23/23 
f 25/25/25 26/26/26 23/23/23 
f 23/23/23 26/26/26 27/27/27 
f 26/26/26 27/27/27 27/27/27 
f 27/27/27 27/27/27 28/28/28 
f 27/27/27 28/28/28 28/28/28 
f 28/28/28 28/28/28 29/29/29 
f 28/28/28 30/30/30 29/29/29 
f 29/29/29 30/30/30 30/30/30 
f 30/30/30 31/31/31 30/30/30 
f 30/30/30 31/31/31 31/31/31 
f 31/31/31 32/32/32 31/31/31 
f 31/31/31 32/32/32 33/33/33 
f 32/32/32 34/34/34 33/33/33 
f 33/33/33 34/34/34 34/34/34 
f 34/34/34 35/35/35 34/34/34 
f 34/34/34 35/35/35 35/35/35 
f 35/35/35 36/36/36 35/35/35 
f 35/35/35 36/36/36 37/37/37 
f 36/36/36 37/37/37 37/37/37 
f 37/37/37 37/37/37 38/38/38 
f 37/37/37 38/38/38 38/38/38 
f 38/38/38 38/38/38 39/39/39 
f 38/38/38 40/40/40 39/39/39 
f 39/39/39 40/40/40 40/40/40 
f 40/40/40 41/41/41 40/40/40 
f 40/40/40 41/41/41 41/41/41 
f 41/41/41 42/42/42 41/41/41 
f 41/41/41 42/42/42 43/43/43 
f 42/42/42 43/43/43 43/43/43 
f 43/43/43 43/43/43 44/44/44 
f 43/43/43 44/44/44 44/44/44 
f 44/44/44 44/44/44 45/45/45 
f 44/44/44 46/46/46 45/45/45 
f 45/45/45 46/46/46 46/46/46 
f 46/46/46 47/47/47 46/46/46 
f 46/46/46 47/47/47 47/47/47 
f 47/47/47 48/48/48 47/47/47 
f 47/47/47 48/48/48 49/49/49 
f 48/48/48 49/49/49 49/49/49 
f 49/49/49 49/49/49 50/50/50 
f 49/49/49 50/50/50 50/50/50 
f 50/50/50 50/50/50 51/51/51 
f 50/50/50 52/52/52 51/51/51 
f 51/51/51 52/52/52 52/52/52 
f 52/52/52 53/53/53 52/52/52 
f 52/52/52 53/53/53 53/53/53 
f 53/53/53 54/54/54 53/53/53 
f 53/53/53 54/54/54 55/55/55 
f 54/54/54 55/55/55 55/55/55 
f 55/55/55 55/55/55 56/56/56 
f 55/55/55 56/56/56 56/56/56 
f 56/56/56 56/56/56 57/57/57 
f 56/56/56 58/58/58 57/57/57 
f 57/57/57 58/58/58 58/58/58 
f 58/58/58 59/59/59 58/58/58 
f 58/58/58 59/59/59 59/59/59 
f 59/59/59 60/60/60 59/59/59 
f 59/59/59 60/60/60 61/61/61 
f 60/60/60 61/61/61 61/61/61 
f 61/61/61 61/61/61 62/62/62 
f 61/61/61 62/62/62 62/62/62 
f 62/62/62 62/62/62 63/63/63 
f 62/62/62 64/64/64 63/63/63 
f 63/63/63 64/64/64 64/64/64 
f 64/64/64 65/65/65 64/64/64 
f 64/64/64 65/65/65 65/65/65 
f 65/65/65 66/66/66 65/65/65 
f 65/65/65 66/66/66 67/67/67 
f 66/66/66 67/67/67 67/67/67 
f 67/67/67 67/67/67 68/68/68 
f 67/67/67 68/68/68 68/68/68 
f 68/68/68 68/68/68 69/69/69 
f 68/68/68 70/70/70 69/69/69 
f 69/69/69 70/70/70 70/70/70 
f 70/70/70 71/71/71 70/70/70 
f 70/70/70 71/71/71 71/71/71 
f 71/71/71 72/72/72 71/71/71 
f 71/71/71 72/72/72 73/73/73 
f 72/72/72 73/73/73 73/73/73 
f 73/73/73 73/73/73 74/74/74 
f 73/73/73 74/74/74 74/74/74 
f 74/74/74 74/74/74 75/75/75 
f 74/74/74 76/76/76 75/75/75 
f 75/75/75 76/76/76 76/76/76 
f 76/76/76 77/77/77 76/76/76 
f 76/76/76 77/77/77 77/77/77 
f 77/77/77 78/78/78 77/77/77 
f 77/77/77 78/78/78 79/79/79 
f 78/78/78 79/79/79 79/79/79 
f 79/79/79 79/79/79 80/80/80 
f 79/79/79 80/80/80 80/80/80 
f 80/80/80 80/80/80 81/81/81 
f 80/80/80 82/82/82 81/81/81 
f 81/81/81 82/82/82 82/82/82 
f 82/82/82 83/83/83 82/82/82 
f 82/82/82 83/83/83 83/83/83 
f 83/83/83 84/84/84 83/83/83 
f 83/83/83 84/84/84 85/85/85 
f 84/84/84 85/85/85 85/85/85 
f 85/85/85 85/85/85 86/86/86 
f 85/85/85 86/86/86 86/86/86 
f 86/86/86 86/86/86 87/87/87 
f 86/86/86 88/88/88 87/87/87 
f 87/87/87 88/88/88 88/88/88 
f 88/88/88 89/89/89 88/88/88 
f 88/88/88 89/89/89 89/89/89 
f 89/89/89 90/90/90 89/89/89 
f 89/89/89 90/90/90 91/91/91 
f 90/90/90 91/91/91 91/91/91 
f 91/91/91 91/91/91 92/92/92 
f 91/91/91 92/92/92 92/92/92 
f 92/92/92 92/92/92 93/93/93 
f 92/92/92 94/94/94 93/93/93 
f 93/93/93 94/94/94 94/94/94 
f 94/94/94 95/95/95 94/94/94 
f 94/94/94 95/95/95 95/95/95 
f 95/95/95 96/96/96 95/95/95 
f 95/95/95 96/96/96 97/97/97 
f 96/96/96 97/97/97 97/97/97 
f 97/97/97 97/97/97 98/98/98 
f 97/97/97 98/98/98 98/98/98 
f 98/98/98 98/98/98 99/99/99 
f 98/98/98 100/100/100 99/99/99 
f 99/99/99 100/100/100 100/100/100 
f 100/100/100 101/101/101 100/100/100 
f 100/100/100 101/101/101 101/101/101 
f 101/101/101 102/102/102 101/101/101 
f 101/101/101 102/102/102 103/103/103 
f 102/102/102 103/103/103 103/103/103 
f 103/103/103 103/103/103 104/104/104 
f 103/103/103 104/104/104 104/104/104 
f 104/104/104 104/104/104 105/105/105 
f 104/104/104 106/106/106 105/105/105 
f 105/105/105 106/106/106 106/106/106 
f 106/106/106 107/107/107 106/106/106 
f 106/106/106 107/107/107 107/107/107 
f 107/107/107 108/108/108 107/107/107 
f 107/107/107 108/108/108 109/109/109 
f 108/108/108 109/109/109 109/109/109 
f 109/109/109 109/109/109 110/110/110 
f 109/109/109 110/110/110 110/110/110 
f 110/110/110 110/110/110 111/111/111 
f 110/110/110 112/112/112 111/111/111 
f 111/111/111 112/112/112 112/112/112 
f 112/112/112 113/113/113 112/112/112 
f 112/112/112 113/113/113 113/113/113 
f 113/113/113 114/114/114 113/113/113 
f 113/113/113 114/114/114 115/115/115 
f 114/114/114 115/115/115 115/115/115 
f 115/115/115 115/115/115 116/116/116 
f 115/115/115 116/116/116 116/116/116 
f 116/116/116 116/116/116 117/117/117 
f 116/116/116 118/118/118 117/117/117 
f 117/117/117 118/118/118 118/118/118 
f 118/118/118 119/119/119 118/118/118 
f 118/118/118 119/119/119 119/119/119 
f 119/119/119 120/120/120 119/119/119 
f 119/119/119 120/120/120 121/121/121 
f 120/120/120 121/121/121 121/121/121 
f 121/121/121 121/121/121 122/122/122 
f 121/121/121 122/122/122 122/122/122 
f 122/122/122 122/122/122 123/123/123 
f 122/122/122 124/124/124 123/123/123 
f 123/123/123 124/124/124 124/124/124 
f 124/124/124 125/125/125 124/124/124 
f 124/124/124 125/125/125 125/125/125 
f 125/125/125 126/126/126 125/125/125 
f 125/125/125 126/126/126 127/127/127 
f 126/126/126 127/127/127 127/127/127 
f 127/127/127 127/127/127 128/128/128 
f 127/127/127 128/128/128 128/128/128 
f 128/128/128 128/128/128 129/129/129 
f 128/128/128 130/130/130 129/129/129 
f 129/129/129 130/130/130 130/130/130 
f 130/130/130 131/131/131 130/130/130 
f 130/130/130 131/131/131 131/131/131 
f 131/131/131 132/132/132 131/131/131 
f 131/131/131 132/132/132 133/133/133 
f 132/132/132 133/133/133 133/133/133 
f 133/133/133 133/133/133 134/134/134 
f 133/133/133 134/134/134 134/134/134 
f 134/134/134 134/134/134 135/135/135 
f 134/134/134 136/136/136 135/135/135 
f 135/135/135 136/136/136 136/136/136 
f 136/136/136 137/137/137 136/136/136 
f 136/136/136 137/137/137 137/137/137 
f 137/137/137 138/138/138 137/137/137 
f 137/137/137 138/138/138 139/139/139 
f 138/138/138 139/139/139 139/139/139 
f 139/139/139 139/139/139 140/140/140 
f 139/139/139 140/140/140 140/140/140 
f 140/140/140 140/140/140 141/141/141 
f 140/140/140 142/142/142 141/141/141 
f 141/141/141 142/142/142 142/142/142 
f 142/142/142 143/143/143 142/142/142 
f 142/142/142 143/143/143 143/143/143 
f 143/143/143 144/144/144 143/143/143 
f 143/143/143 144/144/144 145/145/145 
f 144/144/144 145/145/145 145/145/145 
f 145/145/145 145/145/145 146/146/146 
f 145/145/145 146/146/146 146/146/146 
f 146/146/146 146/146/146 147/147/147 
f 146/146/146 148/148/148 147/147/147 
f 147/147/147 148/148/148 148/148/148 
f 148/148/148 149/149/149 148/148/148 
f 148/148/148 149/149/149 149/149/149 
f 149/149/149 150/150/150 149/149/149 
f 149/149/149 150/150/150 151/151/151 
f 150/150/150 151/151/151 151/151/151 
f 151/151/151 151/151/151 152/152/152 
f 151/151/151 152/152/152 152/152/152 
f 152/152/152 152/152/152 153/153/153 
f 152/152/152 154/154/154 153/153/153 
f 153/153/153 154/154/154 154/154/154 
f 154/154/154 155/155/155 154/154/154 
f 154/154/154 155/155/155 155/155/155 
f 155/155/155 156/156/156 155/155/155 
f 155/155/155 156/156/156 157/157/157 
f 156/156/156 157/157/157 157/157/157 
f 157/157/157 157/157/157 158/158/158 
f 157/157/157 158/158/158 158/158/158 
f 158/158/158 158/158/158 159/159/159 
f 158/158/158 160/160/160 159/159/159 
f 159/159/159 160/160/160 160/160/160 
f 160/160/160 161/161/161 160/160/160 
f 160/160/160 161/161/161 161/161/161 
f 161/161/161 162/162/162 161/161/161 
f 161/161/161 162/162/162 163/163/163 
f 162/162/162 163/163/163 163/163/163 
f 163/163/163 163/163/163 164/164/164 
f 163/163/163 164/164/164 164/164/164 
f 164/164/164 164/164/164 165/165/165 
f 164/164/164 166/166/166 165/165/165 
f 165/165/165 166/166/166 166/166/166 
f 166/166/166 167/167/167 166/166/166 
f 166/166/166 167/167/167 167/167/167 
f 167/167/167 168/168/168 167/167/167 
f 167/167/167 168/168/168 169/169/169 
f 168/168/168 169/169/169 169/169/169 
f 169/169/169 169/169/169 170/170/170 
f 169/169/169 170/170/170 170/170/170 
f 170/170/170 170/170/170 171/171/171 
f 170/170/170 172/172/172 171/171/171 
f 171/171/171 172/172/172 172/172/172 
f 172/172/172 173/173/173 172/172/172 
f 172/172/172 173/173/173 173/173/173 
f 173/173/173 174/174/174 173/173/173 
f 173/173/173 174/174/174 175/175/175 
f 174/174/174 175/175/175 175/175/175 
f 175/175/175 175/175/175 176/176/176 
f 175/175/175 176/176/176 176/176/176 
f 176/176/176 176/176/176 177/177/177 
f 176/176/176 178/178/178 177/177/177 
f 177/177/177 178/178/178 178/178/178 
f 178/178/178 179/179/179 178/178/178 
f 178/178/178 179/179/179 179/179/179 
f 179/179/179 180/180/180 179/179/179 
f 179/179/179 180/180/180 181/181/181 
f 180/180/180 181/181/181 181/181/181 
f 181/181/181 181/181/181 182/182/182 
f 181/181/181 182/182/182 182/182/182 
f 182/182/182 182/182/182 183/183/183 
f 182/182/182 184/184/184 183/183/183 
f 183/183/183 184/184/184 184/184/184 
f 184/184/184 185/185/185 184/184/184 
f 184/184/184 185/185/185 185/185/185 
f 185/185/185 186/186/186 185/185/185 
f 185/185/185 186/186/186 187/187/187 
f 186/186/186 187/187/187 187/187/187 
f 187/187/187 187/187/187 188/188/188 
f 187/187/187 188/188/188 188/188/188 
f 188/188/188 188/188/188 189/189/189 
f 188/188/188 190/190/190 189/189/189 
f 189/189/189 190/190/190 190/190/190 
f 190/190/190 191/191/191 190/190/190 
f 190/190/190 191/191/191 191/191/191 
f 191/191/191 192/192/192 191/191/191 
f 191/191/191 192/192/192 193/193/193 
f 192/192/192 193/193/193 193/193/193 
f 193/193/193 193/193/193 194/194/194 
f 193/193/193 194/194/194 194/194/194 
f 194/194/194 194/194/194 195/195/195 
f 194/194/194 196/196/196 195/195/195 
f 195/195/195 196/196/196 196/196/196 
f 196/196/196 197/197/197 196/196/196 
f 196/196/196 197/197/197 197/197/197 
f 197/197/197 198/198/198 197/197/197 
f 197/197/197 198/198/198 199/199/199 
f 198/198/198 199/199/199 199/199/199 
f 199/199/199 199/199/199 200/200/200 
f 199/199/199 200/200/200 200/200/200 
f 200/200/200 200/200/200 201/201/201 
f 200/200/200 202/202/202 201/201/201 
f 201/201/201 202/202/202 202/202/202 
f 202/202/202 203/203/203 202/202/202 
f 202/202/202 203/203/203 203/203/203 
f 203/203/203 204/204/204 203/203/203 
f 203/203/203 204/204/204 205/205/205 
f 204/204/204 205/205/205 205/205/205 
f 205/205/205 205/205/205 206/206/206 
f 205/205/205 206/206/206 206/206/206 
f 206/206/206 206/206/206 207/207/207 
f 206/206/206 208/208/208 207/207/207 
f 207/207/207 208/208/208 208/208/208 
f 208/208/208 209/209/209 208/208/208 
f 208/208/208 209/209/209 209/209/209 
f 209/209/209 210/210/210 209/209/209 
f 209/209/209 210/210/210 211/211/211 
f 210/210/210 211/211/211 211/211/211 
f 211/211/211 211/211/211 212/212/212 
f 211/211/211 212/212/212 212/212/212 
f 212/212/212 212/212/212 213/213/213 
f 212/212/212 214/214/214 213/213/213 
f 213/213/213 214/214/214 214/214/214 
f 214/214/214 215/215/215 214/214/214 
f 214/214/214 215/215/215 215/215/215 
f 215/215/215 216/216/216 215/215/215 
f 215/215/215 216/216/216 217/217/217 
f 216/216/216 217/217/217 217/217/217 
f 217/217/217 217/217/217 218/218/218 
f 217/217/217 218/218/218 218/218/218 
f 218/218/218 218/218/218 219/219/219 
f 218/218/218 220/220/220 219/219/219 
f 219/219/219 220/220/220 220/220/220 
f 220/220/220 221/221/221 220/220/220 
f 220/220/220 221/221/221 221/221/221 
f 221/221/221 222/222/222 221/221/221 
f 221/221/221 222/222/222 223/223/223 
f 222/222/222 223/223/223 223/223/223 
f 223/223/223 223/223/223 224/224/224 
f 223/223/223 224/224/224 224/224/224 
f 224/224/224 224/224/224 225/225/225 
f 224/224/224 226/226/226 225/225/225 
f 225/225/225 226/226/226 226/226/226 
f 226/226/226 227/227/227 226/226/226 
f 226/226/226 227/227/227 227/227/227 
f 227/227/227 228/228/228 227/227/227 
f 227/227/227 228/228/228 229/229/229 
f 228/228/228 229/229/229 229/229/229 
f 229/229/229 229/229/229 230/230/230 
f 229/229/229 230/230/230 230/230/230 
f 230/230/230 230/230/230 231/231/231 
f 230/230/230 232/232/232 231/231/231 
f 231/231/231 232/232/232 232/232/232 
f 232/232/232 233/233/233 232/232/232 
f 232/232/232 233/233/233 233/233/233 
f 233/233/233 234/234/234 233/233/233 
f 233/233/233 234/234/234 235/235/235 
f 234/234/234 235/235/235 235/235/235 
f 235/235/235 235/235/235 236/236/236 
f 235/235/235 236/236/236 236/236/236 
f 236/236/236 236/236/236 237/237/237 
f 236/236/236 238/238/238 237/237/237 
f 237/237/237 238/238/238 238/238/238 
f 238/238/238 239/239/239 238/238/238 
f 238/238/238 239/239/239 239/239/239 
f 239/239/239 240/240/240 239/239/239 
f 239/239/239 240/240/240 241/241/241 
f 240/240/240 241/241/241 241/241/241 
f 241/241/241 241/241/241 242/242/242 
f 241/241/241 242/242/242 242/242/242 
f 242/242/242 242/242/242 243/243/243 
f 242/242/242 244/244/244 243/243/243 
f 243/243/243 244/244/244 244/244/244 
f 244/244/244 245/245/245 244/244/244 
f 244/244/244 245/245/245 245/245/245 
f 245/245/245 246/246/246 245/245/245 
f 245/245/245 246/246/246 247/247/247 
f 246/246/246 247/247/247 247/247/247 
f 247/247/247 247/247/247 248/248/248 
f 247/247/247 248/248/248 248/248/248 
f 248/248/248 248/248/248 249/249/249 
f 248/248/248 250/250/250 249/249/249 
f 249/249/249 250/250/250 250/250/250 
f 250/250/250 251/251/251 250/250/250 
f 250/250/250 251/251/251 251/251/251 
f 251/251/251 252/252/252 251/251/251 
f 251/251/251 252/252/252 253/253/253 
f 252/252/252 253/253/253 253/253/253 
f 253/253/253 253/253/253 254/254/254 
f 253/253/253 254/254/254 254/254/254 
f 254/254/254 254/254/254 255/255/255 
f 254/254/254 256/256/256 255/255/255 

