mtllib model_17.mtl
o model_17
v 719.2122802734375 12.522700309753418 201.9562530517578 
v 989.0328979492188 12.522700309753418 201.9562530517578 
v 719.2122802734375 278.7227783203125 201.9562530517578 
v 989.0328979492188 278.7227783203125 201.9562530517578 
v 989.0328979492188 278.7227783203125 201.9562530517578 
v 989.0328979492188 278.7227783203125 199.8925018310547 
v 719.2122802734375 278.7227783203125 201.9562530517578 
v 719.2122802734375 278.7227783203125 199.8925018310547 
v 719.2122802734375 12.522700309753418 201.9562530517578 
v 719.2122802734375 12.522700309753418 199.8925018310547 
v 989.0328979492188 12.522700309753418 201.9562530517578 
v 989.0328979492188 12.522700309753418 199.8925018310547 
v 989.0328979492188 278.7227783203125 201.9562530517578 
v 989.0328979492188 12.522700309753418 201.9562530517578 
v 989.0328979492188 278.7227783203125 199.8925018310547 
v 989.0328979492188 12.522700309753418 199.8925018310547 
v 719.2122802734375 278.7227783203125 201.9562530517578 
v 719.2122802734375 278.7227783203125 199.8925018310547 
v 719.2122802734375 12.522700309753418 201.9562530517578 
v 719.2122802734375 12.522700309753418 199.8925018310547 
v 719.2122802734375 12.522700309753418 199.8925018310547 
v 719.2122802734375 278.7227783203125 199.8925018310547 
v 989.0328979492188 12.522700309753418 199.8925018310547 
v 989.0328979492188 278.7227783203125 199.8925018310547 
v 448.69439697265625 12.522700309753418 201.9562530517578 
v 718.5150756835938 12.522700309753418 201.9562530517578 
v 448.69439697265625 278.7227783203125 201.9562530517578 
v 718.5150756835938 278.7227783203125 201.9562530517578 
v 718.5150756835938 278.7227783203125 201.9562530517578 
v 718.5150756835938 278.7227783203125 199.8925018310547 
v 448.69439697265625 278.7227783203125 201.9562530517578 
v 448.69439697265625 278.7227783203125 199.8925018310547 
v 448.69439697265625 12.522700309753418 201.9562530517578 
v 448.69439697265625 12.522700309753418 199.8925018310547 
v 718.5150756835938 12.522700309753418 201.9562530517578 
v 718.5150756835938 12.522700309753418 199.8925018310547 
v 718.5150756835938 278.7227783203125 201.9562530517578 
v 718.5150756835938 12.522700309753418 201.9562530517578 
v 718.5150756835938 278.7227783203125 199.8925018310547 
v 718.5150756835938 12.522700309753418 199.8925018310547 
v 448.69439697265625 278.7227783203125 201.9562530517578 
v 448.69439697265625 278.7227783203125 199.8925018310547 
v 448.69439697265625 12.522700309753418 201.9562530517578 
v 448.69439697265625 12.522700309753418 199.8925018310547 
v 448.69439697265625 12.522700309753418 199.8925018310547 
v 448.69439697265625 278.7227783203125 199.8925018310547 
v 718.5150756835938 12.522700309753418 199.8925018310547 
v 718.5150756835938 278.7227783203125 199.8925018310547 
v 178.17652893066406 12.522700309753418 201.9562530517578 
v 448.69439697265625 12.522700309753418 201.9562530517578 
v 178.17652893066406 278.7227783203125 201.9562530517578 
v 448.69439697265625 278.7227783203125 201.9562530517578 
v 448.69439697265625 278.7227783203125 201.9562530517578 
v 448.69439697265625 278.7227783203125 199.8925018310547 
v 178.17652893066406 278.7227783203125 201.9562530517578 
v 178.17652893066406 278.7227783203125 199.8925018310547 
v 178.17652893066406 12.522700309753418 201.9562530517578 
v 178.17652893066406 12.522700309753418 199.8925018310547 
v 448.69439697265625 12.522700309753418 201.9562530517578 
v 448.69439697265625 12.522700309753418 199.8925018310547 
v 448.69439697265625 278.7227783203125 201.9562530517578 
v 448.69439697265625 12.522700309753418 201.9562530517578 
v 448.69439697265625 278.7227783203125 199.8925018310547 
v 448.69439697265625 12.522700309753418 199.8925018310547 
v 178.17652893066406 278.7227783203125 201.9562530517578 
v 178.17652893066406 278.7227783203125 199.8925018310547 
v 178.17652893066406 12.522700309753418 201.9562530517578 
v 178.17652893066406 12.522700309753418 199.8925018310547 
v 178.17652893066406 12.522700309753418 199.8925018310547 
v 178.17652893066406 278.7227783203125 199.8925018310547 
v 448.69439697265625 12.522700309753418 199.8925018310547 
v 448.69439697265625 278.7227783203125 199.8925018310547 
v -91.64413452148438 12.522700309753418 201.9562530517578 
v 178.17652893066406 12.522700309753418 201.9562530517578 
v -91.64413452148438 278.7227783203125 201.9562530517578 
v 178.17652893066406 278.7227783203125 201.9562530517578 
v 178.17652893066406 278.7227783203125 201.9562530517578 
v 178.17652893066406 278.7227783203125 199.8925018310547 
v -91.64413452148438 278.7227783203125 201.9562530517578 
v -91.64413452148438 278.7227783203125 199.8925018310547 
v -91.64413452148438 12.522700309753418 201.9562530517578 
v -91.64413452148438 12.522700309753418 199.8925018310547 
v 178.17652893066406 12.522700309753418 201.9562530517578 
v 178.17652893066406 12.522700309753418 199.8925018310547 
v 178.17652893066406 278.7227783203125 201.9562530517578 
v 178.17652893066406 12.522700309753418 201.9562530517578 
v 178.17652893066406 278.7227783203125 199.8925018310547 
v 178.17652893066406 12.522700309753418 199.8925018310547 
v -91.64413452148438 278.7227783203125 201.9562530517578 
v -91.64413452148438 278.7227783203125 199.8925018310547 
v -91.64413452148438 12.522700309753418 201.9562530517578 
v -91.64413452148438 12.522700309753418 199.8925018310547 
v -91.64413452148438 12.522700309753418 199.8925018310547 
v -91.64413452148438 278.7227783203125 199.8925018310547 
v 178.17652893066406 12.522700309753418 199.8925018310547 
v 178.17652893066406 278.7227783203125 199.8925018310547 
v -362.1619873046875 12.522700309753418 201.9562530517578 
v -91.64413452148438 12.522700309753418 201.9562530517578 
v -362.1619873046875 278.7227783203125 201.9562530517578 
v -91.64413452148438 278.7227783203125 201.9562530517578 
v -91.64413452148438 278.7227783203125 201.9562530517578 
v -91.64413452148438 278.7227783203125 199.8925018310547 
v -362.1619873046875 278.7227783203125 201.9562530517578 
v -362.1619873046875 278.7227783203125 199.8925018310547 
v -362.1619873046875 12.522700309753418 201.9562530517578 
v -362.1619873046875 12.522700309753418 199.8925018310547 
v -91.64413452148438 12.522700309753418 201.9562530517578 
v -91.64413452148438 12.522700309753418 199.8925018310547 
v -91.64413452148438 278.7227783203125 201.9562530517578 
v -91.64413452148438 12.522700309753418 201.9562530517578 
v -91.64413452148438 278.7227783203125 199.8925018310547 
v -91.64413452148438 12.522700309753418 199.8925018310547 
v -362.1619873046875 278.7227783203125 201.9562530517578 
v -362.1619873046875 278.7227783203125 199.8925018310547 
v -362.1619873046875 12.522700309753418 201.9562530517578 
v -362.1619873046875 12.522700309753418 199.8925018310547 
v -362.1619873046875 12.522700309753418 199.8925018310547 
v -362.1619873046875 278.7227783203125 199.8925018310547 
v -91.64413452148438 12.522700309753418 199.8925018310547 
v -91.64413452148438 278.7227783203125 199.8925018310547 
v -438.1579895019531 15.513711929321289 -1814.3275146484375 
v -438.1579895019531 15.513711929321289 -2037.2125244140625 
v -438.1579895019531 237.4988250732422 -1814.3275146484375 
v -438.1579895019531 237.4988250732422 -2037.2125244140625 
v -438.1579895019531 15.513711929321289 -1814.3275146484375 
v -438.1579895019531 237.4988250732422 -1814.3275146484375 
v -438.1579895019531 15.513711929321289 -2037.2125244140625 
v -438.1579895019531 237.4988250732422 -2037.2125244140625 
v -438.1579895019531 15.513711929321289 -2061.9775390625 
v -438.1579895019531 15.513711929321289 -2284.862548828125 
v -438.1579895019531 237.4988250732422 -2061.9775390625 
v -438.1579895019531 237.4988250732422 -2284.862548828125 
v -438.1579895019531 15.513711929321289 -2061.9775390625 
v -438.1579895019531 237.4988250732422 -2061.9775390625 
v -438.1579895019531 15.513711929321289 -2284.862548828125 
v -438.1579895019531 237.4988250732422 -2284.862548828125 
v -438.1579895019531 15.513711929321289 -2311.691162109375 
v -438.1579895019531 15.513711929321289 -2532.512451171875 
v -438.1579895019531 237.4988250732422 -2311.691162109375 
v -438.1579895019531 237.4988250732422 -2532.512451171875 
v -438.1579895019531 15.513711929321289 -2311.691162109375 
v -438.1579895019531 237.4988250732422 -2311.691162109375 
v -438.1579895019531 15.513711929321289 -2532.512451171875 
v -438.1579895019531 237.4988250732422 -2532.512451171875 
v -438.1579895019531 237.4988250732422 -2559.34130859375 
v -438.1579895019531 15.513711929321289 -2559.34130859375 
v -438.1579895019531 237.4988250732422 -2782.226318359375 
v -438.1579895019531 15.513711929321289 -2782.226318359375 
v -438.1579895019531 15.513711929321289 -2782.226318359375 
v -438.1579895019531 15.513711929321289 -2559.34130859375 
v -438.1579895019531 237.4988250732422 -2782.226318359375 
v -438.1579895019531 237.4988250732422 -2559.34130859375 
v -438.1579895019531 237.4988250732422 -2806.9912109375 
v -438.1579895019531 15.513711929321289 -2806.9912109375 
v -438.1579895019531 237.4988250732422 -3029.876220703125 
v -438.1579895019531 15.513711929321289 -3029.876220703125 
v -438.1579895019531 15.513711929321289 -3029.876220703125 
v -438.1579895019531 15.513711929321289 -2806.9912109375 
v -438.1579895019531 237.4988250732422 -3029.876220703125 
v -438.1579895019531 237.4988250732422 -2806.9912109375 
v -438.1579895019531 15.513711929321289 -3056.705078125 
v -438.1579895019531 15.513711929321289 -3277.5263671875 
v -438.1579895019531 237.4988250732422 -3056.705078125 
v -438.1579895019531 237.4988250732422 -3277.5263671875 
v -438.1579895019531 15.513711929321289 -3056.705078125 
v -438.1579895019531 237.4988250732422 -3056.705078125 
v -438.1579895019531 15.513711929321289 -3277.5263671875 
v -438.1579895019531 237.4988250732422 -3277.5263671875 
v -438.1579895019531 15.513711929321289 -3304.35498046875 
v -438.1579895019531 15.513711929321289 -3525.17626953125 
v -438.1579895019531 237.4988250732422 -3304.35498046875 
v -438.1579895019531 237.4988250732422 -3525.17626953125 
v -438.1579895019531 15.513711929321289 -3304.35498046875 
v -438.1579895019531 237.4988250732422 -3304.35498046875 
v -438.1579895019531 15.513711929321289 -3525.17626953125 
v -438.1579895019531 237.4988250732422 -3525.17626953125 
v -438.1579895019531 237.4988250732422 -3552.0048828125 
v -438.1579895019531 15.513711929321289 -3552.0048828125 
v -438.1579895019531 237.4988250732422 -3774.889892578125 
v -438.1579895019531 15.513711929321289 -3774.889892578125 
v -438.1579895019531 15.513711929321289 -3774.889892578125 
v -438.1579895019531 15.513711929321289 -3552.0048828125 
v -438.1579895019531 237.4988250732422 -3774.889892578125 
v -438.1579895019531 237.4988250732422 -3552.0048828125 
v -438.1579895019531 15.513711929321289 -3799.655029296875 
v -438.1579895019531 15.513711929321289 -4022.5400390625 
v -438.1579895019531 237.4988250732422 -3799.655029296875 
v -438.1579895019531 237.4988250732422 -4022.5400390625 
v -438.1579895019531 15.513711929321289 -3799.655029296875 
v -438.1579895019531 237.4988250732422 -3799.655029296875 
v -438.1579895019531 15.513711929321289 -4022.5400390625 
v -438.1579895019531 237.4988250732422 -4022.5400390625 
v 604.86962890625 15.513711929321289 -1296.3262939453125 
v 604.86962890625 15.513711929321289 -1517.1474609375 
v 604.86962890625 237.4988250732422 -1296.3262939453125 
v 604.86962890625 237.4988250732422 -1517.1474609375 
v 604.86962890625 15.513711929321289 -1296.3262939453125 
v 604.86962890625 237.4988250732422 -1296.3262939453125 
v 604.86962890625 15.513711929321289 -1517.1474609375 
v 604.86962890625 237.4988250732422 -1517.1474609375 
v 604.86962890625 15.513711929321289 -1543.9761962890625 
v 604.86962890625 15.513711929321289 -1766.8612060546875 
v 604.86962890625 237.4988250732422 -1543.9761962890625 
v 604.86962890625 237.4988250732422 -1766.8612060546875 
v 604.86962890625 15.513711929321289 -1543.9761962890625 
v 604.86962890625 237.4988250732422 -1543.9761962890625 
v 604.86962890625 15.513711929321289 -1766.8612060546875 
v 604.86962890625 237.4988250732422 -1766.8612060546875 
v 604.86962890625 15.513711929321289 -1791.626220703125 
v 604.86962890625 15.513711929321289 -2014.51123046875 
v 604.86962890625 237.4988250732422 -1791.626220703125 
v 604.86962890625 237.4988250732422 -2014.51123046875 
v 604.86962890625 15.513711929321289 -1791.626220703125 
v 604.86962890625 237.4988250732422 -1791.626220703125 
v 604.86962890625 15.513711929321289 -2014.51123046875 
v 604.86962890625 237.4988250732422 -2014.51123046875 
v 604.86962890625 15.513711929321289 -2041.3399658203125 
v 604.86962890625 15.513711929321289 -2262.1611328125 
v 604.86962890625 237.4988250732422 -2041.3399658203125 
v 604.86962890625 237.4988250732422 -2262.1611328125 
v 604.86962890625 15.513711929321289 -2041.3399658203125 
v 604.86962890625 237.4988250732422 -2041.3399658203125 
v 604.86962890625 15.513711929321289 -2262.1611328125 
v 604.86962890625 237.4988250732422 -2262.1611328125 
v 604.86962890625 237.4988250732422 -2288.989990234375 
v 604.86962890625 15.513711929321289 -2288.989990234375 
v 604.86962890625 237.4988250732422 -2509.811279296875 
v 604.86962890625 15.513711929321289 -2509.811279296875 
v 604.86962890625 15.513711929321289 -2509.811279296875 
v 604.86962890625 15.513711929321289 -2288.989990234375 
v 604.86962890625 237.4988250732422 -2509.811279296875 
v 604.86962890625 237.4988250732422 -2288.989990234375 
v 604.86962890625 15.513711929321289 -2536.639892578125 
v 604.86962890625 15.513711929321289 -2759.52490234375 
v 604.86962890625 237.4988250732422 -2536.639892578125 
v 604.86962890625 237.4988250732422 -2759.52490234375 
v 604.86962890625 15.513711929321289 -2536.639892578125 
v 604.86962890625 237.4988250732422 -2536.639892578125 
v 604.86962890625 15.513711929321289 -2759.52490234375 
v 604.86962890625 237.4988250732422 -2759.52490234375 
v 604.86962890625 15.513711929321289 -2784.2900390625 
v 604.86962890625 15.513711929321289 -3007.175048828125 
v 604.86962890625 237.4988250732422 -2784.2900390625 
v 604.86962890625 237.4988250732422 -3007.175048828125 
v 604.86962890625 15.513711929321289 -2784.2900390625 
v 604.86962890625 237.4988250732422 -2784.2900390625 
v 604.86962890625 15.513711929321289 -3007.175048828125 
v 604.86962890625 237.4988250732422 -3007.175048828125 
v 604.86962890625 237.4988250732422 -3034.003662109375 
v 604.86962890625 15.513711929321289 -3034.003662109375 
v 604.86962890625 237.4988250732422 -3254.824951171875 
v 604.86962890625 15.513711929321289 -3254.824951171875 
v 604.86962890625 15.513711929321289 -3254.824951171875 
v 604.86962890625 15.513711929321289 -3034.003662109375 
v 604.86962890625 237.4988250732422 -3254.824951171875 
v 604.86962890625 237.4988250732422 -3034.003662109375 
v 604.86962890625 15.513711929321289 -3281.65380859375 
v 604.86962890625 15.513711929321289 -3504.538818359375 
v 604.86962890625 237.4988250732422 -3281.65380859375 
v 604.86962890625 237.4988250732422 -3504.538818359375 
v 604.86962890625 15.513711929321289 -3281.65380859375 
v 604.86962890625 237.4988250732422 -3281.65380859375 
v 604.86962890625 15.513711929321289 -3504.538818359375 
v 604.86962890625 237.4988250732422 -3504.538818359375 
vn 0 0 1 
vn 0 0 1 
vn 0 0 1 
vn 0 0 1 
vn -1.0341130485562108e-13 0.999997615814209 0.002184694167226553 
vn -1.0341130485562108e-13 0.999997615814209 0.002184694167226553 
vn -1.0341130485562108e-13 0.999997615814209 0.002184694167226553 
vn -1.0341130485562108e-13 0.999997615814209 0.002184694167226553 
vn 3.097898456858039e-13 -0.999997615814209 0.002184694167226553 
vn 3.097898456858039e-13 -0.999997615814209 0.002184694167226553 
vn 3.097898456858039e-13 -0.999997615814209 0.002184694167226553 
vn 3.097898456858039e-13 -0.999997615814209 0.002184694167226553 
vn 0.999997615814209 0 0.002184694167226553 
vn 0.999997615814209 0 0.002184694167226553 
vn 0.999997615814209 0 0.002184694167226553 
vn 0.999997615814209 0 0.002184694167226553 
vn -0.999997615814209 -2.0682260971124217e-13 0.002184694167226553 
vn -0.999997615814209 -2.0682260971124217e-13 -0.002184694167226553 
vn -0.999997615814209 -2.0682260971124217e-13 -0.002184694167226553 
vn -0.999997615814209 -2.0682260971124217e-13 -0.002184694167226553 
vn -2.0682311115474694e-13 0 -1 
vn -2.0682311115474694e-13 0 -1 
vn -2.0682311115474694e-13 0 -1 
vn -2.0682311115474694e-13 0 -1 
vn 0 0 1 
vn 0 0 1 
vn 0 0 1 
vn 0 0 1 
vn -1.0341130485562108e-13 0.999997615814209 0.002184694167226553 
vn -1.0341130485562108e-13 0.999997615814209 0.002184694167226553 
vn -1.0341130485562108e-13 0.999997615814209 0.002184694167226553 
vn -1.0341130485562108e-13 0.999997615814209 0.002184694167226553 
vn 3.097898456858039e-13 -0.999997615814209 0.002184694167226553 
vn 3.097898456858039e-13 -0.999997615814209 0.002184694167226553 
vn 3.097898456858039e-13 -0.999997615814209 0.002184694167226553 
vn 3.097898456858039e-13 -0.999997615814209 0.002184694167226553 
vn 0.999997615814209 0 0.002184694167226553 
vn 0.999997615814209 0 0.002184694167226553 
vn 0.999997615814209 0 0.002184694167226553 
vn 0.999997615814209 0 0.002184694167226553 
vn -0.999997615814209 -2.0682260971124217e-13 0.002184694167226553 
vn -0.999997615814209 -2.0682260971124217e-13 -0.002184694167226553 
vn -0.999997615814209 -2.0682260971124217e-13 -0.002184694167226553 
vn -0.999997615814209 -2.0682260971124217e-13 -0.002184694167226553 
vn -2.0682311115474694e-13 0 -1 
vn -2.0682311115474694e-13 0 -1 
vn -2.0682311115474694e-13 0 -1 
vn -2.0682311115474694e-13 0 -1 
vn 0 0 1 
vn 0 0 1 
vn 0 0 1 
vn 0 0 1 
vn -1.0341130485562108e-13 0.999997615814209 0.002184694167226553 
vn -1.0341130485562108e-13 0.999997615814209 0.002184694167226553 
vn -1.0341130485562108e-13 0.999997615814209 0.002184694167226553 
vn -1.0341130485562108e-13 0.999997615814209 0.002184694167226553 
vn 3.097898456858039e-13 -0.999997615814209 0.002184694167226553 
vn 3.097898456858039e-13 -0.999997615814209 0.002184694167226553 
vn 3.097898456858039e-13 -0.999997615814209 0.002184694167226553 
vn 3.097898456858039e-13 -0.999997615814209 0.002184694167226553 
vn 0.999997615814209 0 0.002184694167226553 
vn 0.999997615814209 0 0.002184694167226553 
vn 0.999997615814209 0 0.002184694167226553 
vn 0.999997615814209 0 0.002184694167226553 
vn -0.999997615814209 -2.0682260971124217e-13 0.002184694167226553 
vn -0.999997615814209 -2.0682260971124217e-13 -0.002184694167226553 
vn -0.999997615814209 -2.0682260971124217e-13 -0.002184694167226553 
vn -0.999997615814209 -2.0682260971124217e-13 -0.002184694167226553 
vn -2.0682311115474694e-13 0 -1 
vn -2.0682311115474694e-13 0 -1 
vn -2.0682311115474694e-13 0 -1 
vn -2.0682311115474694e-13 0 -1 
vn 0 0 1 
vn 0 0 1 
vn 0 0 1 
vn 0 0 1 
vn -1.0341130485562108e-13 0.999997615814209 0.002184694167226553 
vn -1.0341130485562108e-13 0.999997615814209 0.002184694167226553 
vn -1.0341130485562108e-13 0.999997615814209 0.002184694167226553 
vn -1.0341130485562108e-13 0.999997615814209 0.002184694167226553 
vn 3.097898456858039e-13 -0.999997615814209 0.002184694167226553 
vn 3.097898456858039e-13 -0.999997615814209 0.002184694167226553 
vn 3.097898456858039e-13 -0.999997615814209 0.002184694167226553 
vn 3.097898456858039e-13 -0.999997615814209 0.002184694167226553 
vn 0.999997615814209 0 0.002184694167226553 
vn 0.999997615814209 0 0.002184694167226553 
vn 0.999997615814209 0 0.002184694167226553 
vn 0.999997615814209 0 0.002184694167226553 
vn -0.999997615814209 -2.0682260971124217e-13 0.002184694167226553 
vn -0.999997615814209 -2.0682260971124217e-13 0.002184694167226553 
vn -0.999997615814209 -2.0682260971124217e-13 0.002184694167226553 
vn -0.999997615814209 -2.0682260971124217e-13 0.002184694167226553 
vn -2.0682311115474694e-13 0 -1 
vn -2.0682311115474694e-13 0 -1 
vn -2.0682311115474694e-13 0 -1 
vn -2.0682311115474694e-13 0 -1 
vn 0 0 1 
vn 0 0 1 
vn 0 0 1 
vn 0 0 1 
vn -1.0341130485562108e-13 0.999997615814209 0.002184694167226553 
vn -1.0341130485562108e-13 0.999997615814209 0.002184694167226553 
vn -1.0341130485562108e-13 0.999997615814209 0.002184694167226553 
vn -1.0341130485562108e-13 0.999997615814209 0.002184694167226553 
vn 3.097898456858039e-13 -0.999997615814209 0.002184694167226553 
vn 3.097898456858039e-13 -0.999997615814209 0.002184694167226553 
vn 3.097898456858039e-13 -0.999997615814209 0.002184694167226553 
vn 3.097898456858039e-13 -0.999997615814209 0.002184694167226553 
vn 0.999997615814209 0 0.002184694167226553 
vn 0.999997615814209 0 -0.002184694167226553 
vn 0.999997615814209 0 -0.002184694167226553 
vn 0.999997615814209 0 -0.002184694167226553 
vn -0.999997615814209 -2.0682260971124217e-13 0.002184694167226553 
vn -0.999997615814209 -2.0682260971124217e-13 0.002184694167226553 
vn -0.999997615814209 -2.0682260971124217e-13 0.002184694167226553 
vn -0.999997615814209 -2.0682260971124217e-13 0.002184694167226553 
vn -2.0682311115474694e-13 0 -1 
vn -2.0682311115474694e-13 0 -1 
vn -2.0682311115474694e-13 0 -1 
vn -2.0682311115474694e-13 0 -1 
vn 0.999997615814209 0 0.002184694167226553 
vn 0.999997615814209 0 0.002184694167226553 
vn 0.999997615814209 0 0.002184694167226553 
vn 0.999997615814209 0 0.002184694167226553 
vn -0.999997615814209 -2.0682260971124217e-13 0.002184694167226553 
vn -0.999997615814209 -2.0682260971124217e-13 0.002184694167226553 
vn -0.999997615814209 -2.0682260971124217e-13 0.002184694167226553 
vn -0.999997615814209 -2.0682260971124217e-13 0.002184694167226553 
vn 0.999997615814209 0 0.002184694167226553 
vn 0.999997615814209 0 0.002184694167226553 
vn 0.999997615814209 0 0.002184694167226553 
vn 0.999997615814209 0 0.002184694167226553 
vn -0.999997615814209 -2.0682260971124217e-13 0.002184694167226553 
vn -0.999997615814209 -2.0682260971124217e-13 0.002184694167226553 
vn -0.999997615814209 -2.0682260971124217e-13 0.002184694167226553 
vn -0.999997615814209 -2.0682260971124217e-13 0.002184694167226553 
vn 0.999997615814209 0 0.002184694167226553 
vn 0.999997615814209 0 0.002184694167226553 
vn 0.999997615814209 0 0.002184694167226553 
vn 0.999997615814209 0 0.002184694167226553 
vn -0.999997615814209 -2.0682260971124217e-13 0.002184694167226553 
vn -0.999997615814209 -2.0682260971124217e-13 0.002184694167226553 
vn -0.999997615814209 -2.0682260971124217e-13 0.002184694167226553 
vn -0.999997615814209 -2.0682260971124217e-13 0.002184694167226553 
vn 0.999997615814209 0 0.002184694167226553 
vn 0.999997615814209 0 0.002184694167226553 
vn 0.999997615814209 0 0.002184694167226553 
vn 0.999997615814209 0 0.002184694167226553 
vn -0.999997615814209 -2.0682260971124217e-13 0.002184694167226553 
vn -0.999997615814209 -2.0682260971124217e-13 0.002184694167226553 
vn -0.999997615814209 -2.0682260971124217e-13 0.002184694167226553 
vn -0.999997615814209 -2.0682260971124217e-13 0.002184694167226553 
vn 0.999997615814209 0 -0.002184694167226553 
vn 0.999997615814209 0 -0.002184694167226553 
vn 0.999997615814209 0 -0.002184694167226553 
vn 0.999997615814209 0 0.002184694167226553 
vn -0.999997615814209 -2.0682260971124217e-13 0.002184694167226553 
vn -0.999997615814209 -2.0682260971124217e-13 0.002184694167226553 
vn -0.999997615814209 -2.0682260971124217e-13 0.002184694167226553 
vn -0.999997615814209 -2.0682260971124217e-13 0.002184694167226553 
vn 0.999997615814209 0 0.002184694167226553 
vn 0.999997615814209 0 0.002184694167226553 
vn 0.999997615814209 0 0.002184694167226553 
vn 0.999997615814209 0 0.002184694167226553 
vn -0.999997615814209 -2.0682260971124217e-13 -0.002184694167226553 
vn -0.999997615814209 -2.0682260971124217e-13 -0.002184694167226553 
vn -0.999997615814209 -2.0682260971124217e-13 -0.002184694167226553 
vn -0.999997615814209 -2.0682260971124217e-13 0.002184694167226553 
vn 0.999997615814209 0 0.002184694167226553 
vn 0.999997615814209 0 0.002184694167226553 
vn 0.999997615814209 0 0.002184694167226553 
vn 0.999997615814209 0 0.002184694167226553 
vn -0.999997615814209 -2.0682260971124217e-13 0.002184694167226553 
vn -0.999997615814209 -2.0682260971124217e-13 0.002184694167226553 
vn -0.999997615814209 -2.0682260971124217e-13 0.002184694167226553 
vn -0.999997615814209 -2.0682260971124217e-13 0.002184694167226553 
vn 0.999997615814209 0 -0.002184694167226553 
vn 0.999997615814209 0 -0.002184694167226553 
vn 0.999997615814209 0 -0.002184694167226553 
vn 0.999997615814209 0 0.002184694167226553 
vn -0.999997615814209 -2.0682260971124217e-13 0.002184694167226553 
vn -0.999997615814209 -2.0682260971124217e-13 0.002184694167226553 
vn -0.999997615814209 -2.0682260971124217e-13 0.002184694167226553 
vn -0.999997615814209 -2.0682260971124217e-13 0.002184694167226553 
vn 0.999997615814209 0 0.002184694167226553 
vn 0.999997615814209 0 0.002184694167226553 
vn 0.999997615814209 0 0.002184694167226553 
vn 0.999997615814209 0 0.002184694167226553 
vn -0.999997615814209 -2.0682260971124217e-13 0.002184694167226553 
vn -0.999997615814209 -2.0682260971124217e-13 0.002184694167226553 
vn -0.999997615814209 -2.0682260971124217e-13 0.002184694167226553 
vn -0.999997615814209 -2.0682260971124217e-13 0.002184694167226553 
vn 0.999997615814209 0 0.002184694167226553 
vn 0.999997615814209 0 0.002184694167226553 
vn 0.999997615814209 0 0.002184694167226553 
vn 0.999997615814209 0 0.002184694167226553 
vn -0.999997615814209 -2.0682260971124217e-13 0.002184694167226553 
vn -0.999997615814209 -2.0682260971124217e-13 0.002184694167226553 
vn -0.999997615814209 -2.0682260971124217e-13 0.002184694167226553 
vn -0.999997615814209 -2.0682260971124217e-13 0.002184694167226553 
vn 0.999997615814209 0 0.002184694167226553 
vn 0.999997615814209 0 0.002184694167226553 
vn 0.999997615814209 0 0.002184694167226553 
vn 0.999997615814209 0 0.002184694167226553 
vn -0.999997615814209 -2.0682260971124217e-13 0.002184694167226553 
vn -0.999997615814209 -2.0682260971124217e-13 0.002184694167226553 
vn -0.999997615814209 -2.0682260971124217e-13 0.002184694167226553 
vn -0.999997615814209 -2.0682260971124217e-13 0.002184694167226553 
vn 0.999997615814209 0 -0.002184694167226553 
vn 0.999997615814209 0 -0.002184694167226553 
vn 0.999997615814209 0 -0.002184694167226553 
vn 0.999997615814209 0 0.002184694167226553 
vn -0.999997615814209 -2.0682260971124217e-13 -0.002184694167226553 
vn -0.999997615814209 -2.0682260971124217e-13 0.002184694167226553 
vn -0.999997615814209 -2.0682260971124217e-13 0.002184694167226553 
vn -0.999997615814209 -2.0682260971124217e-13 0.002184694167226553 
vn 0.999997615814209 0 0.002184694167226553 
vn 0.999997615814209 0 0.002184694167226553 
vn 0.999997615814209 0 0.002184694167226553 
vn 0.999997615814209 0 0.002184694167226553 
vn -0.999997615814209 -2.0682260971124217e-13 0.002184694167226553 
vn -0.999997615814209 -2.0682260971124217e-13 0.002184694167226553 
vn -0.999997615814209 -2.0682260971124217e-13 0.002184694167226553 
vn -0.999997615814209 -2.0682260971124217e-13 0.002184694167226553 
vn 0.999997615814209 0 0.002184694167226553 
vn 0.999997615814209 0 0.002184694167226553 
vn 0.999997615814209 0 0.002184694167226553 
vn 0.999997615814209 0 0.002184694167226553 
vn -0.999997615814209 -2.0682260971124217e-13 0.002184694167226553 
vn -0.999997615814209 -2.0682260971124217e-13 0.002184694167226553 
vn -0.999997615814209 -2.0682260971124217e-13 0.002184694167226553 
vn -0.999997615814209 -2.0682260971124217e-13 0.002184694167226553 
vn 0.999997615814209 0 0.002184694167226553 
vn 0.999997615814209 0 -0.002184694167226553 
vn 0.999997615814209 0 -0.002184694167226553 
vn 0.999997615814209 0 -0.002184694167226553 
vn -0.999997615814209 -2.0682260971124217e-13 0.002184694167226553 
vn -0.999997615814209 -2.0682260971124217e-13 0.002184694167226553 
vn -0.999997615814209 -2.0682260971124217e-13 0.002184694167226553 
vn -0.999997615814209 -2.0682260971124217e-13 0.002184694167226553 
vn 0.999997615814209 0 0.002184694167226553 
vn 0.999997615814209 0 0.002184694167226553 
vn 0.999997615814209 0 0.002184694167226553 
vn 0.999997615814209 0 0.002184694167226553 
vn -0.999997615814209 -2.0682260971124217e-13 -0.002184694167226553 
vn -0.999997615814209 -2.0682260971124217e-13 -0.002184694167226553 
vn -0.999997615814209 -2.0682260971124217e-13 -0.002184694167226553 
vn -0.999997615814209 -2.0682260971124217e-13 0.002184694167226553 
vn 0.999997615814209 0 0.002184694167226553 
vn 0.999997615814209 0 0.002184694167226553 
vn 0.999997615814209 0 0.002184694167226553 
vn 0.999997615814209 0 0.002184694167226553 
vn -0.999997615814209 -2.0682260971124217e-13 0.002184694167226553 
vn -0.999997615814209 -2.0682260971124217e-13 0.002184694167226553 
vn -0.999997615814209 -2.0682260971124217e-13 0.002184694167226553 
vn -0.999997615814209 -2.0682260971124217e-13 0.002184694167226553 
vn 0.999997615814209 0 0.002184694167226553 
vn 0.999997615814209 0 0.002184694167226553 
vn 0.999997615814209 0 0.002184694167226553 
vn 0.999997615814209 0 0.002184694167226553 
vn -0.999997615814209 -2.0682260971124217e-13 0.002184694167226553 
vn -0.999997615814209 -2.0682260971124217e-13 0.002184694167226553 
vn -0.999997615814209 -2.0682260971124217e-13 0.002184694167226553 
vn -0.999997615814209 -2.0682260971124217e-13 0.002184694167226553 
vt 0.9087098240852356 0.4597786068916321 
vt 0.9087098240852356 0.0022911899723112583 
vt 0.4578016996383667 0.4597786068916321 
vt 0.4578016996383667 0.0022911899723112583 
vt 0.9367883205413818 0.0022911899723112583 
vt 0.9273501634597778 0.0024098330177366734 
vt 0.9367883205413818 0.5437778234481812 
vt 0.9273501634597778 0.543896496295929 
vt 0.9133108854293823 0.543896496295929 
vt 0.9227490425109863 0.5437778234481812 
vt 0.9133108854293823 0.0024098330177366734 
vt 0.9227490425109863 0.0022911899723112583 
vt 0.9686421155929565 0.5398626327514648 
vt 0.9686421155929565 0.0022911899723112583 
vt 0.9592039585113525 0.5399812459945679 
vt 0.9592039585113525 0.0024098330177366734 
vt 0.5399137139320374 0.9740960001945496 
vt 0.5399137139320374 0.9647232294082642 
vt 0.002410487039014697 0.9740960001945496 
vt 0.002292509889230132 0.9647232294082642 
vt 0.9087098240852356 0.4597786068916321 
vt 0.4578016996383667 0.4597786068916321 
vt 0.9087098240852356 0.0022911899723112583 
vt 0.4578016996383667 0.0022911899723112583 
vt 0.9087098240852356 0.4597786068916321 
vt 0.9087098240852356 0.0022911899723112583 
vt 0.4578016996383667 0.4597786068916321 
vt 0.4578016996383667 0.0022911899723112583 
vt 0.9367883205413818 0.0022911899723112583 
vt 0.9273501634597778 0.0024098330177366734 
vt 0.9367883205413818 0.5437778234481812 
vt 0.9273501634597778 0.543896496295929 
vt 0.9133108854293823 0.543896496295929 
vt 0.9227490425109863 0.5437778234481812 
vt 0.9133108854293823 0.0024098330177366734 
vt 0.9227490425109863 0.0022911899723112583 
vt 0.9686421155929565 0.5398626327514648 
vt 0.9686421155929565 0.0022911899723112583 
vt 0.9592039585113525 0.5399812459945679 
vt 0.9592039585113525 0.0024098330177366734 
vt 0.5399137139320374 0.9740960001945496 
vt 0.5399137139320374 0.9647232294082642 
vt 0.002410487039014697 0.9740960001945496 
vt 0.002292509889230132 0.9647232294082642 
vt 0.9087098240852356 0.4597786068916321 
vt 0.4578016996383667 0.4597786068916321 
vt 0.9087098240852356 0.0022911899723112583 
vt 0.4578016996383667 0.0022911899723112583 
vt 0.9087098240852356 0.4597786068916321 
vt 0.9087098240852356 0.0022911899723112583 
vt 0.4578016996383667 0.4597786068916321 
vt 0.4578016996383667 0.0022911899723112583 
vt 0.9367883205413818 0.0022911899723112583 
vt 0.9273501634597778 0.0024098330177366734 
vt 0.9367883205413818 0.5437778234481812 
vt 0.9273501634597778 0.543896496295929 
vt 0.9133108854293823 0.543896496295929 
vt 0.9227490425109863 0.5437778234481812 
vt 0.9133108854293823 0.0024098330177366734 
vt 0.9227490425109863 0.0022911899723112583 
vt 0.9686421155929565 0.5398626327514648 
vt 0.9686421155929565 0.0022911899723112583 
vt 0.9592039585113525 0.5399812459945679 
vt 0.9592039585113525 0.0024098330177366734 
vt 0.5399137139320374 0.9740960001945496 
vt 0.5399137139320374 0.9647232294082642 
vt 0.002410487039014697 0.9740960001945496 
vt 0.002292509889230132 0.9647232294082642 
vt 0.9087098240852356 0.4597786068916321 
vt 0.4578016996383667 0.4597786068916321 
vt 0.9087098240852356 0.0022911899723112583 
vt 0.4578016996383667 0.0022911899723112583 
vt 0.9087098240852356 0.4597786068916321 
vt 0.9087098240852356 0.0022911899723112583 
vt 0.4578016996383667 0.4597786068916321 
vt 0.4578016996383667 0.0022911899723112583 
vt 0.9367883205413818 0.0022911899723112583 
vt 0.9273501634597778 0.0024098330177366734 
vt 0.9367883205413818 0.5437778234481812 
vt 0.9273501634597778 0.543896496295929 
vt 0.9133108854293823 0.543896496295929 
vt 0.9227490425109863 0.5437778234481812 
vt 0.9133108854293823 0.0024098330177366734 
vt 0.9227490425109863 0.0022911899723112583 
vt 0.9686421155929565 0.5398626327514648 
vt 0.9686421155929565 0.0022911899723112583 
vt 0.9592039585113525 0.5399812459945679 
vt 0.9592039585113525 0.0024098330177366734 
vt 0.5399137139320374 0.9740960001945496 
vt 0.5399137139320374 0.9647232294082642 
vt 0.002410487039014697 0.9740960001945496 
vt 0.002292509889230132 0.9647232294082642 
vt 0.9087098240852356 0.4597786068916321 
vt 0.4578016996383667 0.4597786068916321 
vt 0.9087098240852356 0.0022911899723112583 
vt 0.4578016996383667 0.0022911899723112583 
vt 0.9087098240852356 0.4597786068916321 
vt 0.9087098240852356 0.0022911899723112583 
vt 0.4578016996383667 0.4597786068916321 
vt 0.4578016996383667 0.0022911899723112583 
vt 0.9367883205413818 0.0022911899723112583 
vt 0.9273501634597778 0.0024098330177366734 
vt 0.9367883205413818 0.5437778234481812 
vt 0.9273501634597778 0.543896496295929 
vt 0.9133108854293823 0.543896496295929 
vt 0.9227490425109863 0.5437778234481812 
vt 0.9133108854293823 0.0024098330177366734 
vt 0.9227490425109863 0.0022911899723112583 
vt 0.9686421155929565 0.5398626327514648 
vt 0.9686421155929565 0.0022911899723112583 
vt 0.9592039585113525 0.5399812459945679 
vt 0.9592039585113525 0.0024098330177366734 
vt 0.5399137139320374 0.9740960001945496 
vt 0.5399137139320374 0.9647232294082642 
vt 0.002410487039014697 0.9740960001945496 
vt 0.002292509889230132 0.9647232294082642 
vt 0.9087098240852356 0.4597786068916321 
vt 0.4578016996383667 0.4597786068916321 
vt 0.9087098240852356 0.0022911899723112583 
vt 0.4578016996383667 0.0022911899723112583 
vt 0.4532006084918976 0.4597786068916321 
vt 0.4532006084918976 0.0022911899723112583 
vt 0.002292509889230132 0.4597786068916321 
vt 0.002292509889230132 0.0022911899723112583 
vt 0.4532006084918976 0.4597786068916321 
vt 0.002292509889230132 0.4597786068916321 
vt 0.4532006084918976 0.0022911899723112583 
vt 0.002292509889230132 0.0022911899723112583 
vt 0.4532006084918976 0.4597786068916321 
vt 0.4532006084918976 0.0022911899723112583 
vt 0.002292509889230132 0.4597786068916321 
vt 0.002292509889230132 0.0022911899723112583 
vt 0.4532006084918976 0.4597786068916321 
vt 0.002292509889230132 0.4597786068916321 
vt 0.4532006084918976 0.0022911899723112583 
vt 0.002292509889230132 0.0022911899723112583 
vt 0.4532006084918976 0.4597786068916321 
vt 0.4532006084918976 0.0022911899723112583 
vt 0.002292509889230132 0.4597786068916321 
vt 0.002292509889230132 0.0022911899723112583 
vt 0.4532006084918976 0.4597786068916321 
vt 0.002292509889230132 0.4597786068916321 
vt 0.4532006084918976 0.0022911899723112583 
vt 0.002292509889230132 0.0022911899723112583 
vt 0.002292509889230132 0.4597786068916321 
vt 0.4532006084918976 0.4597786068916321 
vt 0.002292509889230132 0.0022911899723112583 
vt 0.4532006084918976 0.0022911899723112583 
vt 0.4532006084918976 0.0022911899723112583 
vt 0.4532006084918976 0.4597786068916321 
vt 0.002292509889230132 0.0022911899723112583 
vt 0.002292509889230132 0.4597786068916321 
vt 0.002292509889230132 0.4597786068916321 
vt 0.4532006084918976 0.4597786068916321 
vt 0.002292509889230132 0.0022911899723112583 
vt 0.4532006084918976 0.0022911899723112583 
vt 0.4532006084918976 0.0022911899723112583 
vt 0.4532006084918976 0.4597786068916321 
vt 0.002292509889230132 0.0022911899723112583 
vt 0.002292509889230132 0.4597786068916321 
vt 0.4532006084918976 0.4597786068916321 
vt 0.4532006084918976 0.0022911899723112583 
vt 0.002292509889230132 0.4597786068916321 
vt 0.002292509889230132 0.0022911899723112583 
vt 0.4532006084918976 0.4597786068916321 
vt 0.002292509889230132 0.4597786068916321 
vt 0.4532006084918976 0.0022911899723112583 
vt 0.002292509889230132 0.0022911899723112583 
vt 0.4532006084918976 0.4597786068916321 
vt 0.4532006084918976 0.0022911899723112583 
vt 0.002292509889230132 0.4597786068916321 
vt 0.002292509889230132 0.0022911899723112583 
vt 0.4532006084918976 0.4597786068916321 
vt 0.002292509889230132 0.4597786068916321 
vt 0.4532006084918976 0.0022911899723112583 
vt 0.002292509889230132 0.0022911899723112583 
vt 0.002292509889230132 0.4597786068916321 
vt 0.4532006084918976 0.4597786068916321 
vt 0.002292509889230132 0.0022911899723112583 
vt 0.4532006084918976 0.0022911899723112583 
vt 0.4532006084918976 0.0022911899723112583 
vt 0.4532006084918976 0.4597786068916321 
vt 0.002292509889230132 0.0022911899723112583 
vt 0.002292509889230132 0.4597786068916321 
vt 0.4532006084918976 0.4597786068916321 
vt 0.4532006084918976 0.0022911899723112583 
vt 0.002292509889230132 0.4597786068916321 
vt 0.002292509889230132 0.0022911899723112583 
vt 0.4532006084918976 0.4597786068916321 
vt 0.002292509889230132 0.4597786068916321 
vt 0.4532006084918976 0.0022911899723112583 
vt 0.002292509889230132 0.0022911899723112583 
vt 0.4532006084918976 0.4597786068916321 
vt 0.4532006084918976 0.0022911899723112583 
vt 0.002292509889230132 0.4597786068916321 
vt 0.002292509889230132 0.0022911899723112583 
vt 0.4532006084918976 0.4597786068916321 
vt 0.002292509889230132 0.4597786068916321 
vt 0.4532006084918976 0.0022911899723112583 
vt 0.002292509889230132 0.0022911899723112583 
vt 0.4532006084918976 0.4597786068916321 
vt 0.4532006084918976 0.0022911899723112583 
vt 0.002292509889230132 0.4597786068916321 
vt 0.002292509889230132 0.0022911899723112583 
vt 0.4532006084918976 0.4597786068916321 
vt 0.002292509889230132 0.4597786068916321 
vt 0.4532006084918976 0.0022911899723112583 
vt 0.002292509889230132 0.0022911899723112583 
vt 0.4532006084918976 0.4597786068916321 
vt 0.4532006084918976 0.0022911899723112583 
vt 0.002292509889230132 0.4597786068916321 
vt 0.002292509889230132 0.0022911899723112583 
vt 0.4532006084918976 0.4597786068916321 
vt 0.002292509889230132 0.4597786068916321 
vt 0.4532006084918976 0.0022911899723112583 
vt 0.002292509889230132 0.0022911899723112583 
vt 0.4532006084918976 0.4597786068916321 
vt 0.4532006084918976 0.0022911899723112583 
vt 0.002292509889230132 0.4597786068916321 
vt 0.002292509889230132 0.0022911899723112583 
vt 0.4532006084918976 0.4597786068916321 
vt 0.002292509889230132 0.4597786068916321 
vt 0.4532006084918976 0.0022911899723112583 
vt 0.002292509889230132 0.0022911899723112583 
vt 0.002292509889230132 0.4597786068916321 
vt 0.4532006084918976 0.4597786068916321 
vt 0.002292509889230132 0.0022911899723112583 
vt 0.4532006084918976 0.0022911899723112583 
vt 0.4532006084918976 0.0022911899723112583 
vt 0.4532006084918976 0.4597786068916321 
vt 0.002292509889230132 0.0022911899723112583 
vt 0.002292509889230132 0.4597786068916321 
vt 0.4532006084918976 0.4597786068916321 
vt 0.4532006084918976 0.0022911899723112583 
vt 0.002292509889230132 0.4597786068916321 
vt 0.002292509889230132 0.0022911899723112583 
vt 0.4532006084918976 0.4597786068916321 
vt 0.002292509889230132 0.4597786068916321 
vt 0.4532006084918976 0.0022911899723112583 
vt 0.002292509889230132 0.0022911899723112583 
vt 0.4532006084918976 0.4597786068916321 
vt 0.4532006084918976 0.0022911899723112583 
vt 0.002292509889230132 0.4597786068916321 
vt 0.002292509889230132 0.0022911899723112583 
vt 0.4532006084918976 0.4597786068916321 
vt 0.002292509889230132 0.4597786068916321 
vt 0.4532006084918976 0.0022911899723112583 
vt 0.002292509889230132 0.0022911899723112583 
vt 0.002292509889230132 0.4597786068916321 
vt 0.4532006084918976 0.4597786068916321 
vt 0.002292509889230132 0.0022911899723112583 
vt 0.4532006084918976 0.0022911899723112583 
vt 0.4532006084918976 0.0022911899723112583 
vt 0.4532006084918976 0.4597786068916321 
vt 0.002292509889230132 0.0022911899723112583 
vt 0.002292509889230132 0.4597786068916321 
vt 0.4532006084918976 0.4597786068916321 
vt 0.4532006084918976 0.0022911899723112583 
vt 0.002292509889230132 0.4597786068916321 
vt 0.002292509889230132 0.0022911899723112583 
vt 0.4532006084918976 0.4597786068916321 
vt 0.002292509889230132 0.4597786068916321 
vt 0.4532006084918976 0.0022911899723112583 
vt 0.002292509889230132 0.0022911899723112583 
s on 
f 1/1/1 2/2/2 3/3/3 
f 2/2/2 4/4/4 3/3/3 
f 3/3/3 4/4/4 4/4/4 
f 4/4/4 5/5/5 4/4/4 
f 4/4/4 5/5/5 5/5/5 
f 5/5/5 6/6/6 5/5/5 
f 5/5/5 6/6/6 7/7/7 
f 6/6/6 8/8/8 7/7/7 
f 7/7/7 8/8/8 8/8/8 
f 8/8/8 9/9/9 8/8/8 
f 8/8/8 9/9/9 9/9/9 
f 9/9/9 10/10/10 9/9/9 
f 9/9/9 10/10/10 11/11/11 
f 10/10/10 12/12/12 11/11/11 
f 11/11/11 12/12/12 12/12/12 
f 12/12/12 13/13/13 12/12/12 
f 12/12/12 13/13/13 13/13/13 
f 13/13/13 14/14/14 13/13/13 
f 13/13/13 14/14/14 15/15/15 
f 14/14/14 16/16/16 15/15/15 
f 15/15/15 16/16/16 16/16/16 
f 16/16/16 17/17/17 16/16/16 
f 16/16/16 17/17/17 17/17/17 
f 17/17/17 18/18/18 17/17/17 
f 17/17/17 18/18/18 19/19/19 
f 18/18/18 20/20/20 19/19/19 
f 19/19/19 20/20/20 20/20/20 
f 20/20/20 21/21/21 20/20/20 
f 20/20/20 21/21/21 21/21/21 
f 21/21/21 22/22/22 21/21/21 
f 21/21/21 22/22/22 23/23/23 
f 22/22/22 24/24/24 23/23/23 
f 23/23/23 24/24/24 24/24/24 
f 24/24/24 25/25/25 24/24/24 
f 24/24/24 25/25/25 25/25/25 
f 25/25/25 26/26/26 25/25/25 
f 25/25/25 26/26/26 27/27/27 
f 26/26/26 28/28/28 27/27/27 
f 27/27/27 28/28/28 28/28/28 
f 28/28/28 29/29/29 28/28/28 
f 28/28/28 29/29/29 29/29/29 
f 29/29/29 30/30/30 29/29/29 
f 29/29/29 30/30/30 31/31/31 
f 30/30/30 32/32/32 31/31/31 
f 31/31/31 32/32/32 32/32/32 
f 32/32/32 33/33/33 32/32/32 
f 32/32/32 33/33/33 33/33/33 
f 33/33/33 34/34/34 33/33/33 
f 33/33/33 34/34/34 35/35/35 
f 34/34/34 36/36/36 35/35/35 
f 35/35/35 36/36/36 36/36/36 
f 36/36/36 37/37/37 36/36/36 
f 36/36/36 37/37/37 37/37/37 
f 37/37/37 38/38/38 37/37/37 
f 37/37/37 38/38/38 39/39/39 
f 38/38/38 40/40/40 39/39/39 
f 39/39/39 40/40/40 40/40/40 
f 40/40/40 41/41/41 40/40/40 
f 40/40/40 41/41/41 41/41/41 
f 41/41/41 42/42/42 41/41/41 
f 41/41/41 42/42/42 43/43/43 
f 42/42/42 44/44/44 43/43/43 
f 43/43/43 44/44/44 44/44/44 
f 44/44/44 45/45/45 44/44/44 
f 44/44/44 45/45/45 45/45/45 
f 45/45/45 46/46/46 45/45/45 
f 45/45/45 46/46/46 47/47/47 
f 46/46/46 48/48/48 47/47/47 
f 47/47/47 48/48/48 48/48/48 
f 48/48/48 49/49/49 48/48/48 
f 48/48/48 49/49/49 49/49/49 
f 49/49/49 50/50/50 49/49/49 
f 49/49/49 50/50/50 51/51/51 
f 50/50/50 52/52/52 51/51/51 
f 51/51/51 52/52/52 52/52/52 
f 52/52/52 53/53/53 52/52/52 
f 52/52/52 53/53/53 53/53/53 
f 53/53/53 54/54/54 53/53/53 
f 53/53/53 54/54/54 55/55/55 
f 54/54/54 56/56/56 55/55/55 
f 55/55/55 56/56/56 56/56/56 
f 56/56/56 57/57/57 56/56/56 
f 56/56/56 57/57/57 57/57/57 
f 57/57/57 58/58/58 57/57/57 
f 57/57/57 58/58/58 59/59/59 
f 58/58/58 60/60/60 59/59/59 
f 59/59/59 60/60/60 60/60/60 
f 60/60/60 61/61/61 60/60/60 
f 60/60/60 61/61/61 61/61/61 
f 61/61/61 62/62/62 61/61/61 
f 61/61/61 62/62/62 63/63/63 
f 62/62/62 64/64/64 63/63/63 
f 63/63/63 64/64/64 64/64/64 
f 64/64/64 65/65/65 64/64/64 
f 64/64/64 65/65/65 65/65/65 
f 65/65/65 66/66/66 65/65/65 
f 65/65/65 66/66/66 67/67/67 
f 66/66/66 68/68/68 67/67/67 
f 67/67/67 68/68/68 68/68/68 
f 68/68/68 69/69/69 68/68/68 
f 68/68/68 69/69/69 69/69/69 
f 69/69/69 70/70/70 69/69/69 
f 69/69/69 70/70/70 71/71/71 
f 70/70/70 72/72/72 71/71/71 
f 71/71/71 72/72/72 72/72/72 
f 72/72/72 73/73/73 72/72/72 
f 72/72/72 73/73/73 73/73/73 
f 73/73/73 74/74/74 73/73/73 
f 73/73/73 74/74/74 75/75/75 
f 74/74/74 76/76/76 75/75/75 
f 75/75/75 76/76/76 76/76/76 
f 76/76/76 77/77/77 76/76/76 
f 76/76/76 77/77/77 77/77/77 
f 77/77/77 78/78/78 77/77/77 
f 77/77/77 78/78/78 79/79/79 
f 78/78/78 80/80/80 79/79/79 
f 79/79/79 80/80/80 80/80/80 
f 80/80/80 81/81/81 80/80/80 
f 80/80/80 81/81/81 81/81/81 
f 81/81/81 82/82/82 81/81/81 
f 81/81/81 82/82/82 83/83/83 
f 82/82/82 84/84/84 83/83/83 
f 83/83/83 84/84/84 84/84/84 
f 84/84/84 85/85/85 84/84/84 
f 84/84/84 85/85/85 85/85/85 
f 85/85/85 86/86/86 85/85/85 
f 85/85/85 86/86/86 87/87/87 
f 86/86/86 88/88/88 87/87/87 
f 87/87/87 88/88/88 88/88/88 
f 88/88/88 89/89/89 88/88/88 
f 88/88/88 89/89/89 89/89/89 
f 89/89/89 90/90/90 89/89/89 
f 89/89/89 90/90/90 91/91/91 
f 90/90/90 92/92/92 91/91/91 
f 91/91/91 92/92/92 92/92/92 
f 92/92/92 93/93/93 92/92/92 
f 92/92/92 93/93/93 93/93/93 
f 93/93/93 94/94/94 93/93/93 
f 93/93/93 94/94/94 95/95/95 
f 94/94/94 96/96/96 95/95/95 
f 95/95/95 96/96/96 96/96/96 
f 96/96/96 97/97/97 96/96/96 
f 96/96/96 97/97/97 97/97/97 
f 97/97/97 98/98/98 97/97/97 
f 97/97/97 98/98/98 99/99/99 
f 98/98/98 100/100/100 99/99/99 
f 99/99/99 100/100/100 100/100/100 
f 100/100/100 101/101/101 100/100/100 
f 100/100/100 101/101/101 101/101/101 
f 101/101/101 102/102/102 101/101/101 
f 101/101/101 102/102/102 103/103/103 
f 102/102/102 104/104/104 103/103/103 
f 103/103/103 104/104/104 104/104/104 
f 104/104/104 105/105/105 104/104/104 
f 104/104/104 105/105/105 105/105/105 
f 105/105/105 106/106/106 105/105/105 
f 105/105/105 106/106/106 107/107/107 
f 106/106/106 108/108/108 107/107/107 
f 107/107/107 108/108/108 108/108/108 
f 108/108/108 109/109/109 108/108/108 
f 108/108/108 109/109/109 109/109/109 
f 109/109/109 110/110/110 109/109/109 
f 109/109/109 110/110/110 111/111/111 
f 110/110/110 112/112/112 111/111/111 
f 111/111/111 112/112/112 112/112/112 
f 112/112/112 113/113/113 112/112/112 
f 112/112/112 113/113/113 113/113/113 
f 113/113/113 114/114/114 113/113/113 
f 113/113/113 114/114/114 115/115/115 
f 114/114/114 116/116/116 115/115/115 
f 115/115/115 116/116/116 116/116/116 
f 116/116/116 117/117/117 116/116/116 
f 116/116/116 117/117/117 117/117/117 
f 117/117/117 118/118/118 117/117/117 
f 117/117/117 118/118/118 119/119/119 
f 118/118/118 120/120/120 119/119/119 
f 119/119/119 120/120/120 120/120/120 
f 120/120/120 121/121/121 120/120/120 
f 120/120/120 121/121/121 121/121/121 
f 121/121/121 122/122/122 121/121/121 
f 121/121/121 122/122/122 123/123/123 
f 122/122/122 124/124/124 123/123/123 
f 123/123/123 124/124/124 124/124/124 
f 124/124/124 125/125/125 124/124/124 
f 124/124/124 125/125/125 125/125/125 
f 125/125/125 126/126/126 125/125/125 
f 125/125/125 126/126/126 127/127/127 
f 126/126/126 128/128/128 127/127/127 
f 127/127/127 128/128/128 128/128/128 
f 128/128/128 129/129/129 128/128/128 
f 128/128/128 129/129/129 129/129/129 
f 129/129/129 130/130/130 129/129/129 
f 129/129/129 130/130/130 131/131/131 
f 130/130/130 132/132/132 131/131/131 
f 131/131/131 132/132/132 132/132/132 
f 132/132/132 133/133/133 132/132/132 
f 132/132/132 133/133/133 133/133/133 
f 133/133/133 134/134/134 133/133/133 
f 133/133/133 134/134/134 135/135/135 
f 134/134/134 136/136/136 135/135/135 
f 135/135/135 136/136/136 136/136/136 
f 136/136/136 137/137/137 136/136/136 
f 136/136/136 137/137/137 137/137/137 
f 137/137/137 138/138/138 137/137/137 
f 137/137/137 138/138/138 139/139/139 
f 138/138/138 140/140/140 139/139/139 
f 139/139/139 140/140/140 140/140/140 
f 140/140/140 141/141/141 140/140/140 
f 140/140/140 141/141/141 141/141/141 
f 141/141/141 142/142/142 141/141/141 
f 141/141/141 142/142/142 143/143/143 
f 142/142/142 144/144/144 143/143/143 
f 143/143/143 144/144/144 144/144/144 
f 144/144/144 145/145/145 144/144/144 
f 144/144/144 145/145/145 145/145/145 
f 145/145/145 146/146/146 145/145/145 
f 145/145/145 146/146/146 147/147/147 
f 146/146/146 148/148/148 147/147/147 
f 147/147/147 148/148/148 148/148/148 
f 148/148/148 149/149/149 148/148/148 
f 148/148/148 149/149/149 149/149/149 
f 149/149/149 150/150/150 149/149/149 
f 149/149/149 150/150/150 151/151/151 
f 150/150/150 152/152/152 151/151/151 
f 151/151/151 152/152/152 152/152/152 
f 152/152/152 153/153/153 152/152/152 
f 152/152/152 153/153/153 153/153/153 
f 153/153/153 154/154/154 153/153/153 
f 153/153/153 154/154/154 155/155/155 
f 154/154/154 156/156/156 155/155/155 
f 155/155/155 156/156/156 156/156/156 
f 156/156/156 157/157/157 156/156/156 
f 156/156/156 157/157/157 157/157/157 
f 157/157/157 158/158/158 157/157/157 
f 157/157/157 158/158/158 159/159/159 
f 158/158/158 160/160/160 159/159/159 
f 159/159/159 160/160/160 160/160/160 
f 160/160/160 161/161/161 160/160/160 
f 160/160/160 161/161/161 161/161/161 
f 161/161/161 162/162/162 161/161/161 
f 161/161/161 162/162/162 163/163/163 
f 162/162/162 164/164/164 163/163/163 
f 163/163/163 164/164/164 164/164/164 
f 164/164/164 165/165/165 164/164/164 
f 164/164/164 165/165/165 165/165/165 
f 165/165/165 166/166/166 165/165/165 
f 165/165/165 166/166/166 167/167/167 
f 166/166/166 168/168/168 167/167/167 
f 167/167/167 168/168/168 168/168/168 
f 168/168/168 169/169/169 168/168/168 
f 168/168/168 169/169/169 169/169/169 
f 169/169/169 170/170/170 169/169/169 
f 169/169/169 170/170/170 171/171/171 
f 170/170/170 172/172/172 171/171/171 
f 171/171/171 172/172/172 172/172/172 
f 172/172/172 173/173/173 172/172/172 
f 172/172/172 173/173/173 173/173/173 
f 173/173/173 174/174/174 173/173/173 
f 173/173/173 174/174/174 175/175/175 
f 174/174/174 176/176/176 175/175/175 
f 175/175/175 176/176/176 176/176/176 
f 176/176/176 177/177/177 176/176/176 
f 176/176/176 177/177/177 177/177/177 
f 177/177/177 178/178/178 177/177/177 
f 177/177/177 178/178/178 179/179/179 
f 178/178/178 180/180/180 179/179/179 
f 179/179/179 180/180/180 180/180/180 
f 180/180/180 181/181/181 180/180/180 
f 180/180/180 181/181/181 181/181/181 
f 181/181/181 182/182/182 181/181/181 
f 181/181/181 182/182/182 183/183/183 
f 182/182/182 184/184/184 183/183/183 
f 183/183/183 184/184/184 184/184/184 
f 184/184/184 185/185/185 184/184/184 
f 184/184/184 185/185/185 185/185/185 
f 185/185/185 186/186/186 185/185/185 
f 185/185/185 186/186/186 187/187/187 
f 186/186/186 188/188/188 187/187/187 
f 187/187/187 188/188/188 188/188/188 
f 188/188/188 189/189/189 188/188/188 
f 188/188/188 189/189/189 189/189/189 
f 189/189/189 190/190/190 189/189/189 
f 189/189/189 190/190/190 191/191/191 
f 190/190/190 192/192/192 191/191/191 
f 191/191/191 192/192/192 192/192/192 
f 192/192/192 193/193/193 192/192/192 
f 192/192/192 193/193/193 193/193/193 
f 193/193/193 194/194/194 193/193/193 
f 193/193/193 194/194/194 195/195/195 
f 194/194/194 196/196/196 195/195/195 
f 195/195/195 196/196/196 196/196/196 
f 196/196/196 197/197/197 196/196/196 
f 196/196/196 197/197/197 197/197/197 
f 197/197/197 198/198/198 197/197/197 
f 197/197/197 198/198/198 199/199/199 
f 198/198/198 200/200/200 199/199/199 
f 199/199/199 200/200/200 200/200/200 
f 200/200/200 201/201/201 200/200/200 
f 200/200/200 201/201/201 201/201/201 
f 201/201/201 202/202/202 201/201/201 
f 201/201/201 202/202/202 203/203/203 
f 202/202/202 204/204/204 203/203/203 
f 203/203/203 204/204/204 204/204/204 
f 204/204/204 205/205/205 204/204/204 
f 204/204/204 205/205/205 205/205/205 
f 205/205/205 206/206/206 205/205/205 
f 205/205/205 206/206/206 207/207/207 
f 206/206/206 208/208/208 207/207/207 
f 207/207/207 208/208/208 208/208/208 
f 208/208/208 209/209/209 208/208/208 
f 208/208/208 209/209/209 209/209/209 
f 209/209/209 210/210/210 209/209/209 
f 209/209/209 210/210/210 211/211/211 
f 210/210/210 212/212/212 211/211/211 
f 211/211/211 212/212/212 212/212/212 
f 212/212/212 213/213/213 212/212/212 
f 212/212/212 213/213/213 213/213/213 
f 213/213/213 214/214/214 213/213/213 
f 213/213/213 214/214/214 215/215/215 
f 214/214/214 216/216/216 215/215/215 
f 215/215/215 216/216/216 216/216/216 
f 216/216/216 217/217/217 216/216/216 
f 216/216/216 217/217/217 217/217/217 
f 217/217/217 218/218/218 217/217/217 
f 217/217/217 218/218/218 219/219/219 
f 218/218/218 220/220/220 219/219/219 
f 219/219/219 220/220/220 220/220/220 
f 220/220/220 221/221/221 220/220/220 
f 220/220/220 221/221/221 221/221/221 
f 221/221/221 222/222/222 221/221/221 
f 221/221/221 222/222/222 223/223/223 
f 222/222/222 224/224/224 223/223/223 
f 223/223/223 224/224/224 224/224/224 
f 224/224/224 225/225/225 224/224/224 
f 224/224/224 225/225/225 225/225/225 
f 225/225/225 226/226/226 225/225/225 
f 225/225/225 226/226/226 227/227/227 
f 226/226/226 228/228/228 227/227/227 
f 227/227/227 228/228/228 228/228/228 
f 228/228/228 229/229/229 228/228/228 
f 228/228/228 229/229/229 229/229/229 
f 229/229/229 230/230/230 229/229/229 
f 229/229/229 230/230/230 231/231/231 
f 230/230/230 232/232/232 231/231/231 
f 231/231/231 232/232/232 232/232/232 
f 232/232/232 233/233/233 232/232/232 
f 232/232/232 233/233/233 233/233/233 
f 233/233/233 234/234/234 233/233/233 
f 233/233/233 234/234/234 235/235/235 
f 234/234/234 236/236/236 235/235/235 
f 235/235/235 236/236/236 236/236/236 
f 236/236/236 237/237/237 236/236/236 
f 236/236/236 237/237/237 237/237/237 
f 237/237/237 238/238/238 237/237/237 
f 237/237/237 238/238/238 239/239/239 
f 238/238/238 240/240/240 239/239/239 
f 239/239/239 240/240/240 240/240/240 
f 240/240/240 241/241/241 240/240/240 
f 240/240/240 241/241/241 241/241/241 
f 241/241/241 242/242/242 241/241/241 
f 241/241/241 242/242/242 243/243/243 
f 242/242/242 244/244/244 243/243/243 
f 243/243/243 244/244/244 244/244/244 
f 244/244/244 245/245/245 244/244/244 
f 244/244/244 245/245/245 245/245/245 
f 245/245/245 246/246/246 245/245/245 
f 245/245/245 246/246/246 247/247/247 
f 246/246/246 248/248/248 247/247/247 
f 247/247/247 248/248/248 248/248/248 
f 248/248/248 249/249/249 248/248/248 
f 248/248/248 249/249/249 249/249/249 
f 249/249/249 250/250/250 249/249/249 
f 249/249/249 250/250/250 251/251/251 
f 250/250/250 252/252/252 251/251/251 
f 251/251/251 252/252/252 252/252/252 
f 252/252/252 253/253/253 252/252/252 
f 252/252/252 253/253/253 253/253/253 
f 253/253/253 254/254/254 253/253/253 
f 253/253/253 254/254/254 255/255/255 
f 254/254/254 256/256/256 255/255/255 
f 255/255/255 256/256/256 256/256/256 
f 256/256/256 257/257/257 256/256/256 
f 256/256/256 257/257/257 257/257/257 
f 257/257/257 258/258/258 257/257/257 
f 257/257/257 258/258/258 259/259/259 
f 258/258/258 260/260/260 259/259/259 
f 259/259/259 260/260/260 260/260/260 
f 260/260/260 261/261/261 260/260/260 
f 260/260/260 261/261/261 261/261/261 
f 261/261/261 262/262/262 261/261/261 
f 261/261/261 262/262/262 263/263/263 
f 262/262/262 264/264/264 263/263/263 

