mtllib model_15.mtl
o model_15
v 104.29837036132812 120.51606750488281 -1185.8765869140625 
v 104.29837036132812 123.32962799072266 -1185.8765869140625 
v 104.78524017333984 120.51606750488281 -1186.3978271484375 
v 104.78524017333984 123.32962799072266 -1186.3978271484375 
v 105.36634063720703 120.51606750488281 -1186.6500244140625 
v 105.36634063720703 123.32962799072266 -1186.6500244140625 
v 110.87893676757812 120.51606750488281 -1186.044677734375 
v 110.87893676757812 123.32962799072266 -1186.044677734375 
v 117.16109466552734 120.51606750488281 -1184.7667236328125 
v 117.16109466552734 123.32962799072266 -1184.7667236328125 
v 122.45381927490234 120.51606750488281 -1183.0516357421875 
v 122.45381927490234 123.32962799072266 -1183.0516357421875 
v 122.89356994628906 120.51606750488281 -1182.580810546875 
v 122.89356994628906 123.32962799072266 -1182.580810546875 
v 123.14485168457031 120.51606750488281 -1181.9083251953125 
v 123.14485168457031 123.32962799072266 -1181.9083251953125 
v 117.5694351196289 123.32962799072266 -1152.88623046875 
v 117.5694351196289 120.51606750488281 -1152.88623046875 
v 121.87271881103516 123.32962799072266 -1159.763427734375 
v 121.87271881103516 120.51606750488281 -1159.763427734375 
v 122.3909912109375 120.51606750488281 -1161.2431640625 
v 122.3909912109375 123.32962799072266 -1161.2431640625 
v 122.56375122070312 123.32962799072266 -1162.655517578125 
v 122.56375122070312 120.51606750488281 -1162.655517578125 
v 122.40670013427734 123.32962799072266 -1164.0848388671875 
v 122.40670013427734 120.51606750488281 -1164.0848388671875 
v 120.75762939453125 120.51606750488281 -1168.893798828125 
v 120.75762939453125 123.32962799072266 -1168.893798828125 
v 123.14485168457031 120.51606750488281 -1181.9083251953125 
v 123.14485168457031 123.32962799072266 -1181.9083251953125 
v 122.3909912109375 120.51606750488281 -1161.2431640625 
v 122.1082992553711 120.24166107177734 -1161.2767333984375 
v 121.87271881103516 120.51606750488281 -1159.763427734375 
v 121.62142944335938 120.24166107177734 -1159.881103515625 
v 122.13970947265625 120.24166107177734 -1164.034423828125 
v 122.28105926513672 120.24166107177734 -1162.689208984375 
v 122.40670013427734 120.51606750488281 -1164.0848388671875 
v 122.56375122070312 120.51606750488281 -1162.655517578125 
v 120.75762939453125 120.51606750488281 -1168.893798828125 
v 120.47493743896484 120.24166107177734 -1168.860107421875 
v 122.8621597290039 120.24166107177734 -1181.8577880859375 
v 123.14485168457031 120.51606750488281 -1181.9083251953125 
v 122.65798950195312 120.24166107177734 -1182.4462890625 
v 122.89356994628906 120.51606750488281 -1182.580810546875 
v 122.45381927490234 120.51606750488281 -1183.0516357421875 
v 122.28105926513672 120.24166107177734 -1182.8331298828125 
v 117.16109466552734 120.51606750488281 -1184.7667236328125 
v 117.09827423095703 120.24166107177734 -1184.4976806640625 
v 110.87893676757812 120.51606750488281 -1186.044677734375 
v 110.83181762695312 120.24166107177734 -1185.775634765625 
v 105.42916107177734 120.24166107177734 -1186.3641357421875 
v 105.36634063720703 120.51606750488281 -1186.6500244140625 
v 104.94229888916016 120.24166107177734 -1186.17919921875 
v 104.78524017333984 120.51606750488281 -1186.3978271484375 
v 104.29837036132812 120.51606750488281 -1185.8765869140625 
v 104.5496597290039 120.24166107177734 -1185.7083740234375 
v 101.3300552368164 120.24166107177734 -1169.818603515625 
v 101.06306457519531 120.51606750488281 -1169.8690185546875 
v 99.91656494140625 120.24166107177734 -1164.8751220703125 
v 99.64957427978516 120.51606750488281 -1164.9423828125 
v 98.31461334228516 120.24166107177734 -1156.9217529296875 
v 98.0162124633789 120.51606750488281 -1156.871337890625 
v 98.50308227539062 120.24166107177734 -1156.35009765625 
v 98.26750183105469 120.51606750488281 -1156.215576171875 
v 98.7072525024414 120.51606750488281 -1155.7447509765625 
v 98.88001251220703 120.24166107177734 -1155.980224609375 
v 104.40830993652344 120.51606750488281 -1154.080078125 
v 104.47113037109375 120.24166107177734 -1154.34912109375 
v 110.73758697509766 120.24166107177734 -1153.0880126953125 
v 117.38097381591797 120.24166107177734 -1153.1048583984375 
v 117.5694351196289 120.51606750488281 -1152.88623046875 
v 116.8155746459961 120.24166107177734 -1152.6844482421875 
v 116.94122314453125 120.51606750488281 -1152.4322509765625 
v 116.2187728881836 120.51606750488281 -1152.23046875 
v 116.15595245361328 120.24166107177734 -1152.516357421875 
v 110.69046783447266 120.51606750488281 -1152.8189697265625 
v 98.0162124633789 123.32962799072266 -1156.871337890625 
v 98.0162124633789 120.51606750488281 -1156.871337890625 
v 98.26750183105469 123.32962799072266 -1156.215576171875 
v 98.26750183105469 120.51606750488281 -1156.215576171875 
v 98.7072525024414 123.32962799072266 -1155.7447509765625 
v 98.7072525024414 120.51606750488281 -1155.7447509765625 
v 104.40830993652344 120.51606750488281 -1154.080078125 
v 104.40830993652344 123.32962799072266 -1154.080078125 
v 110.69046783447266 123.32962799072266 -1152.8189697265625 
v 110.69046783447266 120.51606750488281 -1152.8189697265625 
v 116.2187728881836 123.32962799072266 -1152.23046875 
v 116.2187728881836 120.51606750488281 -1152.23046875 
v 116.94122314453125 123.32962799072266 -1152.4322509765625 
v 116.94122314453125 120.51606750488281 -1152.4322509765625 
v 117.5694351196289 123.32962799072266 -1152.88623046875 
v 117.5694351196289 120.51606750488281 -1152.88623046875 
v 104.29837036132812 123.32962799072266 -1185.8765869140625 
v 104.29837036132812 120.51606750488281 -1185.8765869140625 
v 101.06306457519531 123.32962799072266 -1169.8690185546875 
v 101.06306457519531 120.51606750488281 -1169.8690185546875 
v 99.64957427978516 123.32962799072266 -1164.9423828125 
v 99.64957427978516 120.51606750488281 -1164.9423828125 
v 98.0162124633789 123.32962799072266 -1156.871337890625 
v 98.0162124633789 120.51606750488281 -1156.871337890625 
v 91.21577453613281 120.25157928466797 -1161.2767333984375 
v 98.94283294677734 119.99700164794922 -1159.7130126953125 
v 90.99590301513672 120.87975311279297 -1160.20068359375 
v 98.67584228515625 120.75411224365234 -1158.4183349609375 
v 98.67584228515625 122.26834869384766 -1158.4183349609375 
v 90.99590301513672 122.139404296875 -1160.20068359375 
v 98.94283294677734 123.02215576171875 -1159.7130126953125 
v 91.21577453613281 122.77088165283203 -1161.2767333984375 
v 91.43565368652344 122.139404296875 -1162.3360595703125 
v 99.19412231445312 122.26834869384766 -1160.990966796875 
v 91.43565368652344 120.87975311279297 -1162.3360595703125 
v 99.19412231445312 120.75411224365234 -1160.990966796875 
v 98.94283294677734 119.99700164794922 -1159.7130126953125 
v 91.43565368652344 122.139404296875 -1162.3360595703125 
v 91.21577453613281 122.77088165283203 -1161.2767333984375 
v 91.43565368652344 120.87975311279297 -1162.3360595703125 
v 90.99590301513672 122.139404296875 -1160.20068359375 
v 90.99590301513672 120.87975311279297 -1160.20068359375 
v 91.21577453613281 120.25157928466797 -1161.2767333984375 
v 117.94636535644531 126.53331756591797 -1163.5467529296875 
v 118.1976547241211 124.78104400634766 -1163.311279296875 
v 117.60084533691406 126.53331756591797 -1162.8741455078125 
v 117.94636535644531 124.78104400634766 -1162.806884765625 
v 118.66881561279297 124.78104400634766 -1163.630859375 
v 118.55887603759766 126.53331756591797 -1163.9503173828125 
v 119.23420715332031 124.78104400634766 -1163.6644287109375 
v 119.31273651123047 126.53331756591797 -1164.000732421875 
v 119.75248718261719 124.78104400634766 -1163.4122314453125 
v 119.97236633300781 126.53331756591797 -1163.6644287109375 
v 120.06659698486328 124.78104400634766 -1162.94140625 
v 120.38070678710938 126.53331756591797 -1163.0423583984375 
v 120.42781829833984 126.53331756591797 -1162.302490234375 
v 120.09800720214844 124.78104400634766 -1162.3697509765625 
v 117.64796447753906 126.53331756591797 -1162.13427734375 
v 117.97777557373047 124.78104400634766 -1162.2352294921875 
v 118.07200622558594 126.53331756591797 -1161.51220703125 
v 118.29188537597656 124.78104400634766 -1161.764404296875 
v 118.7944564819336 124.78104400634766 -1161.51220703125 
v 118.73163604736328 126.53331756591797 -1161.1759033203125 
v 119.4854965209961 126.53331756591797 -1161.226318359375 
v 119.37555694580078 124.78104400634766 -1161.5457763671875 
v 119.84671783447266 124.78104400634766 -1161.865234375 
v 120.09800720214844 126.53331756591797 -1161.6298828125 
v 120.42781829833984 126.53331756591797 -1162.302490234375 
v 120.09800720214844 124.78104400634766 -1162.3697509765625 
v 118.7944564819336 124.78104400634766 -1161.51220703125 
v 118.29188537597656 124.78104400634766 -1161.764404296875 
v 119.37555694580078 124.78104400634766 -1161.5457763671875 
v 118.66881561279297 124.78104400634766 -1163.630859375 
v 120.09800720214844 124.78104400634766 -1162.3697509765625 
v 119.75248718261719 124.78104400634766 -1163.4122314453125 
v 120.06659698486328 124.78104400634766 -1162.94140625 
v 117.97777557373047 124.78104400634766 -1162.2352294921875 
v 117.94636535644531 124.78104400634766 -1162.806884765625 
v 118.1976547241211 124.78104400634766 -1163.311279296875 
v 119.84671783447266 124.78104400634766 -1161.865234375 
v 119.23420715332031 124.78104400634766 -1163.6644287109375 
v 117.94636535644531 126.53331756591797 -1163.5467529296875 
v 118.55887603759766 126.53331756591797 -1163.9503173828125 
v 118.08771514892578 126.7647476196289 -1163.4122314453125 
v 118.62169647216797 126.7647476196289 -1163.765380859375 
v 117.80501556396484 126.7647476196289 -1162.840576171875 
v 119.42267608642578 126.7647476196289 -1161.4112548828125 
v 117.60084533691406 126.53331756591797 -1162.8741455078125 
v 117.64796447753906 126.53331756591797 -1162.13427734375 
v 117.83642578125 126.7647476196289 -1162.2015380859375 
v 118.1976547241211 126.7647476196289 -1161.6634521484375 
v 118.77875518798828 126.7647476196289 -1161.377685546875 
v 118.73163604736328 126.53331756591797 -1161.1759033203125 
v 119.4854965209961 126.53331756591797 -1161.226318359375 
v 120.09800720214844 126.53331756591797 -1161.6298828125 
v 119.95665740966797 126.7647476196289 -1161.764404296875 
v 120.2393569946289 126.7647476196289 -1162.3360595703125 
v 120.42781829833984 126.53331756591797 -1162.302490234375 
v 120.1922378540039 126.7647476196289 -1162.9918212890625 
v 120.38070678710938 126.53331756591797 -1163.0423583984375 
v 119.97236633300781 126.53331756591797 -1163.6644287109375 
v 119.84671783447266 126.7647476196289 -1163.5299072265625 
v 119.26561737060547 126.7647476196289 -1163.8157958984375 
v 119.31273651123047 126.53331756591797 -1164.000732421875 
v 118.07200622558594 126.53331756591797 -1161.51220703125 
v 119.98806762695312 123.60073852539062 -1162.386474609375 
v 119.98806762695312 125.37284851074219 -1162.386474609375 
v 119.84671783447266 123.60073852539062 -1163.1431884765625 
v 119.84671783447266 125.37284851074219 -1163.1431884765625 
v 119.218505859375 123.60073852539062 -1163.5635986328125 
v 119.218505859375 125.37284851074219 -1163.5635986328125 
v 118.46464538574219 123.60073852539062 -1163.4122314453125 
v 118.46464538574219 125.37284851074219 -1163.4122314453125 
v 118.04059600830078 123.60073852539062 -1162.7900390625 
v 118.04059600830078 125.37284851074219 -1162.7900390625 
v 118.1976547241211 123.60073852539062 -1162.033447265625 
v 118.1976547241211 125.37284851074219 -1162.033447265625 
v 118.82586669921875 123.60073852539062 -1161.613037109375 
v 118.82586669921875 125.37284851074219 -1161.613037109375 
v 119.56402587890625 123.60073852539062 -1161.764404296875 
v 119.56402587890625 125.37284851074219 -1161.764404296875 
v 119.98806762695312 123.60073852539062 -1162.386474609375 
v 119.98806762695312 125.37284851074219 -1162.386474609375 
v 115.65338134765625 123.77926635742188 -1158.2838134765625 
v 116.04601287841797 123.77926635742188 -1159.0572509765625 
v 115.9517822265625 125.10504913330078 -1158.216552734375 
v 116.2658920288086 125.10504913330078 -1158.85546875 
v 116.76846313476562 123.77926635742188 -1159.544921875 
v 116.8626937866211 125.10504913330078 -1159.259033203125 
v 117.5694351196289 125.10504913330078 -1159.2926025390625 
v 117.63225555419922 123.77926635742188 -1159.5953369140625 
v 118.2133560180664 125.10504913330078 -1158.989990234375 
v 118.40182495117188 123.77926635742188 -1159.2086181640625 
v 118.88868713378906 123.77926635742188 -1158.485595703125 
v 118.60599517822266 125.10504913330078 -1158.3846435546875 
v 118.65310668945312 125.10504913330078 -1157.678466796875 
v 118.93580627441406 123.77926635742188 -1157.6112060546875 
v 118.32329559326172 125.10504913330078 -1157.0394287109375 
v 118.55887603759766 123.77926635742188 -1156.8377685546875 
v 117.74219512939453 125.10504913330078 -1156.6527099609375 
v 117.83642578125 123.77926635742188 -1156.366943359375 
v 116.9726333618164 123.77926635742188 -1156.31640625 
v 117.01974487304688 125.10504913330078 -1156.602294921875 
v 116.18736267089844 123.77926635742188 -1156.7032470703125 
v 116.39153289794922 125.10504913330078 -1156.9217529296875 
v 115.99889373779297 125.10504913330078 -1157.51025390625 
v 115.71620178222656 123.77926635742188 -1157.42626953125 
v 115.65338134765625 123.77926635742188 -1158.2838134765625 
v 115.9517822265625 125.10504913330078 -1158.216552734375 
v 117.01974487304688 125.10504913330078 -1156.602294921875 
v 117.74219512939453 125.10504913330078 -1156.6527099609375 
v 116.39153289794922 125.10504913330078 -1156.9217529296875 
v 118.32329559326172 125.10504913330078 -1157.0394287109375 
v 118.65310668945312 125.10504913330078 -1157.678466796875 
v 116.8626937866211 125.10504913330078 -1159.259033203125 
v 117.5694351196289 125.10504913330078 -1159.2926025390625 
v 118.2133560180664 125.10504913330078 -1158.989990234375 
v 118.60599517822266 125.10504913330078 -1158.3846435546875 
v 115.99889373779297 125.10504913330078 -1157.51025390625 
v 115.9517822265625 125.10504913330078 -1158.216552734375 
v 116.2658920288086 125.10504913330078 -1158.85546875 
v 118.63740539550781 123.8354721069336 -1155.9296875 
v 115.27645111083984 123.8354721069336 -1156.602294921875 
v 119.32843780517578 123.8354721069336 -1159.2926025390625 
v 115.9517822265625 123.8354721069336 -1159.9820556640625 
v 115.9517822265625 123.8354721069336 -1159.9820556640625 
v 115.27645111083984 123.8354721069336 -1156.602294921875 
v 115.15080261230469 122.99900817871094 -1156.5350341796875 
v 118.63740539550781 123.8354721069336 -1155.9296875 
v 119.4383773803711 122.99900817871094 -1159.376708984375 
v 119.32843780517578 123.8354721069336 -1159.2926025390625 
v 119.32843780517578 123.8354721069336 -1159.2926025390625 
v 115.9517822265625 123.8354721069336 -1159.9820556640625 
v 119.4383773803711 122.99900817871094 -1159.376708984375 
v 115.87325286865234 122.99900817871094 -1160.0997314453125 
v 115.27645111083984 123.8354721069336 -1156.602294921875 
v 118.63740539550781 123.8354721069336 -1155.9296875 
v 115.15080261230469 122.99900817871094 -1156.5350341796875 
v 118.71593475341797 122.99900817871094 -1155.81201171875 
v 122.89356994628906 123.32962799072266 -1182.580810546875 
v 122.65798950195312 123.60404205322266 -1182.4462890625 
v 122.45381927490234 123.32962799072266 -1183.0516357421875 
v 122.28105926513672 123.60404205322266 -1182.8331298828125 
v 117.16109466552734 123.32962799072266 -1184.7667236328125 
v 117.09827423095703 123.60404205322266 -1184.4976806640625 
v 110.87893676757812 123.32962799072266 -1186.044677734375 
v 123.14485168457031 123.32962799072266 -1181.9083251953125 
v 122.8621597290039 123.60404205322266 -1181.8577880859375 
v 120.75762939453125 123.32962799072266 -1168.893798828125 
v 120.47493743896484 123.60404205322266 -1168.860107421875 
v 110.83181762695312 123.60404205322266 -1185.775634765625 
v 105.42916107177734 123.60404205322266 -1186.3641357421875 
v 105.36634063720703 123.32962799072266 -1186.6500244140625 
v 104.94229888916016 123.60404205322266 -1186.17919921875 
v 104.78524017333984 123.32962799072266 -1186.3978271484375 
v 104.29837036132812 123.32962799072266 -1185.8765869140625 
v 104.5496597290039 123.60404205322266 -1185.7083740234375 
v 101.3300552368164 123.60404205322266 -1169.818603515625 
v 99.91656494140625 123.60404205322266 -1164.8751220703125 
v 101.06306457519531 123.32962799072266 -1169.8690185546875 
v 99.64957427978516 123.32962799072266 -1164.9423828125 
v 98.31461334228516 123.60404205322266 -1156.9217529296875 
v 98.0162124633789 123.32962799072266 -1156.871337890625 
v 98.50308227539062 123.60404205322266 -1156.35009765625 
v 98.26750183105469 123.32962799072266 -1156.215576171875 
v 98.7072525024414 123.32962799072266 -1155.7447509765625 
v 98.88001251220703 123.60404205322266 -1155.980224609375 
v 104.40830993652344 123.32962799072266 -1154.080078125 
v 104.47113037109375 123.60404205322266 -1154.34912109375 
v 110.73758697509766 123.60404205322266 -1153.0880126953125 
v 122.13970947265625 123.60404205322266 -1164.034423828125 
v 122.40670013427734 123.32962799072266 -1164.0848388671875 
v 122.28105926513672 123.60404205322266 -1162.689208984375 
v 122.56375122070312 123.32962799072266 -1162.655517578125 
v 122.1082992553711 123.60404205322266 -1161.2767333984375 
v 122.3909912109375 123.32962799072266 -1161.2431640625 
v 121.87271881103516 123.32962799072266 -1159.763427734375 
v 121.62142944335938 123.60404205322266 -1159.881103515625 
v 117.38097381591797 123.60404205322266 -1153.1048583984375 
v 117.5694351196289 123.32962799072266 -1152.88623046875 
v 116.8155746459961 123.60404205322266 -1152.6844482421875 
v 116.94122314453125 123.32962799072266 -1152.4322509765625 
v 116.2187728881836 123.32962799072266 -1152.23046875 
v 116.15595245361328 123.60404205322266 -1152.516357421875 
v 110.69046783447266 123.32962799072266 -1152.8189697265625 
v 98.94283294677734 119.99700164794922 -1159.7130126953125 
v 91.43565368652344 120.87975311279297 -1162.3360595703125 
v 91.21577453613281 120.25157928466797 -1161.2767333984375 
v 115.9517822265625 123.8354721069336 -1159.9820556640625 
v 115.87325286865234 122.99900817871094 -1160.0997314453125 
v 115.15080261230469 122.99900817871094 -1156.5350341796875 
v 118.63740539550781 123.8354721069336 -1155.9296875 
v 119.4383773803711 122.99900817871094 -1159.376708984375 
v 118.71593475341797 122.99900817871094 -1155.81201171875 
vn -0.8897135257720947 -1.84013327036818e-13 -0.456519216299057 
vn -0.8897135257720947 -1.84013327036818e-13 -0.456519216299057 
vn -0.5813919901847839 0.003781620180234313 -0.8136147856712341 
vn -0.5813919901847839 0.003781620180234313 -0.8136147856712341 
vn -0.1523333042860031 -3.150604777069077e-14 -0.9883291721343994 
vn -0.1523333042860031 -3.150604777069077e-14 -0.9883291721343994 
vn 0.1523333042860031 0 -0.9883291721343994 
vn 0.1523333042860031 0 -0.9883291721343994 
vn 0.2549481689929962 0 -0.9669547080993652 
vn 0.2549481689929962 0 -0.9669547080993652 
vn 0.5379648208618164 0 -0.8429672718048096 
vn 0.5379648208618164 0 -0.8429672718048096 
vn 0.8533812761306763 0 -0.5212872624397278 
vn 0.8533812761306763 0 -0.5212872624397278 
vn 0.996372401714325 0 -0.08510008454322815 
vn 0.996372401714325 0 -0.08510008454322815 
vn 0.7351005673408508 0 0.677958071231842 
vn 0.7351005673408508 0 0.677958071231842 
vn 0.9013746976852417 0 0.43303996324539185 
vn 0.9013746976852417 0 0.43303996324539185 
vn 0.9747888445854187 0 0.22312943637371063 
vn 0.9747888445854187 0 0.22312943637371063 
vn 0.9999785423278809 0 0.006554040592163801 
vn 0.9999785423278809 0 0.006554040592163801 
vn 0.97575443983078 0 -0.21886809170246124 
vn 0.97575443983078 0 -0.21886809170246124 
vn 0.997078001499176 0 -0.0763898640871048 
vn 0.997078001499176 0 -0.0763898640871048 
vn 0.996372401714325 0 -0.08510008454322815 
vn 0.996372401714325 0 -0.08510008454322815 
vn 0.6864993572235107 -0.710528552532196 0.15449213981628418 
vn 0.390994668006897 -0.9156003594398499 0.09380380809307098 
vn 0.6361362934112549 -0.7095099091529846 0.30319350957870483 
vn 0.3666549026966095 -0.913550615310669 0.1760382205247879 
vn 0.39115190505981445 -0.9159685373306274 -0.08945280313491821 
vn 0.4035136103630066 -0.9149710536003113 -0.002184694167226553 
vn 0.6864993572235107 -0.710528552532196 -0.15449213981628418 
vn 0.7017316222190857 -0.7124112844467163 0.006554040592163801 
vn 0.6947768330574036 -0.7174694538116455 -0.05022686347365379 
vn 0.31896260380744934 -0.9474626183509827 -0.024029340595006943 
vn 0.41716712713241577 -0.9085120558738708 -0.024029340595006943 
vn 0.6890029311180115 -0.722356915473938 -0.058952588587999344 
vn 0.3611639440059662 -0.9064531922340393 -0.21886809170246124 
vn 0.5995082855224609 -0.710222065448761 -0.3690181374549866 
vn 0.37081265449523926 -0.7227714657783508 -0.5831804275512695 
vn 0.21155515313148499 -0.9099096059799194 -0.3568037748336792 
vn 0.17590780556201935 -0.7076110243797302 -0.6843559741973877 
vn 0.09989187121391296 -0.9190928936004639 -0.3811691105365753 
vn 0.10545063763856888 -0.7092804908752441 -0.6969945430755615 
vn 0.06035603582859039 -0.9208551645278931 -0.3852050006389618 
vn -0.049040038138628006 -0.9092980027198792 -0.41324591636657715 
vn -0.10351340472698212 -0.7247766852378845 -0.681163489818573 
vn -0.24449259042739868 -0.9063794612884521 -0.34452807903289795 
vn -0.40777602791786194 -0.7113246321678162 -0.5724822878837585 
vn -0.6104060411453247 -0.7264739274978638 -0.31565824151039124 
vn -0.3790252208709717 -0.9076443314552307 -0.18033768236637115 
vn -0.36671894788742065 -0.9260212779045105 -0.08945280313491821 
vn -0.6890669465065002 -0.7050915956497192 -0.16742929816246033 
vn -0.3805603086948395 -0.9199862480163574 -0.09380380809307098 
vn -0.6890669465065002 -0.7050915956497192 -0.16742929816246033 
vn -0.4172069728374481 -0.9085988402366638 0.01966099627315998 
vn -0.6865951418876648 -0.7253029942512512 0.05022686347365379 
vn -0.36080652475357056 -0.9055561423301697 0.22312943637371063 
vn -0.60030597448349 -0.7095479965209961 0.3690181374549866 
vn -0.3570222556591034 -0.7239695191383362 0.590256929397583 
vn -0.20401765406131744 -0.9083973169326782 0.3649536371231079 
vn -0.16997483372688293 -0.7059770822525024 0.6875353455543518 
vn -0.09413589537143707 -0.9197002649307251 0.3811691105365753 
vn -0.06220610812306404 -0.9190362691879272 0.3892335295677185 
vn 0.3057953715324402 -0.9118456244468689 0.27391019463539124 
vn 0.5096173286437988 -0.7168406248092651 0.4758462607860565 
vn 0.18554061651229858 -0.9073867201805115 0.37712597846984863 
vn 0.30772650241851807 -0.7084574699401855 0.6351318359375 
vn 0.060257673263549805 -0.7175894975662231 0.6938546895980835 
vn 0.02262747474014759 -0.9121357798576355 0.40926313400268555 
vn -0.10704106092453003 -0.7059551477432251 0.7001210451126099 
vn -0.9974023103713989 -2.0628583476817175e-13 0.07203252613544464 
vn -0.9974023103713989 -2.0628583476817175e-13 0.07203252613544464 
vn -0.8487849831581116 0.003771646646782756 0.528724730014801 
vn -0.8487849831581116 0.003771646646782756 0.528724730014801 
vn -0.5194079279899597 0.003768583992496133 0.8545181155204773 
vn -0.5194079279899597 0.003768583992496133 0.8545181155204773 
vn -0.2379804253578186 0.0037572847213596106 0.9712626934051514 
vn -0.2379804253578186 0.0037572847213596106 0.9712626934051514 
vn -0.1523333042860031 -3.150604777069077e-14 0.9883291721343994 
vn -0.1523333042860031 -3.150604777069077e-14 0.9883291721343994 
vn 0.0785679966211319 0 0.9969087839126587 
vn 0.0785679966211319 0 0.9969087839126587 
vn 0.43500816822052 0 0.9004265069961548 
vn 0.43500816822052 0 0.9004265069961548 
vn 0.7351005673408508 0 0.677958071231842 
vn 0.7351005673408508 0 0.677958071231842 
vn -0.8897135257720947 -1.84013327036818e-13 -0.456519216299057 
vn -0.8897135257720947 -1.84013327036818e-13 -0.456519216299057 
vn -0.9717730283737183 0.0037737085949629545 -0.23588760197162628 
vn -0.9717730283737183 0.0037737085949629545 -0.23588760197162628 
vn -0.9717730283737183 0.0037737085949629545 -0.23588760197162628 
vn -0.9717730283737183 0.0037737085949629545 -0.23588760197162628 
vn -0.9974023103713989 -2.0628583476817175e-13 0.07203252613544464 
vn -0.9974023103713989 -2.0628583476817175e-13 0.07203252613544464 
vn -0.1259309947490692 -0.8662306666374207 0.4835140109062195 
vn -0.1259309947490692 -0.8662306666374207 0.4835140109062195 
vn -0.20369479060173035 -0.49791020154953003 0.8429672718048096 
vn -0.20369479060173035 -0.49791020154953003 0.8429672718048096 
vn -0.20369479060173035 0.49791020154953003 0.8429672718048096 
vn -0.20369479060173035 0.49791020154953003 0.8429672718048096 
vn -0.030202379450201988 0.99952232837677 -0.006554040592163801 
vn -0.030202379450201988 0.99952232837677 -0.006554040592163801 
vn 0.1417189985513687 0.4997144639492035 -0.8545181155204773 
vn 0.1417189985513687 0.4997144639492035 -0.8545181155204773 
vn 0.1417189985513687 -0.4997144639492035 -0.8545181155204773 
vn 0.1417189985513687 -0.4997144639492035 -0.8545181155204773 
vn 0.07353735715150833 -0.8658062815666199 -0.4949462115764618 
vn -0.9803028106689453 -2.0231394142443404e-13 -0.1975002884864807 
vn -0.9803028106689453 -2.0231394142443404e-13 -0.1975002884864807 
vn -0.9803028106689453 -2.0231394142443404e-13 -0.1975002884864807 
vn -0.9803028106689453 -2.0231394142443404e-13 -0.1975002884864807 
vn -0.9803028106689453 -2.0231394142443404e-13 -0.1975002884864807 
vn -0.9803028106689453 -2.0231394142443404e-13 -0.1975002884864807 
vn -0.7369323372840881 -0.190616175532341 -0.6485338807106018 
vn -0.7369323372840881 -0.190616175532341 -0.6485338807106018 
vn -0.9615597128868103 -0.19511756300926208 -0.19321508705615997 
vn -0.9615597128868103 -0.19511756300926208 -0.19321508705615997 
vn -0.31364595890045166 -0.19053998589515686 -0.9302261471748352 
vn -0.31364595890045166 -0.19053998589515686 -0.9302261471748352 
vn 0.19352875649929047 -0.19085706770420074 -0.962351381778717 
vn 0.19352875649929047 -0.19085706770420074 -0.962351381778717 
vn 0.647976815700531 -0.19384534657001495 -0.736579954624176 
vn 0.647976815700531 -0.19384534657001495 -0.736579954624176 
vn 0.930049479007721 -0.19485865533351898 -0.31150925159454346 
vn 0.930049479007721 -0.19485865533351898 -0.31150925159454346 
vn 0.9616075158119202 -0.19488193094730377 0.19321508705615997 
vn 0.9616075158119202 -0.19488193094730377 0.19321508705615997 
vn -0.930816113948822 -0.19116328656673431 0.31150925159454346 
vn -0.930816113948822 -0.19116328656673431 0.31150925159454346 
vn -0.6481762528419495 -0.19317732751369476 0.736579954624176 
vn -0.6481762528419495 -0.19317732751369476 0.736579954624176 
vn -0.19153141975402832 -0.1928613930940628 0.962351381778717 
vn -0.19153141975402832 -0.1928613930940628 0.962351381778717 
vn 0.3123668134212494 -0.1926298588514328 0.9302261471748352 
vn 0.3123668134212494 -0.1926298588514328 0.9302261471748352 
vn 0.7360562682151794 -0.19397161900997162 0.6485338807106018 
vn 0.7360562682151794 -0.19397161900997162 0.6485338807106018 
vn 0.9616075158119202 -0.19488193094730377 0.19321508705615997 
vn 0.9616075158119202 -0.19488193094730377 0.19321508705615997 
vn 3.097898456858039e-13 -0.999997615814209 0.002184694167226553 
vn 3.097898456858039e-13 -0.999997615814209 0.002184694167226553 
vn 3.097898456858039e-13 -0.999997615814209 0.002184694167226553 
vn 3.097898456858039e-13 -0.999997615814209 0.002184694167226553 
vn 3.097898456858039e-13 -0.999997615814209 0.002184694167226553 
vn 3.097898456858039e-13 -0.999997615814209 0.002184694167226553 
vn 3.097898456858039e-13 -0.999997615814209 0.002184694167226553 
vn 3.097898456858039e-13 -0.999997615814209 0.002184694167226553 
vn 3.097898456858039e-13 -0.999997615814209 0.002184694167226553 
vn 3.097898456858039e-13 -0.999997615814209 0.002184694167226553 
vn 3.097898456858039e-13 -0.999997615814209 0.002184694167226553 
vn 3.097898456858039e-13 -0.999997615814209 0.002184694167226553 
vn -0.5692778825759888 0.6506887078285217 -0.5025205612182617 
vn -0.2406102418899536 0.6524755954742432 -0.7185974717140198 
vn -0.3553451597690582 0.88130122423172 -0.31150925159454346 
vn -0.15228883922100067 0.880597710609436 -0.4487268626689911 
vn -0.46254557371139526 0.8816192150115967 -0.09380380809307098 
vn 0.15022654831409454 0.8809518814086914 0.4487268626689911 
vn -0.742327868938446 0.652990996837616 -0.15017375349998474 
vn -0.7176848649978638 0.6536553502082825 0.2401314377784729 
vn -0.44564464688301086 0.8825240731239319 0.15017375349998474 
vn -0.31273823976516724 0.8819208741188049 0.3527185618877411 
vn -0.09229057282209396 0.882899820804596 0.46040233969688416 
vn -0.15326322615146637 0.6521197557449341 0.7424622178077698 
vn 0.2433473914861679 0.6514596939086914 0.7185974717140198 
vn 0.5672058463096619 0.6524956822395325 0.5025205612182617 
vn 0.35184213519096375 0.882705569267273 0.31150925159454346 
vn 0.45920124650001526 0.8833657503128052 0.09380380809307098 
vn 0.7448150515556335 0.6501525640487671 0.15017375349998474 
vn 0.4490101933479309 0.8808164596557617 -0.15017375349998474 
vn 0.7176848649978638 0.6536553502082825 -0.2401314377784729 
vn 0.5051350593566895 0.6489975452423096 -0.5688942670822144 
vn 0.31490421295166016 0.8811497688293457 -0.3527185618877411 
vn 0.09429413825273514 0.8826881051063538 -0.46040233969688416 
vn 0.15169398486614227 0.6524865627288818 -0.7424622178077698 
vn -0.5030175447463989 0.6506401896476746 0.5688942670822144 
vn 0.9803028106689453 0 0.1975002884864807 
vn 0.9803028106689453 0 0.1975002884864807 
vn 0.8322274088859558 0 -0.5544344186782837 
vn 0.8322274088859558 0 -0.5544344186782837 
vn 0.19964148104190826 0 -0.97986900806427 
vn 0.19964148104190826 0 -0.97986900806427 
vn -0.5526019930839539 0.0037823037710040808 -0.8334367275238037 
vn -0.5526019930839539 0.0037823037710040808 -0.8334367275238037 
vn -0.9803028106689453 -2.0231394142443404e-13 -0.1975002884864807 
vn -0.9803028106689453 -2.0231394142443404e-13 -0.1975002884864807 
vn -0.8322188854217529 0.0037727425806224346 0.5544344186782837 
vn -0.834633469581604 0.0037728005554527044 0.5507928133010864 
vn -0.19960615038871765 0.003755420446395874 0.97986900806427 
vn -0.19960615038871765 0.003755420446395874 0.97986900806427 
vn 0.5526149272918701 0 0.8334367275238037 
vn 0.5526149272918701 0 0.8334367275238037 
vn 0.9803028106689453 0 0.1975002884864807 
vn 0.9803028106689453 0 0.1975002884864807 
vn -0.9567963480949402 0.2172755002975464 -0.19321508705615997 
vn -0.7316944599151611 0.21985869109630585 -0.6452018022537231 
vn -0.9567963480949402 0.2172755002975464 -0.19321508705615997 
vn -0.7316944599151611 0.21985869109630585 -0.6452018022537231 
vn -0.31112149357795715 0.21669556200504303 -0.9253358840942383 
vn -0.31112149357795715 0.21669556200504303 -0.9253358840942383 
vn 0.19250009953975677 0.22058065235614777 -0.9561840295791626 
vn 0.19250009953975677 0.22058065235614777 -0.9561840295791626 
vn 0.645508885383606 0.22244404256343842 -0.7306414246559143 
vn 0.645508885383606 0.22244404256343842 -0.7306414246559143 
vn 0.9251424074172974 0.21696434915065765 -0.31150925159454346 
vn 0.9251424074172974 0.21696434915065765 -0.31150925159454346 
vn 0.9568557143211365 0.21701398491859436 0.19321508705615997 
vn 0.9568557143211365 0.21701398491859436 0.19321508705615997 
vn 0.7308057546615601 0.22279493510723114 0.6452018022537231 
vn 0.7308057546615601 0.22279493510723114 0.6452018022537231 
vn 0.3097999691963196 0.2185807079076767 0.9253358840942383 
vn 0.3097999691963196 0.2185807079076767 0.9253358840942383 
vn -0.19120480120182037 0.2217043936252594 0.9561840295791626 
vn -0.19120480120182037 0.2217043936252594 0.9561840295791626 
vn -0.6468547582626343 0.21849942207336426 0.7306414246559143 
vn -0.6468547582626343 0.21849942207336426 0.7306414246559143 
vn -0.9242733716964722 0.2206369936466217 0.31150925159454346 
vn -0.9242733716964722 0.2206369936466217 0.31150925159454346 
vn -0.9567963480949402 0.2172755002975464 -0.19321508705615997 
vn -0.9567963480949402 0.2172755002975464 -0.19321508705615997 
vn -1.0341130485562108e-13 0.999997615814209 0.002184694167226553 
vn -1.0341130485562108e-13 0.999997615814209 0.002184694167226553 
vn -1.0341130485562108e-13 0.999997615814209 0.002184694167226553 
vn -1.0341130485562108e-13 0.999997615814209 0.002184694167226553 
vn -1.0341130485562108e-13 0.999997615814209 0.002184694167226553 
vn -1.0341130485562108e-13 0.999997615814209 0.002184694167226553 
vn -1.0341130485562108e-13 0.999997615814209 0.002184694167226553 
vn -1.0341130485562108e-13 0.999997615814209 0.002184694167226553 
vn -1.0341130485562108e-13 0.999997615814209 0.002184694167226553 
vn -1.0341130485562108e-13 0.999997615814209 0.002184694167226553 
vn -1.0341130485562108e-13 0.999997615814209 0.002184694167226553 
vn -1.0341130485562108e-13 0.999997615814209 0.002184694167226553 
vn -1.0341130485562108e-13 0.999997615814209 0.002184694167226553 
vn -1.0341130485562108e-13 0.999997615814209 -0.002184694167226553 
vn -1.0341130485562108e-13 0.999997615814209 -0.002184694167226553 
vn -1.0341130485562108e-13 0.999997615814209 -0.002184694167226553 
vn -0.9728726148605347 0.12046773731708527 -0.1975002884864807 
vn -0.9728726148605347 0.12046773731708527 -0.1975002884864807 
vn -0.9728726148605347 0.12046773731708527 -0.1975002884864807 
vn 0.9728726148605347 0.12046773731708527 0.1975002884864807 
vn 0.9728726148605347 0.12046773731708527 0.1975002884864807 
vn 0.9728726148605347 0.12046773731708527 0.1975002884864807 
vn 0.19454948604106903 0.1217658519744873 -0.9733054637908936 
vn 0.19454948604106903 0.1217658519744873 -0.9733054637908936 
vn 0.19454948604106903 0.1217658519744873 -0.9733054637908936 
vn 0.19454948604106903 0.1217658519744873 -0.9733054637908936 
vn -0.19490332901477814 0.12119867652654648 0.9733054637908936 
vn -0.19990159571170807 0.12118151783943176 0.9722933769226074 
vn -0.19990159571170807 0.12118151783943176 0.9722933769226074 
vn -0.19990159571170807 0.12118151783943176 0.9722933769226074 
vn 0.5995082855224609 0.710222065448761 -0.3690181374549866 
vn 0.3611639440059662 0.9064531922340393 -0.21886809170246124 
vn 0.37081265449523926 0.7227714657783508 -0.5831804275512695 
vn 0.21155515313148499 0.9099096059799194 -0.3568037748336792 
vn 0.17590780556201935 0.7076110243797302 -0.6843559741973877 
vn 0.09989187121391296 0.9190928936004639 -0.3811691105365753 
vn 0.10545063763856888 0.7092804908752441 -0.6969945430755615 
vn 0.6890029311180115 0.722356915473938 -0.058952588587999344 
vn 0.41716712713241577 0.9085120558738708 -0.024029340595006943 
vn 0.6947768330574036 0.7174694538116455 -0.05022686347365379 
vn 0.31896260380744934 0.9474626183509827 -0.024029340595006943 
vn 0.06035603582859039 0.9208551645278931 -0.3852050006389618 
vn -0.049040038138628006 0.9092980027198792 -0.41324591636657715 
vn -0.10351340472698212 0.7247766852378845 -0.681163489818573 
vn -0.24449259042739868 0.9063794612884521 -0.34452807903289795 
vn -0.40777602791786194 0.7113246321678162 -0.5724822878837585 
vn -0.6104060411453247 0.7264739274978638 -0.31565824151039124 
vn -0.3790252208709717 0.9076443314552307 -0.18033768236637115 
vn -0.36671894788742065 0.9260212779045105 -0.08945280313491821 
vn -0.3805603086948395 0.9199862480163574 -0.09380380809307098 
vn -0.6890669465065002 0.7050915956497192 -0.16742929816246033 
vn -0.6890669465065002 0.7050915956497192 -0.16742929816246033 
vn -0.4172069728374481 0.9085988402366638 0.01966099627315998 
vn -0.6865951418876648 0.7253029942512512 0.05022686347365379 
vn -0.36080652475357056 0.9055561423301697 0.22312943637371063 
vn -0.60030597448349 0.7095479965209961 0.3690181374549866 
vn -0.3570222556591034 0.7239695191383362 0.590256929397583 
vn -0.20401765406131744 0.9083973169326782 0.3649536371231079 
vn -0.16997483372688293 0.7059770822525024 0.6875353455543518 
vn -0.09413589537143707 0.9197002649307251 0.3811691105365753 
vn -0.06220610812306404 0.9190362691879272 0.3892335295677185 
vn 0.39115190505981445 0.9159685373306274 -0.08945280313491821 
vn 0.6864993572235107 0.710528552532196 -0.15449213981628418 
vn 0.4035136103630066 0.9149710536003113 -0.002184694167226553 
vn 0.7017316222190857 0.7124112844467163 0.006554040592163801 
vn 0.390994668006897 0.9156003594398499 0.09380380809307098 
vn 0.6864993572235107 0.710528552532196 0.15449213981628418 
vn 0.6361362934112549 0.7095099091529846 0.30319350957870483 
vn 0.3666549026966095 0.913550615310669 0.1760382205247879 
vn 0.3057953715324402 0.9118456244468689 0.27391019463539124 
vn 0.5096173286437988 0.7168406248092651 0.4758462607860565 
vn 0.18554061651229858 0.9073867201805115 0.37712597846984863 
vn 0.31138285994529724 0.7098813652992249 0.6317508816719055 
vn 0.060257673263549805 0.7175894975662231 0.6938546895980835 
vn 0.02262747474014759 0.9121357798576355 0.40926313400268555 
vn -0.10704106092453003 0.7059551477432251 0.7001210451126099 
vn 0.07353735715150833 -0.8658062815666199 -0.4949462115764618 
vn 0.1417189985513687 -0.4997144639492035 -0.8545181155204773 
vn 0.07353735715150833 -0.8658062815666199 -0.4949462115764618 
vn -0.9728726148605347 0.12046773731708527 -0.1975002884864807 
vn -0.9728726148605347 0.12046773731708527 -0.1975002884864807 
vn -0.9728726148605347 0.12046773731708527 -0.1975002884864807 
vn 0.9728726148605347 0.12046773731708527 0.1975002884864807 
vn 0.9728726148605347 0.12046773731708527 0.1975002884864807 
vn 0.9728726148605347 0.12046773731708527 0.1975002884864807 
vt 0.2525176405906677 0.07374009490013123 
vt 0.26204684376716614 0.07374009490013123 
vt 0.2525176405906677 0.07615897804498672 
vt 0.26204684376716614 0.07615897804498672 
vt 0.2525176405906677 0.07825534045696259 
vt 0.26204684376716614 0.07825534045696259 
vt 0.2525176405906677 0.09704196453094482 
vt 0.26204684376716614 0.09704196453094482 
vt 0.2525176405906677 0.11873124539852142 
vt 0.26204684376716614 0.11873124539852142 
vt 0.2525176405906677 0.13751786947250366 
vt 0.26204684376716614 0.13751786947250366 
vt 0.2525176405906677 0.13969486951828003 
vt 0.26204684376716614 0.13969486951828003 
vt 0.2525176405906677 0.14211374521255493 
vt 0.26204684376716614 0.14211374521255493 
vt 0.5266937017440796 0.359087198972702 
vt 0.5266937017440796 0.3686014413833618 
vt 0.49931228160858154 0.359087198972702 
vt 0.49931228160858154 0.3686014413833618 
vt 0.49400487542152405 0.3686014413833618 
vt 0.49400487542152405 0.359087198972702 
vt 0.48917996883392334 0.359087198972702 
vt 0.48917996883392334 0.3686014413833618 
vt 0.48435503244400024 0.359087198972702 
vt 0.48435503244400024 0.3686014413833618 
vt 0.4672265648841858 0.3686014413833618 
vt 0.4672265648841858 0.359087198972702 
vt 0.4224754273891449 0.3686014413833618 
vt 0.4224754273891449 0.359087198972702 
vt 0.5017247796058655 0.320949524641037 
vt 0.5003979206085205 0.3210301697254181 
vt 0.5008804202079773 0.32635170221328735 
vt 0.49955353140830994 0.3260291814804077 
vt 0.49870917201042175 0.31183841824531555 
vt 0.5000360012054443 0.3161924183368683 
vt 0.4999154210090637 0.3113546371459961 
vt 0.5013628602027893 0.31603115797042847 
vt 0.4917130470275879 0.29579320549964905 
vt 0.4903861880302429 0.2961156964302063 
vt 0.4867675006389618 0.2512858211994171 
vt 0.48809435963630676 0.25080204010009766 
vt 0.4858025312423706 0.2495926022529602 
vt 0.4867675006389618 0.2487056851387024 
vt 0.48483753204345703 0.24741561710834503 
vt 0.48435503244400024 0.24862505495548248 
vt 0.4663822054862976 0.2456417679786682 
vt 0.4663822054862976 0.24701246619224548 
vt 0.44479069113731384 0.2463674247264862 
vt 0.44491133093833923 0.24773812294006348 
vt 0.427179753780365 0.25007638335227966 
vt 0.4264560043811798 0.2488669455051422 
vt 0.42573225498199463 0.2510439157485962 
vt 0.42476728558540344 0.2502376437187195 
vt 0.4235610365867615 0.25233399868011475 
vt 0.42488789558410645 0.2528177797794342 
vt 0.42512914538383484 0.3067587614059448 
vt 0.42380228638648987 0.3066781461238861 
vt 0.42404353618621826 0.32401344180107117 
vt 0.4227166771888733 0.32401344180107117 
vt 0.42452603578567505 0.3508630096912384 
vt 0.42331981658935547 0.35134679079055786 
vt 0.42549100518226624 0.35263684391975403 
vt 0.42452603578567505 0.3534431457519531 
vt 0.4263353645801544 0.3547331988811493 
vt 0.4269385039806366 0.35352376103401184 
vt 0.4459969401359558 0.35674893856048584 
vt 0.4459969401359558 0.3554588854312897 
vt 0.4677090644836426 0.3554588854312897 
vt 0.48966243863105774 0.35110488533973694 
vt 0.4907480478286743 0.35191118717193604 
vt 0.48809435963630676 0.35287874937057495 
vt 0.48893871903419495 0.3539269268512726 
vt 0.4865262508392334 0.35513636469841003 
vt 0.4860437512397766 0.3538462817668915 
vt 0.4677090644836426 0.35674893856048584 
vt 0.2580662965774536 0.07124058902263641 
vt 0.248537078499794 0.07124058902263641 
vt 0.2580662965774536 0.06882171332836151 
vt 0.248537078499794 0.06882171332836151 
vt 0.2580662965774536 0.06672535091638565 
vt 0.248537078499794 0.06672535091638565 
vt 0.248537078499794 0.04664865508675575 
vt 0.2580662965774536 0.04664865508675575 
vt 0.2580662965774536 0.024959372356534004 
vt 0.248537078499794 0.024959372356534004 
vt 0.2580662965774536 0.006172745022922754 
vt 0.248537078499794 0.006172745022922754 
vt 0.2580662965774536 0.0036732368171215057 
vt 0.248537078499794 0.0036732368171215057 
vt 0.2580662965774536 0.0010124699911102653 
vt 0.248537078499794 0.0010124699911102653 
vt 0.010547896847128868 0.10131531953811646 
vt 0.0010186800500378013 0.10131531953811646 
vt 0.010547896847128868 0.04616487771272659 
vt 0.0010186800500378013 0.04616487771272659 
vt 0.010547896847128868 0.028829578310251236 
vt 0.0010186800500378013 0.028829578310251236 
vt 0.010547896847128868 0.0010124699911102653 
vt 0.0010186800500378013 0.0010124699911102653 
vt 0.368556946516037 0.6588669419288635 
vt 0.3421405255794525 0.6614470481872559 
vt 0.368315726518631 0.654674232006073 
vt 0.3416580259799957 0.6563674211502075 
vt 0.34141677618026733 0.6512071490287781 
vt 0.3680744767189026 0.6504008769989014 
vt 0.34129616618156433 0.6461275219917297 
vt 0.3679538369178772 0.6461275219917297 
vt 0.3680744767189026 0.6418541669845581 
vt 0.34141677618026733 0.6410478353500366 
vt 0.368315726518631 0.6375808119773865 
vt 0.3416580259799957 0.6358875632286072 
vt 0.3421405255794525 0.6308079361915588 
vt 0.831869900226593 0.19903802871704102 
vt 0.8296986818313599 0.19532908499240875 
vt 0.8296986818313599 0.20266634225845337 
vt 0.825476884841919 0.19532908499240875 
vt 0.8233056664466858 0.19903802871704102 
vt 0.825476884841919 0.20274697244167328 
vt 0.10306573659181595 0.40174010396003723 
vt 0.10366885364055634 0.3957735300064087 
vt 0.1055988222360611 0.40190136432647705 
vt 0.1055988222360611 0.3958541452884674 
vt 0.10173888504505157 0.39545100927352905 
vt 0.100653275847435 0.4014175832271576 
vt 0.09992954134941101 0.3950478732585907 
vt 0.09812019765377045 0.4007725417613983 
vt 0.09812019765377045 0.3943221867084503 
vt 0.0958283543586731 0.3998856246471405 
vt 0.09643147140741348 0.3935159146785736 
vt 0.09353651851415634 0.39883744716644287 
vt 0.09136530756950378 0.3975473642349243 
vt 0.09474275261163712 0.3925483524799347 
vt 0.10813190042972565 0.40174010396003723 
vt 0.10752879083156586 0.3957735300064087 
vt 0.1106649860739708 0.4014175832271576 
vt 0.10945875942707062 0.39545100927352905 
vt 0.11126810312271118 0.3950478732585907 
vt 0.11307744681835175 0.4007725417613983 
vt 0.1154899075627327 0.3999662399291992 
vt 0.11307744681835175 0.3943221867084503 
vt 0.11488679051399231 0.3935159146785736 
vt 0.11766111850738525 0.39883744716644287 
vt 0.11983233690261841 0.3975473642349243 
vt 0.11645489186048508 0.3925483524799347 
vt 0.5397210121154785 0.25443035364151 
vt 0.5387560129165649 0.2527371346950531 
vt 0.5414097309112549 0.2553979158401489 
vt 0.5433396697044373 0.24822190403938293 
vt 0.544907808303833 0.25443035364151 
vt 0.5458727478981018 0.25088268518447876 
vt 0.5458727478981018 0.2527371346950531 
vt 0.5387560129165649 0.25088268518447876 
vt 0.5397210121154785 0.24918945133686066 
vt 0.5414097309112549 0.24822190403938293 
vt 0.5433396697044373 0.2553979158401489 
vt 0.544907808303833 0.24918945133686066 
vt 0.2593931555747986 0.36166733503341675 
vt 0.25661882758140564 0.36166733503341675 
vt 0.2591519057750702 0.3627155125141144 
vt 0.25698068737983704 0.3627155125141144 
vt 0.26096123456954956 0.3638443052768707 
vt 0.2590312659740448 0.37061718106269836 
vt 0.26180559396743774 0.363038033246994 
vt 0.2631324529647827 0.3654569089412689 
vt 0.26204684376716614 0.36569878458976746 
vt 0.26204684376716614 0.3677951693534851 
vt 0.26084062457084656 0.36964961886405945 
vt 0.26156437397003174 0.37037530541419983 
vt 0.2592725157737732 0.371665358543396 
vt 0.25661882758140564 0.371665358543396 
vt 0.25686007738113403 0.37061718106269836 
vt 0.2550507187843323 0.36956900358200073 
vt 0.2543269693851471 0.37037530541419983 
vt 0.2539651095867157 0.3677951693534851 
vt 0.2528795003890991 0.36803704500198364 
vt 0.2528795003890991 0.3653762638568878 
vt 0.2539651095867157 0.36561816930770874 
vt 0.2550507187843323 0.363763689994812 
vt 0.2543269693851471 0.363038033246994 
vt 0.2630118429660797 0.36811766028404236 
vt 0.9684151411056519 0.37489053606987 
vt 0.9684151411056519 0.38085711002349854 
vt 0.9710688591003418 0.37489053606987 
vt 0.9710688591003418 0.38085711002349854 
vt 0.9736019372940063 0.37489053606987 
vt 0.9736019372940063 0.38085711002349854 
vt 0.9761350154876709 0.37489053606987 
vt 0.9761350154876709 0.38085711002349854 
vt 0.9787887334823608 0.37489053606987 
vt 0.9787887334823608 0.38085711002349854 
vt 0.9813218116760254 0.37489053606987 
vt 0.9813218116760254 0.38085711002349854 
vt 0.9838548898696899 0.37489053606987 
vt 0.9838548898696899 0.38085711002349854 
vt 0.9865086078643799 0.37489053606987 
vt 0.9865086078643799 0.38085711002349854 
vt 0.9890416860580444 0.37489053606987 
vt 0.9890416860580444 0.38085711002349854 
vt 0.3772418200969696 0.3411874771118164 
vt 0.37953364849090576 0.3428806960582733 
vt 0.38013675808906555 0.33763980865478516 
vt 0.3820667266845703 0.3390105068683624 
vt 0.3820667266845703 0.3443320393562317 
vt 0.38411733508110046 0.3402199447154999 
vt 0.3864091634750366 0.3411068618297577 
vt 0.38484105467796326 0.34546083211898804 
vt 0.3887009918689728 0.3418325185775757 
vt 0.3876153826713562 0.34626713395118713 
vt 0.39051035046577454 0.3468315303325653 
vt 0.3909928500652313 0.34223565459251404 
vt 0.3934052884578705 0.34239691495895386 
vt 0.3934052884578705 0.3469927906990051 
vt 0.39581775665283203 0.34223565459251404 
vt 0.3964208662509918 0.3468315303325653 
vt 0.3982302248477936 0.3418325185775757 
vt 0.39919519424438477 0.34626713395118713 
vt 0.4020901620388031 0.34546083211898804 
vt 0.40052205324172974 0.3411068618297577 
vt 0.40474385023117065 0.3443320393562317 
vt 0.4026932716369629 0.3402199447154999 
vt 0.40486449003219604 0.3390105068683624 
vt 0.4072769582271576 0.3428806960582733 
vt 0.40968939661979675 0.3411874771118164 
vt 0.4067944586277008 0.33763980865478516 
vt 0.25625693798065186 0.15340185165405273 
vt 0.2542063593864441 0.15219241380691528 
vt 0.2586694061756134 0.15340185165405273 
vt 0.2530001401901245 0.15017667412757874 
vt 0.2530001401901245 0.14775779843330383 
vt 0.26084062457084656 0.14566142857074738 
vt 0.2586694061756134 0.14445199072360992 
vt 0.25637757778167725 0.14445199072360992 
vt 0.2542063593864441 0.14566142857074738 
vt 0.26084062457084656 0.1522730439901352 
vt 0.26204684376716614 0.15017667412757874 
vt 0.26204684376716614 0.14775779843330383 
vt 0.5213863253593445 0.08341561257839203 
vt 0.5213863253593445 0.09115602821111679 
vt 0.5291061997413635 0.08341561257839203 
vt 0.5291061997413635 0.09115602821111679 
vt 0.8468271493911743 0.15565946698188782 
vt 0.8391072750091553 0.15565946698188782 
vt 0.8388660550117493 0.15751394629478455 
vt 0.8027997612953186 0.17226910591125488 
vt 0.8107608556747437 0.17041462659835815 
vt 0.8105196356773376 0.17226910591125488 
vt 0.7619085907936096 0.18976566195487976 
vt 0.7541887164115906 0.18976566195487976 
vt 0.7621498107910156 0.1916201412677765 
vt 0.7539474368095398 0.1916201412677765 
vt 0.36952194571495056 0.2920036017894745 
vt 0.3618020713329315 0.2920036017894745 
vt 0.36976319551467896 0.2938580811023712 
vt 0.3615608215332031 0.2938580811023712 
vt 0.3377980887889862 0.35376566648483276 
vt 0.336953729391098 0.35287874937057495 
vt 0.33598875999450684 0.35505571961402893 
vt 0.33538565039634705 0.3538462817668915 
vt 0.3175334334373474 0.35674893856048584 
vt 0.3175334334373474 0.3554588854312897 
vt 0.29594191908836365 0.35610389709472656 
vt 0.3392455577850342 0.3516692817211151 
vt 0.3379187285900116 0.35110488533973694 
vt 0.3427436351776123 0.3066781461238861 
vt 0.34141677618026733 0.30627501010894775 
vt 0.29606252908706665 0.3547331988811493 
vt 0.2783309519290924 0.3523949682712555 
vt 0.2776072323322296 0.35360440611839294 
vt 0.27688348293304443 0.3514274060726166 
vt 0.27591848373413086 0.3522337079048157 
vt 0.2747122645378113 0.3500567078590393 
vt 0.27603912353515625 0.34965357184410095 
vt 0.27615973353385925 0.29571256041526794 
vt 0.27519476413726807 0.2784578800201416 
vt 0.27483290433883667 0.29579320549964905 
vt 0.2738679051399231 0.2784578800201416 
vt 0.27567726373672485 0.25152769684791565 
vt 0.2743504047393799 0.2510439157485962 
vt 0.27664223313331604 0.24983449280261993 
vt 0.27567726373672485 0.24894756078720093 
vt 0.2773659825325012 0.24765749275684357 
vt 0.277969092130661 0.24894756078720093 
vt 0.2970275282859802 0.2456417679786682 
vt 0.2971481382846832 0.24701246619224548 
vt 0.318739652633667 0.24701246619224548 
vt 0.34986039996147156 0.2906329035758972 
vt 0.35106661915779114 0.2911166846752167 
vt 0.35118725895881653 0.28627893328666687 
vt 0.3525140881538391 0.2863595485687256 
vt 0.3514285087585449 0.28144118189811707 
vt 0.3528759777545929 0.2815217971801758 
vt 0.3520316183567047 0.2761196494102478 
vt 0.35070475935935974 0.27644217014312744 
vt 0.34069305658340454 0.2512858211994171 
vt 0.3418992757797241 0.250479519367218 
vt 0.3392455577850342 0.2495926022529602 
vt 0.33996930718421936 0.24854442477226257 
vt 0.3376774787902832 0.24733498692512512 
vt 0.3371949791908264 0.24862505495548248 
vt 0.3188602924346924 0.2456417679786682 
vt 0.3421405255794525 0.6308079361915588 
vt 0.368315726518631 0.6375808119773865 
vt 0.368556946516037 0.6333880424499512 
vt 0.8468271493911743 0.15565946698188782 
vt 0.8470684289932251 0.15751394629478455 
vt 0.8388660550117493 0.15751394629478455 
vt 0.8027997612953186 0.17226910591125488 
vt 0.8107608556747437 0.17041462659835815 
vt 0.8025585412979126 0.17041462659835815 
s on 
f 1/1/1 2/2/2 3/3/3 
f 2/2/2 4/4/4 3/3/3 
f 3/3/3 4/4/4 5/5/5 
f 4/4/4 6/6/6 5/5/5 
f 5/5/5 6/6/6 7/7/7 
f 6/6/6 8/8/8 7/7/7 
f 7/7/7 8/8/8 9/9/9 
f 8/8/8 10/10/10 9/9/9 
f 9/9/9 10/10/10 11/11/11 
f 10/10/10 12/12/12 11/11/11 
f 11/11/11 12/12/12 13/13/13 
f 12/12/12 14/14/14 13/13/13 
f 13/13/13 14/14/14 15/15/15 
f 14/14/14 16/16/16 15/15/15 
f 15/15/15 16/16/16 16/16/16 
f 16/16/16 17/17/17 16/16/16 
f 16/16/16 17/17/17 17/17/17 
f 17/17/17 18/18/18 17/17/17 
f 17/17/17 18/18/18 19/19/19 
f 18/18/18 20/20/20 19/19/19 
f 19/19/19 20/20/20 19/19/19 
f 20/20/20 21/21/21 19/19/19 
f 19/19/19 21/21/21 22/22/22 
f 21/21/21 21/21/21 22/22/22 
f 22/22/22 21/21/21 23/23/23 
f 21/21/21 24/24/24 23/23/23 
f 23/23/23 24/24/24 25/25/25 
f 24/24/24 26/26/26 25/25/25 
f 25/25/25 26/26/26 25/25/25 
f 26/26/26 27/27/27 25/25/25 
f 25/25/25 27/27/27 28/28/28 
f 27/27/27 29/29/29 28/28/28 
f 28/28/28 29/29/29 30/30/30 
f 29/29/29 30/30/30 30/30/30 
f 30/30/30 30/30/30 31/31/31 
f 30/30/30 31/31/31 31/31/31 
f 31/31/31 31/31/31 32/32/32 
f 31/31/31 33/33/33 32/32/32 
f 32/32/32 33/33/33 32/32/32 
f 33/33/33 34/34/34 32/32/32 
f 32/32/32 34/34/34 32/32/32 
f 34/34/34 35/35/35 32/32/32 
f 32/32/32 35/35/35 36/36/36 
f 35/35/35 37/37/37 36/36/36 
f 36/36/36 37/37/37 36/36/36 
f 37/37/37 38/38/38 36/36/36 
f 36/36/36 38/38/38 32/32/32 
f 38/38/38 31/31/31 32/32/32 
f 32/32/32 31/31/31 31/31/31 
f 31/31/31 37/37/37 31/31/31 
f 31/31/31 37/37/37 37/37/37 
f 37/37/37 35/35/35 37/37/37 
f 37/37/37 35/35/35 39/39/39 
f 35/35/35 40/40/40 39/39/39 
f 39/39/39 40/40/40 39/39/39 
f 40/40/40 41/41/41 39/39/39 
f 39/39/39 41/41/41 42/42/42 
f 41/41/41 43/43/43 42/42/42 
f 42/42/42 43/43/43 44/44/44 
f 43/43/43 43/43/43 44/44/44 
f 44/44/44 43/43/43 45/45/45 
f 43/43/43 46/46/46 45/45/45 
f 45/45/45 46/46/46 47/47/47 
f 46/46/46 48/48/48 47/47/47 
f 47/47/47 48/48/48 49/49/49 
f 48/48/48 50/50/50 49/49/49 
f 49/49/49 50/50/50 49/49/49 
f 50/50/50 51/51/51 49/49/49 
f 49/49/49 51/51/51 52/52/52 
f 51/51/51 53/53/53 52/52/52 
f 52/52/52 53/53/53 54/54/54 
f 53/53/53 53/53/53 54/54/54 
f 54/54/54 53/53/53 55/55/55 
f 53/53/53 53/53/53 55/55/55 
f 55/55/55 53/53/53 56/56/56 
f 53/53/53 51/51/51 56/56/56 
f 56/56/56 51/51/51 56/56/56 
f 51/51/51 50/50/50 56/56/56 
f 56/56/56 50/50/50 57/57/57 
f 50/50/50 50/50/50 57/57/57 
f 57/57/57 50/50/50 40/40/40 
f 50/50/50 48/48/48 40/40/40 
f 40/40/40 48/48/48 41/41/41 
f 48/48/48 46/46/46 41/41/41 
f 41/41/41 46/46/46 43/43/43 
f 46/46/46 43/43/43 43/43/43 
f 43/43/43 43/43/43 55/55/55 
f 43/43/43 55/55/55 55/55/55 
f 55/55/55 55/55/55 58/58/58 
f 55/55/55 56/56/56 58/58/58 
f 58/58/58 56/56/56 58/58/58 
f 56/56/56 57/57/57 58/58/58 
f 58/58/58 57/57/57 59/59/59 
f 57/57/57 40/40/40 59/59/59 
f 59/59/59 40/40/40 40/40/40 
f 40/40/40 58/58/58 40/40/40 
f 40/40/40 58/58/58 58/58/58 
f 58/58/58 59/59/59 58/58/58 
f 58/58/58 59/59/59 60/60/60 
f 59/59/59 61/61/61 60/60/60 
f 60/60/60 61/61/61 62/62/62 
f 61/61/61 63/63/63 62/62/62 
f 62/62/62 63/63/63 64/64/64 
f 63/63/63 63/63/63 64/64/64 
f 64/64/64 63/63/63 65/65/65 
f 63/63/63 66/66/66 65/65/65 
f 65/65/65 66/66/66 67/67/67 
f 66/66/66 68/68/68 67/67/67 
f 67/67/67 68/68/68 69/69/69 
f 68/68/68 59/59/59 69/69/69 
f 69/69/69 59/59/59 69/69/69 
f 59/59/59 40/40/40 69/69/69 
f 69/69/69 40/40/40 69/69/69 
f 40/40/40 35/35/35 69/69/69 
f 69/69/69 35/35/35 69/69/69 
f 35/35/35 34/34/34 69/69/69 
f 69/69/69 34/34/34 70/70/70 
f 34/34/34 33/33/33 70/70/70 
f 70/70/70 33/33/33 70/70/70 
f 33/33/33 71/71/71 70/70/70 
f 70/70/70 71/71/71 72/72/72 
f 71/71/71 73/73/73 72/72/72 
f 72/72/72 73/73/73 72/72/72 
f 73/73/73 74/74/74 72/72/72 
f 72/72/72 74/74/74 75/75/75 
f 74/74/74 76/76/76 75/75/75 
f 75/75/75 76/76/76 69/69/69 
f 76/76/76 67/67/67 69/69/69 
f 69/69/69 67/67/67 67/67/67 
f 67/67/67 63/63/63 67/67/67 
f 67/67/67 63/63/63 63/63/63 
f 63/63/63 61/61/61 63/63/63 
f 63/63/63 61/61/61 66/66/66 
f 61/61/61 61/61/61 66/66/66 
f 66/66/66 61/61/61 68/68/68 
f 61/61/61 59/59/59 68/68/68 
f 68/68/68 59/59/59 59/59/59 
f 59/59/59 72/72/72 59/59/59 
f 59/59/59 72/72/72 72/72/72 
f 72/72/72 75/75/75 72/72/72 
f 72/72/72 75/75/75 70/70/70 
f 75/75/75 69/69/69 70/70/70 
f 70/70/70 69/69/69 69/69/69 
f 69/69/69 77/77/77 69/69/69 
f 69/69/69 77/77/77 77/77/77 
f 77/77/77 78/78/78 77/77/77 
f 77/77/77 78/78/78 79/79/79 
f 78/78/78 80/80/80 79/79/79 
f 79/79/79 80/80/80 81/81/81 
f 80/80/80 82/82/82 81/81/81 
f 81/81/81 82/82/82 81/81/81 
f 82/82/82 83/83/83 81/81/81 
f 81/81/81 83/83/83 84/84/84 
f 83/83/83 83/83/83 84/84/84 
f 84/84/84 83/83/83 85/85/85 
f 83/83/83 86/86/86 85/85/85 
f 85/85/85 86/86/86 87/87/87 
f 86/86/86 88/88/88 87/87/87 
f 87/87/87 88/88/88 89/89/89 
f 88/88/88 90/90/90 89/89/89 
f 89/89/89 90/90/90 91/91/91 
f 90/90/90 92/92/92 91/91/91 
f 91/91/91 92/92/92 92/92/92 
f 92/92/92 93/93/93 92/92/92 
f 92/92/92 93/93/93 93/93/93 
f 93/93/93 94/94/94 93/93/93 
f 93/93/93 94/94/94 95/95/95 
f 94/94/94 96/96/96 95/95/95 
f 95/95/95 96/96/96 97/97/97 
f 96/96/96 98/98/98 97/97/97 
f 97/97/97 98/98/98 99/99/99 
f 98/98/98 100/100/100 99/99/99 
f 99/99/99 100/100/100 100/100/100 
f 100/100/100 101/101/101 100/100/100 
f 100/100/100 101/101/101 101/101/101 
f 101/101/101 102/102/102 101/101/101 
f 101/101/101 102/102/102 103/103/103 
f 102/102/102 104/104/104 103/103/103 
f 103/103/103 104/104/104 103/103/103 
f 104/104/104 105/105/105 103/103/103 
f 103/103/103 105/105/105 106/106/106 
f 105/105/105 107/107/107 106/106/106 
f 106/106/106 107/107/107 108/108/108 
f 107/107/107 107/107/107 108/108/108 
f 108/108/108 107/107/107 109/109/109 
f 107/107/107 110/110/110 109/109/109 
f 109/109/109 110/110/110 111/111/111 
f 110/110/110 112/112/112 111/111/111 
f 111/111/111 112/112/112 113/113/113 
f 112/112/112 113/113/113 113/113/113 
f 113/113/113 113/113/113 114/114/114 
f 113/113/113 114/114/114 114/114/114 
f 114/114/114 114/114/114 115/115/115 
f 114/114/114 116/116/116 115/115/115 
f 115/115/115 116/116/116 117/117/117 
f 116/116/116 116/116/116 117/117/117 
f 117/117/117 116/116/116 118/118/118 
f 116/116/116 119/119/119 118/118/118 
f 118/118/118 119/119/119 119/119/119 
f 119/119/119 120/120/120 119/119/119 
f 119/119/119 120/120/120 120/120/120 
f 120/120/120 121/121/121 120/120/120 
f 120/120/120 121/121/121 122/122/122 
f 121/121/121 123/123/123 122/122/122 
f 122/122/122 123/123/123 123/123/123 
f 123/123/123 121/121/121 123/123/123 
f 123/123/123 121/121/121 121/121/121 
f 121/121/121 120/120/120 121/121/121 
f 121/121/121 120/120/120 124/124/124 
f 120/120/120 125/125/125 124/124/124 
f 124/124/124 125/125/125 126/126/126 
f 125/125/125 127/127/127 126/126/126 
f 126/126/126 127/127/127 128/128/128 
f 127/127/127 129/129/129 128/128/128 
f 128/128/128 129/129/129 130/130/130 
f 129/129/129 131/131/131 130/130/130 
f 130/130/130 131/131/131 130/130/130 
f 131/131/131 132/132/132 130/130/130 
f 130/130/130 132/132/132 133/133/133 
f 132/132/132 133/133/133 133/133/133 
f 133/133/133 133/133/133 122/122/122 
f 133/133/133 122/122/122 122/122/122 
f 122/122/122 122/122/122 134/134/134 
f 122/122/122 123/123/123 134/134/134 
f 134/134/134 123/123/123 134/134/134 
f 123/123/123 135/135/135 134/134/134 
f 134/134/134 135/135/135 136/136/136 
f 135/135/135 137/137/137 136/136/136 
f 136/136/136 137/137/137 136/136/136 
f 137/137/137 138/138/138 136/136/136 
f 136/136/136 138/138/138 139/139/139 
f 138/138/138 138/138/138 139/139/139 
f 139/139/139 138/138/138 140/140/140 
f 138/138/138 141/141/141 140/140/140 
f 140/140/140 141/141/141 140/140/140 
f 141/141/141 142/142/142 140/140/140 
f 140/140/140 142/142/142 143/143/143 
f 142/142/142 142/142/142 143/143/143 
f 143/143/143 142/142/142 144/144/144 
f 142/142/142 145/145/145 144/144/144 
f 144/144/144 145/145/145 145/145/145 
f 145/145/145 146/146/146 145/145/145 
f 145/145/145 146/146/146 146/146/146 
f 146/146/146 147/147/147 146/146/146 
f 146/146/146 147/147/147 148/148/148 
f 147/147/147 149/149/149 148/148/148 
f 148/148/148 149/149/149 150/150/150 
f 149/149/149 151/151/151 150/150/150 
f 150/150/150 151/151/151 152/152/152 
f 151/151/151 152/152/152 152/152/152 
f 152/152/152 152/152/152 153/153/153 
f 152/152/152 153/153/153 153/153/153 
f 153/153/153 153/153/153 147/147/147 
f 153/153/153 154/154/154 147/147/147 
f 147/147/147 154/154/154 147/147/147 
f 154/154/154 155/155/155 147/147/147 
f 147/147/147 155/155/155 149/149/149 
f 155/155/155 149/149/149 149/149/149 
f 149/149/149 149/149/149 150/150/150 
f 149/149/149 150/150/150 150/150/150 
f 150/150/150 150/150/150 148/148/148 
f 150/150/150 156/156/156 148/148/148 
f 148/148/148 156/156/156 156/156/156 
f 156/156/156 149/149/149 156/156/156 
f 156/156/156 149/149/149 149/149/149 
f 149/149/149 157/157/157 149/149/149 
f 149/149/149 157/157/157 151/151/151 
f 157/157/157 151/151/151 151/151/151 
f 151/151/151 151/151/151 158/158/158 
f 151/151/151 158/158/158 158/158/158 
f 158/158/158 158/158/158 159/159/159 
f 158/158/158 160/160/160 159/159/159 
f 159/159/159 160/160/160 161/161/161 
f 160/160/160 162/162/162 161/161/161 
f 161/161/161 162/162/162 163/163/163 
f 162/162/162 163/163/163 163/163/163 
f 163/163/163 163/163/163 158/158/158 
f 163/163/163 158/158/158 158/158/158 
f 158/158/158 158/158/158 160/160/160 
f 158/158/158 164/164/164 160/160/160 
f 160/160/160 164/164/164 162/162/162 
f 164/164/164 165/165/165 162/162/162 
f 162/162/162 165/165/165 166/166/166 
f 165/165/165 167/167/167 166/166/166 
f 166/166/166 167/167/167 162/162/162 
f 167/167/167 168/168/168 162/162/162 
f 162/162/162 168/168/168 163/163/163 
f 168/168/168 169/169/169 163/163/163 
f 163/163/163 169/169/169 163/163/163 
f 169/169/169 170/170/170 163/163/163 
f 163/163/163 170/170/170 163/163/163 
f 170/170/170 171/171/171 163/163/163 
f 163/163/163 171/171/171 172/172/172 
f 171/171/171 171/171/171 172/172/172 
f 172/172/172 171/171/171 173/173/173 
f 171/171/171 174/174/174 173/173/173 
f 173/173/173 174/174/174 175/175/175 
f 174/174/174 176/176/176 175/175/175 
f 175/175/175 176/176/176 175/175/175 
f 176/176/176 177/177/177 175/175/175 
f 175/175/175 177/177/177 175/175/175 
f 177/177/177 178/178/178 175/175/175 
f 175/175/175 178/178/178 173/173/173 
f 178/178/178 178/178/178 173/173/173 
f 173/173/173 178/178/178 172/172/172 
f 178/178/178 178/178/178 172/172/172 
f 172/172/172 178/178/178 163/163/163 
f 178/178/178 178/178/178 163/163/163 
f 163/163/163 178/178/178 161/161/161 
f 178/178/178 179/179/179 161/161/161 
f 161/161/161 179/179/179 180/180/180 
f 179/179/179 178/178/178 180/180/180 
f 180/180/180 178/178/178 177/177/177 
f 178/178/178 177/177/177 177/177/177 
f 177/177/177 177/177/177 165/165/165 
f 177/177/177 165/165/165 165/165/165 
f 165/165/165 165/165/165 167/167/167 
f 165/165/165 181/181/181 167/167/167 
f 167/167/167 181/181/181 168/168/168 
f 181/181/181 169/169/169 168/168/168 
f 168/168/168 169/169/169 169/169/169 
f 169/169/169 161/161/161 169/169/169 
f 169/169/169 161/161/161 161/161/161 
f 161/161/161 180/180/180 161/161/161 
f 161/161/161 180/180/180 159/159/159 
f 180/180/180 159/159/159 159/159/159 
f 159/159/159 159/159/159 182/182/182 
f 159/159/159 182/182/182 182/182/182 
f 182/182/182 182/182/182 183/183/183 
f 182/182/182 184/184/184 183/183/183 
f 183/183/183 184/184/184 185/185/185 
f 184/184/184 186/186/186 185/185/185 
f 185/185/185 186/186/186 187/187/187 
f 186/186/186 188/188/188 187/187/187 
f 187/187/187 188/188/188 189/189/189 
f 188/188/188 190/190/190 189/189/189 
f 189/189/189 190/190/190 191/191/191 
f 190/190/190 192/192/192 191/191/191 
f 191/191/191 192/192/192 193/193/193 
f 192/192/192 194/194/194 193/193/193 
f 193/193/193 194/194/194 195/195/195 
f 194/194/194 196/196/196 195/195/195 
f 195/195/195 196/196/196 197/197/197 
f 196/196/196 198/198/198 197/197/197 
f 197/197/197 198/198/198 199/199/199 
f 198/198/198 199/199/199 199/199/199 
f 199/199/199 199/199/199 200/200/200 
f 199/199/199 200/200/200 200/200/200 
f 200/200/200 200/200/200 201/201/201 
f 200/200/200 202/202/202 201/201/201 
f 201/201/201 202/202/202 201/201/201 
f 202/202/202 203/203/203 201/201/201 
f 201/201/201 203/203/203 204/204/204 
f 203/203/203 205/205/205 204/204/204 
f 204/204/204 205/205/205 204/204/204 
f 205/205/205 206/206/206 204/204/204 
f 204/204/204 206/206/206 207/207/207 
f 206/206/206 208/208/208 207/207/207 
f 207/207/207 208/208/208 209/209/209 
f 208/208/208 208/208/208 209/209/209 
f 209/209/209 208/208/208 210/210/210 
f 208/208/208 211/211/211 210/210/210 
f 210/210/210 211/211/211 210/210/210 
f 211/211/211 212/212/212 210/210/210 
f 210/210/210 212/212/212 213/213/213 
f 212/212/212 214/214/214 213/213/213 
f 213/213/213 214/214/214 215/215/215 
f 214/214/214 216/216/216 215/215/215 
f 215/215/215 216/216/216 217/217/217 
f 216/216/216 216/216/216 217/217/217 
f 217/217/217 216/216/216 218/218/218 
f 216/216/216 219/219/219 218/218/218 
f 218/218/218 219/219/219 220/220/220 
f 219/219/219 221/221/221 220/220/220 
f 220/220/220 221/221/221 220/220/220 
f 221/221/221 222/222/222 220/220/220 
f 220/220/220 222/222/222 223/223/223 
f 222/222/222 222/222/222 223/223/223 
f 223/223/223 222/222/222 224/224/224 
f 222/222/222 225/225/225 224/224/224 
f 224/224/224 225/225/225 225/225/225 
f 225/225/225 226/226/226 225/225/225 
f 225/225/225 226/226/226 226/226/226 
f 226/226/226 227/227/227 226/226/226 
f 226/226/226 227/227/227 228/228/228 
f 227/227/227 229/229/229 228/228/228 
f 228/228/228 229/229/229 228/228/228 
f 229/229/229 230/230/230 228/228/228 
f 228/228/228 230/230/230 231/231/231 
f 230/230/230 230/230/230 231/231/231 
f 231/231/231 230/230/230 232/232/232 
f 230/230/230 230/230/230 232/232/232 
f 232/232/232 230/230/230 233/233/233 
f 230/230/230 234/234/234 233/233/233 
f 233/233/233 234/234/234 234/234/234 
f 234/234/234 235/235/235 234/234/234 
f 234/234/234 235/235/235 235/235/235 
f 235/235/235 228/228/228 235/235/235 
f 235/235/235 228/228/228 236/236/236 
f 228/228/228 231/231/231 236/236/236 
f 236/236/236 231/231/231 237/237/237 
f 231/231/231 237/237/237 237/237/237 
f 237/237/237 237/237/237 238/238/238 
f 237/237/237 238/238/238 238/238/238 
f 238/238/238 238/238/238 239/239/239 
f 238/238/238 240/240/240 239/239/239 
f 239/239/239 240/240/240 241/241/241 
f 240/240/240 241/241/241 241/241/241 
f 241/241/241 241/241/241 242/242/242 
f 241/241/241 242/242/242 242/242/242 
f 242/242/242 242/242/242 243/243/243 
f 242/242/242 244/244/244 243/243/243 
f 243/243/243 244/244/244 244/244/244 
f 244/244/244 245/245/245 244/244/244 
f 244/244/244 245/245/245 245/245/245 
f 245/245/245 246/246/246 245/245/245 
f 245/245/245 246/246/246 247/247/247 
f 246/246/246 247/247/247 247/247/247 
f 247/247/247 247/247/247 248/248/248 
f 247/247/247 248/248/248 248/248/248 
f 248/248/248 248/248/248 249/249/249 
f 248/248/248 250/250/250 249/249/249 
f 249/249/249 250/250/250 251/251/251 
f 250/250/250 251/251/251 251/251/251 
f 251/251/251 251/251/251 252/252/252 
f 251/251/251 252/252/252 252/252/252 
f 252/252/252 252/252/252 253/253/253 
f 252/252/252 254/254/254 253/253/253 
f 253/253/253 254/254/254 255/255/255 
f 254/254/254 255/255/255 255/255/255 
f 255/255/255 255/255/255 256/256/256 
f 255/255/255 256/256/256 256/256/256 
f 256/256/256 256/256/256 257/257/257 
f 256/256/256 258/258/258 257/257/257 
f 257/257/257 258/258/258 259/259/259 
f 258/258/258 260/260/260 259/259/259 
f 259/259/259 260/260/260 261/261/261 
f 260/260/260 262/262/262 261/261/261 
f 261/261/261 262/262/262 262/262/262 
f 262/262/262 256/256/256 262/262/262 
f 262/262/262 256/256/256 256/256/256 
f 256/256/256 257/257/257 256/256/256 
f 256/256/256 257/257/257 263/263/263 
f 257/257/257 264/264/264 263/263/263 
f 263/263/263 264/264/264 265/265/265 
f 264/264/264 264/264/264 265/265/265 
f 265/265/265 264/264/264 266/266/266 
f 264/264/264 261/261/261 266/266/266 
f 266/266/266 261/261/261 267/267/267 
f 261/261/261 262/262/262 267/267/267 
f 267/267/267 262/262/262 268/268/268 
f 262/262/262 269/269/269 268/268/268 
f 268/268/268 269/269/269 270/270/270 
f 269/269/269 271/271/271 270/270/270 
f 270/270/270 271/271/271 270/270/270 
f 271/271/271 272/272/272 270/270/270 
f 270/270/270 272/272/272 270/270/270 
f 272/272/272 273/273/273 270/270/270 
f 270/270/270 273/273/273 268/268/268 
f 273/273/273 273/273/273 268/268/268 
f 268/268/268 273/273/273 267/267/267 
f 273/273/273 274/274/274 267/267/267 
f 267/267/267 274/274/274 266/266/266 
f 274/274/274 274/274/274 266/266/266 
f 266/266/266 274/274/274 275/275/275 
f 274/274/274 276/276/276 275/275/275 
f 275/275/275 276/276/276 275/275/275 
f 276/276/276 277/277/277 275/275/275 
f 275/275/275 277/277/277 278/278/278 
f 277/277/277 279/279/279 278/278/278 
f 278/278/278 279/279/279 280/280/280 
f 279/279/279 281/281/281 280/280/280 
f 280/280/280 281/281/281 280/280/280 
f 281/281/281 282/282/282 280/280/280 
f 280/280/280 282/282/282 283/283/283 
f 282/282/282 284/284/284 283/283/283 
f 283/283/283 284/284/284 283/283/283 
f 284/284/284 285/285/285 283/283/283 
f 283/283/283 285/285/285 278/278/278 
f 285/285/285 285/285/285 278/278/278 
f 278/278/278 285/285/285 275/275/275 
f 285/285/285 286/286/286 275/275/275 
f 275/275/275 286/286/286 266/266/266 
f 286/286/286 287/287/287 266/266/266 
f 266/266/266 287/287/287 265/265/265 
f 287/287/287 287/287/287 265/265/265 
f 265/265/265 287/287/287 288/288/288 
f 287/287/287 289/289/289 288/288/288 
f 288/288/288 289/289/289 290/290/290 
f 289/289/289 289/289/289 290/290/290 
f 290/290/290 289/289/289 291/291/291 
f 289/289/289 287/287/287 291/291/291 
f 291/291/291 287/287/287 287/287/287 
f 287/287/287 257/257/257 287/287/287 
f 287/287/287 257/257/257 257/257/257 
f 257/257/257 259/259/259 257/257/257 
f 257/257/257 259/259/259 264/264/264 
f 259/259/259 261/261/261 264/264/264 
f 264/264/264 261/261/261 261/261/261 
f 261/261/261 274/274/274 261/261/261 
f 261/261/261 274/274/274 274/274/274 
f 274/274/274 273/273/273 274/274/274 
f 274/274/274 273/273/273 276/276/276 
f 273/273/273 272/272/272 276/276/276 
f 276/276/276 272/272/272 272/272/272 
f 272/272/272 278/278/278 272/272/272 
f 272/272/272 278/278/278 278/278/278 
f 278/278/278 280/280/280 278/278/278 
f 278/278/278 280/280/280 283/283/283 
f 280/280/280 283/283/283 283/283/283 
f 283/283/283 283/283/283 284/284/284 
f 283/283/283 284/284/284 284/284/284 
f 284/284/284 284/284/284 285/285/285 
f 284/284/284 286/286/286 285/285/285 
f 285/285/285 286/286/286 286/286/286 
f 286/286/286 290/290/290 286/286/286 
f 286/286/286 290/290/290 290/290/290 
f 290/290/290 291/291/291 290/290/290 
f 290/290/290 291/291/291 292/292/292 
f 291/291/291 291/291/291 292/292/292 
f 292/292/292 291/291/291 293/293/293 
f 291/291/291 294/294/294 293/293/293 
f 293/293/293 294/294/294 295/295/295 
f 294/294/294 294/294/294 295/295/295 
f 295/295/295 294/294/294 286/286/286 
f 294/294/294 294/294/294 286/286/286 
f 286/286/286 294/294/294 287/287/287 
f 294/294/294 291/291/291 287/287/287 
f 287/287/287 291/291/291 291/291/291 
f 291/291/291 293/293/293 291/291/291 
f 291/291/291 293/293/293 293/293/293 
f 293/293/293 295/295/295 293/293/293 
f 293/293/293 295/295/295 296/296/296 
f 295/295/295 297/297/297 296/296/296 
f 296/296/296 297/297/297 298/298/298 
f 297/297/297 297/297/297 298/298/298 
f 298/298/298 297/297/297 299/299/299 
f 297/297/297 300/300/300 299/299/299 
f 299/299/299 300/300/300 301/301/301 
f 300/300/300 286/286/286 301/301/301 
f 301/301/301 286/286/286 284/284/284 
f 286/286/286 284/284/284 284/284/284 
f 284/284/284 284/284/284 297/297/297 
f 284/284/284 297/297/297 297/297/297 
f 297/297/297 297/297/297 300/300/300 
f 297/297/297 295/295/295 300/300/300 
f 300/300/300 295/295/295 286/286/286 
f 295/295/295 286/286/286 286/286/286 
f 286/286/286 286/286/286 302/302/302 
f 286/286/286 302/302/302 302/302/302 
f 302/302/302 302/302/302 303/303/303 
f 302/302/302 304/304/304 303/303/303 
f 303/303/303 304/304/304 304/304/304 
f 304/304/304 305/305/305 304/304/304 
f 304/304/304 305/305/305 305/305/305 
f 305/305/305 306/306/306 305/305/305 
f 305/305/305 306/306/306 307/307/307 
f 306/306/306 307/307/307 307/307/307 
f 307/307/307 307/307/307 308/308/308 
f 307/307/307 308/308/308 308/308/308 
f 308/308/308 308/308/308 309/309/309 
f 308/308/308 310/310/310 309/309/309 

